<svg width="394" height="365" viewBox="0 0 394 365" fill="none" xmlns="http://www.w3.org/2000/svg">
<g clip-path="url(#clip0_329_4355)">
<circle cx="71" cy="38" r="14" fill="white" stroke="#2C2336" stroke-width="6"/>
<rect x="64" y="3" width="14" height="38" rx="7" fill="white" stroke="#2C2336" stroke-width="6"/>
<circle cx="137.25" cy="38" r="14" fill="white" stroke="#2C2336" stroke-width="6"/>
<rect x="130.25" y="3" width="14" height="38" rx="7" fill="white" stroke="#2C2336" stroke-width="6"/>
<circle cx="203.5" cy="38" r="14" fill="white" stroke="#2C2336" stroke-width="6"/>
<rect x="196.5" y="3" width="14" height="38" rx="7" fill="white" stroke="#2C2336" stroke-width="6"/>
<circle cx="269.75" cy="38" r="14" fill="white" stroke="#2C2336" stroke-width="6"/>
<rect x="262.75" y="3" width="14" height="38" rx="7" fill="white" stroke="#2C2336" stroke-width="6"/>
<circle cx="336" cy="38" r="14" fill="white" stroke="#2C2336" stroke-width="6"/>
<rect x="329" y="3" width="14" height="38" rx="7" fill="white" stroke="#2C2336" stroke-width="6"/>
<mask id="mask0_329_4355" style="mask-type:alpha" maskUnits="userSpaceOnUse" x="0" y="15" width="394" height="350">
<path d="M35.251 18H374.866C383.553 18 390.468 25.2791 390.022 33.9553L373.905 347.602C373.491 355.671 366.828 362 358.749 362H19.1344C10.4468 362 3.53214 354.721 3.97796 346.045L20.0945 32.3976C20.5091 24.3292 27.172 18 35.251 18Z" fill="#D9D9D9" stroke="#2C2336" stroke-width="6"/>
</mask>
<g mask="url(#mask0_329_4355)">
<rect x="-69" y="-22" width="531" height="468" fill="url(#paint0_linear_329_4355)"/>
<path d="M42.5571 333H335.48C339.303 333 342.455 330.005 342.651 326.187L355.692 71.5472C355.902 67.443 352.631 64 348.521 64H55.5979C51.7752 64 48.6228 66.9951 48.4273 70.8128L35.3865 325.453C35.1763 329.557 38.4475 333 42.5571 333Z" fill="#FCFCFC"/>
<path d="M364.875 72.875C364.875 66.0391 359.211 60.375 352.375 60.375C348.566 60.375 345.246 62.1328 343 64.7695C340.656 62.1328 337.336 60.375 333.625 60.375C326.691 60.375 321.125 66.0391 321.125 72.875C321.125 76.6836 322.785 80.0039 325.422 82.25C322.785 84.5938 321.125 87.9141 321.125 91.625C321.125 98.5586 326.691 104.125 333.625 104.125C337.336 104.125 340.656 102.465 343 99.8281C345.246 102.465 348.566 104.125 352.375 104.125C359.211 104.125 364.875 98.5586 364.875 91.625C364.875 87.9141 363.117 84.5938 360.48 82.25C363.117 80.0039 364.875 76.6836 364.875 72.875ZM343 90.0625C338.605 90.0625 335.188 86.6445 335.188 82.25C335.188 77.9531 338.605 74.4375 343 74.4375C347.297 74.4375 350.812 77.9531 350.812 82.25C350.812 86.6445 347.297 90.0625 343 90.0625Z" fill="#A6D641"/>
<path d="M312.625 65.625C312.625 62.6172 310.133 60.125 307.125 60.125C305.449 60.125 303.988 60.8984 303 62.0586C301.969 60.8984 300.508 60.125 298.875 60.125C295.824 60.125 293.375 62.6172 293.375 65.625C293.375 67.3008 294.105 68.7617 295.266 69.75C294.105 70.7812 293.375 72.2422 293.375 73.875C293.375 76.9258 295.824 79.375 298.875 79.375C300.508 79.375 301.969 78.6445 303 77.4844C303.988 78.6445 305.449 79.375 307.125 79.375C310.133 79.375 312.625 76.9258 312.625 73.875C312.625 72.2422 311.852 70.7812 310.691 69.75C311.852 68.7617 312.625 67.3008 312.625 65.625ZM303 73.1875C301.066 73.1875 299.562 71.6836 299.562 69.75C299.562 67.8594 301.066 66.3125 303 66.3125C304.891 66.3125 306.438 67.8594 306.438 69.75C306.438 71.6836 304.891 73.1875 303 73.1875Z" fill="#A6D641"/>
<path d="M361.5 120.5C361.5 117.219 358.781 114.5 355.5 114.5C353.672 114.5 352.078 115.344 351 116.609C349.875 115.344 348.281 114.5 346.5 114.5C343.172 114.5 340.5 117.219 340.5 120.5C340.5 122.328 341.297 123.922 342.562 125C341.297 126.125 340.5 127.719 340.5 129.5C340.5 132.828 343.172 135.5 346.5 135.5C348.281 135.5 349.875 134.703 351 133.438C352.078 134.703 353.672 135.5 355.5 135.5C358.781 135.5 361.5 132.828 361.5 129.5C361.5 127.719 360.656 126.125 359.391 125C360.656 123.922 361.5 122.328 361.5 120.5ZM351 128.75C348.891 128.75 347.25 127.109 347.25 125C347.25 122.938 348.891 121.25 351 121.25C353.062 121.25 354.75 122.938 354.75 125C354.75 127.109 353.062 128.75 351 128.75Z" fill="#A6D641"/>
</g>
<path d="M35.251 18H374.866C383.553 18 390.468 25.2791 390.022 33.9553L373.905 347.602C373.491 355.671 366.828 362 358.749 362H19.1344C10.4468 362 3.53214 354.721 3.97796 346.045L20.0945 32.3976C20.5091 24.3292 27.172 18 35.251 18Z" stroke="#2C2336" stroke-width="6"/>
<circle cx="71" cy="38" r="12.5" fill="white" stroke="#2C2336" stroke-width="3"/>
<rect x="65.5" y="4.5" width="11" height="35" rx="5.5" fill="#EEEEF2" stroke="#2C2336" stroke-width="3"/>
<circle cx="137.25" cy="38" r="12.5" fill="white" stroke="#2C2336" stroke-width="3"/>
<rect x="131.75" y="4.5" width="11" height="35" rx="5.5" fill="#EEEEF2" stroke="#2C2336" stroke-width="3"/>
<circle cx="203.5" cy="38" r="12.5" fill="white" stroke="#2C2336" stroke-width="3"/>
<rect x="198" y="4.5" width="11" height="35" rx="5.5" fill="#EEEEF2" stroke="#2C2336" stroke-width="3"/>
<circle cx="269.75" cy="38" r="12.5" fill="white" stroke="#2C2336" stroke-width="3"/>
<rect x="264.25" y="4.5" width="11" height="35" rx="5.5" fill="#EEEEF2" stroke="#2C2336" stroke-width="3"/>
<circle cx="336" cy="38" r="12.5" fill="white" stroke="#2C2336" stroke-width="3"/>
<rect x="330.5" y="4.5" width="11" height="35" rx="5.5" fill="#EEEEF2" stroke="#2C2336" stroke-width="3"/>
</g>
<defs>
<linearGradient id="paint0_linear_329_4355" x1="196.5" y1="-22" x2="196.5" y2="446" gradientUnits="userSpaceOnUse">
<stop stop-color="#DBEFB3"/>
<stop offset="1" stop-color="#FFF2CF"/>
</linearGradient>
<clipPath id="clip0_329_4355">
<rect width="394" height="365" fill="white"/>
</clipPath>
</defs>
</svg>
