<svg width="394" height="365" viewBox="0 0 394 365" fill="none" xmlns="http://www.w3.org/2000/svg">
<g clip-path="url(#clip0_329_4355)">
<circle cx="71" cy="38" r="14" fill="white" stroke="#2C2336" stroke-width="6"/>
<rect x="64" y="3" width="14" height="38" rx="7" fill="white" stroke="#2C2336" stroke-width="6"/>
<circle cx="137.25" cy="38" r="14" fill="white" stroke="#2C2336" stroke-width="6"/>
<rect x="130.25" y="3" width="14" height="38" rx="7" fill="white" stroke="#2C2336" stroke-width="6"/>
<circle cx="203.5" cy="38" r="14" fill="white" stroke="#2C2336" stroke-width="6"/>
<rect x="196.5" y="3" width="14" height="38" rx="7" fill="white" stroke="#2C2336" stroke-width="6"/>
<circle cx="269.75" cy="38" r="14" fill="white" stroke="#2C2336" stroke-width="6"/>
<rect x="262.75" y="3" width="14" height="38" rx="7" fill="white" stroke="#2C2336" stroke-width="6"/>
<circle cx="336" cy="38" r="14" fill="white" stroke="#2C2336" stroke-width="6"/>
<rect x="329" y="3" width="14" height="38" rx="7" fill="white" stroke="#2C2336" stroke-width="6"/>
<mask id="mask0_329_4355" style="mask-type:alpha" maskUnits="userSpaceOnUse" x="0" y="15" width="394" height="350">
<path d="M35.251 18H374.866C383.553 18 390.468 25.2791 390.022 33.9553L373.905 347.602C373.491 355.671 366.828 362 358.749 362H19.1344C10.4468 362 3.53214 354.721 3.97796 346.045L20.0945 32.3976C20.5091 24.3292 27.172 18 35.251 18Z" fill="#D9D9D9" stroke="#2C2336" stroke-width="6"/>
</mask>
<g mask="url(#mask0_329_4355)">
<rect x="-69" y="-22" width="531" height="468" fill="#B8DE67"/>
<path d="M968 296.5C968 336.116 946.803 374.091 907.959 408.864C869.116 443.636 812.797 475.042 743.032 501.458C603.516 554.285 410.642 587 197.5 587C-15.6418 587 -208.516 554.285 -348.032 501.458C-417.797 475.042 -474.116 443.636 -512.959 408.864C-551.803 374.091 -573 336.116 -573 296.5C-573 256.884 -551.803 218.909 -512.959 184.136C-474.116 149.364 -417.797 117.958 -348.032 91.5417C-208.516 38.7153 -15.6418 6 197.5 6C410.642 6 603.516 38.7153 743.032 91.5417C812.797 117.958 869.116 149.364 907.959 184.136C946.803 218.909 968 256.884 968 296.5Z" fill="url(#paint0_linear_329_4355)" stroke="#302B66" stroke-width="4"/>
<mask id="mask1_329_4355" style="mask-type:alpha" maskUnits="userSpaceOnUse" x="-575" y="4" width="1545" height="585">
<path d="M968 296.5C968 336.116 946.803 374.091 907.959 408.864C869.116 443.636 812.797 475.042 743.032 501.458C603.516 554.285 410.642 587 197.5 587C-15.6418 587 -208.516 554.285 -348.032 501.458C-417.797 475.042 -474.116 443.636 -512.959 408.864C-551.803 374.091 -573 336.116 -573 296.5C-573 256.884 -551.803 218.909 -512.959 184.136C-474.116 149.364 -417.797 117.958 -348.032 91.5417C-208.516 38.7153 -15.6418 6 197.5 6C410.642 6 603.516 38.7153 743.032 91.5417C812.797 117.958 869.116 149.364 907.959 184.136C946.803 218.909 968 256.884 968 296.5Z" fill="url(#paint1_linear_329_4355)" stroke="#93A2EC" stroke-width="4"/>
</mask>
<g mask="url(#mask1_329_4355)">
<path d="M747.081 213C747.081 216.821 750.179 219.919 754 219.919C757.821 219.919 760.919 216.821 760.919 213C760.919 209.179 757.821 206.081 754 206.081C750.179 206.081 747.081 209.179 747.081 213ZM747.081 251C747.081 254.821 750.179 257.919 754 257.919C757.821 257.919 760.919 254.821 760.919 251C760.919 247.179 757.821 244.081 754 244.081C750.179 244.081 747.081 247.179 747.081 251ZM-391.419 213C-391.419 216.821 -388.321 219.919 -384.5 219.919C-380.679 219.919 -377.581 216.821 -377.581 213C-377.581 209.179 -380.679 206.081 -384.5 206.081C-388.321 206.081 -391.419 209.179 -391.419 213ZM25.5807 290.5C25.5807 294.321 28.6786 297.419 32.5 297.419C36.3214 297.419 39.4193 294.321 39.4193 290.5C39.4193 286.679 36.3214 283.581 32.5 283.581C28.6786 283.581 25.5807 286.679 25.5807 290.5ZM-120.505 213.45L-121.378 214.41L-120.505 213.45ZM-99.5662 232.485L-98.6935 231.525L-99.5662 232.485ZM754 211.703H547.73V214.297H754V211.703ZM544.703 214.73V249.27H547.297V214.73H544.703ZM547.73 252.297H754V249.703H547.73V252.297ZM-384.5 214.297H-121.669V211.703H-384.5V214.297ZM-121.378 214.41L-100.439 233.445L-98.6935 231.525L-119.632 212.49L-121.378 214.41ZM-100.297 233.765V288.77H-97.7026V233.765H-100.297ZM-97.2702 291.797H32.5V289.203H-97.2702V291.797ZM-121.669 214.297C-121.561 214.297 -121.457 214.337 -121.378 214.41L-119.632 212.49C-120.19 211.983 -120.916 211.703 -121.669 211.703V214.297ZM-100.297 288.77C-100.297 290.442 -98.942 291.797 -97.2702 291.797V289.203C-97.509 289.203 -97.7026 289.009 -97.7026 288.77H-100.297ZM544.703 249.27C544.703 250.942 546.058 252.297 547.73 252.297V249.703C547.491 249.703 547.297 249.509 547.297 249.27H544.703ZM-100.439 233.445C-100.349 233.527 -100.297 233.643 -100.297 233.765H-97.7026C-97.7026 232.912 -98.0624 232.099 -98.6935 231.525L-100.439 233.445ZM547.73 211.703C546.058 211.703 544.703 213.058 544.703 214.73H547.297C547.297 214.491 547.491 214.297 547.73 214.297V211.703Z" fill="#6056CC"/>
<path d="M-391.919 252C-391.919 255.821 -388.821 258.919 -385 258.919C-381.179 258.919 -378.081 255.821 -378.081 252C-378.081 248.179 -381.179 245.081 -385 245.081C-388.821 245.081 -391.919 248.179 -391.919 252ZM-11.4193 328C-11.4193 331.821 -8.32143 334.919 -4.5 334.919C-0.67857 334.919 2.41931 331.821 2.41931 328C2.41931 324.179 -0.67857 321.081 -4.5 321.081C-8.32143 321.081 -11.4193 324.179 -11.4193 328ZM-385 253.297H-139.23V250.703H-385V253.297ZM-138.797 253.73V326.27H-136.203V253.73H-138.797ZM-135.77 329.297H-4.5V326.703H-135.77V329.297ZM-138.797 326.27C-138.797 327.942 -137.442 329.297 -135.77 329.297V326.703C-136.009 326.703 -136.203 326.509 -136.203 326.27H-138.797ZM-139.23 253.297C-138.991 253.297 -138.797 253.491 -138.797 253.73H-136.203C-136.203 252.058 -137.558 250.703 -139.23 250.703V253.297Z" fill="#6056CC"/>
<path d="M216.081 211.755C216.081 215.577 219.179 218.674 223 218.674C226.821 218.674 229.919 215.577 229.919 211.755C229.919 207.934 226.821 204.836 223 204.836C219.179 204.836 216.081 207.934 216.081 211.755ZM288.733 -61.5576C288.733 -57.7362 291.831 -54.6383 295.653 -54.6383C299.474 -54.6383 302.572 -57.7362 302.572 -61.5576C302.572 -65.379 299.474 -68.4769 295.653 -68.4769C291.831 -68.4769 288.733 -65.379 288.733 -61.5576ZM221.703 24.7298V211.755H224.297V24.7298H221.703ZM224.73 24.2974H293.923V21.7026H224.73V24.2974ZM296.95 21.2702V-61.5576H294.355V21.2702H296.95ZM293.923 24.2974C295.595 24.2974 296.95 22.942 296.95 21.2702H294.355C294.355 21.509 294.162 21.7026 293.923 21.7026V24.2974ZM224.297 24.7298C224.297 24.491 224.491 24.2974 224.73 24.2974V21.7026C223.058 21.7026 221.703 23.058 221.703 24.7298H224.297Z" fill="#6056CC"/>
<path d="M252.081 60.8441C252.081 64.6655 255.179 67.7634 259 67.7634C262.821 67.7634 265.919 64.6655 265.919 60.8441C265.919 57.0226 262.821 53.9248 259 53.9248C255.179 53.9248 252.081 57.0226 252.081 60.8441ZM495.121 -49C495.121 -45.1786 498.219 -42.0807 502.041 -42.0807C505.862 -42.0807 508.96 -45.1786 508.96 -49C508.96 -52.8214 505.862 -55.9193 502.041 -55.9193C498.219 -55.9193 495.121 -52.8214 495.121 -49ZM259 62.1414H331.745V59.5467H259V62.1414ZM334.772 59.1142V-47.2702H332.177V59.1142H334.772ZM335.204 -47.7026H502.041V-50.2974H335.204V-47.7026ZM334.772 -47.2702C334.772 -47.509 334.965 -47.7026 335.204 -47.7026V-50.2974C333.532 -50.2974 332.177 -48.942 332.177 -47.2702H334.772ZM331.745 62.1414C333.416 62.1414 334.772 60.7861 334.772 59.1142H332.177C332.177 59.3531 331.983 59.5467 331.745 59.5467V62.1414Z" fill="#6056CC"/>
<path d="M252.081 99.0005C252.081 102.822 255.179 105.92 259 105.92C262.821 105.92 265.919 102.822 265.919 99.0005C265.919 95.179 262.821 92.0811 259 92.0811C255.179 92.0811 252.081 95.179 252.081 99.0005ZM626.534 -5.99954C626.534 -2.17811 629.632 0.919769 633.453 0.919769C637.275 0.919769 640.373 -2.17811 640.373 -5.99954C640.373 -9.82097 637.275 -12.9189 633.453 -12.9189C629.632 -12.9189 626.534 -9.82097 626.534 -5.99954ZM374.245 -8.29024L374.257 -9.58756L374.245 -8.29024ZM259 100.298H370.77V97.7031H259V100.298ZM373.797 97.2706V-6.56048H371.203V97.2706H373.797ZM374.234 -6.99292L633.442 -4.70222L633.465 -7.29686L374.257 -9.58756L374.234 -6.99292ZM373.797 -6.56048C373.797 -6.80081 373.993 -6.99505 374.234 -6.99292L374.257 -9.58756C372.574 -9.60243 371.203 -8.24281 371.203 -6.56048H373.797ZM370.77 100.298C372.442 100.298 373.797 98.9425 373.797 97.2706H371.203C371.203 97.5095 371.009 97.7031 370.77 97.7031V100.298Z" fill="#6056CC"/>
<path d="M254.081 139C254.081 142.821 257.179 145.919 261 145.919C264.821 145.919 267.919 142.821 267.919 139C267.919 135.179 264.821 132.081 261 132.081C257.179 132.081 254.081 135.179 254.081 139ZM463.081 404C463.081 407.821 466.179 410.919 470 410.919C473.821 410.919 476.919 407.821 476.919 404C476.919 400.179 473.821 397.081 470 397.081C466.179 397.081 463.081 400.179 463.081 404ZM259.703 139V209.706H262.297V139H259.703ZM262.73 212.733H316.27V210.139H262.73V212.733ZM316.703 213.166V324.77H319.297V213.166H316.703ZM319.73 327.797H468.27V325.203H319.73V327.797ZM468.703 328.23V404H471.297V328.23H468.703ZM468.27 327.797C468.509 327.797 468.703 327.991 468.703 328.23H471.297C471.297 326.558 469.942 325.203 468.27 325.203V327.797ZM316.703 324.77C316.703 326.442 318.058 327.797 319.73 327.797V325.203C319.491 325.203 319.297 325.009 319.297 324.77H316.703ZM316.27 212.733C316.509 212.733 316.703 212.927 316.703 213.166H319.297C319.297 211.494 317.942 210.139 316.27 210.139V212.733ZM259.703 209.706C259.703 211.378 261.058 212.733 262.73 212.733V210.139C262.491 210.139 262.297 209.945 262.297 209.706H259.703Z" fill="#6056CC"/>
<path d="M-31.4193 176C-31.4193 179.821 -28.3214 182.919 -24.5 182.919C-20.6786 182.919 -17.5807 179.821 -17.5807 176C-17.5807 172.179 -20.6786 169.081 -24.5 169.081C-28.3214 169.081 -31.4193 172.179 -31.4193 176ZM102.581 347.5C102.581 351.321 105.679 354.419 109.5 354.419C113.321 354.419 116.419 351.321 116.419 347.5C116.419 343.679 113.321 340.581 109.5 340.581C105.679 340.581 102.581 343.679 102.581 347.5ZM185.628 250.971L184.61 250.168L185.628 250.971ZM-24.5 177.297H184.27V174.703H-24.5V177.297ZM184.703 177.73V249.9H187.297V177.73H184.703ZM184.61 250.168L108.481 346.697L110.519 348.303L186.647 251.775L184.61 250.168ZM184.703 249.9C184.703 249.997 184.67 250.091 184.61 250.168L186.647 251.775C187.068 251.24 187.297 250.58 187.297 249.9H184.703ZM184.27 177.297C184.509 177.297 184.703 177.491 184.703 177.73H187.297C187.297 176.058 185.942 174.703 184.27 174.703V177.297Z" fill="#6056CC"/>
<path d="M-30.9193 213C-30.9193 216.821 -27.8214 219.919 -24 219.919C-20.1786 219.919 -17.0807 216.821 -17.0807 213C-17.0807 209.179 -20.1786 206.081 -24 206.081C-27.8214 206.081 -30.9193 209.179 -30.9193 213ZM26.0807 365.5C26.0807 369.321 29.1786 372.419 33 372.419C36.8214 372.419 39.9193 369.321 39.9193 365.5C39.9193 361.679 36.8214 358.581 33 358.581C29.1786 358.581 26.0807 361.679 26.0807 365.5ZM145.595 231.483L146.588 232.317L145.595 231.483ZM-24 214.297H144.27V211.703H-24V214.297ZM144.703 214.73V230.37H147.297V214.73H144.703ZM144.601 230.648L32.0067 364.665L33.9933 366.335L146.588 232.317L144.601 230.648ZM144.703 230.37C144.703 230.472 144.667 230.57 144.601 230.648L146.588 232.317C147.046 231.772 147.297 231.082 147.297 230.37H144.703ZM144.27 214.297C144.509 214.297 144.703 214.491 144.703 214.73H147.297C147.297 213.058 145.942 211.703 144.27 211.703V214.297Z" fill="#6056CC"/>
<path d="M64.0807 251.5C64.0807 255.321 67.1786 258.419 71 258.419C74.8214 258.419 77.9193 255.321 77.9193 251.5C77.9193 247.679 74.8214 244.581 71 244.581C67.1786 244.581 64.0807 247.679 64.0807 251.5ZM-277.919 174.5C-277.919 178.321 -274.821 181.419 -271 181.419C-267.179 181.419 -264.081 178.321 -264.081 174.5C-264.081 170.679 -267.179 167.581 -271 167.581C-274.821 167.581 -277.919 170.679 -277.919 174.5ZM-99.9962 174.991L-100.901 175.92L-99.9962 174.991ZM-62.5229 211.491L-61.6176 210.561L-62.5229 211.491ZM71 250.203H-60.2702V252.797H71V250.203ZM-60.7026 249.77V212.73H-63.2974V249.77H-60.7026ZM-61.6176 210.561L-99.091 174.061L-100.901 175.92L-63.4281 212.42L-61.6176 210.561ZM-101.203 173.203H-271V175.797H-101.203V173.203ZM-99.091 174.061C-99.6563 173.511 -100.414 173.203 -101.203 173.203V175.797C-101.09 175.797 -100.982 175.841 -100.901 175.92L-99.091 174.061ZM-60.7026 212.73C-60.7026 211.913 -61.0326 211.131 -61.6176 210.561L-63.4281 212.42C-63.3445 212.502 -63.2974 212.613 -63.2974 212.73H-60.7026ZM-60.2702 250.203C-60.509 250.203 -60.7026 250.009 -60.7026 249.77H-63.2974C-63.2974 251.442 -61.9421 252.797 -60.2702 252.797V250.203Z" fill="#6056CC"/>
<path d="M293.081 175.5C293.081 179.321 296.179 182.419 300 182.419C303.821 182.419 306.919 179.321 306.919 175.5C306.919 171.679 303.821 168.581 300 168.581C296.179 168.581 293.081 171.679 293.081 175.5ZM463.081 251.5C463.081 255.321 466.179 258.419 470 258.419C473.821 258.419 476.919 255.321 476.919 251.5C476.919 247.679 473.821 244.581 470 244.581C466.179 244.581 463.081 247.679 463.081 251.5ZM301.297 175.5V138.73H298.703V175.5H301.297ZM301.73 138.297H392.77V135.703H301.73V138.297ZM393.203 138.73V249.77H395.797V138.73H393.203ZM396.23 252.797H470V250.203H396.23V252.797ZM393.203 249.77C393.203 251.442 394.558 252.797 396.23 252.797V250.203C395.991 250.203 395.797 250.009 395.797 249.77H393.203ZM392.77 138.297C393.009 138.297 393.203 138.491 393.203 138.73H395.797C395.797 137.058 394.442 135.703 392.77 135.703V138.297ZM301.297 138.73C301.297 138.491 301.491 138.297 301.73 138.297V135.703C300.058 135.703 298.703 137.058 298.703 138.73H301.297Z" fill="#6056CC"/>
<path d="M350.081 176.5C350.081 180.321 353.179 183.419 357 183.419C360.821 183.419 363.919 180.321 363.919 176.5C363.919 172.679 360.821 169.581 357 169.581C353.179 169.581 350.081 172.679 350.081 176.5ZM464.081 288C464.081 291.821 467.179 294.919 471 294.919C474.821 294.919 477.919 291.821 477.919 288C477.919 284.179 474.821 281.081 471 281.081C467.179 281.081 464.081 284.179 464.081 288ZM355.703 176.5V286.27H358.297V176.5H355.703ZM358.73 289.297H471V286.703H358.73V289.297ZM355.703 286.27C355.703 287.942 357.058 289.297 358.73 289.297V286.703C358.491 286.703 358.297 286.509 358.297 286.27H355.703Z" fill="#6056CC"/>
<path d="M102.081 -62C102.081 -58.1786 105.179 -55.0807 109 -55.0807C112.821 -55.0807 115.919 -58.1786 115.919 -62C115.919 -65.8214 112.821 -68.9193 109 -68.9193C105.179 -68.9193 102.081 -65.8214 102.081 -62ZM102.081 61C102.081 64.8214 105.179 67.9193 109 67.9193C112.821 67.9193 115.919 64.8214 115.919 61C115.919 57.1786 112.821 54.0807 109 54.0807C105.179 54.0807 102.081 57.1786 102.081 61ZM107.703 -62L107.703 61L110.297 61L110.297 -62L107.703 -62Z" fill="#6056CC"/>
<path d="M-87.9193 -62C-87.9193 -58.1786 -84.8214 -55.0807 -81 -55.0807C-77.1786 -55.0807 -74.0807 -58.1786 -74.0807 -62C-74.0807 -65.8214 -77.1786 -68.9193 -81 -68.9193C-84.8214 -68.9193 -87.9193 -65.8214 -87.9193 -62ZM26.0807 3C26.0807 6.82143 29.1786 9.91931 33 9.91931C36.8214 9.91931 39.9193 6.82143 39.9193 3C39.9193 -0.821432 36.8214 -3.91931 33 -3.91931C29.1786 -3.91931 26.0807 -0.821433 26.0807 3ZM33 97.2702L34.2974 97.2702L33 97.2702ZM-82.2974 -62L-82.2974 97.2702L-79.7026 97.2702L-79.7026 -62L-82.2974 -62ZM-79.2702 100.297L31.2702 100.297L31.2702 97.7026L-79.2702 97.7026L-79.2702 100.297ZM34.2974 97.2702L34.2974 3L31.7026 3L31.7026 97.2702L34.2974 97.2702ZM31.2702 100.297C32.9421 100.297 34.2974 98.9421 34.2974 97.2702L31.7026 97.2702C31.7026 97.509 31.509 97.7026 31.2702 97.7026L31.2702 100.297ZM-82.2974 97.2702C-82.2974 98.942 -80.9421 100.297 -79.2702 100.297L-79.2702 97.7026C-79.509 97.7026 -79.7026 97.509 -79.7026 97.2702L-82.2974 97.2702Z" fill="#6056CC"/>
<path d="M178.067 -62.4229C178.067 -58.6014 181.165 -55.5035 184.986 -55.5035C188.808 -55.5035 191.906 -58.6014 191.906 -62.4229C191.906 -66.2443 188.808 -69.3422 184.986 -69.3422C181.165 -69.3422 178.067 -66.2443 178.067 -62.4229ZM-68.4193 138.237C-68.4193 142.059 -65.3214 145.156 -61.5 145.156C-57.6786 145.156 -54.5807 142.059 -54.5807 138.237C-54.5807 134.416 -57.6786 131.318 -61.5 131.318C-65.3214 131.318 -68.4193 134.416 -68.4193 138.237ZM183.689 -62.4229V136.507H186.284V-62.4229H183.689ZM183.257 136.94H-61.5V139.535H183.257V136.94ZM183.689 136.507C183.689 136.746 183.495 136.94 183.257 136.94V139.535C184.928 139.535 186.284 138.179 186.284 136.507H183.689Z" fill="#6056CC"/>
<path d="M217.081 252.5C217.081 256.321 220.179 259.419 224 259.419C227.821 259.419 230.919 256.321 230.919 252.5C230.919 248.679 227.821 245.581 224 245.581C220.179 245.581 217.081 248.679 217.081 252.5ZM274.581 365.5C274.581 369.321 277.679 372.419 281.5 372.419C285.321 372.419 288.419 369.321 288.419 365.5C288.419 361.679 285.321 358.581 281.5 358.581C277.679 358.581 274.581 361.679 274.581 365.5ZM224 253.797H279.77V251.203H224V253.797ZM280.203 254.23V365.5H282.797V254.23H280.203ZM279.77 253.797C280.009 253.797 280.203 253.991 280.203 254.23H282.797C282.797 252.558 281.442 251.203 279.77 251.203V253.797Z" fill="#6056CC"/>
<path d="M235.581 404.5C235.581 408.321 238.679 411.419 242.5 411.419C246.321 411.419 249.419 408.321 249.419 404.5C249.419 400.679 246.321 397.581 242.5 397.581C238.679 397.581 235.581 400.679 235.581 404.5ZM196.581 290C196.581 293.821 199.679 296.919 203.5 296.919C207.321 296.919 210.419 293.821 210.419 290C210.419 286.179 207.321 283.081 203.5 283.081C199.679 283.081 196.581 286.179 196.581 290ZM243.797 404.5V291.73H241.203V404.5H243.797ZM240.77 288.703H203.5V291.297H240.77V288.703ZM243.797 291.73C243.797 290.058 242.442 288.703 240.77 288.703V291.297C241.009 291.297 241.203 291.491 241.203 291.73H243.797Z" fill="#6056CC"/>
<path d="M71 4.5V98.2702C71 99.2255 71.7745 100 72.7298 100H146.27C147.226 100 148 99.2255 148 98.2702V4.5" stroke="#6056CC" stroke-width="2.59474" stroke-linecap="round" stroke-linejoin="round"/>
</g>
<path d="M968 296.5C968 336.116 946.803 374.091 907.959 408.864C869.116 443.636 812.797 475.042 743.032 501.458C603.516 554.285 410.642 587 197.5 587C-15.6418 587 -208.516 554.285 -348.032 501.458C-417.797 475.042 -474.116 443.636 -512.959 408.864C-551.803 374.091 -573 336.116 -573 296.5C-573 256.884 -551.803 218.909 -512.959 184.136C-474.116 149.364 -417.797 117.958 -348.032 91.5417C-208.516 38.7153 -15.6418 6 197.5 6C410.642 6 603.516 38.7153 743.032 91.5417C812.797 117.958 869.116 149.364 907.959 184.136C946.803 218.909 968 256.884 968 296.5Z" stroke="#302B66" stroke-width="4"/>
<path d="M42.5571 333H335.48C339.303 333 342.455 330.005 342.651 326.187L355.692 71.5472C355.902 67.443 352.631 64 348.521 64H55.5979C51.7752 64 48.6228 66.9951 48.4273 70.8128L35.3865 325.453C35.1763 329.557 38.4475 333 42.5571 333Z" fill="#786CFF"/>
</g>
<path d="M35.251 18H374.866C383.553 18 390.468 25.2791 390.022 33.9553L373.905 347.602C373.491 355.671 366.828 362 358.749 362H19.1344C10.4468 362 3.53214 354.721 3.97796 346.045L20.0945 32.3976C20.5091 24.3292 27.172 18 35.251 18Z" stroke="#2C2336" stroke-width="6"/>
<circle cx="71" cy="38" r="12.5" fill="white" stroke="#2C2336" stroke-width="3"/>
<rect x="65.5" y="4.5" width="11" height="35" rx="5.5" fill="#EEEEF2" stroke="#2C2336" stroke-width="3"/>
<circle cx="137.25" cy="38" r="12.5" fill="white" stroke="#2C2336" stroke-width="3"/>
<rect x="131.75" y="4.5" width="11" height="35" rx="5.5" fill="#EEEEF2" stroke="#2C2336" stroke-width="3"/>
<circle cx="203.5" cy="38" r="12.5" fill="white" stroke="#2C2336" stroke-width="3"/>
<rect x="198" y="4.5" width="11" height="35" rx="5.5" fill="#EEEEF2" stroke="#2C2336" stroke-width="3"/>
<circle cx="269.75" cy="38" r="12.5" fill="white" stroke="#2C2336" stroke-width="3"/>
<rect x="264.25" y="4.5" width="11" height="35" rx="5.5" fill="#EEEEF2" stroke="#2C2336" stroke-width="3"/>
<circle cx="336" cy="38" r="12.5" fill="white" stroke="#2C2336" stroke-width="3"/>
<rect x="330.5" y="4.5" width="11" height="35" rx="5.5" fill="#EEEEF2" stroke="#2C2336" stroke-width="3"/>
</g>
<defs>
<linearGradient id="paint0_linear_329_4355" x1="218.398" y1="4" x2="218.398" y2="601.897" gradientUnits="userSpaceOnUse">
<stop stop-color="#6056CC"/>
<stop offset="1" stop-color="#181633"/>
</linearGradient>
<linearGradient id="paint1_linear_329_4355" x1="218.398" y1="4" x2="218.398" y2="601.897" gradientUnits="userSpaceOnUse">
<stop stop-color="#151515"/>
<stop offset="1" stop-color="#909EEB"/>
</linearGradient>
<clipPath id="clip0_329_4355">
<rect width="394" height="365" fill="white"/>
</clipPath>
</defs>
</svg>
