<svg width="394" height="365" viewBox="0 0 394 365" fill="none" xmlns="http://www.w3.org/2000/svg">
<g clip-path="url(#clip0_329_4355)">
<circle cx="71" cy="38" r="14" fill="white" stroke="#2C2336" stroke-width="6"/>
<rect x="64" y="3" width="14" height="38" rx="7" fill="white" stroke="#2C2336" stroke-width="6"/>
<circle cx="137.25" cy="38" r="14" fill="white" stroke="#2C2336" stroke-width="6"/>
<rect x="130.25" y="3" width="14" height="38" rx="7" fill="white" stroke="#2C2336" stroke-width="6"/>
<circle cx="203.5" cy="38" r="14" fill="white" stroke="#2C2336" stroke-width="6"/>
<rect x="196.5" y="3" width="14" height="38" rx="7" fill="white" stroke="#2C2336" stroke-width="6"/>
<circle cx="269.75" cy="38" r="14" fill="white" stroke="#2C2336" stroke-width="6"/>
<rect x="262.75" y="3" width="14" height="38" rx="7" fill="white" stroke="#2C2336" stroke-width="6"/>
<circle cx="336" cy="38" r="14" fill="white" stroke="#2C2336" stroke-width="6"/>
<rect x="329" y="3" width="14" height="38" rx="7" fill="white" stroke="#2C2336" stroke-width="6"/>
<mask id="mask0_329_4355" style="mask-type:alpha" maskUnits="userSpaceOnUse" x="0" y="15" width="394" height="350">
<path d="M35.251 18H374.866C383.553 18 390.468 25.2791 390.022 33.9553L373.905 347.602C373.491 355.671 366.828 362 358.749 362H19.1344C10.4468 362 3.53214 354.721 3.97796 346.045L20.0945 32.3976C20.5091 24.3292 27.172 18 35.251 18Z" fill="#D9D9D9" stroke="#2C2336" stroke-width="6"/>
</mask>
<g mask="url(#mask0_329_4355)">
<rect x="-69" y="-22" width="531" height="468" fill="url(#paint0_linear_329_4355)"/>
<path d="M42.5571 333H335.48C339.303 333 342.455 330.005 342.651 326.187L355.692 71.5472C355.902 67.443 352.631 64 348.521 64H55.5979C51.7752 64 48.6228 66.9951 48.4273 70.8128L35.3865 325.453C35.1763 329.557 38.4475 333 42.5571 333Z" fill="#FCE1E8"/>
<mask id="path-14-outside-1_329_4355" maskUnits="userSpaceOnUse" x="316" y="51.4312" width="57" height="57" fill="black">
<rect fill="white" x="316" y="51.4312" width="57" height="57"/>
<path fill-rule="evenodd" clip-rule="evenodd" d="M335.872 91.8602C335.091 92.4436 334.489 93.3913 334.489 94.2388C334.489 94.6581 334.656 95.3289 335.579 95.3289C336.052 95.3289 336.557 95.141 337.012 94.8389C336.536 95.1892 335.998 95.4128 335.495 95.4128C334.572 95.4128 334.405 94.6581 334.405 94.2388C334.405 93.3613 335.05 92.412 335.872 91.8602ZM334.613 77.8869C334.599 77.8865 334.586 77.8863 334.572 77.8863C333.231 77.8863 331.721 79.4797 331.721 80.8214C331.721 81.2407 331.973 81.9116 332.811 81.9116C332.825 81.9116 332.839 81.9114 332.853 81.9111C331.968 81.8908 331.805 81.2342 331.805 80.8214C331.805 79.494 333.282 77.9205 334.613 77.8869ZM330.506 86.4933C329.724 87.0766 329.122 88.0244 329.122 88.8718C329.122 89.2911 329.289 89.962 330.212 89.962C330.685 89.962 331.19 89.7741 331.645 89.472C331.169 89.8222 330.631 90.0458 330.128 90.0458C329.206 90.0458 329.038 89.2911 329.038 88.8718C329.038 87.9943 329.683 87.0451 330.506 86.4933ZM335.536 73.8607C335.523 73.861 335.509 73.8611 335.495 73.8611C334.656 73.8611 334.405 73.1903 334.405 72.771C334.405 71.4292 335.914 69.8359 337.256 69.8359C337.269 69.8359 337.283 69.8361 337.297 69.8365C335.966 69.87 334.489 71.4436 334.489 72.771C334.489 73.1838 334.651 73.8404 335.536 73.8607ZM342.664 75.2034C342.65 75.2031 342.636 75.2029 342.623 75.2029C341.281 75.2029 339.772 76.7962 339.772 78.1379C339.772 78.5572 340.023 79.2281 340.862 79.2281C340.876 79.2281 340.89 79.2279 340.903 79.2276C340.018 79.2074 339.856 78.5507 339.856 78.1379C339.856 76.8106 341.333 75.237 342.664 75.2034ZM351.973 86.4933C351.192 87.0766 350.589 88.0244 350.589 88.8718C350.589 89.2911 350.757 89.962 351.68 89.962C352.153 89.962 352.658 89.7741 353.113 89.472C352.636 89.8222 352.098 90.0458 351.596 90.0458C350.673 90.0458 350.506 89.2911 350.506 88.8718C350.506 87.9943 351.151 87.0451 351.973 86.4933ZM346.606 81.1263C345.825 81.7097 345.223 82.6574 345.223 83.5049C345.223 83.9242 345.39 84.595 346.313 84.595C346.786 84.595 347.291 84.4072 347.746 84.105C347.269 84.4553 346.731 84.6789 346.229 84.6789C345.306 84.6789 345.139 83.9242 345.139 83.5049C345.139 82.6274 345.784 81.6781 346.606 81.1263ZM343.923 89.1767C343.141 89.7601 342.539 90.7079 342.539 91.5553C342.539 91.9746 342.707 92.6455 343.629 92.6455C344.103 92.6455 344.607 92.4576 345.062 92.1555C344.586 92.5057 344.048 92.7293 343.545 92.7293C342.623 92.7293 342.455 91.9746 342.455 91.5553C342.455 90.6778 343.101 89.7286 343.923 89.1767ZM338.556 83.8098C337.774 84.3931 337.172 85.3409 337.172 86.1883C337.172 86.6076 337.34 87.2785 338.262 87.2785C338.736 87.2785 339.24 87.0906 339.695 86.7885C339.219 87.1387 338.681 87.3624 338.178 87.3624C337.256 87.3624 337.088 86.6076 337.088 86.1883C337.088 85.3108 337.734 84.3616 338.556 83.8098ZM364.678 60.5276C364.678 62.2048 362.749 65.3076 360.569 67.5717C363.084 68.1587 366.019 70.1714 366.019 71.1777C366.019 72.2678 362.581 74.532 359.395 74.532C358.64 74.532 358.472 74.532 358.053 74.4481V74.3643L350.086 66.3977H350.002C349.919 65.9784 349.919 65.8107 349.919 65.056C349.919 61.7016 352.183 58.4312 353.273 58.4312C354.363 58.4312 356.879 62.1209 357.047 65.3914C359.193 63.7604 359.889 61.9756 360.417 60.6217C360.921 59.3304 361.271 58.4312 362.581 58.4312C363.755 58.4312 364.678 59.3536 364.678 60.5276ZM356.04 76.293C358.304 78.4734 360.569 81.66 360.569 85.5175C360.569 92.2262 353.021 101.367 338.346 101.451C325.767 101.451 323 97.8447 323 86.0206C323 71.5131 332.057 63.882 338.849 63.882C342.707 63.882 345.893 66.0623 348.074 68.3265L356.04 76.293Z"/>
</mask>
<path fill-rule="evenodd" clip-rule="evenodd" d="M335.872 91.8602C335.091 92.4436 334.489 93.3913 334.489 94.2388C334.489 94.6581 334.656 95.3289 335.579 95.3289C336.052 95.3289 336.557 95.141 337.012 94.8389C336.536 95.1892 335.998 95.4128 335.495 95.4128C334.572 95.4128 334.405 94.6581 334.405 94.2388C334.405 93.3613 335.05 92.412 335.872 91.8602ZM334.613 77.8869C334.599 77.8865 334.586 77.8863 334.572 77.8863C333.231 77.8863 331.721 79.4797 331.721 80.8214C331.721 81.2407 331.973 81.9116 332.811 81.9116C332.825 81.9116 332.839 81.9114 332.853 81.9111C331.968 81.8908 331.805 81.2342 331.805 80.8214C331.805 79.494 333.282 77.9205 334.613 77.8869ZM330.506 86.4933C329.724 87.0766 329.122 88.0244 329.122 88.8718C329.122 89.2911 329.289 89.962 330.212 89.962C330.685 89.962 331.19 89.7741 331.645 89.472C331.169 89.8222 330.631 90.0458 330.128 90.0458C329.206 90.0458 329.038 89.2911 329.038 88.8718C329.038 87.9943 329.683 87.0451 330.506 86.4933ZM335.536 73.8607C335.523 73.861 335.509 73.8611 335.495 73.8611C334.656 73.8611 334.405 73.1903 334.405 72.771C334.405 71.4292 335.914 69.8359 337.256 69.8359C337.269 69.8359 337.283 69.8361 337.297 69.8365C335.966 69.87 334.489 71.4436 334.489 72.771C334.489 73.1838 334.651 73.8404 335.536 73.8607ZM342.664 75.2034C342.65 75.2031 342.636 75.2029 342.623 75.2029C341.281 75.2029 339.772 76.7962 339.772 78.1379C339.772 78.5572 340.023 79.2281 340.862 79.2281C340.876 79.2281 340.89 79.2279 340.903 79.2276C340.018 79.2074 339.856 78.5507 339.856 78.1379C339.856 76.8106 341.333 75.237 342.664 75.2034ZM351.973 86.4933C351.192 87.0766 350.589 88.0244 350.589 88.8718C350.589 89.2911 350.757 89.962 351.68 89.962C352.153 89.962 352.658 89.7741 353.113 89.472C352.636 89.8222 352.098 90.0458 351.596 90.0458C350.673 90.0458 350.506 89.2911 350.506 88.8718C350.506 87.9943 351.151 87.0451 351.973 86.4933ZM346.606 81.1263C345.825 81.7097 345.223 82.6574 345.223 83.5049C345.223 83.9242 345.39 84.595 346.313 84.595C346.786 84.595 347.291 84.4072 347.746 84.105C347.269 84.4553 346.731 84.6789 346.229 84.6789C345.306 84.6789 345.139 83.9242 345.139 83.5049C345.139 82.6274 345.784 81.6781 346.606 81.1263ZM343.923 89.1767C343.141 89.7601 342.539 90.7079 342.539 91.5553C342.539 91.9746 342.707 92.6455 343.629 92.6455C344.103 92.6455 344.607 92.4576 345.062 92.1555C344.586 92.5057 344.048 92.7293 343.545 92.7293C342.623 92.7293 342.455 91.9746 342.455 91.5553C342.455 90.6778 343.101 89.7286 343.923 89.1767ZM338.556 83.8098C337.774 84.3931 337.172 85.3409 337.172 86.1883C337.172 86.6076 337.34 87.2785 338.262 87.2785C338.736 87.2785 339.24 87.0906 339.695 86.7885C339.219 87.1387 338.681 87.3624 338.178 87.3624C337.256 87.3624 337.088 86.6076 337.088 86.1883C337.088 85.3108 337.734 84.3616 338.556 83.8098ZM364.678 60.5276C364.678 62.2048 362.749 65.3076 360.569 67.5717C363.084 68.1587 366.019 70.1714 366.019 71.1777C366.019 72.2678 362.581 74.532 359.395 74.532C358.64 74.532 358.472 74.532 358.053 74.4481V74.3643L350.086 66.3977H350.002C349.919 65.9784 349.919 65.8107 349.919 65.056C349.919 61.7016 352.183 58.4312 353.273 58.4312C354.363 58.4312 356.879 62.1209 357.047 65.3914C359.193 63.7604 359.889 61.9756 360.417 60.6217C360.921 59.3304 361.271 58.4312 362.581 58.4312C363.755 58.4312 364.678 59.3536 364.678 60.5276ZM356.04 76.293C358.304 78.4734 360.569 81.66 360.569 85.5175C360.569 92.2262 353.021 101.367 338.346 101.451C325.767 101.451 323 97.8447 323 86.0206C323 71.5131 332.057 63.882 338.849 63.882C342.707 63.882 345.893 66.0623 348.074 68.3265L356.04 76.293Z" fill="#EF6B8A"/>
<path d="M335.872 91.8602L339.724 97.0218L332.283 86.5129L335.872 91.8602ZM337.012 94.8389L340.827 100.027L333.449 89.4737L337.012 94.8389ZM334.613 77.8869L334.776 84.3252L334.786 71.4489L334.613 77.8869ZM332.853 81.9111L333.001 88.3497L333 75.4724L332.853 81.9111ZM330.506 86.4933L334.357 91.6549L326.916 81.1459L330.506 86.4933ZM331.645 89.472L335.46 94.6605L328.082 84.1067L331.645 89.472ZM335.536 73.8607L335.684 80.2993L335.684 67.422L335.536 73.8607ZM337.297 69.8365L337.459 76.2748L337.47 63.3985L337.297 69.8365ZM342.664 75.2034L342.826 81.6417L342.836 68.7654L342.664 75.2034ZM340.903 79.2276L341.051 85.6662L341.051 72.7889L340.903 79.2276ZM351.973 86.4933L355.825 91.6549L348.384 81.1459L351.973 86.4933ZM353.113 89.472L356.928 94.6605L349.55 84.1067L353.113 89.472ZM346.606 81.1263L350.458 86.2879L343.017 75.779L346.606 81.1263ZM347.746 84.105L351.561 89.2935L344.183 78.7398L347.746 84.105ZM343.923 89.1767L347.775 94.3384L340.334 83.8294L343.923 89.1767ZM345.062 92.1555L348.878 97.344L341.5 86.7902L345.062 92.1555ZM338.556 83.8098L342.408 88.9714L334.967 78.4624L338.556 83.8098ZM339.695 86.7885L343.511 91.977L336.133 81.4233L339.695 86.7885ZM360.569 67.5717L355.93 63.1044L348.068 71.2683L359.105 73.8436L360.569 67.5717ZM358.053 74.4481H351.613V79.728L356.79 80.7634L358.053 74.4481ZM358.053 74.3643H364.493V71.6966L362.607 69.8103L358.053 74.3643ZM350.086 66.3977L354.64 61.8437L352.754 59.9574H350.086V66.3977ZM350.002 66.3977L343.687 67.6608L344.723 72.8381H350.002V66.3977ZM357.047 65.3914L350.615 65.7213L351.239 77.8944L360.944 70.519L357.047 65.3914ZM360.417 60.6217L366.417 62.962L366.417 62.9619L360.417 60.6217ZM356.04 76.293L351.486 80.847L351.529 80.89L351.573 80.9321L356.04 76.293ZM338.346 101.451V107.891H338.365L338.383 107.891L338.346 101.451ZM348.074 68.3265L343.435 72.7938L343.477 72.8375L343.52 72.8805L348.074 68.3265ZM332.021 86.6986C330.216 88.0455 328.048 90.7059 328.048 94.2388H340.929C340.929 95.2861 340.584 95.9728 340.417 96.252C340.23 96.5662 340.003 96.8136 339.724 97.0218L332.021 86.6986ZM328.048 94.2388C328.048 95.1165 328.193 96.9282 329.447 98.6845C330.976 100.824 333.334 101.769 335.579 101.769V88.8886C336.132 88.8886 336.927 88.9915 337.794 89.4057C338.687 89.8321 339.41 90.4713 339.929 91.1977C340.868 92.5137 340.929 93.7803 340.929 94.2388H328.048ZM335.579 101.769C337.681 101.769 339.411 100.976 340.574 100.204L333.449 89.4737C333.614 89.3642 333.853 89.231 334.176 89.1181C334.495 89.0065 334.972 88.8886 335.579 88.8886V101.769ZM333.196 89.6504C333.352 89.536 333.593 89.3853 333.933 89.2532C334.268 89.1231 334.802 88.9724 335.495 88.9724V101.853C337.812 101.853 339.663 100.883 340.827 100.027L333.196 89.6504ZM335.495 88.9724C336.161 88.9724 337.043 89.1149 337.958 89.6014C338.88 90.0913 339.552 90.7798 339.998 91.4649C340.79 92.6788 340.845 93.7978 340.845 94.2388H327.964C327.964 95.099 328.103 96.805 329.209 98.5012C330.597 100.629 332.935 101.853 335.495 101.853V88.9724ZM340.845 94.2388C340.845 95.3375 340.466 96.0661 340.267 96.38C340.049 96.724 339.784 96.9914 339.462 97.2076L332.283 86.5129C330.336 87.8197 327.964 90.5291 327.964 94.2388H340.845ZM334.572 84.3267C334.528 84.3267 334.484 84.3261 334.441 84.3249L334.786 71.4489C334.715 71.447 334.644 71.446 334.572 71.446V84.3267ZM338.162 80.8214C338.162 81.6669 337.934 82.2713 337.783 82.5866C337.623 82.9191 337.443 83.1516 337.283 83.318C337.124 83.4831 336.881 83.6905 336.514 83.8799C336.16 84.0622 335.495 84.3267 334.572 84.3267V71.446C331.521 71.446 329.243 73.0979 328.005 74.3834C326.753 75.6833 325.281 77.9335 325.281 80.8214H338.162ZM332.811 75.4712C334.367 75.4712 336.003 76.2142 337.075 77.6206C337.935 78.749 338.162 79.9354 338.162 80.8214H325.281C325.281 82.1266 325.634 83.8581 326.829 85.4268C328.236 87.2735 330.417 88.3519 332.811 88.3519V75.4712ZM332.705 75.4724C332.74 75.4716 332.776 75.4712 332.811 75.4712V88.3519C332.875 88.3519 332.938 88.3512 333.001 88.3497L332.705 75.4724ZM325.365 80.8214C325.365 81.6915 325.507 83.4547 326.704 85.1823C328.16 87.283 330.445 88.2981 332.706 88.3497L333 75.4724C333.576 75.4856 334.374 75.613 335.228 76.0463C336.103 76.4897 336.797 77.133 337.29 77.8446C338.185 79.1356 338.245 80.3641 338.245 80.8214H325.365ZM334.451 71.4486C331.48 71.5236 329.267 73.1438 328.042 74.4318C326.81 75.7282 325.365 77.9609 325.365 80.8214H338.245C338.245 81.6584 338.023 82.2589 337.872 82.5752C337.714 82.9079 337.535 83.1406 337.378 83.3062C337.221 83.471 336.986 83.6736 336.634 83.8605C336.296 84.0402 335.662 84.3028 334.776 84.3252L334.451 71.4486ZM326.654 81.3316C324.849 82.6785 322.681 85.339 322.681 88.8718H335.562C335.562 89.9192 335.217 90.6059 335.05 90.885C334.863 91.1993 334.636 91.4466 334.357 91.6549L326.654 81.3316ZM322.681 88.8718C322.681 89.7496 322.826 91.5613 324.08 93.3175C325.609 95.4575 327.967 96.4023 330.212 96.4023V83.5216C330.765 83.5216 331.56 83.6246 332.427 84.0388C333.32 84.4651 334.043 85.1044 334.562 85.8308C335.502 87.1467 335.562 88.4134 335.562 88.8718H322.681ZM330.212 96.4023C332.314 96.4023 334.044 95.6095 335.207 94.8372L328.082 84.1067C328.247 83.9972 328.486 83.8641 328.809 83.7512C329.128 83.6396 329.605 83.5216 330.212 83.5216V96.4023ZM327.829 84.2835C327.985 84.169 328.226 84.0183 328.566 83.8862C328.901 83.7561 329.435 83.6055 330.128 83.6055V96.4862C332.445 96.4862 334.296 95.5164 335.46 94.6605L327.829 84.2835ZM330.128 83.6055C330.794 83.6055 331.676 83.748 332.591 84.2345C333.513 84.7244 334.185 85.4129 334.631 86.0979C335.423 87.3119 335.478 88.4308 335.478 88.8718H322.597C322.597 89.7321 322.736 91.4381 323.842 93.1342C325.23 95.2624 327.568 96.4862 330.128 96.4862V83.6055ZM335.478 88.8718C335.478 89.9706 335.099 90.6992 334.9 91.013C334.682 91.357 334.417 91.6245 334.095 91.8406L326.916 81.1459C324.969 82.4528 322.597 85.1622 322.597 88.8718H335.478ZM335.389 67.422C335.424 67.4212 335.459 67.4208 335.495 67.4208V80.3015C335.559 80.3015 335.622 80.3007 335.684 80.2993L335.389 67.422ZM335.495 67.4208C337.051 67.4208 338.687 68.1638 339.758 69.5702C340.618 70.6986 340.845 71.885 340.845 72.771H327.964C327.964 74.0762 328.317 75.8077 329.513 77.3764C330.919 79.223 333.101 80.3015 335.495 80.3015V67.4208ZM340.845 72.771C340.845 73.6164 340.618 74.2209 340.466 74.5362C340.307 74.8686 340.127 75.1012 339.966 75.2676C339.807 75.4327 339.564 75.64 339.197 75.8295C338.844 76.0118 338.178 76.2763 337.256 76.2763V63.3956C334.204 63.3956 331.926 65.0475 330.688 66.333C329.436 67.6329 327.964 69.883 327.964 72.771H340.845ZM337.256 76.2763C337.212 76.2763 337.168 76.2757 337.124 76.2745L337.47 63.3985C337.398 63.3965 337.327 63.3956 337.256 63.3956V76.2763ZM337.134 63.3982C334.163 63.4731 331.95 65.0934 330.726 66.3814C329.493 67.6778 328.048 69.9105 328.048 72.771H340.929C340.929 73.608 340.706 74.2085 340.556 74.5247C340.397 74.8575 340.219 75.0902 340.061 75.2557C339.905 75.4205 339.67 75.6232 339.318 75.8101C338.98 75.9897 338.345 76.2524 337.459 76.2748L337.134 63.3982ZM328.048 72.771C328.048 73.6411 328.19 75.4043 329.387 77.1318C330.843 79.2326 333.129 80.2476 335.389 80.2993L335.684 67.422C336.26 67.4352 337.058 67.5626 337.912 67.9958C338.787 68.4393 339.481 69.0826 339.974 69.7942C340.869 71.0852 340.929 72.3136 340.929 72.771H328.048ZM342.623 81.6432C342.579 81.6432 342.535 81.6426 342.491 81.6414L342.836 68.7654C342.765 68.7635 342.694 68.7625 342.623 68.7625V81.6432ZM346.212 78.1379C346.212 78.9834 345.985 79.5878 345.833 79.9031C345.673 80.2356 345.494 80.4681 345.333 80.6345C345.174 80.7997 344.931 81.007 344.564 81.1964C344.211 81.3788 343.545 81.6432 342.623 81.6432V68.7625C339.571 68.7625 337.293 70.4144 336.055 71.7C334.803 72.9998 333.331 75.25 333.331 78.1379H346.212ZM340.862 72.7877C342.417 72.7877 344.054 73.5307 345.125 74.9371C345.985 76.0655 346.212 77.252 346.212 78.1379H333.331C333.331 79.4432 333.684 81.1747 334.879 82.7434C336.286 84.59 338.468 85.6684 340.862 85.6684V72.7877ZM340.756 72.789C340.791 72.7882 340.826 72.7877 340.862 72.7877V85.6684C340.925 85.6684 340.989 85.6677 341.051 85.6662L340.756 72.789ZM333.415 78.1379C333.415 79.008 333.557 80.7712 334.754 82.4988C336.21 84.5995 338.496 85.6146 340.756 85.6663L341.051 72.7889C341.627 72.8021 342.425 72.9296 343.279 73.3628C344.153 73.8063 344.847 74.4496 345.341 75.1612C346.235 76.4521 346.296 77.6806 346.296 78.1379H333.415ZM342.501 68.7651C339.53 68.8401 337.317 70.4603 336.093 71.7483C334.86 73.0447 333.415 75.2775 333.415 78.1379H346.296C346.296 78.9749 346.073 79.5754 345.923 79.8917C345.764 80.2245 345.586 80.4571 345.428 80.6227C345.272 80.7875 345.037 80.9901 344.685 81.177C344.347 81.3567 343.712 81.6193 342.826 81.6417L342.501 68.7651ZM348.122 81.3316C346.317 82.6785 344.149 85.339 344.149 88.8718H357.03C357.03 89.9192 356.685 90.6059 356.518 90.885C356.33 91.1993 356.104 91.4466 355.825 91.6549L348.122 81.3316ZM344.149 88.8718C344.149 89.7496 344.293 91.5613 345.548 93.3175C347.077 95.4575 349.435 96.4023 351.68 96.4023V83.5216C352.233 83.5216 353.028 83.6246 353.895 84.0388C354.788 84.4651 355.511 85.1044 356.029 85.8308C356.969 87.1467 357.03 88.4134 357.03 88.8718H344.149ZM351.68 96.4023C353.782 96.4023 355.512 95.6095 356.675 94.8372L349.55 84.1067C349.715 83.9972 349.954 83.8641 350.276 83.7512C350.595 83.6396 351.073 83.5216 351.68 83.5216V96.4023ZM349.297 84.2835C349.453 84.169 349.694 84.0183 350.034 83.8862C350.369 83.7561 350.903 83.6055 351.596 83.6055V96.4862C353.912 96.4862 355.764 95.5164 356.928 94.6605L349.297 84.2835ZM351.596 83.6055C352.262 83.6055 353.144 83.748 354.059 84.2345C354.981 84.7244 355.653 85.4129 356.099 86.0979C356.891 87.3119 356.946 88.4308 356.946 88.8718H344.065C344.065 89.7321 344.204 91.4381 345.31 93.1342C346.698 95.2624 349.036 96.4862 351.596 96.4862V83.6055ZM356.946 88.8718C356.946 89.9706 356.567 90.6992 356.368 91.013C356.149 91.357 355.885 91.6245 355.563 91.8406L348.384 81.1459C346.437 82.4528 344.065 85.1622 344.065 88.8718H356.946ZM342.755 75.9647C340.95 77.3116 338.782 79.972 338.782 83.5049H351.663C351.663 84.5522 351.318 85.2389 351.151 85.5181C350.963 85.8323 350.737 86.0797 350.458 86.2879L342.755 75.9647ZM338.782 83.5049C338.782 84.3826 338.927 86.1943 340.181 87.9506C341.71 90.0906 344.068 91.0354 346.313 91.0354V78.1547C346.866 78.1547 347.661 78.2576 348.528 78.6718C349.421 79.0982 350.144 79.7374 350.662 80.4638C351.602 81.7798 351.663 83.0464 351.663 83.5049H338.782ZM346.313 91.0354C348.415 91.0354 350.145 90.2425 351.308 89.4703L344.183 78.7398C344.348 78.6303 344.587 78.4971 344.909 78.3842C345.228 78.2726 345.706 78.1547 346.313 78.1547V91.0354ZM343.93 78.9166C344.086 78.8021 344.327 78.6514 344.667 78.5193C345.002 78.3892 345.536 78.2386 346.229 78.2386V91.1192C348.546 91.1192 350.397 90.1495 351.561 89.2935L343.93 78.9166ZM346.229 78.2386C346.895 78.2386 347.777 78.381 348.692 78.8675C349.614 79.3574 350.286 80.0459 350.732 80.731C351.524 81.9449 351.579 83.0639 351.579 83.5049H338.698C338.698 84.3652 338.837 86.0711 339.943 87.7673C341.331 89.8954 343.669 91.1192 346.229 91.1192V78.2386ZM351.579 83.5049C351.579 84.6036 351.2 85.3322 351.001 85.6461C350.782 85.9901 350.518 86.2575 350.196 86.4737L343.017 75.779C341.07 77.0858 338.698 79.7952 338.698 83.5049H351.579ZM340.071 84.0151C338.266 85.362 336.099 88.0224 336.099 91.5553H348.979C348.979 92.6027 348.634 93.2893 348.468 93.5685C348.28 93.8828 348.054 94.1301 347.775 94.3384L340.071 84.0151ZM336.099 91.5553C336.099 92.433 336.243 94.2448 337.497 96.001C339.026 98.141 341.384 99.0858 343.629 99.0858V86.2051C344.182 86.2051 344.977 86.308 345.845 86.7223C346.738 87.1486 347.46 87.7879 347.979 88.5142C348.919 89.8302 348.979 91.0968 348.979 91.5553H336.099ZM343.629 99.0858C345.732 99.0858 347.462 98.2929 348.625 97.5207L341.5 86.7902C341.665 86.6807 341.903 86.5475 342.226 86.4347C342.545 86.3231 343.023 86.2051 343.629 86.2051V99.0858ZM341.247 86.967C341.402 86.8525 341.643 86.7018 341.984 86.5697C342.319 86.4396 342.852 86.289 343.545 86.289V99.1697C345.862 99.1697 347.714 98.1999 348.878 97.344L341.247 86.967ZM343.545 86.289C344.211 86.289 345.093 86.4315 346.009 86.9179C346.93 87.4079 347.602 88.0963 348.049 88.7814C348.841 89.9953 348.896 91.1143 348.896 91.5553H336.015C336.015 92.4156 336.154 94.1216 337.26 95.8177C338.648 97.9459 340.985 99.1697 343.545 99.1697V86.289ZM348.896 91.5553C348.896 92.6541 348.517 93.3826 348.317 93.6965C348.099 94.0405 347.834 94.308 347.512 94.5241L340.334 83.8294C338.387 85.1363 336.015 87.8456 336.015 91.5553H348.896ZM334.704 78.6482C332.899 79.9951 330.732 82.6555 330.732 86.1883H343.612C343.612 87.2357 343.267 87.9224 343.101 88.2015C342.913 88.5158 342.687 88.7632 342.408 88.9714L334.704 78.6482ZM330.732 86.1883C330.732 87.0661 330.876 88.8778 332.131 90.634C333.659 92.7741 336.017 93.7188 338.262 93.7188V80.8382C338.815 80.8382 339.61 80.9411 340.478 81.3553C341.371 81.7816 342.093 82.4209 342.612 83.1473C343.552 84.4632 343.612 85.7299 343.612 86.1883H330.732ZM338.262 93.7188C340.365 93.7188 342.095 92.926 343.258 92.1537L336.133 81.4233C336.298 81.3138 336.536 81.1806 336.859 81.0677C337.178 80.9561 337.656 80.8382 338.262 80.8382V93.7188ZM335.88 81.6C336.036 81.4856 336.276 81.3349 336.617 81.2027C336.952 81.0727 337.485 80.922 338.178 80.922V93.8027C340.495 93.8027 342.347 92.8329 343.511 91.977L335.88 81.6ZM338.178 80.922C338.844 80.922 339.726 81.0645 340.642 81.551C341.563 82.0409 342.235 82.7294 342.682 83.4144C343.474 84.6284 343.529 85.7474 343.529 86.1883H330.648C330.648 87.0486 330.787 88.7546 331.893 90.4507C333.281 92.5789 335.618 93.8027 338.178 93.8027V80.922ZM343.529 86.1883C343.529 87.2871 343.15 88.0157 342.95 88.3295C342.732 88.6735 342.467 88.941 342.145 89.1572L334.967 78.4624C333.02 79.7693 330.648 82.4787 330.648 86.1883H343.529ZM365.208 72.039C366.624 70.5679 367.957 68.8351 368.975 67.1229C369.806 65.7278 371.118 63.2344 371.118 60.5276H358.237C358.237 59.8374 358.406 59.5105 358.327 59.7177C358.277 59.8483 358.15 60.127 357.906 60.5362C357.416 61.3608 356.693 62.3114 355.93 63.1044L365.208 72.039ZM372.46 71.1777C372.46 69.5472 371.892 68.2998 371.511 67.6174C371.101 66.8824 370.626 66.3051 370.246 65.8948C369.484 65.073 368.608 64.3938 367.822 63.867C366.267 62.8253 364.194 61.8044 362.032 61.2999L359.105 73.8436C359.236 73.8741 359.483 73.9521 359.808 74.1006C360.127 74.2458 360.424 74.4146 360.653 74.5679C360.915 74.7434 360.93 74.7928 360.798 74.6497C360.732 74.5788 360.506 74.3283 360.266 73.8984C360.055 73.5209 359.579 72.5565 359.579 71.1777H372.46ZM359.395 80.9723C362.374 80.9723 365.11 79.9651 367.042 78.8869C368.031 78.3344 369.063 77.6237 369.946 76.756C370.385 76.3248 370.919 75.7263 371.381 74.9603C371.803 74.2605 372.46 72.9345 372.46 71.1777H359.579C359.579 69.6934 360.129 68.6766 360.35 68.3093C360.612 67.8758 360.852 67.633 360.919 67.5674C361.058 67.4308 361.031 67.4906 360.762 67.6404C360.525 67.7732 360.231 67.9008 359.937 67.9884C359.636 68.078 359.45 68.0917 359.395 68.0917V80.9723ZM356.79 80.7634C357.911 80.9876 358.67 80.9723 359.395 80.9723V68.0917C359.299 68.0917 359.221 68.0917 359.151 68.0915C359.082 68.0914 359.031 68.0911 358.991 68.0907C358.952 68.0903 358.932 68.0898 358.925 68.0896C358.918 68.0895 358.93 68.0897 358.955 68.0911C358.981 68.0926 359.019 68.0951 359.065 68.0994C359.112 68.1038 359.159 68.1092 359.203 68.1153C359.292 68.1274 359.342 68.138 359.316 68.1329L356.79 80.7634ZM351.613 74.3643V74.4481H364.493V74.3643H351.613ZM345.532 70.9517L353.499 78.9183L362.607 69.8103L354.64 61.8437L345.532 70.9517ZM350.002 72.8381H350.086V59.9574H350.002V72.8381ZM343.478 65.056C343.478 65.7809 343.463 66.5399 343.687 67.6608L356.318 65.1347C356.313 65.1088 356.323 65.1588 356.335 65.2471C356.341 65.2919 356.347 65.3385 356.351 65.3853C356.355 65.4315 356.358 65.4692 356.36 65.4954C356.361 65.5204 356.361 65.5325 356.361 65.526C356.361 65.5189 356.36 65.499 356.36 65.4594C356.36 65.4196 356.359 65.3687 356.359 65.2995C356.359 65.23 356.359 65.1521 356.359 65.056H343.478ZM353.273 51.9908C351.593 51.9908 350.307 52.5903 349.596 53.0007C348.827 53.4445 348.221 53.9633 347.776 54.3996C346.884 55.2754 346.155 56.3048 345.586 57.3057C344.464 59.2818 343.478 62.0261 343.478 65.056H356.359C356.359 64.7315 356.505 64.1634 356.787 63.6656C356.921 63.4297 356.962 63.4318 356.802 63.5896C356.723 63.6668 356.472 63.9039 356.036 64.1558C355.658 64.3742 354.681 64.8715 353.273 64.8715V51.9908ZM363.478 65.0616C363.325 62.0767 362.181 59.3238 361.051 57.4099C360.468 56.4217 359.739 55.4025 358.883 54.5351C358.46 54.1064 357.873 53.579 357.129 53.1188C356.48 52.7176 355.114 51.9908 353.273 51.9908V64.8715C352.444 64.8715 351.78 64.6992 351.338 64.5424C350.892 64.3841 350.561 64.2017 350.353 64.0734C349.956 63.8277 349.746 63.6142 349.715 63.5824C349.642 63.5091 349.758 63.6167 349.96 63.9598C350.146 64.2743 350.322 64.6467 350.448 65.0142C350.578 65.3929 350.61 65.6359 350.615 65.7213L363.478 65.0616ZM354.417 58.2814C354.146 58.9756 354.026 59.2496 353.866 59.5074C353.743 59.7052 353.553 59.9573 353.15 60.2639L360.944 70.519C364.576 67.7586 365.801 64.5421 366.417 62.962L354.417 58.2814ZM362.581 51.9908C360.075 51.9908 357.793 53.022 356.202 54.9764C355.112 56.3159 354.543 57.9567 354.417 58.2814L366.417 62.9619C366.484 62.7913 366.526 62.682 366.565 62.5862C366.583 62.5423 366.596 62.5109 366.606 62.4887C366.615 62.4667 366.62 62.4581 366.619 62.4599C366.618 62.4617 366.61 62.4779 366.596 62.5054C366.582 62.533 366.559 62.5755 366.527 62.6296C366.465 62.7354 366.356 62.9059 366.191 63.1079C365.837 63.5435 365.273 64.0618 364.474 64.433C363.693 64.7958 363.002 64.8715 362.581 64.8715V51.9908ZM371.118 60.5276C371.118 55.7967 367.312 51.9908 362.581 51.9908V64.8715C360.198 64.8715 358.237 62.9105 358.237 60.5276H371.118ZM367.009 85.5175C367.009 79.0975 363.294 74.3369 360.508 71.6539L351.573 80.9321C353.315 82.6098 354.128 84.2225 354.128 85.5175H367.009ZM338.383 107.891C355.486 107.793 367.009 96.7889 367.009 85.5175H354.128C354.128 87.6635 350.557 94.9404 338.309 95.0104L338.383 107.891ZM316.56 86.0206C316.56 91.8649 317.089 98.1942 321.29 102.609C325.576 107.113 331.97 107.891 338.346 107.891V95.0103C332.144 95.0103 330.865 93.9854 330.622 93.7301C330.294 93.3861 329.44 92.0004 329.44 86.0206H316.56ZM338.849 57.4416C327.472 57.4416 316.56 69.08 316.56 86.0206H329.44C329.44 73.9462 336.642 70.3223 338.849 70.3223V57.4416ZM352.713 63.8592C349.948 60.9876 345.194 57.4416 338.849 57.4416V70.3223C340.22 70.3223 341.839 71.137 343.435 72.7938L352.713 63.8592ZM360.594 71.739L352.628 63.7725L343.52 72.8805L351.486 80.847L360.594 71.739Z" fill="#FCE1E8" mask="url(#path-14-outside-1_329_4355)"/>
<path d="M337.34 91.3039C335.998 91.3039 334.489 92.8972 334.489 94.239C334.489 94.6583 334.656 95.3291 335.579 95.3291C336.921 95.3291 338.514 93.8197 338.514 92.4779C338.514 91.5555 337.759 91.3039 337.34 91.3039ZM332.895 81.9118C334.237 81.9118 335.83 80.4023 335.83 79.0606C335.83 78.1381 335.076 77.8865 334.656 77.8865C333.315 77.8865 331.805 79.4799 331.805 80.8216C331.805 81.2409 331.973 81.9118 332.895 81.9118ZM331.973 85.937C330.631 85.937 329.122 87.5303 329.122 88.872C329.122 89.2913 329.29 89.9622 330.212 89.9622C331.554 89.9622 333.147 88.4527 333.147 87.111C333.147 86.1885 332.392 85.937 331.973 85.937ZM335.579 73.8613C336.921 73.8613 338.514 72.3519 338.514 71.0101C338.514 70.0877 337.759 69.8361 337.34 69.8361C335.998 69.8361 334.489 71.4294 334.489 72.7712C334.489 73.1905 334.656 73.8613 335.579 73.8613ZM340.946 79.2283C342.288 79.2283 343.881 77.7188 343.881 76.3771C343.881 75.4546 343.126 75.2031 342.707 75.2031C341.365 75.2031 339.856 76.7964 339.856 78.1381C339.856 78.5574 340.023 79.2283 340.946 79.2283ZM353.441 85.937C352.099 85.937 350.59 87.5303 350.59 88.872C350.59 89.2913 350.757 89.9622 351.68 89.9622C353.021 89.9622 354.615 88.4527 354.615 87.111C354.615 86.1885 353.86 85.937 353.441 85.937ZM348.074 80.57C346.732 80.57 345.223 82.1633 345.223 83.5051C345.223 83.9244 345.39 84.5952 346.313 84.5952C347.655 84.5952 349.248 83.0858 349.248 81.744C349.248 80.8216 348.493 80.57 348.074 80.57ZM345.39 88.6204C344.049 88.6204 342.539 90.2138 342.539 91.5555C342.539 91.9748 342.707 92.6457 343.629 92.6457C344.971 92.6457 346.564 91.1362 346.564 89.7945C346.564 88.872 345.81 88.6204 345.39 88.6204ZM340.023 83.2535C338.682 83.2535 337.172 84.8468 337.172 86.1885C337.172 86.6078 337.34 87.2787 338.262 87.2787C339.604 87.2787 341.197 85.7693 341.197 84.4275C341.197 83.5051 340.443 83.2535 340.023 83.2535ZM360.569 67.5719C362.749 65.3078 364.678 62.205 364.678 60.5278C364.678 59.3538 363.755 58.4314 362.581 58.4314C359.898 58.4314 361.24 62.205 357.047 65.3916C356.879 62.1211 354.363 58.4314 353.273 58.4314C352.183 58.4314 349.919 61.7018 349.919 65.0562C349.919 65.8109 349.919 65.9786 350.003 66.3979C350.003 66.3979 350.003 66.3979 350.086 66.3979L358.053 74.3645C358.053 74.4483 358.053 74.4483 358.053 74.4483C358.472 74.5322 358.64 74.5322 359.395 74.5322C362.581 74.5322 366.02 72.268 366.02 71.1779C366.02 70.1716 363.085 68.1589 360.569 67.5719Z" fill="#648027"/>
<path d="M360.569 85.5177C360.569 81.6602 358.305 78.4736 356.04 76.2932L348.074 68.3267C345.894 66.0625 342.707 63.8822 338.849 63.8822C332.057 63.8822 323 71.5133 323 86.0208C323 97.8449 325.767 101.451 338.346 101.451C353.021 101.367 360.569 92.2264 360.569 85.5177ZM339.772 78.1381C339.772 76.7964 341.281 75.2031 342.623 75.2031C343.126 75.2031 343.797 75.4546 343.797 76.3771C343.797 77.7188 342.204 79.2283 340.862 79.2283C340.023 79.2283 339.772 78.5574 339.772 78.1381ZM334.405 72.7712C334.405 71.4294 335.914 69.8361 337.256 69.8361C337.759 69.8361 338.43 70.0877 338.43 71.0101C338.43 72.3519 336.837 73.8613 335.495 73.8613C334.656 73.8613 334.405 73.1905 334.405 72.7712ZM331.721 80.8216C331.721 79.4799 333.231 77.8865 334.573 77.8865C335.076 77.8865 335.747 78.1381 335.747 79.0606C335.747 80.4023 334.153 81.9118 332.812 81.9118C331.973 81.9118 331.721 81.2409 331.721 80.8216ZM333.063 87.111C333.063 88.4527 331.47 90.046 330.128 90.046C329.206 90.046 329.038 89.2913 329.038 88.872C329.038 87.5303 330.547 86.0208 331.889 86.0208C332.392 85.937 333.063 86.1885 333.063 87.111ZM338.43 92.4779C338.43 93.8197 336.837 95.413 335.495 95.413C334.573 95.413 334.405 94.6583 334.405 94.239C334.405 92.8972 335.914 91.3878 337.256 91.3878C337.759 91.3039 338.43 91.5555 338.43 92.4779ZM341.114 84.4275C341.114 85.7693 339.52 87.3626 338.179 87.3626C337.256 87.3626 337.088 86.6078 337.088 86.1885C337.088 84.8468 338.598 83.3374 339.94 83.3374C340.443 83.2535 341.114 83.5051 341.114 84.4275ZM346.481 89.7945C346.481 91.1362 344.887 92.7295 343.545 92.7295C342.623 92.7295 342.455 91.9748 342.455 91.5555C342.455 90.2138 343.965 88.7043 345.307 88.7043C345.81 88.6204 346.481 88.872 346.481 89.7945ZM349.164 81.744C349.164 83.0858 347.571 84.6791 346.229 84.6791C345.307 84.6791 345.139 83.9244 345.139 83.5051C345.139 82.1633 346.648 80.6539 347.99 80.6539C348.493 80.57 349.164 80.8216 349.164 81.744ZM354.531 87.111C354.531 88.4527 352.938 90.046 351.596 90.046C350.673 90.046 350.506 89.2913 350.506 88.872C350.506 87.5303 352.015 86.0208 353.357 86.0208C353.86 85.937 354.531 86.1885 354.531 87.111Z" fill="#EF6B8A"/>
</g>
<path d="M35.251 18H374.866C383.553 18 390.468 25.2791 390.022 33.9553L373.905 347.602C373.491 355.671 366.828 362 358.749 362H19.1344C10.4468 362 3.53214 354.721 3.97796 346.045L20.0945 32.3976C20.5091 24.3292 27.172 18 35.251 18Z" stroke="#2C2336" stroke-width="6"/>
<circle cx="71" cy="38" r="12.5" fill="white" stroke="#2C2336" stroke-width="3"/>
<rect x="65.5" y="4.5" width="11" height="35" rx="5.5" fill="#EEEEF2" stroke="#2C2336" stroke-width="3"/>
<circle cx="137.25" cy="38" r="12.5" fill="white" stroke="#2C2336" stroke-width="3"/>
<rect x="131.75" y="4.5" width="11" height="35" rx="5.5" fill="#EEEEF2" stroke="#2C2336" stroke-width="3"/>
<circle cx="203.5" cy="38" r="12.5" fill="white" stroke="#2C2336" stroke-width="3"/>
<rect x="198" y="4.5" width="11" height="35" rx="5.5" fill="#EEEEF2" stroke="#2C2336" stroke-width="3"/>
<circle cx="269.75" cy="38" r="12.5" fill="white" stroke="#2C2336" stroke-width="3"/>
<rect x="264.25" y="4.5" width="11" height="35" rx="5.5" fill="#EEEEF2" stroke="#2C2336" stroke-width="3"/>
<circle cx="336" cy="38" r="12.5" fill="white" stroke="#2C2336" stroke-width="3"/>
<rect x="330.5" y="4.5" width="11" height="35" rx="5.5" fill="#EEEEF2" stroke="#2C2336" stroke-width="3"/>
</g>
<defs>
<linearGradient id="paint0_linear_329_4355" x1="196.5" y1="15" x2="196.5" y2="354" gradientUnits="userSpaceOnUse">
<stop stop-color="#EF6B8A"/>
<stop offset="1" stop-color="#F5A6B9"/>
</linearGradient>
<clipPath id="clip0_329_4355">
<rect width="394" height="365" fill="white"/>
</clipPath>
</defs>
</svg>
