<svg width="1033" height="632" viewBox="0 0 1033 632" fill="none" xmlns="http://www.w3.org/2000/svg">
<mask id="mask0_280_2268" style="mask-type:alpha" maskUnits="userSpaceOnUse" x="0" y="0" width="1032" height="632">
<path d="M31.6133 17.243C32.1102 7.57999 40.09 0 49.7658 0H1013.36C1023.77 0 1032.05 8.71841 1031.52 19.1099L1000.89 614.757C1000.39 624.42 992.41 632 982.734 632H19.1352C8.72991 632 0.448336 623.282 0.982711 612.89L31.6133 17.243Z" fill="#FF0000"/>
</mask>
<g mask="url(#mask0_280_2268)">
<circle cx="791.5" cy="155.5" r="15.5" fill="#42394D" stroke="#2C2336" stroke-width="3" stroke-linecap="round"/>
<circle cx="897.5" cy="160.5" r="15.5" fill="#42394D" stroke="#2C2336" stroke-width="3" stroke-linecap="round"/>
<path d="M797.291 146.632L799.463 143.352C805.381 134.414 814.236 127.826 824.497 124.726C829.418 123.239 834.553 122.588 839.69 122.801L846.918 123.1L861.271 125.414C865.591 126.11 869.764 127.524 873.617 129.597C880.967 133.55 886.866 139.744 890.456 147.278L893.505 153.677C896.364 159.677 898.222 166.105 899.005 172.705C899.449 176.457 899.238 180.258 898.381 183.937L897.455 187.909C896.82 190.633 895.981 193.305 894.946 195.903L889.316 210.032C887.353 214.957 884.384 219.417 880.598 223.127C873.485 230.096 863.923 234 853.964 234L838.932 234C833.357 234 827.829 232.99 822.615 231.019C812.339 227.134 803.787 219.711 798.495 210.085L797.732 208.698C794.933 203.604 793.034 198.065 792.121 192.325L790.958 185.009C789.664 176.873 789.848 168.571 791.501 160.5C793.08 155.765 794.536 150.795 797.291 146.632Z" fill="#42394D" stroke="#2C2336" stroke-width="3" stroke-linecap="round"/>
<path d="M805.11 251.981L807.614 249.277C810.621 246.029 815.174 244.704 819.455 245.83C820.923 246.217 821.897 247.608 821.757 249.121L817 300.5V326.412C817 327.726 816.381 328.964 815.329 329.753C811.463 332.653 806.273 333.07 801.993 330.826L771.985 315.09C769.557 313.817 766.61 314.078 764.444 315.757L746.783 329.454C744.759 331.023 742.04 331.362 739.692 330.338L722.563 322.858C716.984 320.423 716.958 312.519 722.521 310.046L729.87 306.78C730.289 306.594 730.689 306.367 731.064 306.102L738.299 300.994C738.765 300.666 739.188 300.282 739.56 299.851L741.585 297.507C745.976 292.423 752.362 289.5 759.08 289.5C761.675 289.5 764.251 289.937 766.701 290.792L794.5 300.5L799.046 264.961C799.666 260.108 801.786 255.571 805.11 251.981Z" fill="#FFE6D1" stroke="#2C2336" stroke-width="3" stroke-linecap="round"/>
<path d="M880.478 260.707L878.33 258.934C871.514 253.312 862.38 251.251 853.798 253.349C849.359 254.434 847.092 259.422 849.242 263.454L860.464 284.495C860.819 285.161 861.279 285.764 861.826 286.283L879.513 303.039C879.837 303.346 880.131 303.682 880.39 304.045L906.5 340.5L913.5 351.5L923.928 367.616C924.306 368.201 924.58 368.847 924.737 369.526C926.066 375.285 932.77 377.907 937.653 374.577L945.67 369.111C947.992 367.528 949.142 364.71 948.591 361.955L946.414 351.072C945.823 348.116 944.223 345.458 941.888 343.551L921.784 327.14C921.264 326.716 920.808 326.218 920.429 325.664L899.897 295.581C899.633 295.195 899.409 294.783 899.227 294.351L891.032 274.89C888.712 269.379 885.091 264.512 880.478 260.707Z" fill="#FFE6D1" stroke="#2C2336" stroke-width="3" stroke-linecap="round"/>
<path d="M832.5 247V236.5C832.5 232.634 835.634 229.5 839.5 229.5H842.455C846.528 229.5 849.74 232.963 849.436 237.024L848.5 249.5L858.513 251.725C860.703 252.212 862.528 253.719 863.419 255.778L872.428 276.592C875.009 282.556 874.822 289.357 871.915 295.169L871.634 295.733C870.346 298.307 870.766 301.407 872.691 303.546L878.5 310L881.422 314.018C887.371 322.197 891.077 331.789 892.174 341.842L893.433 353.386C893.478 353.795 893.486 354.206 893.458 354.616L890.5 398.5L893.189 471.545C893.378 476.693 896.563 481.253 901.33 483.203C903.247 483.988 904.5 485.853 904.5 487.925V490.5C904.5 498.232 898.232 504.5 890.5 504.5H864.166C862.755 504.5 861.377 504.074 860.213 503.277L856.858 500.982C854.278 499.217 853.181 495.956 854.17 492.991L858.141 481.078C858.379 480.364 858.5 479.616 858.5 478.864V413.651C858.5 413.218 858.46 412.786 858.38 412.361L848.636 360.392C848.267 358.425 846.55 357 844.549 357C842.985 357 841.553 357.878 840.844 359.272L813.96 412.096C813.655 412.696 813.438 413.336 813.315 413.997L808.5 440L803 474L795.927 499.379C795.084 502.406 792.326 504.5 789.184 504.5H747.5H725.939C724.999 504.5 724.079 504.232 723.286 503.728L720.992 502.268C713.963 497.794 712.187 488.306 717.123 481.593C719.269 478.674 722.57 476.82 726.18 476.506L750.751 474.369C753.361 474.143 755.625 472.478 756.62 470.055L786 398.5L816.258 312.119C816.74 310.741 816.78 309.246 816.371 307.845L813.823 299.108C813.609 298.374 813.276 297.68 812.838 297.054L809.589 292.413C805.484 286.548 804.649 278.995 807.375 272.375L810 266L816.445 250.078C817.652 247.095 820.738 245.32 823.923 245.775L832.5 247Z" fill="#FFE6D1" stroke="#2C2336" stroke-width="3" stroke-linecap="round"/>
<path d="M726.18 476.506L750.751 474.369C753.361 474.143 755.625 472.478 756.62 470.055L779.02 415.5L811.741 422.5L808.5 440L803 474L795.927 499.379C795.084 502.406 792.326 504.5 789.184 504.5H747.5H725.939C724.999 504.5 724.079 504.232 723.286 503.728L720.992 502.268C713.963 497.794 712.187 488.306 717.123 481.593C719.269 478.674 722.57 476.82 726.18 476.506Z" fill="#FCFCFC"/>
<path d="M854.17 492.991L858.141 481.078C858.379 480.364 858.5 479.616 858.5 478.864V418.5L891.126 415.5L893.189 471.545C893.378 476.693 896.563 481.253 901.33 483.203C903.247 483.988 904.5 485.853 904.5 487.925V490.5C904.5 498.232 898.232 504.5 890.5 504.5H864.166C862.755 504.5 861.377 504.074 860.213 503.277L856.858 500.982C854.278 499.217 853.181 495.956 854.17 492.991Z" fill="#FCFCFC"/>
<path d="M726.18 476.506L750.751 474.369C753.361 474.143 755.625 472.478 756.62 470.055L779.02 415.5L811.741 422.5L808.5 440L803 474L795.927 499.379C795.084 502.406 792.326 504.5 789.184 504.5H747.5H725.939C724.999 504.5 724.079 504.232 723.286 503.728L720.992 502.268C713.963 497.794 712.187 488.306 717.123 481.593C719.269 478.674 722.57 476.82 726.18 476.506Z" stroke="#2C2336" stroke-width="3" stroke-linecap="round"/>
<path d="M854.17 492.991L858.141 481.078C858.379 480.364 858.5 479.616 858.5 478.864V418.5L891.126 415.5L893.189 471.545C893.378 476.693 896.563 481.253 901.33 483.203C903.247 483.988 904.5 485.853 904.5 487.925V490.5C904.5 498.232 898.232 504.5 890.5 504.5H864.166C862.755 504.5 861.377 504.074 860.213 503.277L856.858 500.982C854.278 499.217 853.181 495.956 854.17 492.991Z" stroke="#2C2336" stroke-width="3" stroke-linecap="round"/>
<circle cx="801.5" cy="196.5" r="11.5" fill="#FFE6D1" stroke="#2C2336" stroke-width="3" stroke-linecap="round"/>
<circle cx="888.5" cy="201.5" r="11.5" fill="#FFE6D1" stroke="#2C2336" stroke-width="3" stroke-linecap="round"/>
<path d="M804.966 158.896L805.15 154.475C809.048 143.774 817.368 135.272 827.982 131.142C833.07 129.162 838.513 128.257 843.968 128.482L852.083 128.818C857.73 129.052 863.239 130.631 868.151 133.424C873.814 136.645 878.481 141.362 881.64 147.06L882.631 148.848C886.438 155.715 888.281 163.498 887.956 171.343L887.295 187.324L886.874 197.498C886.503 206.466 883.277 215.081 877.665 222.086C874.652 225.849 871.014 229.066 866.912 231.597L864.006 233.391C857.556 237.37 850.064 239.329 842.493 239.016C835.08 238.709 827.92 236.238 821.896 231.908L820.628 230.997C815.386 227.229 811.069 222.32 808.002 216.64C804.359 209.893 802.604 202.289 802.921 194.629L804.966 158.896Z" fill="#FFE6D1" stroke="#2C2336" stroke-width="3" stroke-linecap="round"/>
<ellipse cx="866.651" cy="202.483" rx="16" ry="15" transform="rotate(2.36878 866.651 202.483)" fill="url(#paint0_radial_280_2268)" fill-opacity="0.7"/>
<ellipse cx="818.693" cy="200.5" rx="16" ry="15" transform="rotate(2.36878 818.693 200.5)" fill="url(#paint1_radial_280_2268)" fill-opacity="0.7"/>
<path d="M839.614 199.363L839.588 199.997C839.538 201.2 839.06 202.345 838.239 203.227L838.132 203.342C837.566 203.949 837.18 204.701 837.016 205.514V205.514C836.63 207.433 837.531 209.381 839.244 210.327L840.281 210.901" stroke="#BF566E" stroke-width="3" stroke-linecap="round"/>
<path d="M835.92 219.561L837.432 220.489C839.492 221.752 841.87 222.401 844.287 222.36V222.36C846.833 222.316 849.307 221.508 851.388 220.041L852.96 218.932" stroke="#BF566E" stroke-width="3" stroke-linecap="round"/>
<path d="M815.21 163.91L798.898 170.945L793.902 170.738L797.062 154.836L819.556 131.245L841.338 124.871L858.74 127.592L872.064 132.147L881.245 140.033L892.882 161.157L893.622 179.578L881.327 174.354L874.057 170.248C867.524 166.557 861.521 161.998 856.213 156.695L855.018 155.501C851.862 152.347 848.964 148.944 846.355 145.324L845.07 143.541L837.786 150.246L829.675 155.877C825.133 159.029 820.287 161.721 815.21 163.91Z" fill="#42394D"/>
<path d="M873.318 171.554C866.667 167.797 860.556 163.155 855.152 157.756L853.957 156.562C850.744 153.351 847.794 149.886 845.137 146.201L844.841 145.79L838.726 151.419L830.529 157.109C825.905 160.319 820.972 163.059 815.803 165.288L802.904 170.85L803.042 167.524L814.615 162.533C819.601 160.383 824.359 157.74 828.818 154.645L836.845 149.072L845.297 141.292L847.571 144.447C850.133 148.001 852.978 151.343 856.078 154.44L857.273 155.634C862.485 160.842 868.379 165.318 874.794 168.942L881.99 173.007L889.16 176.054L889.028 179.257L880.662 175.702L873.318 171.554Z" fill="#2C2336"/>
<rect x="858.383" y="184.626" width="11" height="14" rx="5.5" transform="rotate(2.36878 858.383 184.626)" fill="#2C2336"/>
<rect x="821.436" y="182.598" width="11" height="14" rx="5.5" transform="rotate(2.36878 821.436 182.598)" fill="#2C2336"/>
<path d="M835.113 187.162V187.162C830.071 179.825 819.305 179.63 814 186.779V186.779" stroke="#2C2336" stroke-width="4" stroke-linecap="round"/>
<path d="M876.113 189.162V189.162C871.071 181.825 860.305 181.63 855 188.779V188.779" stroke="#2C2336" stroke-width="4" stroke-linecap="round"/>
<path d="M815 267C815 273.901 827.209 277.122 822.74 281.5C818.625 285.531 813.089 288 807 288C794.297 288 784 277.255 784 264C784 250.745 794.297 240 807 240C813.089 240 818.625 242.469 822.74 246.5C827.209 250.878 815 260.099 815 267Z" fill="#EF6B8A"/>
<path d="M815 267C815 260.099 827.209 250.878 822.74 246.5M815 267L822.74 246.5M815 267C815 273.901 827.209 277.122 822.74 281.5M815 267L822.74 281.5M822.74 246.5C818.625 242.469 813.089 240 807 240C794.297 240 784 250.745 784 264C784 277.255 794.297 288 807 288C813.089 288 818.625 285.531 822.74 281.5" stroke="#2C2336" stroke-width="3" stroke-linecap="round"/>
<path d="M876.683 295C889.386 295 899.683 284.255 899.683 271C899.683 257.745 889.386 247 876.683 247C871.187 247 866.14 249.012 862.183 252.369L866.183 275L858 285C862.175 291.056 868.988 295 876.683 295Z" fill="#EF6B8A" stroke="#2C2336" stroke-width="3" stroke-linecap="round"/>
<rect x="792.061" y="280" width="23" height="9" rx="3" transform="rotate(6.76367 792.061 280)" fill="#EF6B8A" stroke="#2C2336" stroke-width="3" stroke-linecap="round"/>
<rect x="869.684" y="293.384" width="27.7969" height="9" rx="3" transform="rotate(-19.7314 869.684 293.384)" fill="#EF6B8A" stroke="#2C2336" stroke-width="3" stroke-linecap="round"/>
<path d="M812.893 297.133L809.589 292.413C805.484 286.548 804.649 278.995 807.375 272.375L810 266L818.78 245.205C819.187 244.242 820.265 243.755 821.255 244.085L823.988 244.996C823.996 244.999 824.001 245.004 824.003 245.012L825.52 250.237C827.314 256.414 832.741 260.839 839.153 261.352L840.404 261.452C847.786 262.043 854.372 256.834 855.498 249.515C855.499 249.507 855.507 249.501 855.514 249.503L861.922 250.784C862.593 250.919 863.149 251.387 863.396 252.026L873.003 276.935C875.231 282.709 874.923 289.155 872.155 294.691L871.279 296.442C870.176 298.648 867.993 300.111 865.533 300.293L820.428 303.618C817.408 303.841 814.644 301.922 813.796 299.016C813.6 298.343 813.295 297.707 812.893 297.133Z" fill="#EF6B8A" stroke="#2C2336" stroke-width="3" stroke-linecap="round"/>
<path fill-rule="evenodd" clip-rule="evenodd" d="M731 468.999C719.954 468.999 711 477.953 711 488.999V512.999C711 516.312 713.686 518.999 717 518.999H754.585L764 506.627V518.999H798C801.314 518.999 804 516.312 804 512.999V491.999C804 490.342 802.657 488.999 801 488.999H766H764H740V476.732C740 472.461 736.538 468.999 732.267 468.999H731Z" fill="#42394D"/>
<path d="M754.585 518.999V520.499C755.053 520.499 755.495 520.28 755.779 519.907L754.585 518.999ZM764 506.627H765.5C765.5 505.983 765.089 505.411 764.479 505.205C763.869 505 763.196 505.206 762.806 505.718L764 506.627ZM764 518.999H762.5C762.5 519.827 763.172 520.499 764 520.499V518.999ZM740 488.999H738.5C738.5 489.827 739.172 490.499 740 490.499V488.999ZM712.5 488.999C712.5 478.781 720.783 470.499 731 470.499V467.499C719.126 467.499 709.5 477.124 709.5 488.999H712.5ZM709.5 488.999V512.999H712.5V488.999H709.5ZM709.5 512.999C709.5 517.141 712.858 520.499 717 520.499V517.499C714.515 517.499 712.5 515.484 712.5 512.999H709.5ZM717 520.499H754.585V517.499H717V520.499ZM755.779 519.907L765.194 507.535L762.806 505.718L753.391 518.09L755.779 519.907ZM762.5 506.627V518.999H765.5V506.627H762.5ZM764 520.499H798V517.499H764V520.499ZM798 520.499C802.142 520.499 805.5 517.141 805.5 512.999H802.5C802.5 515.484 800.485 517.499 798 517.499V520.499ZM805.5 512.999V491.999H802.5V512.999H805.5ZM805.5 491.999C805.5 489.513 803.485 487.499 801 487.499V490.499C801.828 490.499 802.5 491.17 802.5 491.999H805.5ZM801 487.499H766V490.499H801V487.499ZM766 487.499H764V490.499H766V487.499ZM764 487.499H740V490.499H764V487.499ZM738.5 476.732V488.999H741.5V476.732H738.5ZM732.267 470.499C735.709 470.499 738.5 473.289 738.5 476.732H741.5C741.5 471.632 737.366 467.499 732.267 467.499V470.499ZM731 470.499H732.267V467.499H731V470.499Z" fill="#2C2336"/>
<line x1="711" y1="500.499" x2="804" y2="500.499" stroke="#2C2336" stroke-width="3" stroke-linejoin="round"/>
<rect x="747" y="468.838" width="11" height="25.8025" rx="4" transform="rotate(-20.4268 747 468.838)" fill="#42394D" stroke="#2C2336" stroke-width="3" stroke-linejoin="round"/>
<path fill-rule="evenodd" clip-rule="evenodd" d="M873 474C861.954 474 853 482.955 853 494V513C853 516.314 855.686 519 859 519H901C904.314 519 907 516.314 907 513V494C907 482.955 898.046 474 887 474H873Z" fill="#42394D"/>
<path d="M854.5 494C854.5 483.783 862.783 475.5 873 475.5V472.5C861.126 472.5 851.5 482.126 851.5 494H854.5ZM854.5 513V494H851.5V513H854.5ZM859 517.5C856.515 517.5 854.5 515.486 854.5 513H851.5C851.5 517.143 854.858 520.5 859 520.5V517.5ZM901 517.5H859V520.5H901V517.5ZM905.5 513C905.5 515.486 903.485 517.5 901 517.5V520.5C905.142 520.5 908.5 517.143 908.5 513H905.5ZM905.5 494V513H908.5V494H905.5ZM887 475.5C897.217 475.5 905.5 483.783 905.5 494H908.5C908.5 482.126 898.874 472.5 887 472.5V475.5ZM873 475.5H887V472.5H873V475.5Z" fill="#2C2336"/>
<line x1="853" y1="500.5" x2="907" y2="500.5" stroke="#2C2336" stroke-width="3" stroke-linejoin="round"/>
<path d="M930.035 367.473C927.657 369.006 924.488 368.322 922.954 365.945L913.11 350.683L921.719 345.131L931.562 360.393C933.096 362.77 932.412 365.94 930.035 367.473Z" fill="#FFE6D1"/>
<path d="M930.848 368.734C927.775 370.716 923.676 369.831 921.694 366.758L911.037 350.236L913.542 348.62L915.184 351.131L924.215 365.132C925.299 366.813 927.541 367.297 929.222 366.212C930.903 365.128 931.386 362.887 930.302 361.206L924.35 351.979C923.906 351.289 924.097 350.371 924.78 349.917C925.477 349.453 926.418 349.649 926.872 350.352L932.823 359.58C934.805 362.653 933.921 366.751 930.848 368.734Z" fill="#2C2336"/>
<path d="M895.909 211.55L895.231 210.165C894.118 207.894 890.882 207.894 889.769 210.165L889.091 211.55C889.084 211.565 889.068 211.574 889.052 211.573L887.513 211.468C884.99 211.295 883.372 214.098 884.782 216.197L885.643 217.477C885.652 217.491 885.652 217.509 885.643 217.523L884.782 218.803C883.372 220.902 884.99 223.705 887.513 223.532L889.052 223.427C889.068 223.426 889.084 223.435 889.091 223.45L889.769 224.835C890.882 227.106 894.118 227.106 895.231 224.835L895.909 223.45C895.916 223.435 895.932 223.426 895.948 223.427L897.487 223.532C900.01 223.705 901.628 220.902 900.218 218.803L899.357 217.523C899.348 217.509 899.348 217.491 899.357 217.477L900.218 216.197C901.628 214.098 900.01 211.295 897.487 211.468L895.948 211.573C895.932 211.574 895.916 211.565 895.909 211.55Z" fill="#FCFCFC" stroke="#2C2336" stroke-width="3"/>
<path d="M799.909 207.55L799.231 206.165C798.118 203.894 794.882 203.894 793.769 206.165L793.091 207.55C793.084 207.565 793.068 207.574 793.052 207.573L791.513 207.468C788.99 207.295 787.372 210.098 788.782 212.197L789.643 213.477C789.652 213.491 789.652 213.509 789.643 213.523L788.782 214.803C787.372 216.902 788.99 219.705 791.513 219.532L793.052 219.427C793.068 219.426 793.084 219.435 793.091 219.45L793.769 220.835C794.882 223.106 798.118 223.106 799.231 220.835L799.909 219.45C799.916 219.435 799.932 219.426 799.948 219.427L801.487 219.532C804.01 219.705 805.628 216.902 804.218 214.803L803.357 213.523C803.348 213.509 803.348 213.491 803.357 213.477L804.218 212.197C805.628 210.098 804.01 207.295 801.487 207.468L799.948 207.573C799.932 207.574 799.916 207.565 799.909 207.55Z" fill="#FCFCFC" stroke="#2C2336" stroke-width="3"/>
<path fill-rule="evenodd" clip-rule="evenodd" d="M822.313 244.438L819.862 256.695C818.828 261.866 822.117 266.915 827.265 268.059C832.198 269.155 837.146 266.277 838.633 261.446L838.676 261.307C832.473 260.617 827.27 256.26 825.521 250.237L824.004 245.012C824.002 245.004 823.996 244.999 823.989 244.996L822.313 244.438ZM859.001 250.2L855.515 249.503C855.507 249.501 855.5 249.507 855.499 249.515C854.377 256.804 847.841 262 840.496 261.459L840.56 262.033C841.092 266.818 845.204 270.394 850.016 270.257C855.019 270.114 859.001 266.017 859.001 261.012V250.2Z" fill="#FCFCFC"/>
<path d="M819.862 256.695L821.333 256.989L819.862 256.695ZM822.313 244.438L822.788 243.014L821.176 242.477L820.842 244.143L822.313 244.438ZM827.265 268.059L827.59 266.594L827.59 266.594L827.265 268.059ZM838.633 261.446L840.066 261.888L840.066 261.888L838.633 261.446ZM838.676 261.307L840.109 261.748L840.642 260.016L838.841 259.816L838.676 261.307ZM825.521 250.237L824.081 250.655L824.081 250.655L825.521 250.237ZM824.004 245.012L822.564 245.43L822.564 245.43L824.004 245.012ZM823.989 244.996L823.515 246.419L823.515 246.419L823.989 244.996ZM855.515 249.503L855.809 248.032L855.515 249.503ZM859.001 250.2H860.501V248.97L859.295 248.729L859.001 250.2ZM855.499 249.515L854.016 249.287L854.016 249.287L855.499 249.515ZM840.496 261.459L840.606 259.963L838.806 259.831L839.005 261.625L840.496 261.459ZM840.56 262.033L842.051 261.868L842.051 261.868L840.56 262.033ZM850.016 270.257L850.059 271.756L850.059 271.756L850.016 270.257ZM821.333 256.989L823.784 244.732L820.842 244.143L818.391 256.4L821.333 256.989ZM827.59 266.594C823.239 265.627 820.459 261.36 821.333 256.989L818.391 256.4C817.197 262.371 820.995 268.202 826.939 269.523L827.59 266.594ZM837.199 261.005C835.943 265.088 831.76 267.521 827.59 266.594L826.939 269.523C832.636 270.789 838.35 267.466 840.066 261.888L837.199 261.005ZM837.242 260.865L837.199 261.005L840.066 261.888L840.109 261.748L837.242 260.865ZM824.081 250.655C825.999 257.262 831.706 262.041 838.51 262.797L838.841 259.816C833.24 259.193 828.541 255.258 826.962 249.819L824.081 250.655ZM822.564 245.43L824.081 250.655L826.962 249.819L825.445 244.594L822.564 245.43ZM823.515 246.419C823.055 246.266 822.699 245.896 822.564 245.43L825.445 244.594C825.305 244.113 824.938 243.731 824.463 243.573L823.515 246.419ZM821.839 245.861L823.515 246.419L824.463 243.573L822.788 243.014L821.839 245.861ZM855.221 250.974L858.707 251.671L859.295 248.729L855.809 248.032L855.221 250.974ZM856.981 249.743C856.852 250.58 856.051 251.14 855.221 250.974L855.809 248.032C854.963 247.863 854.147 248.434 854.016 249.287L856.981 249.743ZM840.386 262.955C848.511 263.553 855.741 257.806 856.981 249.743L854.016 249.287C853.014 255.802 847.171 260.446 840.606 259.963L840.386 262.955ZM842.051 261.868L841.987 261.294L839.005 261.625L839.069 262.199L842.051 261.868ZM849.973 268.757C845.942 268.872 842.496 265.876 842.051 261.868L839.069 262.199C839.687 267.759 844.467 271.916 850.059 271.756L849.973 268.757ZM857.501 261.012C857.501 265.205 854.165 268.638 849.973 268.757L850.059 271.756C855.873 271.59 860.501 266.829 860.501 261.012H857.501ZM857.501 250.2V261.012H860.501V250.2H857.501Z" fill="#2C2336"/>
<path d="M806.492 314.042L815.5 305.5L871.5 302C889.842 315.193 902.622 334.735 907.356 356.828L908.712 363.154C909.764 368.067 907.36 373.07 902.866 375.317C897.618 377.941 891.234 375.992 888.347 370.884L887 368.5V369.602C887 375.608 882.67 380.739 876.75 381.75C870.801 382.766 864.968 379.415 862.849 373.764L862 371.5L860.946 374.662C859.187 379.94 854.247 383.5 848.684 383.5C844.492 383.5 840.56 381.467 838.137 378.046L833.5 371.5L832.972 373.31C831.211 379.348 825.675 383.5 819.385 383.5C813.447 383.5 808.141 379.794 806.097 374.219L804 368.5L803.65 369.506C801.627 375.323 795.303 378.434 789.459 376.486C784.277 374.759 781.084 369.561 781.884 364.158L782.462 360.254C785.078 342.596 793.539 326.325 806.492 314.042Z" fill="#EF6B8A" stroke="#2C2336" stroke-width="3"/>
<path d="M813.796 302.012C813.918 301.706 814.226 301.515 814.554 301.538V301.538C833.339 302.833 852.389 302.021 870.989 299.092V299.092C871.331 299.038 871.666 299.225 871.8 299.545L874.143 305.146C874.326 305.583 874.055 306.077 873.588 306.159V306.159C853.277 309.705 832.561 310.684 812.005 309.078V309.078C811.507 309.04 811.189 308.529 811.374 308.066L813.796 302.012Z" fill="#EF6B8A" stroke="#2C2336" stroke-width="3" stroke-linecap="round"/>
<circle cx="838.5" cy="276.5" r="3.5" fill="#FCFCFC" stroke="#2C2336" stroke-width="3"/>
<circle cx="838.5" cy="290.5" r="3.5" fill="#FCFCFC" stroke="#2C2336" stroke-width="3"/>
<path fill-rule="evenodd" clip-rule="evenodd" d="M835.791 171.822C836.12 172.876 835.534 174.001 834.468 174.293C829.565 175.638 824.5 176.321 819.41 176.321H816.291C815.186 176.321 814.291 175.426 814.291 174.321V174.321C814.291 173.217 815.186 172.321 816.291 172.321H819.41C824.096 172.321 828.758 171.699 833.275 170.473C834.341 170.183 835.462 170.767 835.791 171.822V171.822Z" fill="#2C2336"/>
<path fill-rule="evenodd" clip-rule="evenodd" d="M855.333 172.874C854.9 173.89 855.371 175.068 856.402 175.465C861.147 177.293 866.118 178.478 871.183 178.987L874.286 179.298C875.385 179.409 876.365 178.607 876.476 177.508V177.508C876.586 176.409 875.784 175.429 874.685 175.318L871.582 175.007C866.92 174.539 862.343 173.454 857.971 171.783C856.939 171.388 855.766 171.857 855.333 172.874V172.874Z" fill="#2C2336"/>
</g>
<defs>
<radialGradient id="paint0_radial_280_2268" cx="0" cy="0" r="1" gradientUnits="userSpaceOnUse" gradientTransform="translate(866.651 202.483) rotate(90) scale(15 16)">
<stop stop-color="#F5A6B9"/>
<stop offset="1" stop-color="#FFB08E" stop-opacity="0"/>
<stop offset="1" stop-color="#F5A6B9" stop-opacity="0"/>
</radialGradient>
<radialGradient id="paint1_radial_280_2268" cx="0" cy="0" r="1" gradientUnits="userSpaceOnUse" gradientTransform="translate(818.693 200.5) rotate(90) scale(15 16)">
<stop stop-color="#F5A6B9"/>
<stop offset="1" stop-color="#FFB08E" stop-opacity="0"/>
<stop offset="1" stop-color="#F5A6B9" stop-opacity="0"/>
</radialGradient>
</defs>
</svg>
