<svg width="1033" height="632" viewBox="0 0 1033 632" fill="none" xmlns="http://www.w3.org/2000/svg">
<mask id="mask0_280_2268" style="mask-type:alpha" maskUnits="userSpaceOnUse" x="0" y="0" width="1032" height="632">
<path d="M31.6133 17.243C32.1102 7.57999 40.09 0 49.7658 0H1013.36C1023.77 0 1032.05 8.71841 1031.52 19.1099L1000.89 614.757C1000.39 624.42 992.41 632 982.734 632H19.1352C8.72991 632 0.448336 623.282 0.982711 612.89L31.6133 17.243Z" fill="#FF0000"/>
</mask>
<g mask="url(#mask0_280_2268)">
<path d="M797.289 146.633L799.461 143.352C805.379 134.414 814.233 127.826 824.494 124.726C829.415 123.239 834.551 122.589 839.688 122.801L846.916 123.1L861.269 125.414C865.589 126.11 873.645 129.427 877.499 131.5C884.999 137 886.864 139.744 890.454 147.278L893.503 153.677C896.362 159.677 898.22 166.105 899.002 172.705C899.45 176.481 899.623 180.284 899.519 184.084L899.394 188.667C899.134 198.198 897.91 207.678 895.743 216.963L892.357 231.467C892.181 232.22 891.318 232.578 890.662 232.17C881.977 226.78 872.286 223.215 862.18 221.692L856.683 220.863C846.289 219.297 835.716 219.342 825.336 220.997L806.499 224L794.82 227.504C793.069 228.029 791.258 226.879 790.99 225.07L789.91 217.779C788.307 206.954 787.786 195.995 788.355 185.066C788.784 176.837 789.845 168.573 791.499 160.5C793.078 155.765 794.534 150.795 797.289 146.633Z" fill="#42394D" stroke="#2C2336" stroke-width="3" stroke-linecap="round"/>
<path d="M805.11 251.981L807.614 249.277C810.621 246.029 815.174 244.704 819.455 245.83C820.923 246.217 821.897 247.608 821.757 249.121L817 300.5V326.412C817 327.726 816.381 328.964 815.329 329.753C811.463 332.653 806.273 333.07 801.993 330.826L771.985 315.09C769.557 313.817 766.61 314.078 764.444 315.757L746.783 329.454C744.759 331.023 742.04 331.362 739.692 330.338L722.563 322.858C716.984 320.423 716.958 312.519 722.521 310.046L729.87 306.78C730.289 306.594 730.689 306.367 731.064 306.102L738.299 300.994C738.765 300.666 739.188 300.282 739.56 299.851L741.585 297.507C745.976 292.423 752.362 289.5 759.08 289.5C761.675 289.5 764.251 289.937 766.701 290.792L794.5 300.5L799.046 264.961C799.666 260.108 801.786 255.571 805.11 251.981Z" fill="#FFE6D1" stroke="#2C2336" stroke-width="3" stroke-linecap="round"/>
<path d="M880.478 260.707L878.33 258.934C871.514 253.312 862.38 251.251 853.798 253.349C849.359 254.434 847.092 259.422 849.242 263.454L860.464 284.495C860.819 285.161 861.279 285.764 861.826 286.283L879.513 303.039C879.837 303.346 880.131 303.682 880.39 304.045L906.5 340.5L913.5 351.5L923.928 367.616C924.306 368.201 924.58 368.847 924.737 369.526C926.066 375.285 932.77 377.907 937.653 374.577L945.67 369.111C947.992 367.528 949.142 364.71 948.591 361.955L946.414 351.072C945.823 348.116 944.223 345.458 941.888 343.551L921.784 327.14C921.264 326.716 920.808 326.218 920.429 325.664L899.897 295.581C899.633 295.195 899.409 294.783 899.227 294.351L891.032 274.89C888.712 269.379 885.091 264.512 880.478 260.707Z" fill="#FFE6D1" stroke="#2C2336" stroke-width="3" stroke-linecap="round"/>
<path d="M832.5 247V236.5C832.5 232.634 835.634 229.5 839.5 229.5H842.455C846.528 229.5 849.74 232.963 849.436 237.024L848.5 249.5L858.513 251.725C860.703 252.212 862.528 253.719 863.419 255.778L872.428 276.592C875.009 282.556 874.822 289.357 871.915 295.169L871.634 295.733C870.346 298.307 870.766 301.407 872.691 303.546L878.5 310L881.422 314.018C887.371 322.197 891.077 331.789 892.174 341.842L893.433 353.386C893.478 353.795 893.486 354.206 893.458 354.616L890.5 398.5L893.189 471.545C893.378 476.693 896.563 481.253 901.33 483.203C903.247 483.988 904.5 485.853 904.5 487.925V490.5C904.5 498.232 898.232 504.5 890.5 504.5H864.166C862.755 504.5 861.377 504.074 860.213 503.277L856.858 500.982C854.278 499.217 853.181 495.956 854.17 492.991L858.141 481.078C858.379 480.364 858.5 479.616 858.5 478.864V413.651C858.5 413.218 858.46 412.786 858.38 412.361L848.636 360.392C848.267 358.425 846.55 357 844.549 357C842.985 357 841.553 357.878 840.844 359.272L813.96 412.096C813.655 412.696 813.438 413.336 813.315 413.997L808.5 440L803 474L795.927 499.379C795.084 502.406 792.326 504.5 789.184 504.5H747.5H725.939C724.999 504.5 724.079 504.232 723.286 503.728L720.992 502.268C713.963 497.794 712.187 488.306 717.123 481.593C719.269 478.674 722.57 476.82 726.18 476.506L750.751 474.369C753.361 474.143 755.625 472.478 756.62 470.055L786 398.5L816.258 312.119C816.74 310.741 816.78 309.246 816.371 307.845L813.823 299.108C813.609 298.374 813.276 297.68 812.838 297.054L809.589 292.413C805.484 286.548 804.649 278.995 807.375 272.375L810 266L816.445 250.078C817.652 247.095 820.738 245.32 823.923 245.775L832.5 247Z" fill="#FFE6D1" stroke="#2C2336" stroke-width="3" stroke-linecap="round"/>
<circle cx="801.5" cy="196.5" r="11.5" fill="#FFE6D1" stroke="#2C2336" stroke-width="3" stroke-linecap="round"/>
<circle cx="888.5" cy="201.5" r="11.5" fill="#FFE6D1" stroke="#2C2336" stroke-width="3" stroke-linecap="round"/>
<path d="M804.968 158.896L805.152 154.475C809.05 143.774 817.37 135.272 827.984 131.142C833.072 129.162 838.515 128.257 843.97 128.482L852.085 128.818C857.732 129.052 863.241 130.631 868.153 133.424C873.816 136.645 878.483 141.362 881.642 147.06L882.633 148.848C886.44 155.715 888.283 163.498 887.958 171.343L887.297 187.324L886.876 197.498C886.505 206.466 883.279 215.081 877.667 222.086C874.653 225.849 871.016 229.066 866.914 231.597L864.008 233.391C857.558 237.37 850.066 239.329 842.495 239.016C835.082 238.709 827.922 236.238 821.898 231.908L820.63 230.997C815.388 227.229 811.071 222.32 808.004 216.64C804.361 209.893 802.606 202.289 802.923 194.629L804.968 158.896Z" fill="#FFE6D1" stroke="#2C2336" stroke-width="3" stroke-linecap="round"/>
<ellipse cx="866.653" cy="202.483" rx="16" ry="15" transform="rotate(2.36878 866.653 202.483)" fill="url(#paint0_radial_280_2268)" fill-opacity="0.7"/>
<ellipse cx="818.694" cy="200.5" rx="16" ry="15" transform="rotate(2.36878 818.694 200.5)" fill="url(#paint1_radial_280_2268)" fill-opacity="0.7"/>
<path d="M839.616 199.363L839.59 199.997C839.54 201.2 839.062 202.345 838.241 203.227L838.134 203.342C837.568 203.949 837.182 204.701 837.018 205.514V205.514C836.632 207.433 837.533 209.381 839.246 210.327L840.283 210.901" stroke="#BF566E" stroke-width="3" stroke-linecap="round"/>
<path d="M835.921 219.561L837.434 220.489C839.494 221.752 841.872 222.401 844.289 222.36V222.36C846.835 222.316 849.309 221.508 851.39 220.041L852.962 218.932" stroke="#BF566E" stroke-width="3" stroke-linecap="round"/>
<path d="M817.639 152.977L815.501 165.5L797.064 171L801 149.5L820.359 130L842.001 125.5L858.499 128L872.499 132L880.999 138L892.499 160.5L893.624 175.579L881.248 171L877.014 169.584C871.355 167.692 865.509 166.416 859.576 165.777L857.001 165.5L842.001 164.5L822.353 164.5C821.308 164.5 820.439 163.695 820.359 162.653L819.622 153.069C819.531 151.894 817.837 151.816 817.639 152.977Z" fill="#42394D"/>
<path d="M870.531 141.596L869.034 139.145C868.467 138.218 869.578 137.18 870.465 137.808L873.175 139.728C876.697 142.223 879.751 145.32 882.197 148.876C886.924 155.752 889.164 164.035 888.549 172.356L888.501 173L876.002 168.5L876.214 166.302C877.049 157.668 875.054 148.997 870.531 141.596Z" fill="#A6D641"/>
<path d="M880.75 172.415L876.539 171.007C870.982 169.149 865.242 167.896 859.416 167.269L856.872 166.995L841.952 166.001L822.354 166.001C820.525 166.001 819.005 164.593 818.864 162.769L818.437 157.219L816.823 166.671L802.856 170.838L803.001 167.664L814.18 164.329L816.161 152.725C816.657 149.821 820.892 150.016 821.118 152.954L821.855 162.539C821.875 162.799 822.093 163.001 822.354 163.001L842.052 163.001L857.132 164.006L859.738 164.286C865.777 164.936 871.729 166.236 877.49 168.162L881.747 169.585L889.003 172.27L889.003 175.469L880.75 172.415Z" fill="#2C2336"/>
<rect x="858.385" y="184.626" width="11" height="14" rx="5.5" transform="rotate(2.36878 858.385 184.626)" fill="#2C2336"/>
<rect x="821.438" y="182.598" width="11" height="14" rx="5.5" transform="rotate(2.36878 821.438 182.598)" fill="#2C2336"/>
<path d="M835.115 187.162V187.162C830.073 179.825 819.307 179.63 814.002 186.779V186.779" stroke="#2C2336" stroke-width="4" stroke-linecap="round"/>
<path d="M876.113 189.162V189.162C871.071 181.825 860.305 181.63 855 188.779V188.779" stroke="#2C2336" stroke-width="4" stroke-linecap="round"/>
<path fill-rule="evenodd" clip-rule="evenodd" d="M835.791 171.822C836.12 172.876 835.534 174.001 834.468 174.293C829.565 175.638 824.5 176.321 819.41 176.321H816.291C815.186 176.321 814.291 175.426 814.291 174.321V174.321C814.291 173.217 815.186 172.321 816.291 172.321H819.41C824.096 172.321 828.758 171.699 833.275 170.473C834.341 170.183 835.462 170.767 835.791 171.822V171.822Z" fill="#2C2336"/>
<path fill-rule="evenodd" clip-rule="evenodd" d="M855.333 172.874C854.9 173.89 855.371 175.068 856.402 175.465C861.147 177.293 866.118 178.478 871.183 178.987L874.286 179.298C875.385 179.409 876.365 178.607 876.476 177.508V177.508C876.586 176.409 875.784 175.429 874.685 175.318L871.582 175.007C866.92 174.539 862.343 173.454 857.971 171.783C856.939 171.388 855.766 171.857 855.333 172.874V172.874Z" fill="#2C2336"/>
<path d="M930.035 367.473C927.657 369.006 924.488 368.322 922.954 365.945L913.11 350.683L921.719 345.131L931.562 360.393C933.096 362.77 932.412 365.94 930.035 367.473Z" fill="#FFE6D1"/>
<path d="M930.848 368.734C927.775 370.716 923.676 369.831 921.694 366.758L911.037 350.236L913.542 348.62L915.184 351.131L924.215 365.132C925.299 366.813 927.541 367.297 929.222 366.212C930.903 365.128 931.386 362.887 930.302 361.206L924.35 351.979C923.906 351.289 924.097 350.371 924.78 349.917C925.477 349.453 926.418 349.649 926.872 350.352L932.823 359.58C934.805 362.653 933.921 366.751 930.848 368.734Z" fill="#2C2336"/>
<mask id="mask1_280_2268" style="mask-type:alpha" maskUnits="userSpaceOnUse" x="794" y="243" width="101" height="130">
<path fill-rule="evenodd" clip-rule="evenodd" d="M832.501 247L820.051 245.221C819.141 245.091 818.259 245.599 817.914 246.451L810.001 266L807.376 272.375C804.65 278.995 805.485 286.548 809.591 292.413L812.839 297.054C813.278 297.681 813.61 298.374 813.825 299.108L816.373 307.845C816.781 309.246 816.742 310.741 816.259 312.119L797.035 367L892.389 370.5L893.46 354.616C893.487 354.206 893.479 353.795 893.434 353.386L892.175 341.842C891.078 331.789 887.372 322.197 881.424 314.018L878.501 310L872.693 303.546C870.767 301.407 870.348 298.307 871.635 295.733L871.917 295.169C874.823 289.357 875.011 282.556 872.429 276.592L862.407 253.437C862.152 252.848 861.631 252.418 861.005 252.279L848.501 249.5L832.501 247ZM838.13 267.968C847.037 269.063 854.561 267.492 854.934 264.459C855.307 261.426 848.388 258.079 839.48 256.983C830.573 255.888 823.049 257.459 822.676 260.492C822.303 263.526 829.222 266.873 838.13 267.968Z" fill="white"/>
<path d="M820.051 245.221L820.263 243.736L820.263 243.736L820.051 245.221ZM832.501 247L832.733 245.518L832.723 245.517L832.713 245.515L832.501 247ZM817.914 246.451L816.524 245.888L817.914 246.451ZM810.001 266L811.388 266.571L811.392 266.563L810.001 266ZM807.376 272.375L805.989 271.804L805.989 271.804L807.376 272.375ZM809.591 292.413L808.362 293.274L808.362 293.274L809.591 292.413ZM812.839 297.054L814.068 296.194L814.068 296.194L812.839 297.054ZM813.825 299.108L815.265 298.688L815.265 298.688L813.825 299.108ZM816.373 307.845L814.933 308.265L814.933 308.265L816.373 307.845ZM816.259 312.119L814.843 311.623L814.843 311.623L816.259 312.119ZM797.035 367L795.619 366.504L794.947 368.424L796.98 368.499L797.035 367ZM892.389 370.5L892.334 371.999L893.788 372.052L893.885 370.601L892.389 370.5ZM893.46 354.616L894.956 354.717L894.956 354.717L893.46 354.616ZM893.434 353.386L891.943 353.549L891.943 353.549L893.434 353.386ZM892.175 341.842L893.666 341.68L893.666 341.68L892.175 341.842ZM878.501 310L879.714 309.118L879.668 309.055L879.616 308.997L878.501 310ZM872.693 303.546L873.808 302.543L873.808 302.543L872.693 303.546ZM871.635 295.733L872.976 296.404L872.976 296.404L871.635 295.733ZM871.917 295.169L870.575 294.499L870.575 294.499L871.917 295.169ZM872.429 276.592L873.806 275.996L873.806 275.996L872.429 276.592ZM862.407 253.437L861.03 254.032L861.03 254.032L862.407 253.437ZM861.005 252.279L860.68 253.743L860.68 253.743L861.005 252.279ZM848.501 249.5L848.827 248.036L848.78 248.025L848.733 248.018L848.501 249.5ZM854.934 264.459L853.445 264.276L853.445 264.276L854.934 264.459ZM839.48 256.983L839.663 255.495L839.663 255.495L839.48 256.983ZM822.676 260.492L824.165 260.675L824.165 260.675L822.676 260.492ZM819.839 246.706L832.289 248.485L832.713 245.515L820.263 243.736L819.839 246.706ZM819.304 247.014C819.391 246.801 819.611 246.674 819.839 246.706L820.263 243.736C818.67 243.509 817.127 244.397 816.524 245.888L819.304 247.014ZM811.392 266.563L819.304 247.014L816.524 245.888L808.611 265.437L811.392 266.563ZM808.763 272.946L811.388 266.571L808.614 265.429L805.989 271.804L808.763 272.946ZM810.819 291.553C807.007 286.107 806.232 279.093 808.763 272.946L805.989 271.804C803.069 278.897 803.963 286.989 808.362 293.274L810.819 291.553ZM814.068 296.194L810.819 291.553L808.362 293.274L811.61 297.914L814.068 296.194ZM815.265 298.688C815.005 297.797 814.6 296.955 814.068 296.194L811.61 297.914C811.955 298.406 812.216 298.952 812.385 299.528L815.265 298.688ZM817.813 307.425L815.265 298.688L812.385 299.528L814.933 308.265L817.813 307.425ZM817.675 312.615C818.261 310.941 818.309 309.127 817.813 307.425L814.933 308.265C815.254 309.366 815.223 310.54 814.843 311.623L817.675 312.615ZM798.451 367.496L817.675 312.615L814.843 311.623L795.619 366.504L798.451 367.496ZM892.444 369.001L797.09 365.501L796.98 368.499L892.334 371.999L892.444 369.001ZM891.963 354.515L890.892 370.399L893.885 370.601L894.956 354.717L891.963 354.515ZM891.943 353.549C891.978 353.87 891.985 354.193 891.963 354.515L894.956 354.717C894.99 354.219 894.98 353.719 894.925 353.223L891.943 353.549ZM890.684 342.005L891.943 353.549L894.925 353.223L893.666 341.68L890.684 342.005ZM880.211 314.901C886.005 322.868 889.615 332.212 890.684 342.005L893.666 341.68C892.541 331.366 888.739 321.526 882.637 313.136L880.211 314.901ZM877.288 310.882L880.211 314.901L882.637 313.136L879.714 309.118L877.288 310.882ZM871.578 304.55L877.386 311.003L879.616 308.997L873.808 302.543L871.578 304.55ZM870.293 295.062C868.73 298.188 869.24 301.952 871.578 304.55L873.808 302.543C872.295 300.862 871.965 298.426 872.976 296.404L870.293 295.062ZM870.575 294.499L870.293 295.062L872.976 296.404L873.258 295.84L870.575 294.499ZM871.052 277.188C873.458 282.745 873.283 289.082 870.575 294.499L873.258 295.84C876.363 289.631 876.563 282.367 873.806 275.996L871.052 277.188ZM861.03 254.032L871.052 277.188L873.806 275.996L863.783 252.841L861.03 254.032ZM860.68 253.743C860.836 253.778 860.966 253.885 861.03 254.032L863.783 252.841C863.338 251.811 862.426 251.058 861.33 250.814L860.68 253.743ZM848.176 250.964L860.68 253.743L861.33 250.814L848.827 248.036L848.176 250.964ZM832.27 248.482L848.27 250.982L848.733 248.018L832.733 245.518L832.27 248.482ZM853.445 264.276C853.43 264.396 853.319 264.728 852.612 265.167C851.92 265.596 850.854 265.995 849.425 266.293C846.585 266.887 842.648 267.012 838.313 266.479L837.946 269.457C842.518 270.019 846.798 269.907 850.039 269.23C851.651 268.893 853.092 268.399 854.194 267.715C855.281 267.041 856.251 266.038 856.422 264.642L853.445 264.276ZM839.297 258.472C843.633 259.005 847.422 260.081 850.034 261.345C851.347 261.98 852.285 262.626 852.853 263.21C853.432 263.807 853.46 264.156 853.445 264.276L856.422 264.642C856.594 263.246 855.897 262.039 855.005 261.12C854.102 260.19 852.824 259.362 851.34 258.644C848.36 257.202 844.235 256.057 839.663 255.495L839.297 258.472ZM824.165 260.675C824.18 260.555 824.291 260.223 824.998 259.785C825.69 259.355 826.756 258.956 828.184 258.658C831.025 258.065 834.962 257.939 839.297 258.472L839.663 255.495C835.091 254.932 830.812 255.044 827.571 255.721C825.958 256.058 824.517 256.552 823.416 257.236C822.328 257.911 821.359 258.913 821.187 260.309L824.165 260.675ZM838.313 266.479C833.977 265.946 830.188 264.87 827.576 263.607C826.262 262.971 825.324 262.326 824.757 261.741C824.178 261.144 824.15 260.796 824.165 260.675L821.187 260.309C821.016 261.706 821.713 262.913 822.605 263.831C823.508 264.761 824.786 265.59 826.269 266.307C829.25 267.749 833.374 268.894 837.946 269.457L838.313 266.479Z" fill="#2C2336"/>
</mask>
<g mask="url(#mask1_280_2268)">
<rect x="774" y="228" width="143" height="159" fill="#FCFCFC"/>
<path d="M855 252L859.094 262.51C862.302 270.743 863.168 279.704 861.595 288.4L861.031 291.517C860.35 295.286 860.374 299.15 861.102 302.91V302.91C861.697 305.981 862.754 308.943 864.237 311.696L866.995 316.817C869.653 321.752 871.627 327.026 872.862 332.493V332.493C874.279 338.759 874.71 345.207 874.139 351.605L872.5 370" stroke="#CAE68D" stroke-width="3"/>
<path d="M823.5 246.5L817 265.5L816.321 267.412C813.297 275.935 814.593 285.395 819.797 292.791V292.791C820.598 293.929 821.312 295.125 821.935 296.369L823.835 300.17C825.588 303.675 826.5 307.54 826.5 311.459V311.459C826.5 313.479 826.258 315.492 825.778 317.454L821 337L811.5 367" stroke="#CAE68D" stroke-width="3"/>
</g>
<path d="M820.051 245.221L820.263 243.736L820.263 243.736L820.051 245.221ZM832.501 247L832.733 245.518L832.723 245.517L832.713 245.515L832.501 247ZM817.914 246.451L816.524 245.888L817.914 246.451ZM810.001 266L811.388 266.571L811.392 266.563L810.001 266ZM807.376 272.375L805.989 271.804L805.989 271.804L807.376 272.375ZM809.591 292.413L808.362 293.274L808.362 293.274L809.591 292.413ZM812.839 297.054L814.068 296.194L814.068 296.194L812.839 297.054ZM813.825 299.108L815.265 298.688L815.265 298.688L813.825 299.108ZM816.373 307.845L814.933 308.265L814.933 308.265L816.373 307.845ZM816.259 312.119L814.843 311.623L814.843 311.623L816.259 312.119ZM797.035 367L795.619 366.504L794.947 368.424L796.98 368.499L797.035 367ZM892.389 370.5L892.334 371.999L893.788 372.052L893.885 370.601L892.389 370.5ZM893.46 354.616L894.956 354.717L894.956 354.717L893.46 354.616ZM893.434 353.386L891.943 353.549L891.943 353.549L893.434 353.386ZM892.175 341.842L893.666 341.68L893.666 341.68L892.175 341.842ZM878.501 310L879.714 309.118L879.668 309.055L879.616 308.997L878.501 310ZM872.693 303.546L873.808 302.543L873.808 302.543L872.693 303.546ZM871.635 295.733L872.976 296.404L872.976 296.404L871.635 295.733ZM871.917 295.169L870.575 294.499L870.575 294.499L871.917 295.169ZM872.429 276.592L873.806 275.996L873.806 275.996L872.429 276.592ZM862.407 253.437L861.03 254.032L861.03 254.032L862.407 253.437ZM861.005 252.279L860.68 253.743L860.68 253.743L861.005 252.279ZM848.501 249.5L848.827 248.036L848.78 248.025L848.733 248.018L848.501 249.5ZM854.934 264.459L853.445 264.276L853.445 264.276L854.934 264.459ZM839.48 256.983L839.663 255.495L839.663 255.495L839.48 256.983ZM822.676 260.492L824.165 260.675L824.165 260.675L822.676 260.492ZM819.839 246.706L832.289 248.485L832.713 245.515L820.263 243.736L819.839 246.706ZM819.304 247.014C819.391 246.801 819.611 246.674 819.839 246.706L820.263 243.736C818.67 243.509 817.127 244.397 816.524 245.888L819.304 247.014ZM811.392 266.563L819.304 247.014L816.524 245.888L808.611 265.437L811.392 266.563ZM808.763 272.946L811.388 266.571L808.614 265.429L805.989 271.804L808.763 272.946ZM810.819 291.553C807.007 286.107 806.232 279.093 808.763 272.946L805.989 271.804C803.069 278.897 803.963 286.989 808.362 293.274L810.819 291.553ZM814.068 296.194L810.819 291.553L808.362 293.274L811.61 297.914L814.068 296.194ZM815.265 298.688C815.005 297.797 814.6 296.955 814.068 296.194L811.61 297.914C811.955 298.406 812.216 298.952 812.385 299.528L815.265 298.688ZM817.813 307.425L815.265 298.688L812.385 299.528L814.933 308.265L817.813 307.425ZM817.675 312.615C818.261 310.941 818.309 309.127 817.813 307.425L814.933 308.265C815.254 309.366 815.223 310.54 814.843 311.623L817.675 312.615ZM798.451 367.496L817.675 312.615L814.843 311.623L795.619 366.504L798.451 367.496ZM892.444 369.001L797.09 365.501L796.98 368.499L892.334 371.999L892.444 369.001ZM891.963 354.515L890.892 370.399L893.885 370.601L894.956 354.717L891.963 354.515ZM891.943 353.549C891.978 353.87 891.985 354.193 891.963 354.515L894.956 354.717C894.99 354.219 894.98 353.719 894.925 353.223L891.943 353.549ZM890.684 342.005L891.943 353.549L894.925 353.223L893.666 341.68L890.684 342.005ZM880.211 314.901C886.005 322.868 889.615 332.212 890.684 342.005L893.666 341.68C892.541 331.366 888.739 321.526 882.637 313.136L880.211 314.901ZM877.288 310.882L880.211 314.901L882.637 313.136L879.714 309.118L877.288 310.882ZM871.578 304.55L877.386 311.003L879.616 308.997L873.808 302.543L871.578 304.55ZM870.293 295.062C868.73 298.188 869.24 301.952 871.578 304.55L873.808 302.543C872.295 300.862 871.965 298.426 872.976 296.404L870.293 295.062ZM870.575 294.499L870.293 295.062L872.976 296.404L873.258 295.84L870.575 294.499ZM871.052 277.188C873.458 282.745 873.283 289.082 870.575 294.499L873.258 295.84C876.363 289.631 876.563 282.367 873.806 275.996L871.052 277.188ZM861.03 254.032L871.052 277.188L873.806 275.996L863.783 252.841L861.03 254.032ZM860.68 253.743C860.836 253.778 860.966 253.885 861.03 254.032L863.783 252.841C863.338 251.811 862.426 251.058 861.33 250.814L860.68 253.743ZM848.176 250.964L860.68 253.743L861.33 250.814L848.827 248.036L848.176 250.964ZM832.27 248.482L848.27 250.982L848.733 248.018L832.733 245.518L832.27 248.482ZM853.445 264.276C853.43 264.396 853.319 264.728 852.612 265.167C851.92 265.596 850.854 265.995 849.425 266.293C846.585 266.887 842.648 267.012 838.313 266.479L837.946 269.457C842.518 270.019 846.798 269.907 850.039 269.23C851.651 268.893 853.092 268.399 854.194 267.715C855.281 267.041 856.251 266.038 856.422 264.642L853.445 264.276ZM839.297 258.472C843.633 259.005 847.422 260.081 850.034 261.345C851.347 261.98 852.285 262.626 852.853 263.21C853.432 263.807 853.46 264.156 853.445 264.276L856.422 264.642C856.594 263.246 855.897 262.039 855.005 261.12C854.102 260.19 852.824 259.362 851.34 258.644C848.36 257.202 844.235 256.057 839.663 255.495L839.297 258.472ZM824.165 260.675C824.18 260.555 824.291 260.223 824.998 259.785C825.69 259.355 826.756 258.956 828.184 258.658C831.025 258.065 834.962 257.939 839.297 258.472L839.663 255.495C835.091 254.932 830.812 255.044 827.571 255.721C825.958 256.058 824.517 256.552 823.416 257.236C822.328 257.911 821.359 258.913 821.187 260.309L824.165 260.675ZM838.313 266.479C833.977 265.946 830.188 264.87 827.576 263.607C826.262 262.971 825.324 262.326 824.757 261.741C824.178 261.144 824.15 260.796 824.165 260.675L821.187 260.309C821.016 261.706 821.713 262.913 822.605 263.831C823.508 264.761 824.786 265.59 826.269 266.307C829.25 267.749 833.374 268.894 837.946 269.457L838.313 266.479Z" fill="#2C2336"/>
<path fill-rule="evenodd" clip-rule="evenodd" d="M828.5 389.5L788 385.5L754 467.5L750.802 469.96C749.671 469.348 748.376 469 747 469H731C719.954 469 711 477.954 711 489V513C711 516.314 713.686 519 717 519H754.585L764 506.628V519H798C801.314 519 804 516.314 804 513V492V491.999C804 491.324 803.777 490.701 803.4 490.2L802 485.999L816 413.5L828.5 389.5Z" fill="#FF9E58"/>
<path d="M788 385.5L788.147 384.007C787.49 383.942 786.867 384.315 786.614 384.925L788 385.5ZM828.5 389.5L829.83 390.193C830.06 389.751 830.056 389.224 829.819 388.786C829.582 388.348 829.143 388.056 828.647 388.007L828.5 389.5ZM754 467.5L754.915 468.689C755.123 468.529 755.285 468.317 755.386 468.075L754 467.5ZM750.802 469.96L750.088 471.279C750.609 471.561 751.247 471.51 751.717 471.149L750.802 469.96ZM754.585 519V520.5C755.053 520.5 755.495 520.281 755.779 519.908L754.585 519ZM764 506.628H765.5C765.5 505.984 765.089 505.412 764.479 505.207C763.869 505.001 763.196 505.207 762.806 505.72L764 506.628ZM764 519H762.5C762.5 519.828 763.172 520.5 764 520.5V519ZM804 491.999H805.5L805.5 491.999L804 491.999ZM803.4 490.2L801.977 490.675C802.028 490.828 802.104 490.972 802.201 491.101L803.4 490.2ZM802 485.999L800.527 485.715C800.478 485.968 800.495 486.229 800.577 486.473L802 485.999ZM816 413.5L814.67 412.807C814.603 412.936 814.555 413.073 814.527 413.216L816 413.5ZM787.853 386.993L828.353 390.993L828.647 388.007L788.147 384.007L787.853 386.993ZM755.386 468.075L789.386 386.075L786.614 384.925L752.614 466.925L755.386 468.075ZM751.717 471.149L754.915 468.689L753.085 466.311L749.888 468.771L751.717 471.149ZM747 470.5C748.121 470.5 749.171 470.782 750.088 471.279L751.516 468.64C750.172 467.913 748.632 467.5 747 467.5V470.5ZM731 470.5H747V467.5H731V470.5ZM712.5 489C712.5 478.783 720.783 470.5 731 470.5V467.5C719.126 467.5 709.5 477.126 709.5 489H712.5ZM712.5 513V489H709.5V513H712.5ZM717 517.5C714.515 517.5 712.5 515.485 712.5 513H709.5C709.5 517.142 712.858 520.5 717 520.5V517.5ZM754.585 517.5H717V520.5H754.585V517.5ZM762.806 505.72L753.391 518.092L755.779 519.908L765.194 507.536L762.806 505.72ZM765.5 519V506.628H762.5V519H765.5ZM798 517.5H764V520.5H798V517.5ZM802.5 513C802.5 515.485 800.485 517.5 798 517.5V520.5C802.142 520.5 805.5 517.142 805.5 513H802.5ZM802.5 492V513H805.5V492H802.5ZM802.5 491.999V492H805.5V491.999H802.5ZM802.201 491.101C802.389 491.351 802.5 491.66 802.5 491.999L805.5 491.999C805.5 490.988 805.164 490.051 804.6 489.3L802.201 491.101ZM800.577 486.473L801.977 490.675L804.823 489.726L803.423 485.525L800.577 486.473ZM814.527 413.216L800.527 485.715L803.473 486.283L817.473 413.784L814.527 413.216ZM827.17 388.807L814.67 412.807L817.33 414.193L829.83 390.193L827.17 388.807Z" fill="#2C2336"/>
<g filter="url(#filter0_dd_280_2268)">
<path d="M714 500.5H751.62C761.315 500.5 769.836 494.073 772.5 484.75L774.483 477.81C775.973 472.595 780.739 469 786.162 469V469C791.898 469 796.852 464.988 798.044 459.377L807.101 416.733C807.699 413.919 808.598 411.178 809.784 408.557L817.5 391.5" stroke="#FFDE87" stroke-width="3" stroke-linecap="round" stroke-linejoin="round"/>
</g>
<path d="M855 413L851 390H894.5L893.5 399V410L896.5 479.5L900.5 491H855V413Z" fill="#FF9E58" stroke="#2C2336" stroke-width="3"/>
<g filter="url(#filter1_dd_280_2268)">
<path d="M864 477V465.5C864 461.358 860.642 458 856.5 458V458" stroke="#FFDE87" stroke-width="3" stroke-linecap="round" stroke-linejoin="round"/>
</g>
<path fill-rule="evenodd" clip-rule="evenodd" d="M873 474C861.954 474 853 482.954 853 494V513C853 516.314 855.686 519 859 519H901C904.314 519 907 516.314 907 513V494C907 482.954 898.046 474 887 474H873Z" fill="#FF9E58"/>
<path d="M854.5 494C854.5 483.783 862.783 475.5 873 475.5V472.5C861.126 472.5 851.5 482.126 851.5 494H854.5ZM854.5 513V494H851.5V513H854.5ZM859 517.5C856.515 517.5 854.5 515.485 854.5 513H851.5C851.5 517.142 854.858 520.5 859 520.5V517.5ZM901 517.5H859V520.5H901V517.5ZM905.5 513C905.5 515.485 903.485 517.5 901 517.5V520.5C905.142 520.5 908.5 517.142 908.5 513H905.5ZM905.5 494V513H908.5V494H905.5ZM887 475.5C897.217 475.5 905.5 483.783 905.5 494H908.5C908.5 482.126 898.874 472.5 887 472.5V475.5ZM873 475.5H887V472.5H873V475.5Z" fill="#2C2336"/>
<g filter="url(#filter2_dd_280_2268)">
<path d="M856 500.5L904.5 500.5" stroke="#FFDE87" stroke-width="3" stroke-linecap="round" stroke-linejoin="round"/>
</g>
</g>
<defs>
<filter id="filter0_dd_280_2268" x="693.5" y="371" width="146.5" height="152" filterUnits="userSpaceOnUse" color-interpolation-filters="sRGB">
<feFlood flood-opacity="0" result="BackgroundImageFix"/>
<feColorMatrix in="SourceAlpha" type="matrix" values="0 0 0 0 0 0 0 0 0 0 0 0 0 0 0 0 0 0 127 0" result="hardAlpha"/>
<feOffset dx="1" dy="1"/>
<feGaussianBlur stdDeviation="10"/>
<feComposite in2="hardAlpha" operator="out"/>
<feColorMatrix type="matrix" values="0 0 0 0 1 0 0 0 0 0.870588 0 0 0 0 0.529412 0 0 0 1 0"/>
<feBlend mode="normal" in2="BackgroundImageFix" result="effect1_dropShadow_280_2268"/>
<feColorMatrix in="SourceAlpha" type="matrix" values="0 0 0 0 0 0 0 0 0 0 0 0 0 0 0 0 0 0 127 0" result="hardAlpha"/>
<feOffset dx="1" dy="1"/>
<feGaussianBlur stdDeviation="10"/>
<feComposite in2="hardAlpha" operator="out"/>
<feColorMatrix type="matrix" values="0 0 0 0 1 0 0 0 0 0.870588 0 0 0 0 0.529412 0 0 0 1 0"/>
<feBlend mode="normal" in2="effect1_dropShadow_280_2268" result="effect2_dropShadow_280_2268"/>
<feBlend mode="normal" in="SourceGraphic" in2="effect2_dropShadow_280_2268" result="shape"/>
</filter>
<filter id="filter1_dd_280_2268" x="836" y="437.5" width="50.5" height="62" filterUnits="userSpaceOnUse" color-interpolation-filters="sRGB">
<feFlood flood-opacity="0" result="BackgroundImageFix"/>
<feColorMatrix in="SourceAlpha" type="matrix" values="0 0 0 0 0 0 0 0 0 0 0 0 0 0 0 0 0 0 127 0" result="hardAlpha"/>
<feOffset dx="1" dy="1"/>
<feGaussianBlur stdDeviation="10"/>
<feComposite in2="hardAlpha" operator="out"/>
<feColorMatrix type="matrix" values="0 0 0 0 1 0 0 0 0 0.870588 0 0 0 0 0.529412 0 0 0 1 0"/>
<feBlend mode="normal" in2="BackgroundImageFix" result="effect1_dropShadow_280_2268"/>
<feColorMatrix in="SourceAlpha" type="matrix" values="0 0 0 0 0 0 0 0 0 0 0 0 0 0 0 0 0 0 127 0" result="hardAlpha"/>
<feOffset dx="1" dy="1"/>
<feGaussianBlur stdDeviation="10"/>
<feComposite in2="hardAlpha" operator="out"/>
<feColorMatrix type="matrix" values="0 0 0 0 1 0 0 0 0 0.870588 0 0 0 0 0.529412 0 0 0 1 0"/>
<feBlend mode="normal" in2="effect1_dropShadow_280_2268" result="effect2_dropShadow_280_2268"/>
<feBlend mode="normal" in="SourceGraphic" in2="effect2_dropShadow_280_2268" result="shape"/>
</filter>
<filter id="filter2_dd_280_2268" x="835.5" y="480" width="91.5" height="43" filterUnits="userSpaceOnUse" color-interpolation-filters="sRGB">
<feFlood flood-opacity="0" result="BackgroundImageFix"/>
<feColorMatrix in="SourceAlpha" type="matrix" values="0 0 0 0 0 0 0 0 0 0 0 0 0 0 0 0 0 0 127 0" result="hardAlpha"/>
<feOffset dx="1" dy="1"/>
<feGaussianBlur stdDeviation="10"/>
<feComposite in2="hardAlpha" operator="out"/>
<feColorMatrix type="matrix" values="0 0 0 0 1 0 0 0 0 0.870588 0 0 0 0 0.529412 0 0 0 1 0"/>
<feBlend mode="normal" in2="BackgroundImageFix" result="effect1_dropShadow_280_2268"/>
<feColorMatrix in="SourceAlpha" type="matrix" values="0 0 0 0 0 0 0 0 0 0 0 0 0 0 0 0 0 0 127 0" result="hardAlpha"/>
<feOffset dx="1" dy="1"/>
<feGaussianBlur stdDeviation="10"/>
<feComposite in2="hardAlpha" operator="out"/>
<feColorMatrix type="matrix" values="0 0 0 0 1 0 0 0 0 0.870588 0 0 0 0 0.529412 0 0 0 1 0"/>
<feBlend mode="normal" in2="effect1_dropShadow_280_2268" result="effect2_dropShadow_280_2268"/>
<feBlend mode="normal" in="SourceGraphic" in2="effect2_dropShadow_280_2268" result="shape"/>
</filter>
<radialGradient id="paint0_radial_280_2268" cx="0" cy="0" r="1" gradientUnits="userSpaceOnUse" gradientTransform="translate(866.653 202.483) rotate(90) scale(15 16)">
<stop stop-color="#F5A6B9"/>
<stop offset="1" stop-color="#FFB08E" stop-opacity="0"/>
<stop offset="1" stop-color="#F5A6B9" stop-opacity="0"/>
</radialGradient>
<radialGradient id="paint1_radial_280_2268" cx="0" cy="0" r="1" gradientUnits="userSpaceOnUse" gradientTransform="translate(818.694 200.5) rotate(90) scale(15 16)">
<stop stop-color="#F5A6B9"/>
<stop offset="1" stop-color="#FFB08E" stop-opacity="0"/>
<stop offset="1" stop-color="#F5A6B9" stop-opacity="0"/>
</radialGradient>
</defs>
</svg>
