<svg width="1033" height="632" viewBox="0 0 1033 632" fill="none" xmlns="http://www.w3.org/2000/svg">
<mask id="mask0_280_2268" style="mask-type:alpha" maskUnits="userSpaceOnUse" x="0" y="0" width="1032" height="632">
<path d="M31.6133 17.243C32.1102 7.57999 40.09 0 49.7658 0H1013.36C1023.77 0 1032.05 8.71841 1031.52 19.1099L1000.89 614.757C1000.39 624.42 992.41 632 982.734 632H19.1352C8.72991 632 0.448336 623.282 0.982711 612.89L31.6133 17.243Z" fill="#FF0000"/>
</mask>
<g mask="url(#mask0_280_2268)">
<path d="M797.751 146.84L799.923 143.559C805.84 134.621 816.24 121.1 826.501 118C831.422 116.513 836.864 106.788 842.001 107L858.682 107C863.075 107 867.314 108.612 870.597 111.53C873.147 113.796 876.399 115.236 879.195 117.19C881.906 119.084 884.549 121.681 887.001 123C892.579 126 894.246 129.897 896.294 134.895C897.693 138.306 898.776 141.853 899.319 145.5C899.861 149.146 901.045 152.671 901.971 156.239C903.375 161.654 903.922 168.026 904.501 172.912L904.501 174.022C904.501 179.286 903.434 184.495 901.365 189.335C900.547 191.247 899.884 193.221 899.382 195.239L899.271 195.684C895.925 209.126 886.532 220.255 873.843 225.813L871.547 226.819C865.251 229.576 858.453 231 851.579 231L843.512 231C838.199 231 832.915 230.229 827.823 228.713C817.503 225.638 808.313 219.6 801.395 211.347L800.627 210.43C798.714 208.148 797.018 205.692 795.562 203.094C791.562 195.956 789.461 187.91 789.461 179.727L789.461 178.308C789.461 174.72 789.823 171.141 790.543 167.626L791.961 160.707C793.54 155.972 794.995 151.002 797.751 146.84Z" fill="#F4C2DE" stroke="#2C2336" stroke-width="3" stroke-linecap="round"/>
<path d="M805.11 251.981L807.614 249.277C810.621 246.029 815.174 244.704 819.455 245.83C820.923 246.217 821.897 247.608 821.757 249.121L817 300.5V326.412C817 327.726 816.381 328.964 815.329 329.753C811.463 332.653 806.273 333.07 801.993 330.826L771.985 315.09C769.557 313.817 766.61 314.078 764.444 315.757L746.783 329.454C744.759 331.023 742.04 331.362 739.692 330.338L722.563 322.858C716.984 320.423 716.958 312.519 722.521 310.046L729.87 306.78C730.289 306.594 730.689 306.367 731.064 306.102L738.299 300.994C738.765 300.666 739.188 300.282 739.56 299.851L741.585 297.507C745.976 292.423 752.362 289.5 759.08 289.5C761.675 289.5 764.251 289.937 766.701 290.792L794.5 300.5L799.046 264.961C799.666 260.108 801.786 255.571 805.11 251.981Z" fill="#FFE6D1" stroke="#2C2336" stroke-width="3" stroke-linecap="round"/>
<path d="M880.478 260.707L878.33 258.934C871.514 253.312 862.38 251.251 853.798 253.349C849.359 254.434 847.092 259.422 849.242 263.454L860.464 284.495C860.819 285.161 861.279 285.764 861.826 286.283L879.513 303.039C879.837 303.346 880.131 303.682 880.39 304.045L906.5 340.5L913.5 351.5L923.928 367.616C924.306 368.201 924.58 368.847 924.737 369.526C926.066 375.285 932.77 377.907 937.653 374.577L945.67 369.111C947.992 367.528 949.142 364.71 948.591 361.955L946.414 351.072C945.823 348.116 944.223 345.458 941.888 343.551L921.784 327.14C921.264 326.716 920.808 326.218 920.429 325.664L899.897 295.581C899.633 295.195 899.409 294.783 899.227 294.351L891.032 274.89C888.712 269.379 885.091 264.512 880.478 260.707Z" fill="#FFE6D1" stroke="#2C2336" stroke-width="3" stroke-linecap="round"/>
<path d="M832.5 247V236.5C832.5 232.634 835.634 229.5 839.5 229.5H842.455C846.528 229.5 849.74 232.963 849.436 237.024L848.5 249.5L858.513 251.725C860.703 252.212 862.528 253.719 863.419 255.778L872.428 276.592C875.009 282.556 874.822 289.357 871.915 295.169L871.634 295.733C870.346 298.307 870.766 301.407 872.691 303.546L878.5 310L881.422 314.018C887.371 322.197 891.077 331.789 892.174 341.842L893.433 353.386C893.478 353.795 893.486 354.206 893.458 354.616L890.5 398.5L893.189 471.545C893.378 476.693 896.563 481.253 901.33 483.203C903.247 483.988 904.5 485.853 904.5 487.925V490.5C904.5 498.232 898.232 504.5 890.5 504.5H864.166C862.755 504.5 861.377 504.074 860.213 503.277L856.858 500.982C854.278 499.217 853.181 495.956 854.17 492.991L858.141 481.078C858.379 480.364 858.5 479.616 858.5 478.864V413.651C858.5 413.218 858.46 412.786 858.38 412.361L848.636 360.392C848.267 358.425 846.55 357 844.549 357C842.985 357 841.553 357.878 840.844 359.272L813.96 412.096C813.655 412.696 813.438 413.336 813.315 413.997L808.5 440L803 474L795.927 499.379C795.084 502.406 792.326 504.5 789.184 504.5H747.5H725.939C724.999 504.5 724.079 504.232 723.286 503.728L720.992 502.268C713.963 497.794 712.187 488.306 717.123 481.593C719.269 478.674 722.57 476.82 726.18 476.506L750.751 474.369C753.361 474.143 755.625 472.478 756.62 470.055L786 398.5L816.258 312.119C816.74 310.741 816.78 309.246 816.371 307.845L813.823 299.108C813.609 298.374 813.276 297.68 812.838 297.054L809.589 292.413C805.484 286.548 804.649 278.995 807.375 272.375L810 266L816.445 250.078C817.652 247.095 820.738 245.32 823.923 245.775L832.5 247Z" fill="#FFE6D1" stroke="#2C2336" stroke-width="3" stroke-linecap="round"/>
<path d="M804.841 252.272L807.614 249.277C810.621 246.029 815.174 244.704 819.455 245.83C820.923 246.217 821.897 247.608 821.757 249.121L817 300.5V324.123C817 326.878 815.703 329.473 813.498 331.126C810.533 333.35 807.131 334.921 803.515 335.736L775.848 341.971C774.627 342.246 773.456 341.346 773.409 340.095L771.608 292.365C771.556 290.975 772.903 289.957 774.226 290.387L793 296.5L798.741 264.513C799.563 259.934 801.68 255.686 804.841 252.272Z" fill="#FCFCFC" stroke="#2C2336" stroke-width="3" stroke-linecap="round"/>
<path d="M881.746 261.753L878.33 258.934C871.514 253.312 862.38 251.251 853.798 253.349C849.359 254.434 847.092 259.422 849.242 263.454L860.464 284.495C860.819 285.161 861.279 285.764 861.826 286.283L864.207 288.538C864.732 289.036 865.178 289.613 865.527 290.247L897.966 349.253C900.226 353.363 905.808 354.132 909.094 350.786L928.65 330.874C929.404 330.107 929.416 328.881 928.677 328.1L921.5 320.5L903.864 297.475C903.622 297.159 903.407 296.823 903.222 296.47L890.965 273.106C888.678 268.746 885.544 264.886 881.746 261.753Z" fill="#FCFCFC" stroke="#2C2336" stroke-width="3" stroke-linecap="round"/>
<path d="M823.924 245.775L832.5 247L838.5 281L848.5 249.5L858.514 251.725C860.704 252.212 862.528 253.719 863.419 255.778L873.264 278.522C875.352 283.347 875.644 288.761 874.085 293.782L873.004 297.266C872.37 299.309 872.704 301.529 873.912 303.294L878.5 310L883.872 317.386C888.25 323.406 891.428 330.212 893.234 337.433L897.339 353.855C897.446 354.284 897.512 354.722 897.537 355.164L899.389 388.508C899.451 389.609 898.609 390.552 897.509 390.616L819.736 395.137C816.52 395.324 813.944 392.508 814.417 389.322H787.963C786.546 389.322 785.578 387.888 786.109 386.573L816.093 312.25C816.681 310.792 816.761 309.18 816.321 307.671L813.824 299.108C813.61 298.374 813.277 297.68 812.838 297.054L809.59 292.413C805.484 286.548 804.65 278.995 807.375 272.375L810 266L816.445 250.078C817.652 247.095 820.738 245.32 823.924 245.775Z" fill="#FCFCFC"/>
<path d="M838.5 281L848.5 249.5L858.514 251.725C860.704 252.212 862.528 253.719 863.419 255.778L873.264 278.522C875.352 283.347 875.644 288.761 874.085 293.782L873.004 297.266C872.37 299.309 872.704 301.529 873.912 303.294L878.5 310L883.872 317.386C888.25 323.406 891.428 330.212 893.234 337.433L897.339 353.855C897.446 354.284 897.512 354.722 897.537 355.164L899.389 388.508C899.451 389.609 898.609 390.552 897.509 390.616L819.736 395.137C816.52 395.324 813.944 392.508 814.417 389.322V389.322M838.5 281L832.5 247L823.924 245.775C820.738 245.32 817.652 247.095 816.445 250.078L810 266L807.375 272.375C804.65 278.995 805.484 286.548 809.59 292.413L812.838 297.054C813.277 297.68 813.61 298.374 813.824 299.108L816.321 307.671C816.761 309.18 816.681 310.792 816.093 312.25L786.109 386.573C785.578 387.888 786.546 389.322 787.963 389.322H814.417M838.5 281L832.5 293.5L826.5 304.5M825 318L814.417 389.322" stroke="#2C2336" stroke-width="3" stroke-linecap="round"/>
<path d="M804.968 158.896L805.152 154.475C809.05 143.774 817.37 135.272 827.984 131.142C833.072 129.162 838.515 128.257 843.97 128.482L852.085 128.818C857.732 129.052 863.241 130.631 868.153 133.424C873.816 136.645 878.483 141.362 881.642 147.06L882.633 148.848C886.44 155.715 888.283 163.498 887.958 171.343L887.297 187.324L886.876 197.498C886.505 206.466 883.279 215.081 877.667 222.086C874.653 225.849 871.016 229.066 866.914 231.597L864.008 233.391C857.558 237.37 850.066 239.329 842.495 239.016C835.082 238.709 827.922 236.238 821.898 231.908L820.63 230.997C815.388 227.229 811.071 222.32 808.004 216.64C804.361 209.893 802.606 202.289 802.923 194.629L804.968 158.896Z" fill="#FFE6D1" stroke="#2C2336" stroke-width="3" stroke-linecap="round"/>
<ellipse cx="866.653" cy="202.483" rx="16" ry="15" transform="rotate(2.36878 866.653 202.483)" fill="url(#paint0_radial_280_2268)" fill-opacity="0.7"/>
<ellipse cx="818.694" cy="200.499" rx="16" ry="15" transform="rotate(2.36878 818.694 200.499)" fill="url(#paint1_radial_280_2268)" fill-opacity="0.7"/>
<path d="M839.616 199.363L839.59 199.997C839.54 201.2 839.062 202.345 838.241 203.227L838.134 203.342C837.568 203.949 837.182 204.701 837.018 205.514V205.514C836.632 207.433 837.533 209.381 839.246 210.327L840.283 210.901" stroke="#BF566E" stroke-width="3" stroke-linecap="round"/>
<path d="M835.921 219.561L837.434 220.488C839.494 221.752 841.872 222.401 844.289 222.359V222.359C846.835 222.316 849.309 221.508 851.39 220.04L852.962 218.931" stroke="#BF566E" stroke-width="3" stroke-linecap="round"/>
<rect x="858.383" y="184.626" width="11" height="14" rx="5.5" transform="rotate(2.36878 858.383 184.626)" fill="#2C2336"/>
<rect x="821.436" y="182.597" width="11" height="14" rx="5.5" transform="rotate(2.36878 821.436 182.597)" fill="#2C2336"/>
<path d="M835.113 187.163V187.163C830.071 179.826 819.305 179.631 814 186.78V186.78" stroke="#2C2336" stroke-width="4" stroke-linecap="round"/>
<path d="M876.113 189.162V189.162C871.071 181.825 860.305 181.63 855 188.779V188.779" stroke="#2C2336" stroke-width="4" stroke-linecap="round"/>
<path fill-rule="evenodd" clip-rule="evenodd" d="M835.791 171.822C836.12 172.876 835.534 174.001 834.468 174.293C829.565 175.638 824.5 176.321 819.41 176.321H816.291C815.186 176.321 814.291 175.426 814.291 174.321C814.291 173.217 815.186 172.321 816.291 172.321H819.41C824.096 172.321 828.758 171.699 833.275 170.473C834.341 170.183 835.462 170.767 835.791 171.822Z" fill="#2C2336"/>
<path fill-rule="evenodd" clip-rule="evenodd" d="M855.333 172.874C854.9 173.89 855.371 175.068 856.402 175.465C861.147 177.293 866.118 178.478 871.183 178.987L874.286 179.298C875.385 179.409 876.365 178.607 876.476 177.508C876.586 176.409 875.784 175.429 874.685 175.318L871.582 175.007C866.92 174.539 862.343 173.454 857.971 171.783C856.939 171.388 855.766 171.857 855.333 172.874Z" fill="#2C2336"/>
<path d="M930.035 367.473C927.657 369.006 924.488 368.322 922.954 365.945L913.11 350.683L921.719 345.131L931.562 360.393C933.096 362.77 932.412 365.94 930.035 367.473Z" fill="#FFE6D1"/>
<path d="M930.848 368.734C927.775 370.716 923.676 369.831 921.694 366.758L911.037 350.236L913.542 348.62L915.184 351.131L924.215 365.132C925.299 366.813 927.541 367.297 929.222 366.212C930.903 365.128 931.386 362.887 930.302 361.206L924.35 351.979C923.906 351.289 924.097 350.371 924.78 349.917C925.477 349.453 926.418 349.649 926.872 350.352L932.823 359.58C934.805 362.653 933.921 366.751 930.848 368.734Z" fill="#2C2336"/>
<rect x="850.637" y="304" width="39.0783" height="12" rx="2" transform="rotate(75.8434 850.637 304)" fill="#FCFCFC" stroke="#2C2336" stroke-width="3" stroke-linecap="round"/>
<rect x="813.051" y="306.037" width="63.9359" height="12" rx="2" transform="rotate(-5.41824 813.051 306.037)" fill="#FCFCFC" stroke="#2C2336" stroke-width="3" stroke-linecap="round"/>
<rect x="844.961" y="300" width="63.9359" height="12" rx="2" transform="rotate(85.3876 844.961 300)" fill="#FCFCFC" stroke="#2C2336" stroke-width="3" stroke-linecap="round"/>
<path d="M845.363 149.772L825.975 157.744C816.523 161.631 808.378 168.139 802.501 176.5L794.5 176.5L797.355 153.845L819.85 130.255L841.632 123.88L859.034 126.602L872.357 131.157L881.539 139.043L893.176 160.167L889.501 188.5C886.515 181.924 882.63 175.795 877.955 170.29L872.357 163.696L868.356 159.483C864.794 155.733 860.889 152.323 856.692 149.3L853.501 147L845.363 149.772Z" fill="#F4C2DE"/>
<path d="M845.361 149.771L825.974 157.744C818.999 160.612 812.736 164.907 807.57 170.321C804.108 173.95 799.514 176.5 794.498 176.5L797.353 153.845L819.848 130.254L841.63 123.88L859.032 126.601L872.355 131.156L881.537 139.042L893.174 160.166L892.281 167.048C891.483 173.2 881.968 175.018 877.953 170.289L872.355 163.696L868.354 159.483C864.792 155.732 860.887 152.323 856.69 149.299L853.499 147L845.361 149.771Z" fill="#F4C2DE"/>
<path d="M888.134 189.121C885.206 182.671 881.395 176.66 876.81 171.261L871.239 164.699L867.266 160.516C863.769 156.833 859.935 153.486 855.814 150.517L853.25 148.67L845.889 151.177L826.544 159.132C817.356 162.91 809.439 169.235 803.727 177.363L803.278 178L802.5 178L802.5 173.959C808.426 166.17 816.328 160.089 825.403 156.357L844.834 148.367L853.748 145.331L857.568 148.083C861.84 151.161 865.815 154.632 869.442 158.45L873.472 162.694L879.097 169.319C882.779 173.655 885.981 178.372 888.65 183.384L888.65 190.259L888.134 189.121Z" fill="#2C2336"/>
<path d="M853.5 146L863.585 141.827C866.519 140.613 869.309 139.076 871.903 137.245L875.13 134.967C876.04 134.325 876.861 133.567 877.573 132.712V132.712C878.517 131.579 879.265 130.272 879.768 128.887V128.887C880.567 126.689 880.773 124.288 880.342 121.99L879.5 117.5" stroke="#2C2336" stroke-width="3" stroke-linecap="round"/>
<path d="M825.5 118.5L833.5 116.5L852 114" stroke="#2C2336" stroke-width="3" stroke-linecap="round"/>
<path d="M887.5 187V187C887.831 180.383 887.014 173.759 885.085 167.421L884.5 165.5" stroke="#2C2336" stroke-width="3" stroke-linecap="round"/>
<path d="M804 175.5V175.5C804.663 168.205 806.382 161.046 809.102 154.245L810 152" stroke="#2C2336" stroke-width="3" stroke-linecap="round"/>
<path fill-rule="evenodd" clip-rule="evenodd" d="M735 469C730.582 469 727 472.582 727 477V503C727 503.691 727.088 504.361 727.252 505H718C714.134 505 711 508.134 711 512C711 515.866 714.134 519 718 519H764H765.679H797C800.866 519 804 515.866 804 512C804 508.134 800.866 505 797 505H780H764H755.748C755.912 504.361 756 503.691 756 503V477C756 472.582 752.418 469 748 469H735Z" fill="#F289A1"/>
<path d="M727.252 505V506.5C727.716 506.5 728.153 506.286 728.438 505.919C728.722 505.553 728.82 505.075 728.705 504.626L727.252 505ZM755.748 505L754.295 504.626C754.18 505.075 754.278 505.553 754.562 505.919C754.847 506.286 755.284 506.5 755.748 506.5V505ZM728.5 477C728.5 473.41 731.41 470.5 735 470.5V467.5C729.753 467.5 725.5 471.753 725.5 477H728.5ZM728.5 503V477H725.5V503H728.5ZM728.705 504.626C728.571 504.108 728.5 503.563 728.5 503H725.5C725.5 503.818 725.604 504.614 725.799 505.374L728.705 504.626ZM727.252 503.5H718V506.5H727.252V503.5ZM718 503.5C713.306 503.5 709.5 507.306 709.5 512H712.5C712.5 508.962 714.962 506.5 718 506.5V503.5ZM709.5 512C709.5 516.694 713.306 520.5 718 520.5V517.5C714.962 517.5 712.5 515.038 712.5 512H709.5ZM718 520.5H764V517.5H718V520.5ZM764 520.5H765.679V517.5H764V520.5ZM765.679 520.5H797V517.5H765.679V520.5ZM797 520.5C801.694 520.5 805.5 516.694 805.5 512H802.5C802.5 515.038 800.038 517.5 797 517.5V520.5ZM805.5 512C805.5 507.306 801.694 503.5 797 503.5V506.5C800.038 506.5 802.5 508.962 802.5 512H805.5ZM797 503.5H780V506.5H797V503.5ZM780 503.5H764V506.5H780V503.5ZM764 503.5H755.748V506.5H764V503.5ZM754.5 503C754.5 503.563 754.429 504.108 754.295 504.626L757.201 505.374C757.396 504.614 757.5 503.818 757.5 503H754.5ZM754.5 477V503H757.5V477H754.5ZM748 470.5C751.59 470.5 754.5 473.41 754.5 477H757.5C757.5 471.753 753.247 467.5 748 467.5V470.5ZM735 470.5H748V467.5H735V470.5Z" fill="#2C2336"/>
<path fill-rule="evenodd" clip-rule="evenodd" d="M875 469C862.85 469 853 478.85 853 491V511H865V498.949C865 490.56 871.801 483.759 880.19 483.759C887.817 483.759 894 489.941 894 497.568V511H907V489C907 477.954 898.046 469 887 469H875Z" fill="#F289A1"/>
<path d="M853 511H851.5C851.5 511.828 852.172 512.5 853 512.5V511ZM865 511V512.5C865.828 512.5 866.5 511.828 866.5 511H865ZM894 511H892.5C892.5 511.828 893.172 512.5 894 512.5V511ZM907 511V512.5C907.828 512.5 908.5 511.828 908.5 511H907ZM854.5 491C854.5 479.678 863.678 470.5 875 470.5V467.5C862.021 467.5 851.5 478.021 851.5 491H854.5ZM854.5 511V491H851.5V511H854.5ZM865 509.5H853V512.5H865V509.5ZM866.5 511V498.949H863.5V511H866.5ZM866.5 498.949C866.5 491.388 872.629 485.259 880.19 485.259V482.259C870.973 482.259 863.5 489.731 863.5 498.949H866.5ZM880.19 485.259C886.989 485.259 892.5 490.77 892.5 497.568H895.5C895.5 489.113 888.646 482.259 880.19 482.259V485.259ZM892.5 497.568V511H895.5V497.568H892.5ZM907 509.5H894V512.5H907V509.5ZM905.5 489V511H908.5V489H905.5ZM887 470.5C897.217 470.5 905.5 478.783 905.5 489H908.5C908.5 477.126 898.874 467.5 887 467.5V470.5ZM875 470.5H887V467.5H875V470.5Z" fill="#2C2336"/>
<path fill-rule="evenodd" clip-rule="evenodd" d="M884.054 505H858C854.134 505 851 508.134 851 512C851 515.866 854.134 519 858 519H884.054H885.101H902C905.866 519 909 515.866 909 512C909 508.134 905.866 505 902 505H894.032H884.054Z" fill="#F289A1"/>
<path d="M858 506.5H884.054V503.5H858V506.5ZM884.054 517.5H858V520.5H884.054V517.5ZM885.101 517.5H884.054V520.5H885.101V517.5ZM902 517.5H885.101V520.5H902V517.5ZM894.032 506.5H902V503.5H894.032V506.5ZM884.054 506.5H894.032V503.5H884.054V506.5ZM910.5 512C910.5 507.306 906.694 503.5 902 503.5V506.5C905.038 506.5 907.5 508.962 907.5 512H910.5ZM849.5 512C849.5 516.694 853.306 520.5 858 520.5V517.5C854.962 517.5 852.5 515.038 852.5 512H849.5ZM902 520.5C906.694 520.5 910.5 516.694 910.5 512H907.5C907.5 515.038 905.038 517.5 902 517.5V520.5ZM858 503.5C853.306 503.5 849.5 507.306 849.5 512H852.5C852.5 508.962 854.962 506.5 858 506.5V503.5Z" fill="#2C2336"/>
</g>
<defs>
<radialGradient id="paint0_radial_280_2268" cx="0" cy="0" r="1" gradientUnits="userSpaceOnUse" gradientTransform="translate(866.653 202.483) rotate(90) scale(15 16)">
<stop stop-color="#F5A6B9"/>
<stop offset="1" stop-color="#FFB08E" stop-opacity="0"/>
<stop offset="1" stop-color="#F5A6B9" stop-opacity="0"/>
</radialGradient>
<radialGradient id="paint1_radial_280_2268" cx="0" cy="0" r="1" gradientUnits="userSpaceOnUse" gradientTransform="translate(818.694 200.499) rotate(90) scale(15 16)">
<stop stop-color="#F5A6B9"/>
<stop offset="1" stop-color="#FFB08E" stop-opacity="0"/>
<stop offset="1" stop-color="#F5A6B9" stop-opacity="0"/>
</radialGradient>
</defs>
</svg>
