<svg width="1033" height="632" viewBox="0 0 1033 632" fill="none" xmlns="http://www.w3.org/2000/svg">
<mask id="mask0_280_2268" style="mask-type:alpha" maskUnits="userSpaceOnUse" x="0" y="0" width="1032" height="632">
<path d="M31.6133 17.243C32.1102 7.57999 40.09 0 49.7658 0H1013.36C1023.77 0 1032.05 8.71841 1031.52 19.1099L1000.89 614.757C1000.39 624.42 992.41 632 982.734 632H19.1352C8.72991 632 0.448336 623.282 0.982711 612.89L31.6133 17.243Z" fill="#FF0000"/>
</mask>
<g mask="url(#mask0_280_2268)">
<path d="M797.29 146.632L799.462 143.352C805.379 134.414 814.234 127.826 824.495 124.726C829.416 123.239 834.552 122.588 839.688 122.801L846.916 123.1L861.27 125.414C865.59 126.11 869.762 127.524 873.616 129.597C880.966 133.55 886.865 139.744 890.455 147.278L893.504 153.676C896.363 159.677 898.221 166.105 899.003 172.705L899.676 178.376C900.66 186.674 907.304 199.661 907.304 199.661C907.304 199.661 916.832 211.281 916.489 219.558C916.147 227.835 910.658 234.329 902.381 233.987C899.375 233.863 896.612 232.862 894.329 231.242C894.407 231.867 894.435 232.507 894.408 233.157C894.146 239.503 888.789 244.434 882.443 244.172C877.436 243.965 873.31 240.586 871.92 236.053C870.457 240.983 865.793 244.484 860.42 244.262C854.074 243.999 849.143 238.642 849.405 232.296C849.41 232.173 849.417 232.05 849.426 231.928L836.298 230.692C835.153 236.077 830.261 240.011 824.575 239.776C819.399 239.562 815.163 235.958 813.921 231.193C812.288 235.839 807.77 239.081 802.594 238.867C797.342 238.65 793.059 234.943 791.887 230.075C789.225 232.057 785.892 233.172 782.318 233.024C774.041 232.681 767.608 225.694 767.951 217.417C768.293 209.139 778.541 203.342 780.309 196.91L782.159 188.479C783.447 181.527 784.406 179.09 786.306 173.39L790.76 160.036C792.339 155.301 794.534 150.794 797.29 146.632Z" fill="#42394D" stroke="#2C2336" stroke-width="3" stroke-linecap="round"/>
<path d="M805.11 251.981L807.614 249.277C810.621 246.029 815.174 244.704 819.455 245.83C820.923 246.217 821.897 247.608 821.757 249.121L817 300.5V326.412C817 327.726 816.381 328.964 815.329 329.753C811.463 332.653 806.273 333.07 801.993 330.826L771.985 315.09C769.557 313.817 766.61 314.078 764.444 315.757L746.783 329.454C744.759 331.023 742.04 331.362 739.692 330.338L722.563 322.858C716.984 320.423 716.958 312.519 722.521 310.046L729.87 306.78C730.289 306.594 730.689 306.367 731.064 306.102L738.299 300.994C738.765 300.666 739.188 300.282 739.56 299.851L741.585 297.507C745.976 292.423 752.362 289.5 759.08 289.5C761.675 289.5 764.251 289.937 766.701 290.792L794.5 300.5L799.046 264.961C799.666 260.108 801.786 255.571 805.11 251.981Z" fill="#FFE6D1" stroke="#2C2336" stroke-width="3" stroke-linecap="round"/>
<path d="M880.478 260.707L878.33 258.934C871.514 253.312 862.38 251.251 853.798 253.349C849.359 254.434 847.092 259.422 849.242 263.454L860.464 284.495C860.819 285.161 861.279 285.764 861.826 286.283L879.513 303.039C879.837 303.346 880.131 303.682 880.39 304.045L906.5 340.5L913.5 351.5L923.928 367.616C924.306 368.201 924.58 368.847 924.737 369.526C926.066 375.285 932.77 377.907 937.653 374.577L945.67 369.111C947.992 367.528 949.142 364.71 948.591 361.955L946.414 351.072C945.823 348.116 944.223 345.458 941.888 343.551L921.784 327.14C921.264 326.716 920.808 326.218 920.429 325.664L899.897 295.581C899.633 295.195 899.409 294.783 899.227 294.351L891.032 274.89C888.712 269.379 885.091 264.512 880.478 260.707Z" fill="#FFE6D1" stroke="#2C2336" stroke-width="3" stroke-linecap="round"/>
<path d="M832.5 247V236.5C832.5 232.634 835.634 229.5 839.5 229.5H842.455C846.528 229.5 849.74 232.963 849.436 237.024L848.5 249.5L858.513 251.725C860.703 252.212 862.528 253.719 863.419 255.778L872.428 276.592C875.009 282.556 874.822 289.357 871.915 295.169L871.634 295.733C870.346 298.307 870.766 301.407 872.691 303.546L878.5 310L881.422 314.018C887.371 322.197 891.077 331.789 892.174 341.842L893.433 353.386C893.478 353.795 893.486 354.206 893.458 354.616L890.5 398.5L893.189 471.545C893.378 476.693 896.563 481.253 901.33 483.203C903.247 483.988 904.5 485.853 904.5 487.925V490.5C904.5 498.232 898.232 504.5 890.5 504.5H864.166C862.755 504.5 861.377 504.074 860.213 503.277L856.858 500.982C854.278 499.217 853.181 495.956 854.17 492.991L858.141 481.078C858.379 480.364 858.5 479.616 858.5 478.864V413.651C858.5 413.218 858.46 412.786 858.38 412.361L848.636 360.392C848.267 358.425 846.55 357 844.549 357C842.985 357 841.553 357.878 840.844 359.272L813.96 412.096C813.655 412.696 813.438 413.336 813.315 413.997L808.5 440L803 474L795.927 499.379C795.084 502.406 792.326 504.5 789.184 504.5H747.5H725.939C724.999 504.5 724.079 504.232 723.286 503.728L720.992 502.268C713.963 497.794 712.187 488.306 717.123 481.593C719.269 478.674 722.57 476.82 726.18 476.506L750.751 474.369C753.361 474.143 755.625 472.478 756.62 470.055L786 398.5L816.258 312.119C816.74 310.741 816.78 309.246 816.371 307.845L813.823 299.108C813.609 298.374 813.276 297.68 812.838 297.054L809.589 292.413C805.484 286.548 804.649 278.995 807.375 272.375L810 266L816.445 250.078C817.652 247.095 820.738 245.32 823.923 245.775L832.5 247Z" fill="#FFE6D1" stroke="#2C2336" stroke-width="3" stroke-linecap="round"/>
<circle cx="801.502" cy="196.5" r="11.5" fill="#FFE6D1" stroke="#2C2336" stroke-width="3" stroke-linecap="round"/>
<circle cx="888.502" cy="201.5" r="11.5" fill="#FFE6D1" stroke="#2C2336" stroke-width="3" stroke-linecap="round"/>
<path d="M804.97 158.896L805.153 154.475C809.052 143.774 817.372 135.272 827.986 131.142C833.074 129.162 838.517 128.257 843.972 128.482L852.087 128.818C857.734 129.052 863.243 130.631 868.155 133.424C873.818 136.645 878.485 141.362 881.644 147.06L882.635 148.848C886.442 155.715 888.285 163.498 887.96 171.343L887.299 187.324L886.878 197.498C886.507 206.466 883.281 215.081 877.669 222.086C874.655 225.849 871.018 229.066 866.916 231.597L864.009 233.391C857.56 237.37 850.068 239.329 842.497 239.016C835.084 238.709 827.924 236.238 821.9 231.908L820.632 230.997C815.39 227.229 811.073 222.32 808.006 216.64C804.363 209.893 802.608 202.289 802.925 194.629L804.97 158.896Z" fill="#FFE6D1" stroke="#2C2336" stroke-width="3" stroke-linecap="round"/>
<ellipse cx="866.653" cy="202.483" rx="16" ry="15" transform="rotate(2.36878 866.653 202.483)" fill="url(#paint0_radial_280_2268)" fill-opacity="0.7"/>
<ellipse cx="818.694" cy="200.5" rx="16" ry="15" transform="rotate(2.36878 818.694 200.5)" fill="url(#paint1_radial_280_2268)" fill-opacity="0.7"/>
<path d="M839.616 199.363L839.59 199.997C839.54 201.2 839.062 202.345 838.241 203.227L838.134 203.342C837.568 203.949 837.182 204.701 837.018 205.514V205.514C836.632 207.433 837.533 209.381 839.246 210.327L840.283 210.901" stroke="#BF566E" stroke-width="3" stroke-linecap="round"/>
<path d="M835.921 219.561L837.434 220.489C839.494 221.752 841.872 222.401 844.289 222.36V222.36C846.835 222.316 849.309 221.508 851.39 220.041L852.962 218.932" stroke="#BF566E" stroke-width="3" stroke-linecap="round"/>
<path d="M815.212 163.91L798.899 170.945L793.904 170.738L797.064 154.836L819.558 131.245L841.34 124.871L858.742 127.592L872.066 132.147L881.247 140.033L892.884 161.157L893.624 179.578L881.329 174.354L874.059 170.248C867.526 166.557 861.523 161.998 856.215 156.695L855.02 155.501C851.864 152.347 848.966 148.944 846.357 145.324L845.072 143.541L837.788 150.246L829.677 155.877C825.135 159.029 820.289 161.721 815.212 163.91Z" fill="#42394D"/>
<path d="M873.32 171.554C866.669 167.797 860.558 163.155 855.154 157.756L853.959 156.562C850.746 153.351 847.796 149.886 845.139 146.201L844.843 145.79L838.727 151.419L830.531 157.109C825.907 160.319 820.974 163.059 815.805 165.288L802.906 170.85L803.044 167.524L814.617 162.533C819.603 160.383 824.361 157.74 828.82 154.645L836.847 149.072L845.299 141.292L847.573 144.447C850.135 148.001 852.98 151.343 856.08 154.44L857.275 155.634C862.487 160.842 868.381 165.318 874.796 168.942L881.992 173.007L889.162 176.054L889.03 179.257L880.664 175.702L873.32 171.554Z" fill="#2C2336"/>
<rect x="858.385" y="184.626" width="11" height="14" rx="5.5" transform="rotate(2.36878 858.385 184.626)" fill="#2C2336"/>
<rect x="821.438" y="182.598" width="11" height="14" rx="5.5" transform="rotate(2.36878 821.438 182.598)" fill="#2C2336"/>
<path d="M835.115 187.162V187.162C830.073 179.825 819.307 179.63 814.002 186.779V186.779" stroke="#2C2336" stroke-width="4" stroke-linecap="round"/>
<path d="M876.115 189.162V189.162C871.073 181.825 860.307 181.63 855.002 188.779V188.779" stroke="#2C2336" stroke-width="4" stroke-linecap="round"/>
<path d="M815 267C815 273.901 827.209 277.122 822.74 281.5C818.625 285.531 813.089 288 807 288C794.297 288 784 277.255 784 264C784 250.745 794.297 240 807 240C813.089 240 818.625 242.469 822.74 246.5C827.209 250.878 815 260.099 815 267Z" fill="#F4C2DE"/>
<path d="M815 267C815 260.099 827.209 250.878 822.74 246.5M815 267L822.74 246.5M815 267C815 273.901 827.209 277.122 822.74 281.5M815 267L822.74 281.5M822.74 246.5C818.625 242.469 813.089 240 807 240C794.297 240 784 250.745 784 264C784 277.255 794.297 288 807 288C813.089 288 818.625 285.531 822.74 281.5" stroke="#2C2336" stroke-width="3" stroke-linecap="round"/>
<path d="M876.683 295C889.386 295 899.683 284.255 899.683 271C899.683 257.745 889.386 247 876.683 247C871.187 247 866.14 249.012 862.183 252.369L866.183 275L858 285C862.175 291.056 868.988 295 876.683 295Z" fill="#F4C2DE" stroke="#2C2336" stroke-width="3" stroke-linecap="round"/>
<rect x="792.061" y="280" width="23" height="9" rx="3" transform="rotate(6.76367 792.061 280)" fill="#F4C2DE" stroke="#2C2336" stroke-width="3" stroke-linecap="round"/>
<rect x="869.684" y="293.384" width="27.7969" height="9" rx="3" transform="rotate(-19.7314 869.684 293.384)" fill="#F4C2DE" stroke="#2C2336" stroke-width="3" stroke-linecap="round"/>
<path d="M812.893 297.133L809.589 292.413C805.484 286.548 804.649 278.995 807.375 272.375L810 266L818.906 244.906C819.257 244.076 820.12 243.583 821.013 243.702L824.583 244.178C825.833 244.344 826.619 245.614 826.211 246.808L820.5 263.5L858.5 266L856.027 252.396C855.774 251.007 857.002 249.8 858.387 250.077L861.922 250.784C862.593 250.919 863.149 251.387 863.396 252.026L873.003 276.935C875.231 282.709 874.923 289.155 872.155 294.691L871.279 296.442C870.176 298.648 867.993 300.111 865.533 300.293L820.428 303.618C817.408 303.841 814.644 301.922 813.796 299.016C813.6 298.343 813.295 297.707 812.893 297.133Z" fill="#F4C2DE" stroke="#2C2336" stroke-width="3" stroke-linecap="round"/>
<path fill-rule="evenodd" clip-rule="evenodd" d="M731 469C719.954 469 711 477.954 711 489V513C711 516.314 713.686 519 717 519H754.585L764 506.628V519H798C801.314 519 804 516.314 804 513V492C804 490.343 802.657 489 801 489H766H764H746C750.971 489 755 484.971 755 480V477C755 472.582 751.418 469 747 469H731Z" fill="#42394D"/>
<path d="M754.585 519V520.5C755.053 520.5 755.495 520.281 755.779 519.908L754.585 519ZM764 506.628H765.5C765.5 505.984 765.089 505.412 764.479 505.207C763.869 505.001 763.196 505.207 762.806 505.72L764 506.628ZM764 519H762.5C762.5 519.828 763.172 520.5 764 520.5V519ZM746 487.5C745.172 487.5 744.5 488.172 744.5 489C744.5 489.828 745.172 490.5 746 490.5V487.5ZM712.5 489C712.5 478.783 720.783 470.5 731 470.5V467.5C719.126 467.5 709.5 477.126 709.5 489H712.5ZM709.5 489V513H712.5V489H709.5ZM709.5 513C709.5 517.142 712.858 520.5 717 520.5V517.5C714.515 517.5 712.5 515.485 712.5 513H709.5ZM717 520.5H754.585V517.5H717V520.5ZM755.779 519.908L765.194 507.536L762.806 505.72L753.391 518.092L755.779 519.908ZM762.5 506.628V519H765.5V506.628H762.5ZM764 520.5H798V517.5H764V520.5ZM798 520.5C802.142 520.5 805.5 517.142 805.5 513H802.5C802.5 515.485 800.485 517.5 798 517.5V520.5ZM805.5 513V492H802.5V513H805.5ZM805.5 492C805.5 489.515 803.485 487.5 801 487.5V490.5C801.828 490.5 802.5 491.172 802.5 492H805.5ZM801 487.5H766V490.5H801V487.5ZM766 487.5H764V490.5H766V487.5ZM764 487.5H746V490.5H764V487.5ZM753.5 480C753.5 484.142 750.142 487.5 746 487.5V490.5C751.799 490.5 756.5 485.799 756.5 480H753.5ZM753.5 477V480H756.5V477H753.5ZM747 470.5C750.59 470.5 753.5 473.41 753.5 477H756.5C756.5 471.753 752.247 467.5 747 467.5V470.5ZM731 470.5H747V467.5H731V470.5Z" fill="#2C2336"/>
<line x1="711" y1="500.5" x2="804" y2="500.5" stroke="#2C2336" stroke-width="3" stroke-linejoin="round"/>
<mask id="mask1_280_2268" style="mask-type:alpha" maskUnits="userSpaceOnUse" x="755" y="310" width="156" height="203">
<path d="M757.445 468.045L786 398.5L812.796 319.601C812.92 319.234 813.246 318.972 813.631 318.929L879.046 311.565C879.404 311.525 879.756 311.68 879.967 311.972L881.468 314.042C887.387 322.206 891.075 331.772 892.169 341.796L893.5 354V397.889C893.5 398.296 893.535 398.701 893.606 399.102L909.157 487.523C909.797 491.159 905.588 493.647 902.711 491.333L892.768 483.335C879.75 472.864 860.264 479.327 856.084 495.502L852.815 508.151C851.598 512.859 844.619 511.729 844.951 506.878L851 418.5L848.182 367.306C848.08 365.451 846.546 364 844.689 364C843.104 364 841.716 365.066 841.309 366.599L827.5 418.5L820 459L816.134 502.38C815.857 505.494 812.273 507.1 809.763 505.234L796.467 495.348C796.156 495.116 795.827 494.911 795.482 494.734L760.729 476.934C757.49 475.276 756.063 471.412 757.445 468.045Z" fill="#6B6672" stroke="#2C2336" stroke-width="3" stroke-linecap="round"/>
</mask>
<g mask="url(#mask1_280_2268)">
<rect x="708" y="292" width="259" height="253" fill="#676773"/>
<path d="M889.5 330.5L862.457 333.88C861.923 333.947 861.538 334.425 861.585 334.961L865.407 377.949C865.457 378.52 865.977 378.932 866.544 378.851L893.5 375" stroke="#2C2336" stroke-width="3" stroke-linecap="round"/>
<path d="M808 339L830.089 336.65C830.776 336.577 831.329 337.207 831.166 337.88L820.666 381.314C820.566 381.725 820.219 382.03 819.798 382.074L792 385" stroke="#2C2336" stroke-width="3" stroke-linecap="round"/>
<path d="M811 326L883.4 319.607" stroke="#2C2336" stroke-width="3" stroke-linecap="round"/>
</g>
<path d="M757.445 468.045L786 398.5L812.796 319.601C812.92 319.234 813.246 318.972 813.631 318.929L879.046 311.565C879.404 311.525 879.756 311.68 879.967 311.972L881.468 314.042C887.387 322.206 891.075 331.772 892.169 341.796L893.5 354V397.889C893.5 398.296 893.535 398.701 893.606 399.102L909.157 487.523C909.797 491.159 905.588 493.647 902.711 491.333L892.768 483.335C879.75 472.864 860.264 479.327 856.084 495.502L852.815 508.151C851.598 512.859 844.619 511.729 844.951 506.878L851 418.5L848.182 367.306C848.08 365.451 846.546 364 844.689 364C843.104 364 841.716 365.066 841.309 366.599L827.5 418.5L820 459L816.134 502.38C815.857 505.494 812.273 507.1 809.763 505.234L796.467 495.348C796.156 495.116 795.827 494.911 795.482 494.734L760.729 476.934C757.49 475.276 756.063 471.412 757.445 468.045Z" stroke="#2C2336" stroke-width="3" stroke-linecap="round"/>
<path fill-rule="evenodd" clip-rule="evenodd" d="M873 474C861.954 474 853 482.954 853 494V513C853 516.314 855.686 519 859 519H901C904.314 519 907 516.314 907 513V494C907 482.954 898.046 474 887 474H873Z" fill="#42394D"/>
<path d="M854.5 494C854.5 483.783 862.783 475.5 873 475.5V472.5C861.126 472.5 851.5 482.126 851.5 494H854.5ZM854.5 513V494H851.5V513H854.5ZM859 517.5C856.515 517.5 854.5 515.485 854.5 513H851.5C851.5 517.142 854.858 520.5 859 520.5V517.5ZM901 517.5H859V520.5H901V517.5ZM905.5 513C905.5 515.485 903.485 517.5 901 517.5V520.5C905.142 520.5 908.5 517.142 908.5 513H905.5ZM905.5 494V513H908.5V494H905.5ZM887 475.5C897.217 475.5 905.5 483.783 905.5 494H908.5C908.5 482.126 898.874 472.5 887 472.5V475.5ZM873 475.5H887V472.5H873V475.5Z" fill="#2C2336"/>
<line x1="853" y1="500.5" x2="907" y2="500.5" stroke="#2C2336" stroke-width="3" stroke-linejoin="round"/>
<path d="M930.035 367.473C927.657 369.006 924.488 368.322 922.954 365.945L913.11 350.683L921.719 345.131L931.562 360.393C933.096 362.77 932.412 365.94 930.035 367.473Z" fill="#FFE6D1"/>
<path d="M930.848 368.734C927.775 370.716 923.676 369.831 921.694 366.758L911.037 350.236L913.542 348.62L915.184 351.131L924.215 365.132C925.299 366.813 927.541 367.297 929.222 366.212C930.903 365.128 931.386 362.887 930.302 361.206L924.35 351.979C923.906 351.289 924.097 350.371 924.78 349.917C925.477 349.453 926.418 349.649 926.872 350.352L932.823 359.58C934.805 362.653 933.921 366.751 930.848 368.734Z" fill="#2C2336"/>
<rect x="795.125" y="203.405" width="7" height="11" rx="3.5" transform="rotate(3.74699 795.125 203.405)" fill="#CDCDD9" stroke="#2C2336" stroke-width="3"/>
<rect x="884.761" y="210.191" width="7" height="11" rx="3.5" transform="rotate(13.5181 884.761 210.191)" fill="#CDCDD9" stroke="#2C2336" stroke-width="3"/>
<path fill-rule="evenodd" clip-rule="evenodd" d="M835.791 171.822C836.12 172.876 835.534 174.001 834.468 174.293C829.565 175.638 824.5 176.321 819.41 176.321H816.291C815.186 176.321 814.291 175.426 814.291 174.321V174.321C814.291 173.217 815.186 172.321 816.291 172.321H819.41C824.096 172.321 828.758 171.699 833.275 170.473C834.341 170.183 835.462 170.767 835.791 171.822V171.822Z" fill="#2C2336"/>
<path fill-rule="evenodd" clip-rule="evenodd" d="M855.333 172.874C854.9 173.89 855.371 175.068 856.402 175.465C861.147 177.293 866.118 178.478 871.183 178.987L874.286 179.298C875.385 179.409 876.365 178.607 876.476 177.508V177.508C876.586 176.409 875.784 175.429 874.685 175.318L871.582 175.007C866.92 174.539 862.343 173.454 857.971 171.783C856.939 171.388 855.766 171.857 855.333 172.874V172.874Z" fill="#2C2336"/>
</g>
<defs>
<radialGradient id="paint0_radial_280_2268" cx="0" cy="0" r="1" gradientUnits="userSpaceOnUse" gradientTransform="translate(866.653 202.483) rotate(90) scale(15 16)">
<stop stop-color="#F5A6B9"/>
<stop offset="1" stop-color="#FFB08E" stop-opacity="0"/>
<stop offset="1" stop-color="#F5A6B9" stop-opacity="0"/>
</radialGradient>
<radialGradient id="paint1_radial_280_2268" cx="0" cy="0" r="1" gradientUnits="userSpaceOnUse" gradientTransform="translate(818.694 200.5) rotate(90) scale(15 16)">
<stop stop-color="#F5A6B9"/>
<stop offset="1" stop-color="#FFB08E" stop-opacity="0"/>
<stop offset="1" stop-color="#F5A6B9" stop-opacity="0"/>
</radialGradient>
</defs>
</svg>
