<svg width="1033" height="632" viewBox="0 0 1033 632" fill="none" xmlns="http://www.w3.org/2000/svg">
<mask id="mask0_280_2268" style="mask-type:alpha" maskUnits="userSpaceOnUse" x="0" y="0" width="1032" height="632">
<path d="M31.6133 17.243C32.1102 7.57999 40.09 0 49.7658 0H1013.36C1023.77 0 1032.05 8.71841 1031.52 19.1099L1000.89 614.757C1000.39 624.42 992.41 632 982.734 632H19.1352C8.72991 632 0.448336 623.282 0.982711 612.89L31.6133 17.243Z" fill="#FF0000"/>
</mask>
<g mask="url(#mask0_280_2268)">
<rect x="863" y="197" width="14" height="92" rx="7" fill="#42394D" stroke="#2C2336" stroke-width="3" stroke-linecap="round"/>
<ellipse cx="840.792" cy="256.658" rx="40" ry="21" transform="rotate(5.37961 840.792 256.658)" fill="#A6D641" stroke="#2C2336" stroke-width="3" stroke-linecap="round"/>
<path d="M797.289 146.632L799.461 143.352C805.379 134.414 814.234 127.826 824.495 124.726C829.416 123.239 834.551 122.588 839.688 122.801L846.916 123.1L861.269 125.414C865.589 126.11 873.646 129.427 877.499 131.5C884.999 137 886.864 139.744 890.454 147.278L893.503 153.677C896.362 159.677 898.22 166.105 899.003 172.705C899.447 176.457 899.236 180.258 898.379 183.937L897.453 187.909C896.818 190.633 895.979 193.305 894.944 195.903L889.314 210.032C887.351 214.957 884.382 219.417 880.596 223.127C873.483 230.096 863.921 234 853.962 234L838.93 234C833.355 234 827.827 232.99 822.613 231.019C812.337 227.134 803.785 219.711 798.493 210.085L797.731 208.698C794.931 203.604 793.032 198.065 792.119 192.325L790.956 185.009C789.662 176.873 789.846 168.571 791.499 160.5C793.078 155.765 794.534 150.795 797.289 146.632Z" fill="#42394D" stroke="#2C2336" stroke-width="3" stroke-linecap="round"/>
<path d="M805.11 251.981L807.614 249.277C810.621 246.029 815.174 244.704 819.455 245.83C820.923 246.217 821.897 247.608 821.757 249.121L817 300.5V326.412C817 327.726 816.381 328.964 815.329 329.753C811.463 332.653 806.273 333.07 801.993 330.826L771.985 315.09C769.557 313.817 766.61 314.078 764.444 315.757L746.783 329.454C744.759 331.023 742.04 331.362 739.692 330.338L722.563 322.858C716.984 320.423 716.958 312.519 722.521 310.046L729.87 306.78C730.289 306.594 730.689 306.367 731.064 306.102L738.299 300.994C738.765 300.666 739.188 300.282 739.56 299.851L741.585 297.507C745.976 292.423 752.362 289.5 759.08 289.5C761.675 289.5 764.251 289.937 766.701 290.792L794.5 300.5L799.046 264.961C799.666 260.108 801.786 255.571 805.11 251.981Z" fill="#FFE6D1" stroke="#2C2336" stroke-width="3" stroke-linecap="round"/>
<path d="M880.478 260.707L878.33 258.934C871.514 253.312 862.38 251.251 853.798 253.349C849.359 254.434 847.092 259.422 849.242 263.454L860.464 284.495C860.819 285.161 861.279 285.764 861.826 286.283L879.513 303.039C879.837 303.346 880.131 303.682 880.39 304.045L906.5 340.5L913.5 351.5L923.928 367.616C924.306 368.201 924.58 368.847 924.737 369.526C926.066 375.285 932.77 377.907 937.653 374.577L945.67 369.111C947.992 367.528 949.142 364.71 948.591 361.955L946.414 351.072C945.823 348.116 944.223 345.458 941.888 343.551L921.784 327.14C921.264 326.716 920.808 326.218 920.429 325.664L899.897 295.581C899.633 295.195 899.409 294.783 899.227 294.351L891.032 274.89C888.712 269.379 885.091 264.512 880.478 260.707Z" fill="#FFE6D1" stroke="#2C2336" stroke-width="3" stroke-linecap="round"/>
<path d="M832.5 247V236.5C832.5 232.634 835.634 229.5 839.5 229.5H842.455C846.528 229.5 849.74 232.963 849.436 237.024L848.5 249.5L858.513 251.725C860.703 252.212 862.528 253.719 863.419 255.778L872.428 276.592C875.009 282.556 874.822 289.357 871.915 295.169L871.634 295.733C870.346 298.307 870.766 301.407 872.691 303.546L878.5 310L881.422 314.018C887.371 322.197 891.077 331.789 892.174 341.842L893.433 353.386C893.478 353.795 893.486 354.206 893.458 354.616L890.5 398.5L893.189 471.545C893.378 476.693 896.563 481.253 901.33 483.203C903.247 483.988 904.5 485.853 904.5 487.925V490.5C904.5 498.232 898.232 504.5 890.5 504.5H864.166C862.755 504.5 861.377 504.074 860.213 503.277L856.858 500.982C854.278 499.217 853.181 495.956 854.17 492.991L858.141 481.078C858.379 480.364 858.5 479.616 858.5 478.864V413.651C858.5 413.218 858.46 412.786 858.38 412.361L848.636 360.392C848.267 358.425 846.55 357 844.549 357C842.985 357 841.553 357.878 840.844 359.272L813.96 412.096C813.655 412.696 813.438 413.336 813.315 413.997L808.5 440L803 474L795.927 499.379C795.084 502.406 792.326 504.5 789.184 504.5H747.5H725.939C724.999 504.5 724.079 504.232 723.286 503.728L720.992 502.268C713.963 497.794 712.187 488.306 717.123 481.593C719.269 478.674 722.57 476.82 726.18 476.506L750.751 474.369C753.361 474.143 755.625 472.478 756.62 470.055L786 398.5L816.258 312.119C816.74 310.741 816.78 309.246 816.371 307.845L813.823 299.108C813.609 298.374 813.276 297.68 812.838 297.054L809.589 292.413C805.484 286.548 804.649 278.995 807.375 272.375L810 266L816.445 250.078C817.652 247.095 820.738 245.32 823.923 245.775L832.5 247Z" fill="#FFE6D1" stroke="#2C2336" stroke-width="3" stroke-linecap="round"/>
<path d="M758.108 466.432L786 398.5L806.524 336.929C807.418 334.247 809.837 332.366 812.657 332.161L890.5 326.5L895.5 364V414.132C895.5 414.708 895.571 415.283 895.712 415.842L910.153 473.169C911.238 477.476 909.248 481.968 905.329 484.058C904.785 484.348 904.177 484.5 903.56 484.5H901H863.049C860.283 484.5 857.776 486.129 856.652 488.657L854.313 493.92C853.211 496.401 850.75 498 848.035 498C843.815 498 840.593 494.231 841.248 490.062L852.345 419.484C852.448 418.831 852.458 418.167 852.374 417.512L846.405 370.676C846.173 368.86 844.629 367.5 842.798 367.5C841.149 367.5 839.706 368.611 839.284 370.205L826.733 417.62C826.578 418.204 826.5 418.806 826.5 419.411V451V488.637C826.5 494.078 820.564 497.439 815.899 494.639L799.926 485.056C799.312 484.687 798.646 484.415 797.949 484.249L762.958 475.899C758.778 474.902 756.475 470.407 758.108 466.432Z" fill="#9389FF" stroke="#2C2336" stroke-width="3" stroke-linecap="round"/>
<path d="M866.5 342.5L895 353" stroke="#2C2336" stroke-width="3"/>
<path d="M801 355L824.5 343" stroke="#2C2336" stroke-width="3"/>
<path d="M835 343.5L836.226 350.609C836.962 354.88 840.666 358 845 358V358" stroke="#2C2336" stroke-width="3"/>
<path d="M844 343.5V369" stroke="#2C2336" stroke-width="3"/>
<circle cx="801.5" cy="196.5" r="11.5" fill="#FFE6D1" stroke="#2C2336" stroke-width="3" stroke-linecap="round"/>
<circle cx="888.5" cy="201.5" r="11.5" fill="#FFE6D1" stroke="#2C2336" stroke-width="3" stroke-linecap="round"/>
<path d="M804.966 158.896L805.15 154.475C809.048 143.774 817.368 135.272 827.982 131.142C833.07 129.162 838.513 128.257 843.968 128.482L852.083 128.818C857.73 129.052 863.239 130.631 868.151 133.424C873.814 136.645 878.481 141.362 881.64 147.06L882.631 148.848C886.438 155.715 888.281 163.498 887.956 171.343L887.295 187.324L886.874 197.498C886.503 206.466 883.277 215.081 877.665 222.086C874.652 225.849 871.014 229.066 866.912 231.597L864.006 233.391C857.556 237.37 850.064 239.329 842.493 239.016C835.08 238.709 827.92 236.238 821.896 231.908L820.628 230.997C815.386 227.229 811.069 222.32 808.002 216.64C804.359 209.893 802.604 202.289 802.921 194.629L804.966 158.896Z" fill="#FFE6D1" stroke="#2C2336" stroke-width="3" stroke-linecap="round"/>
<ellipse cx="866.651" cy="202.483" rx="16" ry="15" transform="rotate(2.36878 866.651 202.483)" fill="url(#paint0_radial_280_2268)" fill-opacity="0.7"/>
<ellipse cx="818.693" cy="200.5" rx="16" ry="15" transform="rotate(2.36878 818.693 200.5)" fill="url(#paint1_radial_280_2268)" fill-opacity="0.7"/>
<path d="M839.614 199.363L839.588 199.997C839.538 201.2 839.06 202.345 838.239 203.227L838.132 203.342C837.566 203.949 837.18 204.701 837.016 205.514V205.514C836.63 207.433 837.531 209.381 839.244 210.327L840.281 210.901" stroke="#BF566E" stroke-width="3" stroke-linecap="round"/>
<path d="M835.92 219.561L837.432 220.489C839.492 221.752 841.87 222.401 844.287 222.36V222.36C846.833 222.316 849.307 221.508 851.388 220.041L852.96 218.932" stroke="#BF566E" stroke-width="3" stroke-linecap="round"/>
<path d="M815.21 163.91L798.898 170.945L793.902 170.738L797.062 154.836L819.556 131.245L841.338 124.871L858.74 127.592L872.064 132.147L881.245 140.033L892.882 161.157L893.622 179.578L881.327 174.354L874.057 170.248C867.524 166.557 861.521 161.998 856.213 156.695L855.018 155.501C851.862 152.347 848.964 148.944 846.355 145.324L845.07 143.541L837.786 150.246L829.675 155.877C825.133 159.029 820.287 161.721 815.21 163.91Z" fill="#42394D"/>
<path d="M873.318 171.554C866.667 167.797 860.556 163.155 855.152 157.756L853.957 156.562C850.744 153.351 847.794 149.886 845.137 146.201L844.841 145.79L838.726 151.419L830.529 157.109C825.905 160.319 820.972 163.059 815.803 165.288L802.904 170.85L803.042 167.524L814.615 162.533C819.601 160.383 824.359 157.74 828.818 154.645L836.845 149.072L845.297 141.292L847.571 144.447C850.133 148.001 852.978 151.343 856.078 154.44L857.273 155.634C862.485 160.842 868.379 165.318 874.794 168.942L881.99 173.007L889.16 176.054L889.028 179.257L880.662 175.702L873.318 171.554Z" fill="#2C2336"/>
<rect x="858.383" y="184.626" width="11" height="14" rx="5.5" transform="rotate(2.36878 858.383 184.626)" fill="#2C2336"/>
<rect x="821.436" y="182.598" width="11" height="14" rx="5.5" transform="rotate(2.36878 821.436 182.598)" fill="#2C2336"/>
<path d="M835.113 187.162V187.162C830.071 179.825 819.305 179.63 814 186.779V186.779" stroke="#2C2336" stroke-width="4" stroke-linecap="round"/>
<path d="M876.113 189.162V189.162C871.071 181.825 860.305 181.63 855 188.779V188.779" stroke="#2C2336" stroke-width="4" stroke-linecap="round"/>
<path fill-rule="evenodd" clip-rule="evenodd" d="M835.791 171.822C836.12 172.876 835.534 174.001 834.468 174.293C829.565 175.638 824.5 176.321 819.41 176.321H816.291C815.186 176.321 814.291 175.426 814.291 174.321V174.321C814.291 173.217 815.186 172.321 816.291 172.321H819.41C824.096 172.321 828.758 171.699 833.275 170.473C834.341 170.183 835.462 170.767 835.791 171.822V171.822Z" fill="#2C2336"/>
<path fill-rule="evenodd" clip-rule="evenodd" d="M855.333 172.874C854.9 173.89 855.371 175.068 856.402 175.465C861.147 177.293 866.118 178.478 871.183 178.987L874.286 179.298C875.385 179.409 876.365 178.607 876.476 177.508V177.508C876.586 176.409 875.784 175.429 874.685 175.318L871.582 175.007C866.92 174.539 862.343 173.454 857.971 171.783C856.939 171.388 855.766 171.857 855.333 172.874V172.874Z" fill="#2C2336"/>
<path fill-rule="evenodd" clip-rule="evenodd" d="M731 469C719.954 469 711 477.955 711 489V505C711 508.314 713.686 511 717 511H764H768.849H798C801.314 511 804 508.314 804 505V492C804 490.344 802.657 489 801 489H784H764H743V477C743 472.582 739.418 469 735 469H731Z" fill="#42394D"/>
<path d="M743 489H741.5C741.5 489.829 742.172 490.5 743 490.5V489ZM712.5 489C712.5 478.783 720.783 470.5 731 470.5V467.5C719.126 467.5 709.5 477.126 709.5 489H712.5ZM709.5 489V505H712.5V489H709.5ZM709.5 505C709.5 509.143 712.858 512.5 717 512.5V509.5C714.515 509.5 712.5 507.486 712.5 505H709.5ZM717 512.5H764V509.5H717V512.5ZM764 512.5H768.849V509.5H764V512.5ZM768.849 512.5H798V509.5H768.849V512.5ZM798 512.5C802.142 512.5 805.5 509.143 805.5 505H802.5C802.5 507.486 800.485 509.5 798 509.5V512.5ZM805.5 505V492H802.5V505H805.5ZM805.5 492C805.5 489.515 803.485 487.5 801 487.5V490.5C801.828 490.5 802.5 491.172 802.5 492H805.5ZM801 487.5H784V490.5H801V487.5ZM784 487.5H764V490.5H784V487.5ZM764 487.5H743V490.5H764V487.5ZM741.5 477V489H744.5V477H741.5ZM735 470.5C738.59 470.5 741.5 473.411 741.5 477H744.5C744.5 471.754 740.247 467.5 735 467.5V470.5ZM731 470.5H735V467.5H731V470.5Z" fill="#2C2336"/>
<line x1="711" y1="498.5" x2="804" y2="498.5" stroke="#2C2336" stroke-width="3" stroke-linejoin="round"/>
<path fill-rule="evenodd" clip-rule="evenodd" d="M853 494C853 494 853 494.001 853 494.001V505C853 508.314 855.686 511 859 511H901C904.314 511 907 508.314 907 505V494.001C907 494.001 907 494 907 494C906.999 482.955 898.045 474.001 887 474.001H873C861.955 474.001 853.001 482.955 853 494Z" fill="#42394D"/>
<path d="M853 494L851.5 494V494H853ZM907 494L908.5 494L908.5 494L907 494ZM854.5 494.001C854.5 494.001 854.5 494.001 854.5 494.001C854.5 494.001 854.5 494.001 854.5 494.001C854.5 494.001 854.5 494.001 854.5 494.001C854.5 494.001 854.5 494.001 854.5 494.001C854.5 494.001 854.5 494.001 854.5 494.001C854.5 494.001 854.5 494.001 854.5 494.001C854.5 494.001 854.5 494.001 854.5 494.001C854.5 494.001 854.5 494.001 854.5 494.001C854.5 494.001 854.5 494.001 854.5 494.001C854.5 494.001 854.5 494.001 854.5 494.001C854.5 494.001 854.5 494.001 854.5 494.001C854.5 494.001 854.5 494.001 854.5 494.001C854.5 494.001 854.5 494.001 854.5 494.001C854.5 494.001 854.5 494.001 854.5 494.001C854.5 494.001 854.5 494.001 854.5 494.001C854.5 494.001 854.5 494.001 854.5 494.001C854.5 494.001 854.5 494.001 854.5 494.001C854.5 494.001 854.5 494.001 854.5 494.001C854.5 494.001 854.5 494.001 854.5 494.001C854.5 494.001 854.5 494.001 854.5 494.001C854.5 494.001 854.5 494.001 854.5 494.001C854.5 494.001 854.5 494.001 854.5 494.001C854.5 494.001 854.5 494.001 854.5 494.001C854.5 494.001 854.5 494.001 854.5 494.001C854.5 494.001 854.5 494.001 854.5 494.001C854.5 494.001 854.5 494.001 854.5 494.001C854.5 494.001 854.5 494.001 854.5 494.001C854.5 494.001 854.5 494.001 854.5 494.001C854.5 494.001 854.5 494.001 854.5 494.001C854.5 494.001 854.5 494.001 854.5 494.001C854.5 494.001 854.5 494.001 854.5 494.001C854.5 494.001 854.5 494.001 854.5 494.001C854.5 494.001 854.5 494.001 854.5 494.001C854.5 494.001 854.5 494.001 854.5 494.001C854.5 494.001 854.5 494.001 854.5 494.001C854.5 494.001 854.5 494.001 854.5 494.001C854.5 494.001 854.5 494.001 854.5 494.001C854.5 494.001 854.5 494.001 854.5 494.001C854.5 494.001 854.5 494.001 854.5 494.001C854.5 494.001 854.5 494.001 854.5 494.001C854.5 494.001 854.5 494.001 854.5 494.001C854.5 494.001 854.5 494.001 854.5 494.001C854.5 494.001 854.5 494.001 854.5 494.001C854.5 494.001 854.5 494.001 854.5 494.001C854.5 494.001 854.5 494.001 854.5 494.001C854.5 494.001 854.5 494.001 854.5 494.001C854.5 494.001 854.5 494.001 854.5 494.001C854.5 494.001 854.5 494.001 854.5 494.001C854.5 494.001 854.5 494.001 854.5 494.001C854.5 494.001 854.5 494.001 854.5 494.001C854.5 494.001 854.5 494.001 854.5 494.001C854.5 494.001 854.5 494.001 854.5 494.001C854.5 494.001 854.5 494.001 854.5 494.001C854.5 494.001 854.5 494.001 854.5 494.001C854.5 494.001 854.5 494.001 854.5 494.001C854.5 494.001 854.5 494.001 854.5 494.001C854.5 494.001 854.5 494.001 854.5 494.001C854.5 494.001 854.5 494.001 854.5 494.001C854.5 494.001 854.5 494.001 854.5 494.001C854.5 494.001 854.5 494.001 854.5 494.001C854.5 494.001 854.5 494.001 854.5 494.001C854.5 494.001 854.5 494.001 854.5 494.001C854.5 494.001 854.5 494.001 854.5 494.001C854.5 494.001 854.5 494.001 854.5 494.001C854.5 494.001 854.5 494.001 854.5 494.001C854.5 494.001 854.5 494.001 854.5 494.001C854.5 494.001 854.5 494.001 854.5 494.001C854.5 494.001 854.5 494.001 854.5 494.001C854.5 494.001 854.5 494.001 854.5 494.001C854.5 494.001 854.5 494.001 854.5 494.001C854.5 494.001 854.5 494.001 854.5 494.001C854.5 494.001 854.5 494.001 854.5 494.001C854.5 494.001 854.5 494.001 854.5 494.001C854.5 494.001 854.5 494.001 854.5 494.001C854.5 494.001 854.5 494.001 854.5 494.001C854.5 494.001 854.5 494.001 854.5 494.001C854.5 494.001 854.5 494.001 854.5 494.001C854.5 494.001 854.5 494.001 854.5 494.001C854.5 494.001 854.5 494.001 854.5 494.001C854.5 494.001 854.5 494.001 854.5 494.001C854.5 494.001 854.5 494.001 854.5 494.001C854.5 494.001 854.5 494.001 854.5 494.001C854.5 494.001 854.5 494.001 854.5 494.001C854.5 494.001 854.5 494.001 854.5 494.001C854.5 494.001 854.5 494.001 854.5 494.001C854.5 494.001 854.5 494.001 854.5 494.001C854.5 494.001 854.5 494.001 854.5 494.001C854.5 494.001 854.5 494.001 854.5 494.001C854.5 494.001 854.5 494.001 854.5 494.001C854.5 494.001 854.5 494.001 854.5 494.001C854.5 494.001 854.5 494.001 854.5 494.001C854.5 494.001 854.5 494.001 854.5 494.001C854.5 494.001 854.5 494.001 854.5 494.001C854.5 494.001 854.5 494.001 854.5 494.001C854.5 494.001 854.5 494.001 854.5 494.001C854.5 494.001 854.5 494.001 854.5 494.001C854.5 494.001 854.5 494.001 854.5 494.001C854.5 494.001 854.5 494.001 854.5 494.001C854.5 494.001 854.5 494.001 854.5 494.001C854.5 494.001 854.5 494.001 854.5 494.001C854.5 494.001 854.5 494.001 854.5 494.001C854.5 494.001 854.5 494.001 854.5 494.001C854.5 494.001 854.5 494.001 854.5 494.001C854.5 494.001 854.5 494.001 854.5 494.001C854.5 494.001 854.5 494.001 854.5 494.001C854.5 494.001 854.5 494.001 854.5 494.001C854.5 494.001 854.5 494.001 854.5 494.001C854.5 494.001 854.5 494.001 854.5 494.001C854.5 494.001 854.5 494.001 854.5 494.001C854.5 494.001 854.5 494.001 854.5 494.001C854.5 494.001 854.5 494.001 854.5 494.001C854.5 494.001 854.5 494.001 854.5 494.001C854.5 494.001 854.5 494.001 854.5 494.001C854.5 494.001 854.5 494.001 854.5 494.001C854.5 494.001 854.5 494.001 854.5 494.001C854.5 494.001 854.5 494.001 854.5 494.001C854.5 494.001 854.5 494.001 854.5 494.001C854.5 494.001 854.5 494.001 854.5 494.001C854.5 494.001 854.5 494.001 854.5 494.001C854.5 494.001 854.5 494.001 854.5 494.001C854.5 494.001 854.5 494.001 854.5 494.001C854.5 494.001 854.5 494.001 854.5 494.001C854.5 494.001 854.5 494.001 854.5 494.001C854.5 494.001 854.5 494.001 854.5 494.001C854.5 494.001 854.5 494.001 854.5 494.001C854.5 494.001 854.5 494.001 854.5 494.001C854.5 494.001 854.5 494.001 854.5 494.001C854.5 494.001 854.5 494.001 854.5 494.001C854.5 494.001 854.5 494.001 854.5 494.001C854.5 494.001 854.5 494.001 854.5 494.001C854.5 494.001 854.5 494.001 854.5 494.001C854.5 494.001 854.5 494.001 854.5 494.001C854.5 494.001 854.5 494.001 854.5 494.001C854.5 494.001 854.5 494.001 854.5 494.001C854.5 494.001 854.5 494.001 854.5 494.001C854.5 494.001 854.5 494.001 854.5 494.001C854.5 494.001 854.5 494.001 854.5 494.001C854.5 494.001 854.5 494.001 854.5 494.001C854.5 494.001 854.5 494.001 854.5 494.001C854.5 494.001 854.5 494.001 854.5 494.001C854.5 494.001 854.5 494.001 854.5 494.001C854.5 494.001 854.5 494.001 854.5 494.001C854.5 494.001 854.5 494.001 854.5 494.001C854.5 494.001 854.5 494.001 854.5 494.001C854.5 494.001 854.5 494.001 854.5 494.001C854.5 494.001 854.5 494.001 854.5 494.001C854.5 494.001 854.5 494.001 854.5 494.001C854.5 494.001 854.5 494.001 854.5 494.001C854.5 494.001 854.5 494.001 854.5 494.001C854.5 494.001 854.5 494.001 854.5 494.001C854.5 494.001 854.5 494.001 854.5 494.001C854.5 494.001 854.5 494.001 854.5 494.001C854.5 494.001 854.5 494.001 854.5 494.001C854.5 494.001 854.5 494.001 854.5 494.001C854.5 494.001 854.5 494.001 854.5 494.001C854.5 494.001 854.5 494.001 854.5 494.001C854.5 494.001 854.5 494.001 854.5 494.001C854.5 494.001 854.5 494.001 854.5 494.001C854.5 494.001 854.5 494.001 854.5 494.001C854.5 494.001 854.5 494.001 854.5 494.001C854.5 494.001 854.5 494.001 854.5 494.001C854.5 494.001 854.5 494.001 854.5 494.001C854.5 494.001 854.5 494.001 854.5 494.001C854.5 494.001 854.5 494.001 854.5 494.001C854.5 494.001 854.5 494.001 854.5 494.001C854.5 494.001 854.5 494.001 854.5 494.001C854.5 494.001 854.5 494.001 854.5 494.001C854.5 494.001 854.5 494.001 854.5 494.001C854.5 494.001 854.5 494.001 854.5 494.001C854.5 494.001 854.5 494.001 854.5 494.001C854.5 494.001 854.5 494.001 854.5 494.001C854.5 494.001 854.5 494.001 854.5 494.001C854.5 494.001 854.5 494.001 854.5 494.001C854.5 494.001 854.5 494.001 854.5 494.001C854.5 494.001 854.5 494.001 854.5 494.001C854.5 494.001 854.5 494.001 854.5 494.001C854.5 494.001 854.5 494.001 854.5 494.001C854.5 494.001 854.5 494.001 854.5 494.001C854.5 494.001 854.5 494.001 854.5 494.001C854.5 494.001 854.5 494.001 854.5 494.001C854.5 494.001 854.5 494.001 854.5 494.001C854.5 494.001 854.5 494.001 854.5 494.001C854.5 494.001 854.5 494.001 854.5 494.001C854.5 494.001 854.5 494.001 854.5 494.001C854.5 494.001 854.5 494.001 854.5 494.001C854.5 494.001 854.5 494.001 854.5 494.001C854.5 494.001 854.5 494.001 854.5 494.001C854.5 494.001 854.5 494.001 854.5 494.001C854.5 494.001 854.5 494.001 854.5 494.001C854.5 494.001 854.5 494.001 854.5 494.001C854.5 494.001 854.5 494.001 854.5 494.001C854.5 494.001 854.5 494.001 854.5 494.001C854.5 494.001 854.5 494.001 854.5 494.001C854.5 494.001 854.5 494.001 854.5 494.001C854.5 494.001 854.5 494.001 854.5 494.001C854.5 494.001 854.5 494.001 854.5 494.001C854.5 494.001 854.5 494.001 854.5 494.001C854.5 494.001 854.5 494.001 854.5 494.001C854.5 494.001 854.5 494.001 854.5 494.001C854.5 494.001 854.5 494.001 854.5 494.001C854.5 494.001 854.5 494.001 854.5 494.001C854.5 494.001 854.5 494.001 854.5 494.001C854.5 494.001 854.5 494.001 854.5 494.001C854.5 494.001 854.5 494.001 854.5 494.001C854.5 494.001 854.5 494.001 854.5 494.001C854.5 494.001 854.5 494.001 854.5 494.001C854.5 494.001 854.5 494.001 854.5 494.001C854.5 494.001 854.5 494.001 854.5 494.001C854.5 494.001 854.5 494.001 854.5 494.001C854.5 494.001 854.5 494.001 854.5 494.001C854.5 494.001 854.5 494.001 854.5 494.001C854.5 494.001 854.5 494.001 854.5 494.001C854.5 494.001 854.5 494.001 854.5 494.001C854.5 494.001 854.5 494.001 854.5 494.001C854.5 494.001 854.5 494.001 854.5 494.001C854.5 494.001 854.5 494.001 854.5 494.001C854.5 494.001 854.5 494.001 854.5 494.001C854.5 494.001 854.5 494.001 854.5 494.001C854.5 494.001 854.5 494.001 854.5 494.001C854.5 494.001 854.5 494.001 854.5 494.001C854.5 494.001 854.5 494.001 854.5 494.001C854.5 494.001 854.5 494.001 854.5 494.001C854.5 494.001 854.5 494.001 854.5 494.001C854.5 494.001 854.5 494.001 854.5 494.001C854.5 494.001 854.5 494.001 854.5 494.001C854.5 494.001 854.5 494.001 854.5 494.001C854.5 494.001 854.5 494.001 854.5 494.001C854.5 494.001 854.5 494.001 854.5 494.001C854.5 494.001 854.5 494.001 854.5 494.001C854.5 494.001 854.5 494.001 854.5 494.001C854.5 494.001 854.5 494.001 854.5 494.001C854.5 494.001 854.5 494.001 854.5 494.001C854.5 494.001 854.5 494.001 854.5 494.001C854.5 494.001 854.5 494.001 854.5 494.001C854.5 494.001 854.5 494.001 854.5 494.001C854.5 494.001 854.5 494.001 854.5 494.001C854.5 494.001 854.5 494.001 854.5 494.001C854.5 494.001 854.5 494.001 854.5 494.001C854.5 494.001 854.5 494.001 854.5 494.001C854.5 494.001 854.5 494.001 854.5 494.001C854.5 494.001 854.5 494.001 854.5 494.001C854.5 494.001 854.5 494.001 854.5 494.001C854.5 494.001 854.5 494.001 854.5 494.001C854.5 494.001 854.5 494.001 854.5 494.001C854.5 494.001 854.5 494.001 854.5 494.001C854.5 494.001 854.5 494.001 854.5 494.001C854.5 494.001 854.5 494.001 854.5 494.001C854.5 494.001 854.5 494.001 854.5 494.001C854.5 494.001 854.5 494.001 854.5 494.001C854.5 494.001 854.5 494.001 854.5 494C854.5 494 854.5 494 854.5 494C854.5 494 854.5 494 854.5 494C854.5 494 854.5 494 854.5 494C854.5 494 854.5 494 854.5 494C854.5 494 854.5 494 854.5 494C854.5 494 854.5 494 854.5 494C854.5 494 854.5 494 854.5 494C854.5 494 854.5 494 854.5 494C854.5 494 854.5 494 854.5 494C854.5 494 854.5 494 854.5 494C854.5 494 854.5 494 854.5 494C854.5 494 854.5 494 854.5 494C854.5 494 854.5 494 854.5 494C854.5 494 854.5 494 854.5 494C854.5 494 854.5 494 854.5 494C854.5 494 854.5 494 854.5 494C854.5 494 854.5 494 854.5 494C854.5 494 854.5 494 854.5 494C854.5 494 854.5 494 854.5 494C854.5 494 854.5 494 854.5 494C854.5 494 854.5 494 854.5 494C854.5 494 854.5 494 854.5 494C854.5 494 854.5 494 854.5 494C854.5 494 854.5 494 854.5 494C854.5 494 854.5 494 854.5 494C854.5 494 854.5 494 854.5 494C854.5 494 854.5 494 854.5 494C854.5 494 854.5 494 854.5 494C854.5 494 854.5 494 854.5 494C854.5 494 854.5 494 854.5 494C854.5 494 854.5 494 854.5 494C854.5 494 854.5 494 854.5 494C854.5 494 854.5 494 854.5 494C854.5 494 854.5 494 854.5 494C854.5 494 854.5 494 854.5 494C854.5 494 854.5 494 854.5 494C854.5 494 854.5 494 854.5 494C854.5 494 854.5 494 854.5 494C854.5 494 854.5 494 854.5 494C854.5 494 854.5 494 854.5 494C854.5 494 854.5 494 854.5 494C854.5 494 854.5 494 854.5 494C854.5 494 854.5 494 854.5 494C854.5 494 854.5 494 854.5 494C854.5 494 854.5 494 854.5 494C854.5 494 854.5 494 854.5 494C854.5 494 854.5 494 854.5 494C854.5 494 854.5 494 854.5 494C854.5 494 854.5 494 854.5 494C854.5 494 854.5 494 854.5 494C854.5 494 854.5 494 854.5 494C854.5 494 854.5 494 854.5 494C854.5 494 854.5 494 854.5 494C854.5 494 854.5 494 854.5 494C854.5 494 854.5 494 854.5 494C854.5 494 854.5 494 854.5 494C854.5 494 854.5 494 854.5 494C854.5 494 854.5 494 854.5 494C854.5 494 854.5 494 854.5 494C854.5 494 854.5 494 854.5 494C854.5 494 854.5 494 854.5 494C854.5 494 854.5 494 854.5 494C854.5 494 854.5 494 854.5 494C854.5 494 854.5 494 854.5 494C854.5 494 854.5 494 854.5 494C854.5 494 854.5 494 854.5 494C854.5 494 854.5 494 854.5 494C854.5 494 854.5 494 854.5 494C854.5 494 854.5 494 854.5 494C854.5 494 854.5 494 854.5 494C854.5 494 854.5 494 854.5 494C854.5 494 854.5 494 854.5 494C854.5 494 854.5 494 854.5 494C854.5 494 854.5 494 854.5 494C854.5 494 854.5 494 854.5 494C854.5 494 854.5 494 854.5 494C854.5 494 854.5 494 854.5 494C854.5 494 854.5 494 854.5 494C854.5 494 854.5 494 854.5 494C854.5 494 854.5 494 854.5 494C854.5 494 854.5 494 854.5 494C854.5 494 854.5 494 854.5 494C854.5 494 854.5 494 854.5 494C854.5 494 854.5 494 854.5 494C854.5 494 854.5 494 854.5 494C854.5 494 854.5 494 854.5 494C854.5 494 854.5 494 854.5 494C854.5 494 854.5 494 854.5 494C854.5 494 854.5 494 854.5 494C854.5 494 854.5 494 854.5 494C854.5 494 854.5 494 854.5 494C854.5 494 854.5 494 854.5 494C854.5 494 854.5 494 854.5 494C854.5 494 854.5 494 854.5 494C854.5 494 854.5 494 854.5 494C854.5 494 854.5 494 854.5 494C854.5 494 854.5 494 854.5 494C854.5 494 854.5 494 854.5 494C854.5 494 854.5 494 854.5 494C854.5 494 854.5 494 854.5 494C854.5 494 854.5 494 854.5 494C854.5 494 854.5 494 854.5 494C854.5 494 854.5 494 854.5 494C854.5 494 854.5 494 854.5 494C854.5 494 854.5 494 854.5 494C854.5 494 854.5 494 854.5 494C854.5 494 854.5 494 854.5 494C854.5 494 854.5 494 854.5 494C854.5 494 854.5 494 854.5 494C854.5 494 854.5 494 854.5 494C854.5 494 854.5 494 854.5 494C854.5 494 854.5 494 854.5 494C854.5 494 854.5 494 854.5 494C854.5 494 854.5 494 854.5 494C854.5 494 854.5 494 854.5 494C854.5 494 854.5 494 854.5 494C854.5 494 854.5 494 854.5 494C854.5 494 854.5 494 854.5 494C854.5 494 854.5 494 854.5 494C854.5 494 854.5 494 854.5 494C854.5 494 854.5 494 854.5 494C854.5 494 854.5 494 854.5 494C854.5 494 854.5 494 854.5 494C854.5 494 854.5 494 854.5 494C854.5 494 854.5 494 854.5 494C854.5 494 854.5 494 854.5 494C854.5 494 854.5 494 854.5 494C854.5 494 854.5 494 854.5 494C854.5 494 854.5 494 854.5 494C854.5 494 854.5 494 854.5 494C854.5 494 854.5 494 854.5 494C854.5 494 854.5 494 854.5 494C854.5 494 854.5 494 854.5 494C854.5 494 854.5 494 854.5 494C854.5 494 854.5 494 854.5 494C854.5 494 854.5 494 854.5 494C854.5 494 854.5 494 854.5 494C854.5 494 854.5 494 854.5 494C854.5 494 854.5 494 854.5 494C854.5 494 854.5 494 854.5 494C854.5 494 854.5 494 854.5 494C854.5 494 854.5 494 854.5 494C854.5 494 854.5 494 854.5 494C854.5 494 854.5 494 854.5 494C854.5 494 854.5 494 854.5 494C854.5 494 854.5 494 854.5 494C854.5 494 854.5 494 854.5 494C854.5 494 854.5 494 854.5 494C854.5 494 854.5 494 854.5 494C854.5 494 854.5 494 854.5 494C854.5 494 854.5 494 854.5 494C854.5 494 854.5 494 854.5 494C854.5 494 854.5 494 854.5 494C854.5 494 854.5 494 854.5 494C854.5 494 854.5 494 854.5 494C854.5 494 854.5 494 854.5 494C854.5 494 854.5 494 854.5 494C854.5 494 854.5 494 854.5 494C854.5 494 854.5 494 854.5 494C854.5 494 854.5 494 854.5 494C854.5 494 854.5 494 854.5 494C854.5 494 854.5 494 854.5 494C854.5 494 854.5 494 854.5 494C854.5 494 854.5 494 854.5 494C854.5 494 854.5 494 854.5 494C854.5 494 854.5 494 854.5 494C854.5 494 854.5 494 854.5 494C854.5 494 854.5 494 854.5 494C854.5 494 854.5 494 854.5 494C854.5 494 854.5 494 854.5 494C854.5 494 854.5 494 854.5 494C854.5 494 854.5 494 854.5 494C854.5 494 854.5 494 854.5 494C854.5 494 854.5 494 854.5 494C854.5 494 854.5 494 854.5 494C854.5 494 854.5 494 854.5 494C854.5 494 854.5 494 854.5 494C854.5 494 854.5 494 854.5 494C854.5 494 854.5 494 854.5 494C854.5 494 854.5 494 854.5 494C854.5 494 854.5 494 854.5 494C854.5 494 854.5 494 854.5 494C854.5 494 854.5 494 854.5 494C854.5 494 854.5 494 854.5 494C854.5 494 854.5 494 854.5 494C854.5 494 854.5 494 854.5 494C854.5 494 854.5 494 854.5 494C854.5 494 854.5 494 854.5 494C854.5 494 854.5 494 854.5 494C854.5 494 854.5 494 854.5 494C854.5 494 854.5 494 854.5 494C854.5 494 854.5 494 854.5 494C854.5 494 854.5 494 854.5 494C854.5 494 854.5 494 854.5 494C854.5 494 854.5 494 854.5 494C854.5 494 854.5 494 854.5 494C854.5 494 854.5 494 854.5 494C854.5 494 854.5 494 854.5 494C854.5 494 854.5 494 854.5 494C854.5 494 854.5 494 854.5 494C854.5 494 854.5 494 854.5 494C854.5 494 854.5 494 854.5 494C854.5 494 854.5 494 854.5 494C854.5 494 854.5 494 854.5 494C854.5 494 854.5 494 854.5 494C854.5 494 854.5 494 854.5 494C854.5 494 854.5 494 854.5 494C854.5 494 854.5 494 854.5 494C854.5 494 854.5 494 854.5 494C854.5 494 854.5 494 854.5 494C854.5 494 854.5 494 854.5 494C854.5 494 854.5 494 854.5 494C854.5 494 854.5 494 854.5 494C854.5 494 854.5 494 854.5 494C854.5 494 854.5 494 854.5 494C854.5 494 854.5 494 854.5 494C854.5 494 854.5 494 854.5 494C854.5 494 854.5 494 854.5 494C854.5 494 854.5 494 854.5 494C854.5 494 854.5 494 854.5 494C854.5 494 854.5 494 854.5 494C854.5 494 854.5 494 854.5 494C854.5 494 854.5 494 854.5 494C854.5 494 854.5 494 854.5 494C854.5 494 854.5 494 854.5 494C854.5 494 854.5 494 854.5 494C854.5 494 854.5 494 854.5 494C854.5 494 854.5 494 854.5 494C854.5 494 854.5 494 854.5 494C854.5 494 854.5 494 854.5 494C854.5 494 854.5 494 854.5 494C854.5 494 854.5 494 854.5 494C854.5 494 854.5 494 854.5 494C854.5 494 854.5 494 854.5 494C854.5 494 854.5 494 854.5 494C854.5 494 854.5 494 854.5 494C854.5 494 854.5 494 854.5 494C854.5 494 854.5 494 854.5 494C854.5 494 854.5 494 854.5 494C854.5 494 854.5 494 854.5 494C854.5 494 854.5 494 854.5 494C854.5 494 854.5 494 854.5 494C854.5 494 854.5 494 854.5 494C854.5 494 854.5 494 854.5 494C854.5 494 854.5 494 854.5 494C854.5 494 854.5 494 854.5 494C854.5 494 854.5 494 854.5 494C854.5 494 854.5 494 854.5 494C854.5 494 854.5 494 854.5 494C854.5 494 854.5 494 854.5 494C854.5 494 854.5 494 854.5 494C854.5 494 854.5 494 854.5 494C854.5 494 854.5 494 854.5 494C854.5 494 854.5 494 854.5 494C854.5 494 854.5 494 854.5 494C854.5 494 854.5 494 854.5 494C854.5 494 854.5 494 854.5 494C854.5 494 854.5 494 854.5 494C854.5 494 854.5 494 854.5 494C854.5 494 854.5 494 854.5 494C854.5 494 854.5 494 854.5 494C854.5 494 854.5 494 854.5 494H851.5C851.5 494 851.5 494 851.5 494C851.5 494 851.5 494 851.5 494C851.5 494 851.5 494 851.5 494C851.5 494 851.5 494 851.5 494C851.5 494 851.5 494 851.5 494C851.5 494 851.5 494 851.5 494C851.5 494 851.5 494 851.5 494C851.5 494 851.5 494 851.5 494C851.5 494 851.5 494 851.5 494C851.5 494 851.5 494 851.5 494C851.5 494 851.5 494 851.5 494C851.5 494 851.5 494 851.5 494C851.5 494 851.5 494 851.5 494C851.5 494 851.5 494 851.5 494C851.5 494 851.5 494 851.5 494C851.5 494 851.5 494 851.5 494C851.5 494 851.5 494 851.5 494C851.5 494 851.5 494 851.5 494C851.5 494 851.5 494 851.5 494C851.5 494 851.5 494 851.5 494C851.5 494 851.5 494 851.5 494C851.5 494 851.5 494 851.5 494C851.5 494 851.5 494 851.5 494C851.5 494 851.5 494 851.5 494C851.5 494 851.5 494 851.5 494C851.5 494 851.5 494 851.5 494C851.5 494 851.5 494 851.5 494C851.5 494 851.5 494 851.5 494C851.5 494 851.5 494 851.5 494C851.5 494 851.5 494 851.5 494C851.5 494 851.5 494 851.5 494C851.5 494 851.5 494 851.5 494C851.5 494 851.5 494 851.5 494C851.5 494 851.5 494 851.5 494C851.5 494 851.5 494 851.5 494C851.5 494 851.5 494 851.5 494C851.5 494 851.5 494 851.5 494C851.5 494 851.5 494 851.5 494C851.5 494 851.5 494 851.5 494C851.5 494 851.5 494 851.5 494C851.5 494 851.5 494 851.5 494C851.5 494 851.5 494 851.5 494C851.5 494 851.5 494 851.5 494C851.5 494 851.5 494 851.5 494C851.5 494 851.5 494 851.5 494C851.5 494 851.5 494 851.5 494C851.5 494 851.5 494 851.5 494C851.5 494 851.5 494 851.5 494C851.5 494 851.5 494 851.5 494C851.5 494 851.5 494 851.5 494C851.5 494 851.5 494 851.5 494C851.5 494 851.5 494 851.5 494C851.5 494 851.5 494 851.5 494C851.5 494 851.5 494 851.5 494C851.5 494 851.5 494 851.5 494C851.5 494 851.5 494 851.5 494C851.5 494 851.5 494 851.5 494C851.5 494 851.5 494 851.5 494C851.5 494 851.5 494 851.5 494C851.5 494 851.5 494 851.5 494C851.5 494 851.5 494 851.5 494C851.5 494 851.5 494 851.5 494C851.5 494 851.5 494 851.5 494C851.5 494 851.5 494 851.5 494C851.5 494 851.5 494 851.5 494C851.5 494 851.5 494 851.5 494C851.5 494 851.5 494 851.5 494C851.5 494 851.5 494 851.5 494C851.5 494 851.5 494 851.5 494C851.5 494 851.5 494 851.5 494C851.5 494 851.5 494 851.5 494C851.5 494 851.5 494 851.5 494C851.5 494 851.5 494 851.5 494C851.5 494 851.5 494 851.5 494C851.5 494 851.5 494 851.5 494C851.5 494 851.5 494 851.5 494C851.5 494 851.5 494 851.5 494C851.5 494 851.5 494 851.5 494C851.5 494 851.5 494 851.5 494C851.5 494 851.5 494 851.5 494C851.5 494 851.5 494 851.5 494C851.5 494 851.5 494 851.5 494C851.5 494 851.5 494 851.5 494C851.5 494 851.5 494 851.5 494C851.5 494 851.5 494 851.5 494C851.5 494 851.5 494 851.5 494C851.5 494 851.5 494 851.5 494C851.5 494 851.5 494 851.5 494C851.5 494 851.5 494 851.5 494C851.5 494 851.5 494 851.5 494C851.5 494 851.5 494 851.5 494C851.5 494 851.5 494 851.5 494C851.5 494 851.5 494 851.5 494C851.5 494 851.5 494 851.5 494C851.5 494 851.5 494 851.5 494C851.5 494 851.5 494 851.5 494C851.5 494 851.5 494 851.5 494C851.5 494 851.5 494 851.5 494C851.5 494 851.5 494 851.5 494C851.5 494 851.5 494 851.5 494C851.5 494 851.5 494 851.5 494C851.5 494 851.5 494 851.5 494C851.5 494 851.5 494 851.5 494C851.5 494 851.5 494 851.5 494C851.5 494 851.5 494 851.5 494C851.5 494 851.5 494 851.5 494C851.5 494 851.5 494 851.5 494C851.5 494 851.5 494 851.5 494C851.5 494 851.5 494 851.5 494C851.5 494 851.5 494 851.5 494C851.5 494 851.5 494 851.5 494C851.5 494 851.5 494 851.5 494C851.5 494 851.5 494 851.5 494C851.5 494 851.5 494 851.5 494C851.5 494 851.5 494 851.5 494C851.5 494 851.5 494 851.5 494C851.5 494 851.5 494 851.5 494C851.5 494 851.5 494 851.5 494C851.5 494 851.5 494 851.5 494C851.5 494 851.5 494 851.5 494C851.5 494 851.5 494 851.5 494C851.5 494 851.5 494 851.5 494C851.5 494 851.5 494 851.5 494C851.5 494 851.5 494 851.5 494C851.5 494 851.5 494 851.5 494C851.5 494 851.5 494 851.5 494C851.5 494 851.5 494 851.5 494C851.5 494 851.5 494 851.5 494C851.5 494 851.5 494 851.5 494C851.5 494 851.5 494 851.5 494C851.5 494 851.5 494 851.5 494C851.5 494 851.5 494 851.5 494C851.5 494 851.5 494 851.5 494C851.5 494 851.5 494 851.5 494C851.5 494 851.5 494 851.5 494C851.5 494 851.5 494 851.5 494C851.5 494 851.5 494 851.5 494C851.5 494 851.5 494 851.5 494C851.5 494 851.5 494 851.5 494C851.5 494 851.5 494 851.5 494C851.5 494 851.5 494 851.5 494C851.5 494 851.5 494 851.5 494C851.5 494 851.5 494 851.5 494C851.5 494 851.5 494 851.5 494C851.5 494 851.5 494 851.5 494C851.5 494 851.5 494 851.5 494C851.5 494 851.5 494 851.5 494C851.5 494 851.5 494 851.5 494C851.5 494 851.5 494 851.5 494C851.5 494 851.5 494 851.5 494C851.5 494 851.5 494 851.5 494C851.5 494 851.5 494 851.5 494C851.5 494 851.5 494 851.5 494C851.5 494 851.5 494 851.5 494C851.5 494 851.5 494 851.5 494C851.5 494 851.5 494 851.5 494C851.5 494 851.5 494 851.5 494C851.5 494 851.5 494 851.5 494C851.5 494 851.5 494 851.5 494C851.5 494 851.5 494 851.5 494C851.5 494 851.5 494 851.5 494C851.5 494 851.5 494 851.5 494C851.5 494 851.5 494 851.5 494C851.5 494 851.5 494 851.5 494C851.5 494 851.5 494 851.5 494C851.5 494 851.5 494 851.5 494C851.5 494 851.5 494 851.5 494C851.5 494 851.5 494 851.5 494C851.5 494 851.5 494 851.5 494C851.5 494 851.5 494 851.5 494C851.5 494 851.5 494 851.5 494C851.5 494 851.5 494 851.5 494C851.5 494 851.5 494 851.5 494C851.5 494 851.5 494 851.5 494C851.5 494 851.5 494 851.5 494C851.5 494 851.5 494 851.5 494C851.5 494 851.5 494 851.5 494C851.5 494 851.5 494 851.5 494C851.5 494 851.5 494 851.5 494C851.5 494 851.5 494 851.5 494C851.5 494 851.5 494 851.5 494C851.5 494 851.5 494 851.5 494C851.5 494 851.5 494 851.5 494C851.5 494 851.5 494 851.5 494C851.5 494 851.5 494 851.5 494C851.5 494 851.5 494 851.5 494C851.5 494 851.5 494 851.5 494C851.5 494 851.5 494 851.5 494C851.5 494 851.5 494 851.5 494C851.5 494 851.5 494 851.5 494C851.5 494 851.5 494 851.5 494C851.5 494 851.5 494 851.5 494C851.5 494 851.5 494 851.5 494C851.5 494 851.5 494 851.5 494C851.5 494 851.5 494 851.5 494C851.5 494 851.5 494 851.5 494C851.5 494 851.5 494 851.5 494C851.5 494 851.5 494 851.5 494C851.5 494 851.5 494 851.5 494C851.5 494 851.5 494 851.5 494C851.5 494 851.5 494 851.5 494C851.5 494 851.5 494 851.5 494C851.5 494 851.5 494 851.5 494C851.5 494 851.5 494 851.5 494C851.5 494 851.5 494 851.5 494C851.5 494 851.5 494 851.5 494C851.5 494 851.5 494 851.5 494C851.5 494 851.5 494 851.5 494C851.5 494 851.5 494 851.5 494C851.5 494 851.5 494 851.5 494C851.5 494 851.5 494 851.5 494C851.5 494 851.5 494 851.5 494C851.5 494 851.5 494 851.5 494C851.5 494 851.5 494 851.5 494C851.5 494 851.5 494 851.5 494C851.5 494 851.5 494 851.5 494C851.5 494 851.5 494 851.5 494C851.5 494 851.5 494 851.5 494C851.5 494 851.5 494 851.5 494C851.5 494 851.5 494 851.5 494C851.5 494 851.5 494 851.5 494C851.5 494 851.5 494 851.5 494C851.5 494 851.5 494 851.5 494C851.5 494 851.5 494 851.5 494C851.5 494 851.5 494 851.5 494C851.5 494 851.5 494 851.5 494C851.5 494 851.5 494 851.5 494C851.5 494 851.5 494 851.5 494C851.5 494 851.5 494 851.5 494C851.5 494 851.5 494 851.5 494C851.5 494 851.5 494 851.5 494C851.5 494 851.5 494 851.5 494C851.5 494 851.5 494 851.5 494C851.5 494 851.5 494 851.5 494C851.5 494 851.5 494 851.5 494C851.5 494 851.5 494 851.5 494C851.5 494 851.5 494 851.5 494C851.5 494 851.5 494 851.5 494C851.5 494 851.5 494 851.5 494C851.5 494 851.5 494 851.5 494C851.5 494 851.5 494 851.5 494C851.5 494 851.5 494 851.5 494C851.5 494 851.5 494 851.5 494C851.5 494 851.5 494 851.5 494C851.5 494 851.5 494 851.5 494C851.5 494 851.5 494 851.5 494C851.5 494 851.5 494 851.5 494C851.5 494 851.5 494 851.5 494C851.5 494 851.5 494 851.5 494C851.5 494 851.5 494 851.5 494C851.5 494 851.5 494 851.5 494C851.5 494 851.5 494 851.5 494C851.5 494 851.5 494 851.5 494C851.5 494 851.5 494 851.5 494C851.5 494 851.5 494 851.5 494C851.5 494 851.5 494 851.5 494C851.5 494 851.5 494 851.5 494C851.5 494 851.5 494 851.5 494C851.5 494 851.5 494 851.5 494C851.5 494 851.5 494 851.5 494C851.5 494 851.5 494 851.5 494C851.5 494 851.5 494 851.5 494C851.5 494.001 851.5 494.001 851.5 494.001C851.5 494.001 851.5 494.001 851.5 494.001C851.5 494.001 851.5 494.001 851.5 494.001C851.5 494.001 851.5 494.001 851.5 494.001C851.5 494.001 851.5 494.001 851.5 494.001C851.5 494.001 851.5 494.001 851.5 494.001C851.5 494.001 851.5 494.001 851.5 494.001C851.5 494.001 851.5 494.001 851.5 494.001C851.5 494.001 851.5 494.001 851.5 494.001C851.5 494.001 851.5 494.001 851.5 494.001C851.5 494.001 851.5 494.001 851.5 494.001C851.5 494.001 851.5 494.001 851.5 494.001C851.5 494.001 851.5 494.001 851.5 494.001C851.5 494.001 851.5 494.001 851.5 494.001C851.5 494.001 851.5 494.001 851.5 494.001C851.5 494.001 851.5 494.001 851.5 494.001C851.5 494.001 851.5 494.001 851.5 494.001C851.5 494.001 851.5 494.001 851.5 494.001C851.5 494.001 851.5 494.001 851.5 494.001C851.5 494.001 851.5 494.001 851.5 494.001C851.5 494.001 851.5 494.001 851.5 494.001C851.5 494.001 851.5 494.001 851.5 494.001C851.5 494.001 851.5 494.001 851.5 494.001C851.5 494.001 851.5 494.001 851.5 494.001C851.5 494.001 851.5 494.001 851.5 494.001C851.5 494.001 851.5 494.001 851.5 494.001C851.5 494.001 851.5 494.001 851.5 494.001C851.5 494.001 851.5 494.001 851.5 494.001C851.5 494.001 851.5 494.001 851.5 494.001C851.5 494.001 851.5 494.001 851.5 494.001C851.5 494.001 851.5 494.001 851.5 494.001C851.5 494.001 851.5 494.001 851.5 494.001C851.5 494.001 851.5 494.001 851.5 494.001C851.5 494.001 851.5 494.001 851.5 494.001C851.5 494.001 851.5 494.001 851.5 494.001C851.5 494.001 851.5 494.001 851.5 494.001C851.5 494.001 851.5 494.001 851.5 494.001C851.5 494.001 851.5 494.001 851.5 494.001C851.5 494.001 851.5 494.001 851.5 494.001C851.5 494.001 851.5 494.001 851.5 494.001C851.5 494.001 851.5 494.001 851.5 494.001C851.5 494.001 851.5 494.001 851.5 494.001C851.5 494.001 851.5 494.001 851.5 494.001C851.5 494.001 851.5 494.001 851.5 494.001C851.5 494.001 851.5 494.001 851.5 494.001C851.5 494.001 851.5 494.001 851.5 494.001C851.5 494.001 851.5 494.001 851.5 494.001C851.5 494.001 851.5 494.001 851.5 494.001C851.5 494.001 851.5 494.001 851.5 494.001C851.5 494.001 851.5 494.001 851.5 494.001C851.5 494.001 851.5 494.001 851.5 494.001C851.5 494.001 851.5 494.001 851.5 494.001C851.5 494.001 851.5 494.001 851.5 494.001C851.5 494.001 851.5 494.001 851.5 494.001C851.5 494.001 851.5 494.001 851.5 494.001C851.5 494.001 851.5 494.001 851.5 494.001C851.5 494.001 851.5 494.001 851.5 494.001C851.5 494.001 851.5 494.001 851.5 494.001C851.5 494.001 851.5 494.001 851.5 494.001C851.5 494.001 851.5 494.001 851.5 494.001C851.5 494.001 851.5 494.001 851.5 494.001C851.5 494.001 851.5 494.001 851.5 494.001C851.5 494.001 851.5 494.001 851.5 494.001C851.5 494.001 851.5 494.001 851.5 494.001C851.5 494.001 851.5 494.001 851.5 494.001C851.5 494.001 851.5 494.001 851.5 494.001C851.5 494.001 851.5 494.001 851.5 494.001C851.5 494.001 851.5 494.001 851.5 494.001C851.5 494.001 851.5 494.001 851.5 494.001C851.5 494.001 851.5 494.001 851.5 494.001C851.5 494.001 851.5 494.001 851.5 494.001C851.5 494.001 851.5 494.001 851.5 494.001C851.5 494.001 851.5 494.001 851.5 494.001C851.5 494.001 851.5 494.001 851.5 494.001C851.5 494.001 851.5 494.001 851.5 494.001C851.5 494.001 851.5 494.001 851.5 494.001C851.5 494.001 851.5 494.001 851.5 494.001C851.5 494.001 851.5 494.001 851.5 494.001C851.5 494.001 851.5 494.001 851.5 494.001C851.5 494.001 851.5 494.001 851.5 494.001C851.5 494.001 851.5 494.001 851.5 494.001C851.5 494.001 851.5 494.001 851.5 494.001C851.5 494.001 851.5 494.001 851.5 494.001C851.5 494.001 851.5 494.001 851.5 494.001C851.5 494.001 851.5 494.001 851.5 494.001C851.5 494.001 851.5 494.001 851.5 494.001C851.5 494.001 851.5 494.001 851.5 494.001C851.5 494.001 851.5 494.001 851.5 494.001C851.5 494.001 851.5 494.001 851.5 494.001C851.5 494.001 851.5 494.001 851.5 494.001C851.5 494.001 851.5 494.001 851.5 494.001C851.5 494.001 851.5 494.001 851.5 494.001C851.5 494.001 851.5 494.001 851.5 494.001C851.5 494.001 851.5 494.001 851.5 494.001C851.5 494.001 851.5 494.001 851.5 494.001C851.5 494.001 851.5 494.001 851.5 494.001C851.5 494.001 851.5 494.001 851.5 494.001C851.5 494.001 851.5 494.001 851.5 494.001C851.5 494.001 851.5 494.001 851.5 494.001C851.5 494.001 851.5 494.001 851.5 494.001C851.5 494.001 851.5 494.001 851.5 494.001C851.5 494.001 851.5 494.001 851.5 494.001C851.5 494.001 851.5 494.001 851.5 494.001C851.5 494.001 851.5 494.001 851.5 494.001C851.5 494.001 851.5 494.001 851.5 494.001C851.5 494.001 851.5 494.001 851.5 494.001C851.5 494.001 851.5 494.001 851.5 494.001C851.5 494.001 851.5 494.001 851.5 494.001C851.5 494.001 851.5 494.001 851.5 494.001C851.5 494.001 851.5 494.001 851.5 494.001C851.5 494.001 851.5 494.001 851.5 494.001C851.5 494.001 851.5 494.001 851.5 494.001C851.5 494.001 851.5 494.001 851.5 494.001C851.5 494.001 851.5 494.001 851.5 494.001C851.5 494.001 851.5 494.001 851.5 494.001C851.5 494.001 851.5 494.001 851.5 494.001C851.5 494.001 851.5 494.001 851.5 494.001C851.5 494.001 851.5 494.001 851.5 494.001C851.5 494.001 851.5 494.001 851.5 494.001C851.5 494.001 851.5 494.001 851.5 494.001C851.5 494.001 851.5 494.001 851.5 494.001C851.5 494.001 851.5 494.001 851.5 494.001C851.5 494.001 851.5 494.001 851.5 494.001C851.5 494.001 851.5 494.001 851.5 494.001C851.5 494.001 851.5 494.001 851.5 494.001C851.5 494.001 851.5 494.001 851.5 494.001C851.5 494.001 851.5 494.001 851.5 494.001C851.5 494.001 851.5 494.001 851.5 494.001C851.5 494.001 851.5 494.001 851.5 494.001C851.5 494.001 851.5 494.001 851.5 494.001C851.5 494.001 851.5 494.001 851.5 494.001C851.5 494.001 851.5 494.001 851.5 494.001C851.5 494.001 851.5 494.001 851.5 494.001C851.5 494.001 851.5 494.001 851.5 494.001C851.5 494.001 851.5 494.001 851.5 494.001C851.5 494.001 851.5 494.001 851.5 494.001C851.5 494.001 851.5 494.001 851.5 494.001C851.5 494.001 851.5 494.001 851.5 494.001C851.5 494.001 851.5 494.001 851.5 494.001C851.5 494.001 851.5 494.001 851.5 494.001C851.5 494.001 851.5 494.001 851.5 494.001C851.5 494.001 851.5 494.001 851.5 494.001C851.5 494.001 851.5 494.001 851.5 494.001C851.5 494.001 851.5 494.001 851.5 494.001C851.5 494.001 851.5 494.001 851.5 494.001C851.5 494.001 851.5 494.001 851.5 494.001C851.5 494.001 851.5 494.001 851.5 494.001C851.5 494.001 851.5 494.001 851.5 494.001C851.5 494.001 851.5 494.001 851.5 494.001C851.5 494.001 851.5 494.001 851.5 494.001C851.5 494.001 851.5 494.001 851.5 494.001C851.5 494.001 851.5 494.001 851.5 494.001C851.5 494.001 851.5 494.001 851.5 494.001C851.5 494.001 851.5 494.001 851.5 494.001C851.5 494.001 851.5 494.001 851.5 494.001C851.5 494.001 851.5 494.001 851.5 494.001C851.5 494.001 851.5 494.001 851.5 494.001C851.5 494.001 851.5 494.001 851.5 494.001C851.5 494.001 851.5 494.001 851.5 494.001C851.5 494.001 851.5 494.001 851.5 494.001C851.5 494.001 851.5 494.001 851.5 494.001C851.5 494.001 851.5 494.001 851.5 494.001C851.5 494.001 851.5 494.001 851.5 494.001C851.5 494.001 851.5 494.001 851.5 494.001C851.5 494.001 851.5 494.001 851.5 494.001C851.5 494.001 851.5 494.001 851.5 494.001C851.5 494.001 851.5 494.001 851.5 494.001C851.5 494.001 851.5 494.001 851.5 494.001C851.5 494.001 851.5 494.001 851.5 494.001C851.5 494.001 851.5 494.001 851.5 494.001C851.5 494.001 851.5 494.001 851.5 494.001C851.5 494.001 851.5 494.001 851.5 494.001C851.5 494.001 851.5 494.001 851.5 494.001C851.5 494.001 851.5 494.001 851.5 494.001C851.5 494.001 851.5 494.001 851.5 494.001C851.5 494.001 851.5 494.001 851.5 494.001C851.5 494.001 851.5 494.001 851.5 494.001C851.5 494.001 851.5 494.001 851.5 494.001C851.5 494.001 851.5 494.001 851.5 494.001C851.5 494.001 851.5 494.001 851.5 494.001C851.5 494.001 851.5 494.001 851.5 494.001C851.5 494.001 851.5 494.001 851.5 494.001C851.5 494.001 851.5 494.001 851.5 494.001C851.5 494.001 851.5 494.001 851.5 494.001C851.5 494.001 851.5 494.001 851.5 494.001C851.5 494.001 851.5 494.001 851.5 494.001C851.5 494.001 851.5 494.001 851.5 494.001C851.5 494.001 851.5 494.001 851.5 494.001C851.5 494.001 851.5 494.001 851.5 494.001C851.5 494.001 851.5 494.001 851.5 494.001C851.5 494.001 851.5 494.001 851.5 494.001C851.5 494.001 851.5 494.001 851.5 494.001C851.5 494.001 851.5 494.001 851.5 494.001C851.5 494.001 851.5 494.001 851.5 494.001C851.5 494.001 851.5 494.001 851.5 494.001C851.5 494.001 851.5 494.001 851.5 494.001C851.5 494.001 851.5 494.001 851.5 494.001C851.5 494.001 851.5 494.001 851.5 494.001C851.5 494.001 851.5 494.001 851.5 494.001C851.5 494.001 851.5 494.001 851.5 494.001C851.5 494.001 851.5 494.001 851.5 494.001C851.5 494.001 851.5 494.001 851.5 494.001C851.5 494.001 851.5 494.001 851.5 494.001C851.5 494.001 851.5 494.001 851.5 494.001C851.5 494.001 851.5 494.001 851.5 494.001C851.5 494.001 851.5 494.001 851.5 494.001C851.5 494.001 851.5 494.001 851.5 494.001C851.5 494.001 851.5 494.001 851.5 494.001C851.5 494.001 851.5 494.001 851.5 494.001C851.5 494.001 851.5 494.001 851.5 494.001C851.5 494.001 851.5 494.001 851.5 494.001C851.5 494.001 851.5 494.001 851.5 494.001C851.5 494.001 851.5 494.001 851.5 494.001C851.5 494.001 851.5 494.001 851.5 494.001C851.5 494.001 851.5 494.001 851.5 494.001C851.5 494.001 851.5 494.001 851.5 494.001C851.5 494.001 851.5 494.001 851.5 494.001C851.5 494.001 851.5 494.001 851.5 494.001C851.5 494.001 851.5 494.001 851.5 494.001C851.5 494.001 851.5 494.001 851.5 494.001C851.5 494.001 851.5 494.001 851.5 494.001C851.5 494.001 851.5 494.001 851.5 494.001C851.5 494.001 851.5 494.001 851.5 494.001C851.5 494.001 851.5 494.001 851.5 494.001C851.5 494.001 851.5 494.001 851.5 494.001C851.5 494.001 851.5 494.001 851.5 494.001C851.5 494.001 851.5 494.001 851.5 494.001C851.5 494.001 851.5 494.001 851.5 494.001C851.5 494.001 851.5 494.001 851.5 494.001C851.5 494.001 851.5 494.001 851.5 494.001C851.5 494.001 851.5 494.001 851.5 494.001C851.5 494.001 851.5 494.001 851.5 494.001C851.5 494.001 851.5 494.001 851.5 494.001C851.5 494.001 851.5 494.001 851.5 494.001C851.5 494.001 851.5 494.001 851.5 494.001C851.5 494.001 851.5 494.001 851.5 494.001C851.5 494.001 851.5 494.001 851.5 494.001C851.5 494.001 851.5 494.001 851.5 494.001C851.5 494.001 851.5 494.001 851.5 494.001C851.5 494.001 851.5 494.001 851.5 494.001C851.5 494.001 851.5 494.001 851.5 494.001C851.5 494.001 851.5 494.001 851.5 494.001C851.5 494.001 851.5 494.001 851.5 494.001C851.5 494.001 851.5 494.001 851.5 494.001C851.5 494.001 851.5 494.001 851.5 494.001C851.5 494.001 851.5 494.001 851.5 494.001C851.5 494.001 851.5 494.001 851.5 494.001C851.5 494.001 851.5 494.001 851.5 494.001C851.5 494.001 851.5 494.001 851.5 494.001C851.5 494.001 851.5 494.001 851.5 494.001H854.5ZM854.5 505V494.001H851.5V505H854.5ZM859 509.5C856.515 509.5 854.5 507.485 854.5 505H851.5C851.5 509.142 854.858 512.5 859 512.5V509.5ZM901 509.5H859V512.5H901V509.5ZM905.5 505C905.5 507.485 903.485 509.5 901 509.5V512.5C905.142 512.5 908.5 509.142 908.5 505H905.5ZM905.5 494.001V505H908.5V494.001H905.5ZM905.5 494C905.5 494 905.5 494 905.5 494C905.5 494 905.5 494 905.5 494C905.5 494 905.5 494 905.5 494C905.5 494 905.5 494 905.5 494C905.5 494 905.5 494 905.5 494C905.5 494 905.5 494 905.5 494C905.5 494 905.5 494 905.5 494C905.5 494 905.5 494 905.5 494C905.5 494 905.5 494 905.5 494C905.5 494 905.5 494 905.5 494C905.5 494 905.5 494 905.5 494C905.5 494 905.5 494 905.5 494C905.5 494 905.5 494 905.5 494C905.5 494 905.5 494 905.5 494C905.5 494 905.5 494 905.5 494C905.5 494 905.5 494 905.5 494C905.5 494 905.5 494 905.5 494C905.5 494 905.5 494 905.5 494C905.5 494 905.5 494 905.5 494C905.5 494 905.5 494 905.5 494C905.5 494 905.5 494 905.5 494C905.5 494 905.5 494 905.5 494C905.5 494 905.5 494 905.5 494C905.5 494 905.5 494 905.5 494C905.5 494 905.5 494 905.5 494C905.5 494 905.5 494 905.5 494C905.5 494 905.5 494 905.5 494C905.5 494 905.5 494 905.5 494C905.5 494 905.5 494 905.5 494C905.5 494 905.5 494 905.5 494C905.5 494 905.5 494 905.5 494C905.5 494 905.5 494 905.5 494C905.5 494 905.5 494 905.5 494C905.5 494 905.5 494 905.5 494C905.5 494 905.5 494 905.5 494C905.5 494 905.5 494 905.5 494C905.5 494 905.5 494 905.5 494C905.5 494 905.5 494 905.5 494C905.5 494 905.5 494 905.5 494C905.5 494 905.5 494 905.5 494C905.5 494 905.5 494 905.5 494C905.5 494 905.5 494 905.5 494C905.5 494 905.5 494 905.5 494C905.5 494 905.5 494 905.5 494C905.5 494 905.5 494 905.5 494C905.5 494 905.5 494 905.5 494C905.5 494 905.5 494 905.5 494C905.5 494 905.5 494 905.5 494C905.5 494 905.5 494 905.5 494C905.5 494 905.5 494 905.5 494C905.5 494 905.5 494 905.5 494C905.5 494 905.5 494 905.5 494C905.5 494 905.5 494 905.5 494C905.5 494 905.5 494 905.5 494C905.5 494 905.5 494 905.5 494C905.5 494 905.5 494 905.5 494C905.5 494 905.5 494 905.5 494C905.5 494 905.5 494 905.5 494C905.5 494 905.5 494 905.5 494C905.5 494 905.5 494 905.5 494C905.5 494 905.5 494 905.5 494C905.5 494 905.5 494 905.5 494C905.5 494 905.5 494 905.5 494C905.5 494 905.5 494 905.5 494C905.5 494 905.5 494 905.5 494C905.5 494 905.5 494 905.5 494C905.5 494 905.5 494 905.5 494C905.5 494 905.5 494 905.5 494C905.5 494 905.5 494 905.5 494C905.5 494 905.5 494 905.5 494C905.5 494 905.5 494 905.5 494C905.5 494 905.5 494 905.5 494C905.5 494 905.5 494 905.5 494C905.5 494 905.5 494 905.5 494C905.5 494 905.5 494 905.5 494C905.5 494 905.5 494 905.5 494C905.5 494 905.5 494 905.5 494C905.5 494 905.5 494 905.5 494C905.5 494 905.5 494 905.5 494C905.5 494 905.5 494 905.5 494C905.5 494 905.5 494 905.5 494C905.5 494 905.5 494 905.5 494C905.5 494 905.5 494 905.5 494C905.5 494 905.5 494 905.5 494C905.5 494 905.5 494 905.5 494C905.5 494 905.5 494 905.5 494C905.5 494 905.5 494 905.5 494C905.5 494 905.5 494 905.5 494C905.5 494 905.5 494 905.5 494C905.5 494 905.5 494 905.5 494C905.5 494 905.5 494 905.5 494C905.5 494 905.5 494 905.5 494C905.5 494 905.5 494 905.5 494C905.5 494 905.5 494 905.5 494C905.5 494 905.5 494 905.5 494C905.5 494 905.5 494 905.5 494C905.5 494 905.5 494 905.5 494C905.5 494 905.5 494 905.5 494C905.5 494 905.5 494 905.5 494C905.5 494 905.5 494 905.5 494C905.5 494 905.5 494 905.5 494C905.5 494 905.5 494 905.5 494C905.5 494 905.5 494 905.5 494C905.5 494 905.5 494 905.5 494C905.5 494 905.5 494 905.5 494C905.5 494 905.5 494 905.5 494C905.5 494 905.5 494 905.5 494C905.5 494 905.5 494 905.5 494C905.5 494 905.5 494 905.5 494C905.5 494 905.5 494 905.5 494C905.5 494 905.5 494 905.5 494C905.5 494 905.5 494 905.5 494C905.5 494 905.5 494 905.5 494C905.5 494 905.5 494 905.5 494C905.5 494 905.5 494 905.5 494C905.5 494 905.5 494 905.5 494C905.5 494 905.5 494 905.5 494C905.5 494 905.5 494 905.5 494C905.5 494 905.5 494 905.5 494C905.5 494 905.5 494 905.5 494C905.5 494 905.5 494 905.5 494C905.5 494 905.5 494 905.5 494C905.5 494 905.5 494 905.5 494C905.5 494 905.5 494 905.5 494C905.5 494 905.5 494 905.5 494C905.5 494 905.5 494 905.5 494C905.5 494 905.5 494 905.5 494C905.5 494 905.5 494 905.5 494C905.5 494 905.5 494 905.5 494C905.5 494 905.5 494 905.5 494C905.5 494 905.5 494 905.5 494C905.5 494 905.5 494 905.5 494C905.5 494 905.5 494 905.5 494C905.5 494 905.5 494 905.5 494C905.5 494 905.5 494 905.5 494C905.5 494 905.5 494 905.5 494C905.5 494 905.5 494 905.5 494C905.5 494 905.5 494 905.5 494C905.5 494 905.5 494 905.5 494C905.5 494 905.5 494 905.5 494C905.5 494 905.5 494 905.5 494C905.5 494 905.5 494 905.5 494C905.5 494 905.5 494 905.5 494C905.5 494 905.5 494 905.5 494C905.5 494 905.5 494 905.5 494C905.5 494 905.5 494 905.5 494C905.5 494 905.5 494 905.5 494C905.5 494 905.5 494 905.5 494C905.5 494 905.5 494 905.5 494C905.5 494 905.5 494 905.5 494C905.5 494 905.5 494 905.5 494C905.5 494 905.5 494 905.5 494C905.5 494 905.5 494 905.5 494C905.5 494 905.5 494 905.5 494C905.5 494 905.5 494 905.5 494C905.5 494 905.5 494 905.5 494C905.5 494 905.5 494 905.5 494C905.5 494 905.5 494 905.5 494C905.5 494 905.5 494 905.5 494C905.5 494 905.5 494 905.5 494C905.5 494 905.5 494 905.5 494C905.5 494 905.5 494 905.5 494C905.5 494 905.5 494 905.5 494C905.5 494 905.5 494 905.5 494C905.5 494 905.5 494 905.5 494C905.5 494 905.5 494 905.5 494C905.5 494 905.5 494 905.5 494C905.5 494 905.5 494 905.5 494C905.5 494 905.5 494 905.5 494C905.5 494 905.5 494 905.5 494C905.5 494 905.5 494 905.5 494C905.5 494 905.5 494 905.5 494C905.5 494 905.5 494 905.5 494C905.5 494 905.5 494 905.5 494C905.5 494 905.5 494 905.5 494C905.5 494 905.5 494 905.5 494C905.5 494 905.5 494 905.5 494C905.5 494 905.5 494 905.5 494C905.5 494 905.5 494 905.5 494C905.5 494 905.5 494 905.5 494C905.5 494 905.5 494 905.5 494C905.5 494 905.5 494 905.5 494C905.5 494 905.5 494 905.5 494C905.5 494 905.5 494 905.5 494C905.5 494 905.5 494 905.5 494C905.5 494 905.5 494 905.5 494C905.5 494 905.5 494 905.5 494C905.5 494 905.5 494 905.5 494C905.5 494 905.5 494 905.5 494C905.5 494 905.5 494 905.5 494C905.5 494 905.5 494 905.5 494C905.5 494 905.5 494 905.5 494C905.5 494 905.5 494 905.5 494C905.5 494 905.5 494 905.5 494C905.5 494 905.5 494 905.5 494C905.5 494 905.5 494 905.5 494C905.5 494 905.5 494 905.5 494C905.5 494 905.5 494 905.5 494C905.5 494 905.5 494 905.5 494C905.5 494 905.5 494 905.5 494C905.5 494 905.5 494 905.5 494C905.5 494 905.5 494 905.5 494C905.5 494 905.5 494 905.5 494C905.5 494 905.5 494 905.5 494C905.5 494 905.5 494 905.5 494C905.5 494 905.5 494 905.5 494C905.5 494 905.5 494 905.5 494C905.5 494 905.5 494 905.5 494C905.5 494 905.5 494 905.5 494C905.5 494 905.5 494 905.5 494C905.5 494 905.5 494 905.5 494C905.5 494 905.5 494 905.5 494C905.5 494 905.5 494 905.5 494C905.5 494 905.5 494 905.5 494C905.5 494 905.5 494 905.5 494C905.5 494 905.5 494 905.5 494C905.5 494 905.5 494 905.5 494C905.5 494 905.5 494 905.5 494C905.5 494 905.5 494 905.5 494C905.5 494 905.5 494 905.5 494C905.5 494 905.5 494 905.5 494C905.5 494 905.5 494 905.5 494C905.5 494 905.5 494 905.5 494C905.5 494 905.5 494 905.5 494C905.5 494 905.5 494 905.5 494C905.5 494 905.5 494 905.5 494C905.5 494 905.5 494 905.5 494C905.5 494 905.5 494 905.5 494C905.5 494 905.5 494 905.5 494C905.5 494 905.5 494 905.5 494C905.5 494 905.5 494 905.5 494C905.5 494 905.5 494 905.5 494C905.5 494 905.5 494 905.5 494C905.5 494 905.5 494 905.5 494C905.5 494 905.5 494 905.5 494C905.5 494 905.5 494 905.5 494C905.5 494 905.5 494 905.5 494C905.5 494 905.5 494 905.5 494C905.5 494 905.5 494 905.5 494C905.5 494 905.5 494 905.5 494C905.5 494 905.5 494 905.5 494C905.5 494 905.5 494 905.5 494C905.5 494 905.5 494 905.5 494C905.5 494 905.5 494 905.5 494C905.5 494 905.5 494 905.5 494C905.5 494 905.5 494 905.5 494C905.5 494 905.5 494 905.5 494C905.5 494 905.5 494 905.5 494C905.5 494 905.5 494 905.5 494C905.5 494 905.5 494 905.5 494C905.5 494 905.5 494 905.5 494C905.5 494 905.5 494 905.5 494C905.5 494 905.5 494 905.5 494C905.5 494 905.5 494 905.5 494C905.5 494 905.5 494 905.5 494C905.5 494 905.5 494 905.5 494C905.5 494 905.5 494 905.5 494C905.5 494 905.5 494 905.5 494C905.5 494 905.5 494 905.5 494C905.5 494 905.5 494 905.5 494C905.5 494 905.5 494 905.5 494C905.5 494 905.5 494 905.5 494C905.5 494.001 905.5 494.001 905.5 494.001C905.5 494.001 905.5 494.001 905.5 494.001C905.5 494.001 905.5 494.001 905.5 494.001C905.5 494.001 905.5 494.001 905.5 494.001C905.5 494.001 905.5 494.001 905.5 494.001C905.5 494.001 905.5 494.001 905.5 494.001C905.5 494.001 905.5 494.001 905.5 494.001C905.5 494.001 905.5 494.001 905.5 494.001C905.5 494.001 905.5 494.001 905.5 494.001C905.5 494.001 905.5 494.001 905.5 494.001C905.5 494.001 905.5 494.001 905.5 494.001C905.5 494.001 905.5 494.001 905.5 494.001C905.5 494.001 905.5 494.001 905.5 494.001C905.5 494.001 905.5 494.001 905.5 494.001C905.5 494.001 905.5 494.001 905.5 494.001C905.5 494.001 905.5 494.001 905.5 494.001C905.5 494.001 905.5 494.001 905.5 494.001C905.5 494.001 905.5 494.001 905.5 494.001C905.5 494.001 905.5 494.001 905.5 494.001C905.5 494.001 905.5 494.001 905.5 494.001C905.5 494.001 905.5 494.001 905.5 494.001C905.5 494.001 905.5 494.001 905.5 494.001C905.5 494.001 905.5 494.001 905.5 494.001C905.5 494.001 905.5 494.001 905.5 494.001C905.5 494.001 905.5 494.001 905.5 494.001C905.5 494.001 905.5 494.001 905.5 494.001C905.5 494.001 905.5 494.001 905.5 494.001C905.5 494.001 905.5 494.001 905.5 494.001C905.5 494.001 905.5 494.001 905.5 494.001C905.5 494.001 905.5 494.001 905.5 494.001C905.5 494.001 905.5 494.001 905.5 494.001C905.5 494.001 905.5 494.001 905.5 494.001C905.5 494.001 905.5 494.001 905.5 494.001C905.5 494.001 905.5 494.001 905.5 494.001C905.5 494.001 905.5 494.001 905.5 494.001C905.5 494.001 905.5 494.001 905.5 494.001C905.5 494.001 905.5 494.001 905.5 494.001C905.5 494.001 905.5 494.001 905.5 494.001C905.5 494.001 905.5 494.001 905.5 494.001C905.5 494.001 905.5 494.001 905.5 494.001C905.5 494.001 905.5 494.001 905.5 494.001C905.5 494.001 905.5 494.001 905.5 494.001C905.5 494.001 905.5 494.001 905.5 494.001C905.5 494.001 905.5 494.001 905.5 494.001C905.5 494.001 905.5 494.001 905.5 494.001C905.5 494.001 905.5 494.001 905.5 494.001C905.5 494.001 905.5 494.001 905.5 494.001C905.5 494.001 905.5 494.001 905.5 494.001C905.5 494.001 905.5 494.001 905.5 494.001C905.5 494.001 905.5 494.001 905.5 494.001C905.5 494.001 905.5 494.001 905.5 494.001C905.5 494.001 905.5 494.001 905.5 494.001C905.5 494.001 905.5 494.001 905.5 494.001C905.5 494.001 905.5 494.001 905.5 494.001C905.5 494.001 905.5 494.001 905.5 494.001C905.5 494.001 905.5 494.001 905.5 494.001C905.5 494.001 905.5 494.001 905.5 494.001C905.5 494.001 905.5 494.001 905.5 494.001C905.5 494.001 905.5 494.001 905.5 494.001C905.5 494.001 905.5 494.001 905.5 494.001C905.5 494.001 905.5 494.001 905.5 494.001C905.5 494.001 905.5 494.001 905.5 494.001C905.5 494.001 905.5 494.001 905.5 494.001C905.5 494.001 905.5 494.001 905.5 494.001C905.5 494.001 905.5 494.001 905.5 494.001C905.5 494.001 905.5 494.001 905.5 494.001C905.5 494.001 905.5 494.001 905.5 494.001C905.5 494.001 905.5 494.001 905.5 494.001C905.5 494.001 905.5 494.001 905.5 494.001C905.5 494.001 905.5 494.001 905.5 494.001C905.5 494.001 905.5 494.001 905.5 494.001C905.5 494.001 905.5 494.001 905.5 494.001C905.5 494.001 905.5 494.001 905.5 494.001C905.5 494.001 905.5 494.001 905.5 494.001C905.5 494.001 905.5 494.001 905.5 494.001C905.5 494.001 905.5 494.001 905.5 494.001C905.5 494.001 905.5 494.001 905.5 494.001C905.5 494.001 905.5 494.001 905.5 494.001C905.5 494.001 905.5 494.001 905.5 494.001C905.5 494.001 905.5 494.001 905.5 494.001C905.5 494.001 905.5 494.001 905.5 494.001C905.5 494.001 905.5 494.001 905.5 494.001C905.5 494.001 905.5 494.001 905.5 494.001C905.5 494.001 905.5 494.001 905.5 494.001C905.5 494.001 905.5 494.001 905.5 494.001C905.5 494.001 905.5 494.001 905.5 494.001C905.5 494.001 905.5 494.001 905.5 494.001C905.5 494.001 905.5 494.001 905.5 494.001C905.5 494.001 905.5 494.001 905.5 494.001C905.5 494.001 905.5 494.001 905.5 494.001C905.5 494.001 905.5 494.001 905.5 494.001C905.5 494.001 905.5 494.001 905.5 494.001C905.5 494.001 905.5 494.001 905.5 494.001C905.5 494.001 905.5 494.001 905.5 494.001C905.5 494.001 905.5 494.001 905.5 494.001C905.5 494.001 905.5 494.001 905.5 494.001C905.5 494.001 905.5 494.001 905.5 494.001C905.5 494.001 905.5 494.001 905.5 494.001C905.5 494.001 905.5 494.001 905.5 494.001C905.5 494.001 905.5 494.001 905.5 494.001C905.5 494.001 905.5 494.001 905.5 494.001C905.5 494.001 905.5 494.001 905.5 494.001C905.5 494.001 905.5 494.001 905.5 494.001C905.5 494.001 905.5 494.001 905.5 494.001C905.5 494.001 905.5 494.001 905.5 494.001C905.5 494.001 905.5 494.001 905.5 494.001C905.5 494.001 905.5 494.001 905.5 494.001C905.5 494.001 905.5 494.001 905.5 494.001C905.5 494.001 905.5 494.001 905.5 494.001C905.5 494.001 905.5 494.001 905.5 494.001C905.5 494.001 905.5 494.001 905.5 494.001C905.5 494.001 905.5 494.001 905.5 494.001C905.5 494.001 905.5 494.001 905.5 494.001C905.5 494.001 905.5 494.001 905.5 494.001C905.5 494.001 905.5 494.001 905.5 494.001C905.5 494.001 905.5 494.001 905.5 494.001C905.5 494.001 905.5 494.001 905.5 494.001C905.5 494.001 905.5 494.001 905.5 494.001C905.5 494.001 905.5 494.001 905.5 494.001C905.5 494.001 905.5 494.001 905.5 494.001C905.5 494.001 905.5 494.001 905.5 494.001C905.5 494.001 905.5 494.001 905.5 494.001C905.5 494.001 905.5 494.001 905.5 494.001C905.5 494.001 905.5 494.001 905.5 494.001C905.5 494.001 905.5 494.001 905.5 494.001C905.5 494.001 905.5 494.001 905.5 494.001C905.5 494.001 905.5 494.001 905.5 494.001C905.5 494.001 905.5 494.001 905.5 494.001C905.5 494.001 905.5 494.001 905.5 494.001C905.5 494.001 905.5 494.001 905.5 494.001C905.5 494.001 905.5 494.001 905.5 494.001C905.5 494.001 905.5 494.001 905.5 494.001C905.5 494.001 905.5 494.001 905.5 494.001C905.5 494.001 905.5 494.001 905.5 494.001C905.5 494.001 905.5 494.001 905.5 494.001C905.5 494.001 905.5 494.001 905.5 494.001C905.5 494.001 905.5 494.001 905.5 494.001C905.5 494.001 905.5 494.001 905.5 494.001C905.5 494.001 905.5 494.001 905.5 494.001C905.5 494.001 905.5 494.001 905.5 494.001C905.5 494.001 905.5 494.001 905.5 494.001C905.5 494.001 905.5 494.001 905.5 494.001C905.5 494.001 905.5 494.001 905.5 494.001C905.5 494.001 905.5 494.001 905.5 494.001C905.5 494.001 905.5 494.001 905.5 494.001C905.5 494.001 905.5 494.001 905.5 494.001C905.5 494.001 905.5 494.001 905.5 494.001C905.5 494.001 905.5 494.001 905.5 494.001C905.5 494.001 905.5 494.001 905.5 494.001C905.5 494.001 905.5 494.001 905.5 494.001C905.5 494.001 905.5 494.001 905.5 494.001C905.5 494.001 905.5 494.001 905.5 494.001C905.5 494.001 905.5 494.001 905.5 494.001C905.5 494.001 905.5 494.001 905.5 494.001C905.5 494.001 905.5 494.001 905.5 494.001C905.5 494.001 905.5 494.001 905.5 494.001C905.5 494.001 905.5 494.001 905.5 494.001C905.5 494.001 905.5 494.001 905.5 494.001C905.5 494.001 905.5 494.001 905.5 494.001C905.5 494.001 905.5 494.001 905.5 494.001C905.5 494.001 905.5 494.001 905.5 494.001C905.5 494.001 905.5 494.001 905.5 494.001C905.5 494.001 905.5 494.001 905.5 494.001C905.5 494.001 905.5 494.001 905.5 494.001C905.5 494.001 905.5 494.001 905.5 494.001C905.5 494.001 905.5 494.001 905.5 494.001C905.5 494.001 905.5 494.001 905.5 494.001C905.5 494.001 905.5 494.001 905.5 494.001C905.5 494.001 905.5 494.001 905.5 494.001C905.5 494.001 905.5 494.001 905.5 494.001C905.5 494.001 905.5 494.001 905.5 494.001C905.5 494.001 905.5 494.001 905.5 494.001C905.5 494.001 905.5 494.001 905.5 494.001C905.5 494.001 905.5 494.001 905.5 494.001C905.5 494.001 905.5 494.001 905.5 494.001C905.5 494.001 905.5 494.001 905.5 494.001C905.5 494.001 905.5 494.001 905.5 494.001C905.5 494.001 905.5 494.001 905.5 494.001C905.5 494.001 905.5 494.001 905.5 494.001C905.5 494.001 905.5 494.001 905.5 494.001C905.5 494.001 905.5 494.001 905.5 494.001C905.5 494.001 905.5 494.001 905.5 494.001C905.5 494.001 905.5 494.001 905.5 494.001C905.5 494.001 905.5 494.001 905.5 494.001C905.5 494.001 905.5 494.001 905.5 494.001C905.5 494.001 905.5 494.001 905.5 494.001C905.5 494.001 905.5 494.001 905.5 494.001C905.5 494.001 905.5 494.001 905.5 494.001C905.5 494.001 905.5 494.001 905.5 494.001C905.5 494.001 905.5 494.001 905.5 494.001C905.5 494.001 905.5 494.001 905.5 494.001C905.5 494.001 905.5 494.001 905.5 494.001C905.5 494.001 905.5 494.001 905.5 494.001C905.5 494.001 905.5 494.001 905.5 494.001C905.5 494.001 905.5 494.001 905.5 494.001C905.5 494.001 905.5 494.001 905.5 494.001C905.5 494.001 905.5 494.001 905.5 494.001C905.5 494.001 905.5 494.001 905.5 494.001C905.5 494.001 905.5 494.001 905.5 494.001C905.5 494.001 905.5 494.001 905.5 494.001C905.5 494.001 905.5 494.001 905.5 494.001C905.5 494.001 905.5 494.001 905.5 494.001C905.5 494.001 905.5 494.001 905.5 494.001C905.5 494.001 905.5 494.001 905.5 494.001C905.5 494.001 905.5 494.001 905.5 494.001C905.5 494.001 905.5 494.001 905.5 494.001C905.5 494.001 905.5 494.001 905.5 494.001C905.5 494.001 905.5 494.001 905.5 494.001C905.5 494.001 905.5 494.001 905.5 494.001C905.5 494.001 905.5 494.001 905.5 494.001C905.5 494.001 905.5 494.001 905.5 494.001C905.5 494.001 905.5 494.001 905.5 494.001C905.5 494.001 905.5 494.001 905.5 494.001C905.5 494.001 905.5 494.001 905.5 494.001C905.5 494.001 905.5 494.001 905.5 494.001C905.5 494.001 905.5 494.001 905.5 494.001C905.5 494.001 905.5 494.001 905.5 494.001C905.5 494.001 905.5 494.001 905.5 494.001C905.5 494.001 905.5 494.001 905.5 494.001C905.5 494.001 905.5 494.001 905.5 494.001C905.5 494.001 905.5 494.001 905.5 494.001C905.5 494.001 905.5 494.001 905.5 494.001C905.5 494.001 905.5 494.001 905.5 494.001C905.5 494.001 905.5 494.001 905.5 494.001C905.5 494.001 905.5 494.001 905.5 494.001C905.5 494.001 905.5 494.001 905.5 494.001C905.5 494.001 905.5 494.001 905.5 494.001C905.5 494.001 905.5 494.001 905.5 494.001C905.5 494.001 905.5 494.001 905.5 494.001C905.5 494.001 905.5 494.001 905.5 494.001C905.5 494.001 905.5 494.001 905.5 494.001C905.5 494.001 905.5 494.001 905.5 494.001C905.5 494.001 905.5 494.001 905.5 494.001C905.5 494.001 905.5 494.001 905.5 494.001C905.5 494.001 905.5 494.001 905.5 494.001C905.5 494.001 905.5 494.001 905.5 494.001C905.5 494.001 905.5 494.001 905.5 494.001C905.5 494.001 905.5 494.001 905.5 494.001C905.5 494.001 905.5 494.001 905.5 494.001C905.5 494.001 905.5 494.001 905.5 494.001C905.5 494.001 905.5 494.001 905.5 494.001C905.5 494.001 905.5 494.001 905.5 494.001C905.5 494.001 905.5 494.001 905.5 494.001C905.5 494.001 905.5 494.001 905.5 494.001C905.5 494.001 905.5 494.001 905.5 494.001C905.5 494.001 905.5 494.001 905.5 494.001C905.5 494.001 905.5 494.001 905.5 494.001C905.5 494.001 905.5 494.001 905.5 494.001C905.5 494.001 905.5 494.001 905.5 494.001C905.5 494.001 905.5 494.001 905.5 494.001H908.5C908.5 494.001 908.5 494.001 908.5 494.001C908.5 494.001 908.5 494.001 908.5 494.001C908.5 494.001 908.5 494.001 908.5 494.001C908.5 494.001 908.5 494.001 908.5 494.001C908.5 494.001 908.5 494.001 908.5 494.001C908.5 494.001 908.5 494.001 908.5 494.001C908.5 494.001 908.5 494.001 908.5 494.001C908.5 494.001 908.5 494.001 908.5 494.001C908.5 494.001 908.5 494.001 908.5 494.001C908.5 494.001 908.5 494.001 908.5 494.001C908.5 494.001 908.5 494.001 908.5 494.001C908.5 494.001 908.5 494.001 908.5 494.001C908.5 494.001 908.5 494.001 908.5 494.001C908.5 494.001 908.5 494.001 908.5 494.001C908.5 494.001 908.5 494.001 908.5 494.001C908.5 494.001 908.5 494.001 908.5 494.001C908.5 494.001 908.5 494.001 908.5 494.001C908.5 494.001 908.5 494.001 908.5 494.001C908.5 494.001 908.5 494.001 908.5 494.001C908.5 494.001 908.5 494.001 908.5 494.001C908.5 494.001 908.5 494.001 908.5 494.001C908.5 494.001 908.5 494.001 908.5 494.001C908.5 494.001 908.5 494.001 908.5 494.001C908.5 494.001 908.5 494.001 908.5 494.001C908.5 494.001 908.5 494.001 908.5 494.001C908.5 494.001 908.5 494.001 908.5 494.001C908.5 494.001 908.5 494.001 908.5 494.001C908.5 494.001 908.5 494.001 908.5 494.001C908.5 494.001 908.5 494.001 908.5 494.001C908.5 494.001 908.5 494.001 908.5 494.001C908.5 494.001 908.5 494.001 908.5 494.001C908.5 494.001 908.5 494.001 908.5 494.001C908.5 494.001 908.5 494.001 908.5 494.001C908.5 494.001 908.5 494.001 908.5 494.001C908.5 494.001 908.5 494.001 908.5 494.001C908.5 494.001 908.5 494.001 908.5 494.001C908.5 494.001 908.5 494.001 908.5 494.001C908.5 494.001 908.5 494.001 908.5 494.001C908.5 494.001 908.5 494.001 908.5 494.001C908.5 494.001 908.5 494.001 908.5 494.001C908.5 494.001 908.5 494.001 908.5 494.001C908.5 494.001 908.5 494.001 908.5 494.001C908.5 494.001 908.5 494.001 908.5 494.001C908.5 494.001 908.5 494.001 908.5 494.001C908.5 494.001 908.5 494.001 908.5 494.001C908.5 494.001 908.5 494.001 908.5 494.001C908.5 494.001 908.5 494.001 908.5 494.001C908.5 494.001 908.5 494.001 908.5 494.001C908.5 494.001 908.5 494.001 908.5 494.001C908.5 494.001 908.5 494.001 908.5 494.001C908.5 494.001 908.5 494.001 908.5 494.001C908.5 494.001 908.5 494.001 908.5 494.001C908.5 494.001 908.5 494.001 908.5 494.001C908.5 494.001 908.5 494.001 908.5 494.001C908.5 494.001 908.5 494.001 908.5 494.001C908.5 494.001 908.5 494.001 908.5 494.001C908.5 494.001 908.5 494.001 908.5 494.001C908.5 494.001 908.5 494.001 908.5 494.001C908.5 494.001 908.5 494.001 908.5 494.001C908.5 494.001 908.5 494.001 908.5 494.001C908.5 494.001 908.5 494.001 908.5 494.001C908.5 494.001 908.5 494.001 908.5 494.001C908.5 494.001 908.5 494.001 908.5 494.001C908.5 494.001 908.5 494.001 908.5 494.001C908.5 494.001 908.5 494.001 908.5 494.001C908.5 494.001 908.5 494.001 908.5 494.001C908.5 494.001 908.5 494.001 908.5 494.001C908.5 494.001 908.5 494.001 908.5 494.001C908.5 494.001 908.5 494.001 908.5 494.001C908.5 494.001 908.5 494.001 908.5 494.001C908.5 494.001 908.5 494.001 908.5 494.001C908.5 494.001 908.5 494.001 908.5 494.001C908.5 494.001 908.5 494.001 908.5 494.001C908.5 494.001 908.5 494.001 908.5 494.001C908.5 494.001 908.5 494.001 908.5 494.001C908.5 494.001 908.5 494.001 908.5 494.001C908.5 494.001 908.5 494.001 908.5 494.001C908.5 494.001 908.5 494.001 908.5 494.001C908.5 494.001 908.5 494.001 908.5 494.001C908.5 494.001 908.5 494.001 908.5 494.001C908.5 494.001 908.5 494.001 908.5 494.001C908.5 494.001 908.5 494.001 908.5 494.001C908.5 494.001 908.5 494.001 908.5 494.001C908.5 494.001 908.5 494.001 908.5 494.001C908.5 494.001 908.5 494.001 908.5 494.001C908.5 494.001 908.5 494.001 908.5 494.001C908.5 494.001 908.5 494.001 908.5 494.001C908.5 494.001 908.5 494.001 908.5 494.001C908.5 494.001 908.5 494.001 908.5 494.001C908.5 494.001 908.5 494.001 908.5 494.001C908.5 494.001 908.5 494.001 908.5 494.001C908.5 494.001 908.5 494.001 908.5 494.001C908.5 494.001 908.5 494.001 908.5 494.001C908.5 494.001 908.5 494.001 908.5 494.001C908.5 494.001 908.5 494.001 908.5 494.001C908.5 494.001 908.5 494.001 908.5 494.001C908.5 494.001 908.5 494.001 908.5 494.001C908.5 494.001 908.5 494.001 908.5 494.001C908.5 494.001 908.5 494.001 908.5 494.001C908.5 494.001 908.5 494.001 908.5 494.001C908.5 494.001 908.5 494.001 908.5 494.001C908.5 494.001 908.5 494.001 908.5 494.001C908.5 494.001 908.5 494.001 908.5 494.001C908.5 494.001 908.5 494.001 908.5 494.001C908.5 494.001 908.5 494.001 908.5 494.001C908.5 494.001 908.5 494.001 908.5 494.001C908.5 494.001 908.5 494.001 908.5 494.001C908.5 494.001 908.5 494.001 908.5 494.001C908.5 494.001 908.5 494.001 908.5 494.001C908.5 494.001 908.5 494.001 908.5 494.001C908.5 494.001 908.5 494.001 908.5 494.001C908.5 494.001 908.5 494.001 908.5 494.001C908.5 494.001 908.5 494.001 908.5 494.001C908.5 494.001 908.5 494.001 908.5 494.001C908.5 494.001 908.5 494.001 908.5 494.001C908.5 494.001 908.5 494.001 908.5 494.001C908.5 494.001 908.5 494.001 908.5 494.001C908.5 494.001 908.5 494.001 908.5 494.001C908.5 494.001 908.5 494.001 908.5 494.001C908.5 494.001 908.5 494.001 908.5 494.001C908.5 494.001 908.5 494.001 908.5 494.001C908.5 494.001 908.5 494.001 908.5 494.001C908.5 494.001 908.5 494.001 908.5 494.001C908.5 494.001 908.5 494.001 908.5 494.001C908.5 494.001 908.5 494.001 908.5 494.001C908.5 494.001 908.5 494.001 908.5 494.001C908.5 494.001 908.5 494.001 908.5 494.001C908.5 494.001 908.5 494.001 908.5 494.001C908.5 494.001 908.5 494.001 908.5 494.001C908.5 494.001 908.5 494.001 908.5 494.001C908.5 494.001 908.5 494.001 908.5 494.001C908.5 494.001 908.5 494.001 908.5 494.001C908.5 494.001 908.5 494.001 908.5 494.001C908.5 494.001 908.5 494.001 908.5 494.001C908.5 494.001 908.5 494.001 908.5 494.001C908.5 494.001 908.5 494.001 908.5 494.001C908.5 494.001 908.5 494.001 908.5 494.001C908.5 494.001 908.5 494.001 908.5 494.001C908.5 494.001 908.5 494.001 908.5 494.001C908.5 494.001 908.5 494.001 908.5 494.001C908.5 494.001 908.5 494.001 908.5 494.001C908.5 494.001 908.5 494.001 908.5 494.001C908.5 494.001 908.5 494.001 908.5 494.001C908.5 494.001 908.5 494.001 908.5 494.001C908.5 494.001 908.5 494.001 908.5 494.001C908.5 494.001 908.5 494.001 908.5 494.001C908.5 494.001 908.5 494.001 908.5 494.001C908.5 494.001 908.5 494.001 908.5 494.001C908.5 494.001 908.5 494.001 908.5 494.001C908.5 494.001 908.5 494.001 908.5 494.001C908.5 494.001 908.5 494.001 908.5 494.001C908.5 494.001 908.5 494.001 908.5 494.001C908.5 494.001 908.5 494.001 908.5 494.001C908.5 494.001 908.5 494.001 908.5 494.001C908.5 494.001 908.5 494.001 908.5 494.001C908.5 494.001 908.5 494.001 908.5 494.001C908.5 494.001 908.5 494.001 908.5 494.001C908.5 494.001 908.5 494.001 908.5 494.001C908.5 494.001 908.5 494.001 908.5 494.001C908.5 494.001 908.5 494.001 908.5 494.001C908.5 494.001 908.5 494.001 908.5 494.001C908.5 494.001 908.5 494.001 908.5 494.001C908.5 494.001 908.5 494.001 908.5 494.001C908.5 494.001 908.5 494.001 908.5 494.001C908.5 494.001 908.5 494.001 908.5 494.001C908.5 494.001 908.5 494.001 908.5 494.001C908.5 494.001 908.5 494.001 908.5 494.001C908.5 494.001 908.5 494.001 908.5 494.001C908.5 494.001 908.5 494.001 908.5 494.001C908.5 494.001 908.5 494.001 908.5 494.001C908.5 494.001 908.5 494.001 908.5 494.001C908.5 494.001 908.5 494.001 908.5 494.001C908.5 494.001 908.5 494.001 908.5 494.001C908.5 494.001 908.5 494.001 908.5 494.001C908.5 494.001 908.5 494.001 908.5 494.001C908.5 494.001 908.5 494.001 908.5 494.001C908.5 494.001 908.5 494.001 908.5 494.001C908.5 494.001 908.5 494.001 908.5 494.001C908.5 494.001 908.5 494.001 908.5 494.001C908.5 494.001 908.5 494.001 908.5 494.001C908.5 494.001 908.5 494.001 908.5 494.001C908.5 494.001 908.5 494.001 908.5 494.001C908.5 494.001 908.5 494.001 908.5 494.001C908.5 494.001 908.5 494.001 908.5 494.001C908.5 494.001 908.5 494.001 908.5 494.001C908.5 494.001 908.5 494.001 908.5 494.001C908.5 494.001 908.5 494.001 908.5 494.001C908.5 494.001 908.5 494.001 908.5 494.001C908.5 494.001 908.5 494.001 908.5 494.001C908.5 494.001 908.5 494.001 908.5 494.001C908.5 494.001 908.5 494.001 908.5 494.001C908.5 494.001 908.5 494.001 908.5 494.001C908.5 494.001 908.5 494.001 908.5 494.001C908.5 494.001 908.5 494.001 908.5 494.001C908.5 494.001 908.5 494.001 908.5 494.001C908.5 494.001 908.5 494.001 908.5 494.001C908.5 494.001 908.5 494.001 908.5 494.001C908.5 494.001 908.5 494.001 908.5 494.001C908.5 494.001 908.5 494.001 908.5 494.001C908.5 494.001 908.5 494.001 908.5 494.001C908.5 494.001 908.5 494.001 908.5 494.001C908.5 494.001 908.5 494.001 908.5 494.001C908.5 494.001 908.5 494.001 908.5 494.001C908.5 494.001 908.5 494.001 908.5 494.001C908.5 494.001 908.5 494.001 908.5 494.001C908.5 494.001 908.5 494.001 908.5 494.001C908.5 494.001 908.5 494.001 908.5 494.001C908.5 494.001 908.5 494.001 908.5 494.001C908.5 494.001 908.5 494.001 908.5 494.001C908.5 494.001 908.5 494.001 908.5 494.001C908.5 494.001 908.5 494.001 908.5 494.001C908.5 494.001 908.5 494.001 908.5 494.001C908.5 494.001 908.5 494.001 908.5 494.001C908.5 494.001 908.5 494.001 908.5 494.001C908.5 494.001 908.5 494.001 908.5 494.001C908.5 494.001 908.5 494.001 908.5 494.001C908.5 494.001 908.5 494.001 908.5 494.001C908.5 494.001 908.5 494.001 908.5 494.001C908.5 494.001 908.5 494.001 908.5 494.001C908.5 494.001 908.5 494.001 908.5 494.001C908.5 494.001 908.5 494.001 908.5 494.001C908.5 494.001 908.5 494.001 908.5 494.001C908.5 494.001 908.5 494.001 908.5 494.001C908.5 494.001 908.5 494.001 908.5 494.001C908.5 494.001 908.5 494.001 908.5 494.001C908.5 494.001 908.5 494.001 908.5 494.001C908.5 494.001 908.5 494.001 908.5 494.001C908.5 494.001 908.5 494.001 908.5 494.001C908.5 494.001 908.5 494.001 908.5 494.001C908.5 494.001 908.5 494.001 908.5 494.001C908.5 494.001 908.5 494.001 908.5 494.001C908.5 494.001 908.5 494.001 908.5 494.001C908.5 494.001 908.5 494.001 908.5 494.001C908.5 494.001 908.5 494.001 908.5 494.001C908.5 494.001 908.5 494.001 908.5 494.001C908.5 494.001 908.5 494.001 908.5 494.001C908.5 494.001 908.5 494.001 908.5 494.001C908.5 494.001 908.5 494.001 908.5 494.001C908.5 494.001 908.5 494.001 908.5 494.001C908.5 494.001 908.5 494.001 908.5 494.001C908.5 494.001 908.5 494.001 908.5 494.001C908.5 494.001 908.5 494.001 908.5 494.001C908.5 494.001 908.5 494.001 908.5 494.001C908.5 494.001 908.5 494.001 908.5 494.001C908.5 494.001 908.5 494.001 908.5 494.001C908.5 494.001 908.5 494.001 908.5 494.001C908.5 494.001 908.5 494.001 908.5 494.001C908.5 494.001 908.5 494.001 908.5 494.001C908.5 494.001 908.5 494.001 908.5 494.001C908.5 494.001 908.5 494.001 908.5 494C908.5 494 908.5 494 908.5 494C908.5 494 908.5 494 908.5 494C908.5 494 908.5 494 908.5 494C908.5 494 908.5 494 908.5 494C908.5 494 908.5 494 908.5 494C908.5 494 908.5 494 908.5 494C908.5 494 908.5 494 908.5 494C908.5 494 908.5 494 908.5 494C908.5 494 908.5 494 908.5 494C908.5 494 908.5 494 908.5 494C908.5 494 908.5 494 908.5 494C908.5 494 908.5 494 908.5 494C908.5 494 908.5 494 908.5 494C908.5 494 908.5 494 908.5 494C908.5 494 908.5 494 908.5 494C908.5 494 908.5 494 908.5 494C908.5 494 908.5 494 908.5 494C908.5 494 908.5 494 908.5 494C908.5 494 908.5 494 908.5 494C908.5 494 908.5 494 908.5 494C908.5 494 908.5 494 908.5 494C908.5 494 908.5 494 908.5 494C908.5 494 908.5 494 908.5 494C908.5 494 908.5 494 908.5 494C908.5 494 908.5 494 908.5 494C908.5 494 908.5 494 908.5 494C908.5 494 908.5 494 908.5 494C908.5 494 908.5 494 908.5 494C908.5 494 908.5 494 908.5 494C908.5 494 908.5 494 908.5 494C908.5 494 908.5 494 908.5 494C908.5 494 908.5 494 908.5 494C908.5 494 908.5 494 908.5 494C908.5 494 908.5 494 908.5 494C908.5 494 908.5 494 908.5 494C908.5 494 908.5 494 908.5 494C908.5 494 908.5 494 908.5 494C908.5 494 908.5 494 908.5 494C908.5 494 908.5 494 908.5 494C908.5 494 908.5 494 908.5 494C908.5 494 908.5 494 908.5 494C908.5 494 908.5 494 908.5 494C908.5 494 908.5 494 908.5 494C908.5 494 908.5 494 908.5 494C908.5 494 908.5 494 908.5 494C908.5 494 908.5 494 908.5 494C908.5 494 908.5 494 908.5 494C908.5 494 908.5 494 908.5 494C908.5 494 908.5 494 908.5 494C908.5 494 908.5 494 908.5 494C908.5 494 908.5 494 908.5 494C908.5 494 908.5 494 908.5 494C908.5 494 908.5 494 908.5 494C908.5 494 908.5 494 908.5 494C908.5 494 908.5 494 908.5 494C908.5 494 908.5 494 908.5 494C908.5 494 908.5 494 908.5 494C908.5 494 908.5 494 908.5 494C908.5 494 908.5 494 908.5 494C908.5 494 908.5 494 908.5 494C908.5 494 908.5 494 908.5 494C908.5 494 908.5 494 908.5 494C908.5 494 908.5 494 908.5 494C908.5 494 908.5 494 908.5 494C908.5 494 908.5 494 908.5 494C908.5 494 908.5 494 908.5 494C908.5 494 908.5 494 908.5 494C908.5 494 908.5 494 908.5 494C908.5 494 908.5 494 908.5 494C908.5 494 908.5 494 908.5 494C908.5 494 908.5 494 908.5 494C908.5 494 908.5 494 908.5 494C908.5 494 908.5 494 908.5 494C908.5 494 908.5 494 908.5 494C908.5 494 908.5 494 908.5 494C908.5 494 908.5 494 908.5 494C908.5 494 908.5 494 908.5 494C908.5 494 908.5 494 908.5 494C908.5 494 908.5 494 908.5 494C908.5 494 908.5 494 908.5 494C908.5 494 908.5 494 908.5 494C908.5 494 908.5 494 908.5 494C908.5 494 908.5 494 908.5 494C908.5 494 908.5 494 908.5 494C908.5 494 908.5 494 908.5 494C908.5 494 908.5 494 908.5 494C908.5 494 908.5 494 908.5 494C908.5 494 908.5 494 908.5 494C908.5 494 908.5 494 908.5 494C908.5 494 908.5 494 908.5 494C908.5 494 908.5 494 908.5 494C908.5 494 908.5 494 908.5 494C908.5 494 908.5 494 908.5 494C908.5 494 908.5 494 908.5 494C908.5 494 908.5 494 908.5 494C908.5 494 908.5 494 908.5 494C908.5 494 908.5 494 908.5 494C908.5 494 908.5 494 908.5 494C908.5 494 908.5 494 908.5 494C908.5 494 908.5 494 908.5 494C908.5 494 908.5 494 908.5 494C908.5 494 908.5 494 908.5 494C908.5 494 908.5 494 908.5 494C908.5 494 908.5 494 908.5 494C908.5 494 908.5 494 908.5 494C908.5 494 908.5 494 908.5 494C908.5 494 908.5 494 908.5 494C908.5 494 908.5 494 908.5 494C908.5 494 908.5 494 908.5 494C908.5 494 908.5 494 908.5 494C908.5 494 908.5 494 908.5 494C908.5 494 908.5 494 908.5 494C908.5 494 908.5 494 908.5 494C908.5 494 908.5 494 908.5 494C908.5 494 908.5 494 908.5 494C908.5 494 908.5 494 908.5 494C908.5 494 908.5 494 908.5 494C908.5 494 908.5 494 908.5 494C908.5 494 908.5 494 908.5 494C908.5 494 908.5 494 908.5 494C908.5 494 908.5 494 908.5 494C908.5 494 908.5 494 908.5 494C908.5 494 908.5 494 908.5 494C908.5 494 908.5 494 908.5 494C908.5 494 908.5 494 908.5 494C908.5 494 908.5 494 908.5 494C908.5 494 908.5 494 908.5 494C908.5 494 908.5 494 908.5 494C908.5 494 908.5 494 908.5 494C908.5 494 908.5 494 908.5 494C908.5 494 908.5 494 908.5 494C908.5 494 908.5 494 908.5 494C908.5 494 908.5 494 908.5 494C908.5 494 908.5 494 908.5 494C908.5 494 908.5 494 908.5 494C908.5 494 908.5 494 908.5 494C908.5 494 908.5 494 908.5 494C908.5 494 908.5 494 908.5 494C908.5 494 908.5 494 908.5 494C908.5 494 908.5 494 908.5 494C908.5 494 908.5 494 908.5 494C908.5 494 908.5 494 908.5 494C908.5 494 908.5 494 908.5 494C908.5 494 908.5 494 908.5 494C908.5 494 908.5 494 908.5 494C908.5 494 908.5 494 908.5 494C908.5 494 908.5 494 908.5 494C908.5 494 908.5 494 908.5 494C908.5 494 908.5 494 908.5 494C908.5 494 908.5 494 908.5 494C908.5 494 908.5 494 908.5 494C908.5 494 908.5 494 908.5 494C908.5 494 908.5 494 908.5 494C908.5 494 908.5 494 908.5 494C908.5 494 908.5 494 908.5 494C908.5 494 908.5 494 908.5 494C908.5 494 908.5 494 908.5 494C908.5 494 908.5 494 908.5 494C908.5 494 908.5 494 908.5 494C908.5 494 908.5 494 908.5 494C908.5 494 908.5 494 908.5 494C908.5 494 908.5 494 908.5 494C908.5 494 908.5 494 908.5 494C908.5 494 908.5 494 908.5 494C908.5 494 908.5 494 908.5 494C908.5 494 908.5 494 908.5 494C908.5 494 908.5 494 908.5 494C908.5 494 908.5 494 908.5 494C908.5 494 908.5 494 908.5 494C908.5 494 908.5 494 908.5 494C908.5 494 908.5 494 908.5 494C908.5 494 908.5 494 908.5 494C908.5 494 908.5 494 908.5 494C908.5 494 908.5 494 908.5 494C908.5 494 908.5 494 908.5 494C908.5 494 908.5 494 908.5 494C908.5 494 908.5 494 908.5 494C908.5 494 908.5 494 908.5 494C908.5 494 908.5 494 908.5 494C908.5 494 908.5 494 908.5 494C908.5 494 908.5 494 908.5 494C908.5 494 908.5 494 908.5 494C908.5 494 908.5 494 908.5 494C908.5 494 908.5 494 908.5 494C908.5 494 908.5 494 908.5 494C908.5 494 908.5 494 908.5 494C908.5 494 908.5 494 908.5 494C908.5 494 908.5 494 908.5 494C908.5 494 908.5 494 908.5 494C908.5 494 908.5 494 908.5 494C908.5 494 908.5 494 908.5 494C908.5 494 908.5 494 908.5 494C908.5 494 908.5 494 908.5 494C908.5 494 908.5 494 908.5 494C908.5 494 908.5 494 908.5 494C908.5 494 908.5 494 908.5 494C908.5 494 908.5 494 908.5 494C908.5 494 908.5 494 908.5 494C908.5 494 908.5 494 908.5 494C908.5 494 908.5 494 908.5 494C908.5 494 908.5 494 908.5 494C908.5 494 908.5 494 908.5 494C908.5 494 908.5 494 908.5 494C908.5 494 908.5 494 908.5 494C908.5 494 908.5 494 908.5 494C908.5 494 908.5 494 908.5 494C908.5 494 908.5 494 908.5 494C908.5 494 908.5 494 908.5 494C908.5 494 908.5 494 908.5 494C908.5 494 908.5 494 908.5 494C908.5 494 908.5 494 908.5 494C908.5 494 908.5 494 908.5 494C908.5 494 908.5 494 908.5 494C908.5 494 908.5 494 908.5 494C908.5 494 908.5 494 908.5 494C908.5 494 908.5 494 908.5 494C908.5 494 908.5 494 908.5 494C908.5 494 908.5 494 908.5 494C908.5 494 908.5 494 908.5 494C908.5 494 908.5 494 908.5 494C908.5 494 908.5 494 908.5 494C908.5 494 908.5 494 908.5 494C908.5 494 908.5 494 908.5 494C908.5 494 908.5 494 908.5 494C908.5 494 908.5 494 908.5 494C908.5 494 908.5 494 908.5 494C908.5 494 908.5 494 908.5 494C908.5 494 908.5 494 908.5 494C908.5 494 908.5 494 908.5 494C908.5 494 908.5 494 908.5 494C908.5 494 908.5 494 908.5 494C908.5 494 908.5 494 908.5 494C908.5 494 908.5 494 908.5 494C908.5 494 908.5 494 908.5 494C908.5 494 908.5 494 908.5 494C908.5 494 908.5 494 908.5 494C908.5 494 908.5 494 908.5 494C908.5 494 908.5 494 908.5 494C908.5 494 908.5 494 908.5 494C908.5 494 908.5 494 908.5 494C908.5 494 908.5 494 908.5 494C908.5 494 908.5 494 908.5 494C908.5 494 908.5 494 908.5 494C908.5 494 908.5 494 908.5 494C908.5 494 908.5 494 908.5 494C908.5 494 908.5 494 908.5 494C908.5 494 908.5 494 908.5 494C908.5 494 908.5 494 908.5 494C908.5 494 908.5 494 908.5 494C908.5 494 908.5 494 908.5 494C908.5 494 908.5 494 908.5 494C908.5 494 908.5 494 908.5 494C908.5 494 908.5 494 908.5 494C908.5 494 908.5 494 908.5 494C908.5 494 908.5 494 908.5 494C908.5 494 908.5 494 908.5 494C908.5 494 908.5 494 908.5 494C908.5 494 908.5 494 908.5 494C908.5 494 908.5 494 908.5 494C908.5 494 908.5 494 908.5 494C908.5 494 908.5 494 908.5 494C908.5 494 908.5 494 908.5 494H905.5ZM887 475.501C897.217 475.501 905.5 483.783 905.5 494L908.5 494C908.499 482.126 898.874 472.501 887 472.501V475.501ZM873 475.501H887V472.501H873V475.501ZM854.5 494C854.5 483.783 862.783 475.501 873 475.501V472.501C861.126 472.501 851.501 482.126 851.5 494L854.5 494Z" fill="#2C2336"/>
<line x1="853" y1="498.5" x2="907" y2="498.5" stroke="#2C2336" stroke-width="3" stroke-linejoin="round"/>
<path d="M930.035 367.473C927.657 369.006 924.488 368.322 922.954 365.945L913.11 350.683L921.719 345.131L931.562 360.393C933.096 362.77 932.412 365.94 930.035 367.473Z" fill="#FFE6D1"/>
<path d="M930.848 368.734C927.775 370.716 923.676 369.831 921.694 366.758L911.037 350.236L913.542 348.62L915.184 351.131L924.215 365.132C925.299 366.813 927.541 367.297 929.222 366.212C930.903 365.128 931.386 362.887 930.302 361.206L924.35 351.979C923.906 351.289 924.097 350.371 924.78 349.917C925.477 349.453 926.418 349.649 926.872 350.352L932.823 359.58C934.805 362.653 933.921 366.751 930.848 368.734Z" fill="#2C2336"/>
<path d="M805.11 251.981L807.614 249.277C810.621 246.029 815.174 244.704 819.455 245.83C820.923 246.217 821.897 247.608 821.757 249.121L817 300.5V326.73C817 327.879 816.627 328.997 815.938 329.916C811.336 336.052 803.015 338.038 796.138 334.642L770.799 322.129C768.734 321.109 767.302 319.138 766.971 316.858L763.474 292.762C763.258 291.277 764.695 290.092 766.112 290.587L794.5 300.5L799.046 264.961C799.666 260.108 801.786 255.571 805.11 251.981Z" fill="#A6D641" stroke="#2C2336" stroke-width="3" stroke-linecap="round"/>
<path d="M880.478 260.707L878.33 258.934C871.514 253.312 862.38 251.251 853.798 253.349C849.359 254.434 847.092 259.422 849.242 263.454L860.464 284.495C860.819 285.161 861.279 285.764 861.826 286.283L878.971 302.526C879.65 303.169 880.193 303.941 880.569 304.798L895.386 338.612C897.364 343.126 903.263 344.237 906.747 340.753L916.897 330.603C919.277 328.223 919.626 324.487 917.729 321.707L899.897 295.581C899.633 295.195 899.409 294.783 899.227 294.351L891.032 274.89C888.712 269.379 885.091 264.512 880.478 260.707Z" fill="#A6D641" stroke="#2C2336" stroke-width="3" stroke-linecap="round"/>
<path d="M805.817 275.957L815.483 246.572C815.783 245.66 816.689 245.09 817.641 245.214L826.658 246.39C827.196 246.46 827.683 246.746 828.006 247.182L837.701 260.249C838.4 261.191 839.755 261.333 840.633 260.556L851.273 251.143C851.732 250.737 852.352 250.564 852.956 250.674L861.955 252.31C862.608 252.429 863.16 252.864 863.428 253.472L874 277.5L881 294L887 308.5L892.621 326.861C893.688 330.349 891.946 334.079 888.586 335.497C877.64 340.119 865.878 342.5 853.997 342.5H821.018C817.715 342.5 814.455 341.754 811.481 340.318L808.83 339.039C804.221 336.813 800.943 332.531 800 327.5C798.352 321.239 798.066 314.698 799.16 308.318L802.247 290.308C803.081 285.443 804.274 280.646 805.817 275.957Z" fill="#A6D641" stroke="#2C2336" stroke-width="3"/>
<path d="M810.216 326.062L820.519 301.163C820.813 300.452 821.489 299.973 822.257 299.931L865.219 297.57C866 297.527 866.734 297.943 867.098 298.635L879.546 322.243C880.226 323.532 879.343 325.092 877.888 325.173L812.175 328.824C810.704 328.905 809.653 327.423 810.216 326.062Z" stroke="#2C2336" stroke-width="3"/>
<path d="M855 500H905V503C905 506.314 902.314 509 899 509H860C857.239 509 855 506.761 855 504V500Z" fill="#FCFCFC"/>
<path d="M713 500H803V503C803 506.314 800.314 509 797 509H718C715.239 509 713 506.761 713 504V500Z" fill="#FCFCFC"/>
<rect x="805.407" y="175.678" width="32.714" height="23.8136" rx="11.9068" transform="rotate(3.02615 805.407 175.678)" stroke="#6056CC" stroke-width="4"/>
<rect x="853.179" y="178.204" width="32.714" height="23.8136" rx="11.9068" transform="rotate(3.02615 853.179 178.204)" stroke="#6056CC" stroke-width="4"/>
<path d="M837.709 188.862L852.152 189.626" stroke="#6056CC" stroke-width="4"/>
<path d="M887.256 192.08L895.702 192.855" stroke="#6056CC" stroke-width="4" stroke-linecap="round"/>
<path d="M794.934 187.224L804.933 187.752" stroke="#6056CC" stroke-width="4" stroke-linecap="round"/>
</g>
<defs>
<radialGradient id="paint0_radial_280_2268" cx="0" cy="0" r="1" gradientUnits="userSpaceOnUse" gradientTransform="translate(866.651 202.483) rotate(90) scale(15 16)">
<stop stop-color="#F5A6B9"/>
<stop offset="1" stop-color="#FFB08E" stop-opacity="0"/>
<stop offset="1" stop-color="#F5A6B9" stop-opacity="0"/>
</radialGradient>
<radialGradient id="paint1_radial_280_2268" cx="0" cy="0" r="1" gradientUnits="userSpaceOnUse" gradientTransform="translate(818.693 200.5) rotate(90) scale(15 16)">
<stop stop-color="#F5A6B9"/>
<stop offset="1" stop-color="#FFB08E" stop-opacity="0"/>
<stop offset="1" stop-color="#F5A6B9" stop-opacity="0"/>
</radialGradient>
</defs>
</svg>
