<svg width="1033" height="632" viewBox="0 0 1033 632" fill="none" xmlns="http://www.w3.org/2000/svg">
<mask id="mask0_280_2268" style="mask-type:alpha" maskUnits="userSpaceOnUse" x="0" y="0" width="1032" height="632">
<path d="M31.6133 17.243C32.1102 7.57999 40.09 0 49.7658 0H1013.36C1023.77 0 1032.05 8.71841 1031.52 19.1099L1000.89 614.757C1000.39 624.42 992.41 632 982.734 632H19.1352C8.72991 632 0.448336 623.282 0.982711 612.89L31.6133 17.243Z" fill="#FF0000"/>
</mask>
<g mask="url(#mask0_280_2268)">
<rect x="322.5" y="290.5" width="410" height="101" fill="#676773" stroke="#42394D" stroke-width="3"/>
<path fill-rule="evenodd" clip-rule="evenodd" d="M321.5 393C321.667 393 321.834 392.988 322 392.966V393H738.5H739V392.966C748.434 391.665 756 353.675 756 307C756 260.325 748.434 222.335 739 221.034V221H738.5H688V221.034C697.434 222.335 705 260.325 705 307C705 312.468 704.896 317.816 704.698 323H387.698C387.896 317.816 388 312.468 388 307C388 259.504 380.165 221 370.5 221C370.333 221 370.166 221.012 370 221.034V221H322V221.034C321.834 221.012 321.667 221 321.5 221C311.835 221 304 259.504 304 307C304 354.496 311.835 393 321.5 393Z" fill="#676773"/>
<path d="M322 392.966H323.5V391.245L321.795 391.48L322 392.966ZM322 393H320.5V394.5H322V393ZM739 393V394.5H740.5V393H739ZM739 392.966L738.795 391.48L737.5 391.658V392.966H739ZM739 221.034H737.5V222.342L738.795 222.52L739 221.034ZM739 221H740.5V219.5H739V221ZM688 221V219.5H686.5V221H688ZM688 221.034H686.5V222.342L687.795 222.52L688 221.034ZM704.698 323V324.5H706.141L706.197 323.057L704.698 323ZM387.698 323L386.199 322.943L386.139 324.5H387.698V323ZM370 221.034H368.5V222.755L370.205 222.52L370 221.034ZM370 221H371.5V219.5H370V221ZM322 221V219.5H320.5V221H322ZM322 221.034L321.795 222.52L323.5 222.755V221.034H322ZM321.795 391.48C321.696 391.493 321.598 391.5 321.5 391.5V394.5C321.736 394.5 321.971 394.484 322.205 394.452L321.795 391.48ZM323.5 393V392.966H320.5V393H323.5ZM738.5 391.5H322V394.5H738.5V391.5ZM739 391.5H738.5V394.5H739V391.5ZM737.5 392.966V393H740.5V392.966H737.5ZM754.5 307C754.5 330.269 752.613 351.333 749.566 366.706C748.041 374.403 746.238 380.605 744.271 384.927C743.286 387.091 742.29 388.718 741.316 389.819C740.335 390.927 739.485 391.384 738.795 391.48L739.205 394.452C740.873 394.222 742.323 393.207 743.562 391.807C744.808 390.399 745.95 388.48 747.001 386.17C749.106 381.545 750.964 375.087 752.509 367.29C755.604 351.674 757.5 330.406 757.5 307H754.5ZM738.795 222.52C739.485 222.616 740.335 223.073 741.316 224.181C742.29 225.282 743.286 226.909 744.271 229.073C746.238 233.395 748.041 239.597 749.566 247.294C752.613 262.667 754.5 283.731 754.5 307H757.5C757.5 283.594 755.604 262.326 752.509 246.71C750.964 238.913 749.106 232.455 747.001 227.83C745.95 225.52 744.808 223.601 743.562 222.193C742.323 220.793 740.873 219.778 739.205 219.548L738.795 222.52ZM737.5 221V221.034H740.5V221H737.5ZM738.5 222.5H739V219.5H738.5V222.5ZM688 222.5H738.5V219.5H688V222.5ZM689.5 221.034V221H686.5V221.034H689.5ZM706.5 307C706.5 283.594 704.604 262.326 701.509 246.71C699.964 238.913 698.106 232.455 696.001 227.83C694.95 225.52 693.808 223.601 692.562 222.193C691.323 220.793 689.873 219.778 688.205 219.548L687.795 222.52C688.485 222.616 689.335 223.073 690.316 224.181C691.29 225.282 692.286 226.909 693.271 229.073C695.238 233.395 697.041 239.597 698.566 247.294C701.613 262.667 703.5 283.731 703.5 307H706.5ZM706.197 323.057C706.396 317.854 706.5 312.486 706.5 307H703.5C703.5 312.449 703.397 317.778 703.199 322.943L706.197 323.057ZM387.698 324.5H704.698V321.5H387.698V324.5ZM386.5 307C386.5 312.449 386.397 317.778 386.199 322.943L389.197 323.057C389.396 317.854 389.5 312.486 389.5 307H386.5ZM370.5 222.5C371.172 222.5 371.992 222.828 372.963 223.805C373.938 224.785 374.951 226.31 375.96 228.409C377.976 232.598 379.831 238.757 381.404 246.488C384.546 261.926 386.5 283.321 386.5 307H389.5C389.5 283.183 387.537 261.578 384.344 245.89C382.751 238.058 380.835 231.622 378.663 227.108C377.579 224.854 376.394 223 375.09 221.69C373.783 220.375 372.244 219.5 370.5 219.5V222.5ZM370.205 222.52C370.304 222.507 370.402 222.5 370.5 222.5V219.5C370.264 219.5 370.028 219.516 369.795 219.548L370.205 222.52ZM368.5 221V221.034H371.5V221H368.5ZM322 222.5H370V219.5H322V222.5ZM323.5 221.034V221H320.5V221.034H323.5ZM321.5 222.5C321.598 222.5 321.696 222.507 321.795 222.52L322.205 219.548C321.972 219.516 321.736 219.5 321.5 219.5V222.5ZM305.5 307C305.5 283.321 307.454 261.926 310.596 246.488C312.169 238.757 314.024 232.598 316.04 228.409C317.049 226.31 318.062 224.785 319.037 223.805C320.008 222.828 320.828 222.5 321.5 222.5V219.5C319.756 219.5 318.217 220.375 316.91 221.69C315.606 223 314.421 224.854 313.337 227.108C311.165 231.622 309.249 238.058 307.656 245.89C304.463 261.578 302.5 283.183 302.5 307H305.5ZM321.5 391.5C320.828 391.5 320.008 391.172 319.037 390.195C318.062 389.215 317.049 387.69 316.04 385.591C314.024 381.402 312.169 375.243 310.596 367.512C307.454 352.074 305.5 330.679 305.5 307H302.5C302.5 330.817 304.463 352.422 307.656 368.11C309.249 375.942 311.165 382.378 313.337 386.892C314.421 389.146 315.606 391 316.91 392.31C318.217 393.625 319.756 394.5 321.5 394.5V391.5Z" fill="#42394D"/>
<ellipse cx="321.5" cy="307" rx="17.5" ry="86" fill="#8A899A" stroke="#42394D" stroke-width="3"/>
<path fill-rule="evenodd" clip-rule="evenodd" d="M388 307C388 312.468 387.896 317.816 387.698 323H704.698C704.896 317.816 705 312.468 705 307C705 260.325 697.434 222.335 688 221.034V221H687.5H370.5H370V221.034C370.166 221.012 370.333 221 370.5 221C380.165 221 388 259.504 388 307Z" fill="#D8F3FF" fill-opacity="0.6"/>
<path d="M387.698 323L386.199 322.943C386.183 323.35 386.334 323.746 386.617 324.04C386.9 324.334 387.29 324.5 387.698 324.5V323ZM704.698 323V324.5C705.504 324.5 706.166 323.863 706.197 323.057L704.698 323ZM688 221.034H686.5C686.5 221.784 687.053 222.418 687.795 222.52L688 221.034ZM688 221H689.5C689.5 220.172 688.828 219.5 688 219.5V221ZM370 221V219.5C369.172 219.5 368.5 220.172 368.5 221H370ZM370 221.034H368.5C368.5 221.468 368.688 221.88 369.014 222.165C369.341 222.45 369.775 222.58 370.205 222.52L370 221.034ZM389.197 323.057C389.396 317.854 389.5 312.486 389.5 307H386.5C386.5 312.449 386.397 317.778 386.199 322.943L389.197 323.057ZM387.698 324.5H704.698V321.5H387.698V324.5ZM703.5 307C703.5 312.449 703.397 317.778 703.199 322.943L706.197 323.057C706.396 317.854 706.5 312.486 706.5 307H703.5ZM687.795 222.52C688.485 222.616 689.335 223.073 690.316 224.181C691.29 225.282 692.286 226.909 693.271 229.073C695.238 233.395 697.041 239.597 698.566 247.294C701.613 262.667 703.5 283.731 703.5 307H706.5C706.5 283.594 704.604 262.326 701.509 246.71C699.964 238.913 698.106 232.455 696.001 227.83C694.95 225.52 693.808 223.601 692.562 222.193C691.323 220.793 689.873 219.778 688.205 219.548L687.795 222.52ZM686.5 221V221.034H689.5V221H686.5ZM687.5 222.5H688V219.5H687.5V222.5ZM370.5 222.5H687.5V219.5H370.5V222.5ZM370 222.5H370.5V219.5H370V222.5ZM371.5 221.034V221H368.5V221.034H371.5ZM370.5 219.5C370.264 219.5 370.028 219.516 369.795 219.548L370.205 222.52C370.304 222.507 370.402 222.5 370.5 222.5V219.5ZM389.5 307C389.5 283.183 387.537 261.578 384.344 245.89C382.751 238.058 380.835 231.622 378.663 227.108C377.579 224.854 376.394 223 375.09 221.69C373.783 220.375 372.244 219.5 370.5 219.5V222.5C371.172 222.5 371.992 222.828 372.963 223.805C373.938 224.785 374.951 226.31 375.96 228.409C377.976 232.598 379.831 238.757 381.404 246.488C384.546 261.926 386.5 283.321 386.5 307H389.5Z" fill="#5E8899"/>
<rect x="389" y="334" width="90" height="33" rx="4" fill="#676773" stroke="#42394D" stroke-width="3"/>
<circle cx="406.5" cy="350.5" r="9.5" fill="#EF6B8A" stroke="#42394D" stroke-width="3"/>
<circle cx="431.5" cy="350.5" r="9.5" fill="#A6D641" stroke="#42394D" stroke-width="3"/>
<rect x="451" y="341" width="7" height="7" rx="2" fill="#676773" stroke="#42394D" stroke-width="3"/>
<rect x="463" y="341" width="7" height="7" rx="2" fill="#676773" stroke="#42394D" stroke-width="3"/>
<rect x="463" y="353" width="7" height="7" rx="2" fill="#676773" stroke="#42394D" stroke-width="3"/>
<rect x="451" y="353" width="7" height="7" rx="2" fill="#676773" stroke="#42394D" stroke-width="3"/>
<path d="M499.781 355.097C500.941 355.097 502.005 354.701 502.743 353.937C503.016 353.664 503.156 353.321 503.156 352.979C503.156 352.653 503.016 352.363 502.734 352.126C502.497 351.924 502.216 351.827 501.979 351.827C501.601 351.827 501.319 351.994 500.933 352.311C500.537 352.618 500.177 352.732 499.729 352.732C499.693 352.732 499.667 352.732 499.649 352.724H499.562C499.069 352.715 498.63 352.478 498.287 352.091C497.971 351.73 497.786 351.265 497.786 350.816C497.786 350.315 497.988 349.832 498.34 349.48C498.691 349.12 499.184 348.9 499.72 348.9C500.15 348.9 500.537 349.006 500.933 349.313C501.346 349.639 501.618 349.806 501.996 349.806C502.216 349.806 502.506 349.7 502.743 349.498C503.024 349.261 503.165 348.979 503.165 348.654C503.165 348.312 503.016 347.96 502.743 347.679C502.005 346.914 500.95 346.519 499.781 346.519C498.595 346.519 497.487 346.984 496.679 347.767C495.87 348.566 495.387 349.656 495.387 350.843C495.387 352.012 495.87 353.093 496.679 353.875C497.487 354.648 498.577 355.097 499.781 355.097ZM508.238 355C508.554 355 508.827 354.886 509.047 354.666C509.258 354.464 509.381 354.174 509.381 353.849V350.992C509.389 350.421 509.627 349.885 510.022 349.489C510.409 349.094 510.928 348.856 511.499 348.848H511.552C511.877 348.848 512.193 348.725 512.413 348.514C512.65 348.276 512.764 348.004 512.764 347.679C512.764 346.984 512.316 346.519 511.552 346.519H511.481C510.295 346.545 509.205 347.02 508.396 347.819C507.579 348.628 507.078 349.727 507.043 350.896V353.849C507.043 354.165 507.183 354.455 507.403 354.666C507.614 354.877 507.922 355 508.238 355ZM523.805 357.716C524.122 357.716 524.438 357.584 524.658 357.373C524.878 357.153 525.009 356.863 525.009 356.547V347.389C525.009 347.072 524.869 346.756 524.658 346.545C524.438 346.334 524.139 346.202 523.823 346.202C523.498 346.202 523.225 346.316 522.997 346.545C522.786 346.756 522.654 347.072 522.654 347.389V350.57C522.654 351.106 522.434 351.607 522.056 351.985C521.678 352.363 521.169 352.592 520.65 352.592C520.114 352.592 519.613 352.363 519.235 351.985C518.857 351.607 518.637 351.106 518.637 350.57V347.389C518.637 347.072 518.505 346.756 518.295 346.545C518.075 346.334 517.767 346.202 517.451 346.202C517.126 346.202 516.853 346.316 516.625 346.545C516.414 346.756 516.282 347.072 516.282 347.389V350.57C516.282 351.766 516.756 352.855 517.565 353.664C518.374 354.473 519.463 354.947 520.65 354.947C521.344 354.947 522.012 354.728 522.654 354.288V356.547C522.654 356.872 522.768 357.153 522.988 357.373C523.199 357.584 523.489 357.716 523.805 357.716ZM532.93 355.097C534.09 355.097 535.18 354.622 535.962 353.84C536.762 353.04 537.219 351.977 537.219 350.816C537.219 349.656 536.745 348.575 535.962 347.775C535.18 346.993 534.09 346.519 532.93 346.519C531.77 346.519 530.706 346.976 529.907 347.775C529.107 348.575 528.641 349.656 528.641 350.816C528.641 351.977 529.107 353.058 529.907 353.84C530.706 354.64 531.77 355.097 532.93 355.097ZM532.93 352.75C532.412 352.75 531.919 352.539 531.568 352.188C531.207 351.827 530.988 351.344 530.988 350.816C530.988 350.289 531.207 349.806 531.568 349.445C531.919 349.094 532.412 348.883 532.93 348.883C533.457 348.883 533.958 349.094 534.31 349.445C534.67 349.806 534.881 350.289 534.881 350.816C534.881 351.344 534.67 351.827 534.31 352.188C533.958 352.539 533.457 352.75 532.93 352.75ZM545.237 355C545.975 354.974 546.625 354.675 547.091 354.174C547.548 353.682 547.803 353.022 547.803 352.311C547.803 351.581 547.53 350.896 547.065 350.377C546.581 349.85 545.904 349.542 545.157 349.542H543.558C543.391 349.542 543.241 349.445 543.241 349.199C543.241 348.997 543.4 348.856 543.575 348.856H546.326C546.616 348.856 546.915 348.725 547.1 348.505C547.311 348.276 547.416 347.995 547.416 347.652C547.416 347.301 547.302 347.02 547.073 346.809C546.862 346.615 546.59 346.519 546.256 346.519H543.531C542.82 346.519 542.169 346.8 541.677 347.283C541.194 347.749 540.904 348.417 540.904 349.111C540.904 349.823 541.185 350.518 541.651 351.045C542.116 351.572 542.784 351.889 543.531 351.889H544.964C545.122 351.889 545.237 351.906 545.298 351.941C545.412 352.003 545.465 352.108 545.465 352.258C545.465 352.407 545.412 352.513 545.298 352.583C545.219 352.636 545.105 352.662 544.973 352.662H541.826C541.185 352.662 540.754 353.11 540.754 353.805C540.754 354.156 540.86 354.446 541.062 354.666C541.264 354.886 541.519 355 541.826 355H545.237ZM555.003 355C555.319 355 555.627 354.877 555.829 354.675C556.04 354.464 556.154 354.174 556.154 353.857C556.154 353.541 556.04 353.251 555.829 353.04C555.627 352.829 555.328 352.706 555.003 352.706C554.572 352.706 554.344 352.539 554.317 352.205V344.646C554.317 344.33 554.177 344.04 553.957 343.82C553.737 343.609 553.421 343.478 553.104 343.478C552.797 343.478 552.533 343.592 552.313 343.82C552.094 344.04 551.979 344.321 551.979 344.646V352.152C551.979 352.97 552.313 353.69 552.876 354.209C553.438 354.71 554.194 355 555.003 355ZM563.776 355.097C564.646 355.097 565.332 354.947 565.842 354.657C566.29 354.402 566.518 354.042 566.518 353.629C566.518 353.312 566.395 353.005 566.193 352.785C565.965 352.548 565.692 352.425 565.376 352.425C565.147 352.425 564.919 352.495 564.699 352.636C564.462 352.776 564.207 352.847 563.776 352.847C563.073 352.847 562.449 352.469 562.062 351.862H566.94C567.617 351.862 568.092 351.423 568.092 350.755C568.065 349.604 567.582 348.531 566.8 347.749C566 346.976 564.928 346.519 563.776 346.519C562.607 346.519 561.526 346.984 560.726 347.767C559.927 348.566 559.452 349.647 559.452 350.816C559.452 351.977 559.927 353.04 560.726 353.84C561.526 354.622 562.616 355.097 563.776 355.097ZM561.992 349.911C562.317 349.208 562.976 348.751 563.82 348.751C564.664 348.751 565.367 349.199 565.692 349.911H561.992ZM575.898 355.097C576.768 355.097 577.454 354.947 577.963 354.657C578.412 354.402 578.64 354.042 578.64 353.629C578.64 353.312 578.517 353.005 578.315 352.785C578.087 352.548 577.814 352.425 577.498 352.425C577.269 352.425 577.041 352.495 576.821 352.636C576.584 352.776 576.329 352.847 575.898 352.847C575.195 352.847 574.571 352.469 574.184 351.862H579.062C579.739 351.862 580.213 351.423 580.213 350.755C580.187 349.604 579.704 348.531 578.921 347.749C578.122 346.976 577.049 346.519 575.898 346.519C574.729 346.519 573.648 346.984 572.848 347.767C572.048 348.566 571.574 349.647 571.574 350.816C571.574 351.977 572.048 353.04 572.848 353.84C573.648 354.622 574.738 355.097 575.898 355.097ZM574.114 349.911C574.439 349.208 575.098 348.751 575.942 348.751C576.786 348.751 577.489 349.199 577.814 349.911H574.114ZM585.287 358.041C585.621 358.041 585.893 357.927 586.113 357.689C586.324 357.461 586.429 357.171 586.429 356.819V354.622C587.044 354.938 587.695 355.097 588.389 355.097C589.54 355.097 590.63 354.622 591.412 353.84C592.212 353.04 592.669 351.977 592.669 350.816C592.669 349.656 592.195 348.575 591.412 347.775C590.63 346.993 589.54 346.519 588.389 346.519C587.255 346.519 586.165 346.984 585.383 347.758C584.583 348.54 584.1 349.612 584.091 350.746V356.819C584.091 357.162 584.232 357.47 584.452 357.689C584.662 357.909 584.97 358.041 585.287 358.041ZM588.389 352.75C587.862 352.75 587.37 352.539 587.018 352.188C586.658 351.827 586.438 351.344 586.438 350.816C586.438 350.289 586.658 349.806 587.018 349.445C587.37 349.094 587.862 348.883 588.389 348.883C588.916 348.883 589.409 349.094 589.76 349.445C590.121 349.806 590.331 350.289 590.331 350.816C590.331 351.344 590.121 351.827 589.76 352.188C589.409 352.539 588.916 352.75 588.389 352.75ZM602.19 350.737C602.506 350.737 602.822 350.605 603.033 350.395C603.244 350.184 603.376 349.885 603.376 349.568C603.376 349.252 603.244 348.944 603.033 348.725C602.822 348.514 602.506 348.373 602.19 348.373H597.549C597.215 348.373 596.934 348.487 596.705 348.716C596.494 348.936 596.363 349.252 596.363 349.568C596.363 349.885 596.494 350.184 596.705 350.395C596.934 350.623 597.215 350.737 597.549 350.737H602.19ZM611.271 343.451C610.119 343.451 609.064 343.908 608.282 344.69C607.5 345.473 607.043 346.519 607.043 347.67C607.043 348.786 607.482 349.823 608.221 350.605C608.968 351.379 609.996 351.845 611.112 351.889L610.286 353.233C610.163 353.436 610.102 353.646 610.102 353.875C610.102 354.147 610.216 354.42 610.4 354.64C610.611 354.851 610.91 354.991 611.235 354.991C611.657 354.991 612.062 354.78 612.281 354.385L614.751 350.069C615.252 349.357 615.498 348.558 615.498 347.67C615.498 346.519 615.032 345.473 614.25 344.69C613.468 343.908 612.422 343.451 611.271 343.451ZM611.271 345.763C611.771 345.763 612.255 345.965 612.615 346.316C612.976 346.677 613.187 347.151 613.187 347.67C613.187 348.188 612.976 348.663 612.615 349.015C612.264 349.366 611.789 349.568 611.271 349.568C610.743 349.568 610.26 349.366 609.908 349.015C609.557 348.663 609.346 348.188 609.346 347.67C609.346 347.151 609.557 346.677 609.908 346.316C610.269 345.965 610.752 345.763 611.271 345.763ZM623.709 355.097C624.878 355.097 625.976 354.64 626.785 353.857C627.602 353.058 628.086 351.933 628.086 350.632V347.837C628.086 346.536 627.602 345.411 626.785 344.603C625.976 343.82 624.878 343.372 623.709 343.372C622.54 343.372 621.432 343.82 620.624 344.603C619.806 345.411 619.323 346.536 619.323 347.837V350.632C619.323 351.933 619.806 353.058 620.624 353.857C621.432 354.64 622.54 355.097 623.709 355.097ZM623.709 352.732C623.173 352.732 622.663 352.557 622.303 352.231C621.889 351.854 621.679 351.326 621.679 350.649V347.819C621.679 347.125 621.907 346.589 622.303 346.237C622.663 345.912 623.173 345.736 623.709 345.736C624.245 345.736 624.746 345.895 625.106 346.237C625.502 346.589 625.73 347.125 625.73 347.819V350.649C625.73 351.326 625.519 351.854 625.106 352.231C624.746 352.574 624.245 352.732 623.709 352.732ZM636.569 355.097C637.738 355.097 638.837 354.64 639.645 353.857C640.462 353.058 640.946 351.933 640.946 350.632V347.837C640.946 346.536 640.462 345.411 639.645 344.603C638.837 343.82 637.738 343.372 636.569 343.372C635.4 343.372 634.293 343.82 633.484 344.603C632.667 345.411 632.183 346.536 632.183 347.837V350.632C632.183 351.933 632.667 353.058 633.484 353.857C634.293 354.64 635.4 355.097 636.569 355.097ZM636.569 352.732C636.033 352.732 635.523 352.557 635.163 352.231C634.75 351.854 634.539 351.326 634.539 350.649V347.819C634.539 347.125 634.767 346.589 635.163 346.237C635.523 345.912 636.033 345.736 636.569 345.736C637.105 345.736 637.606 345.895 637.966 346.237C638.362 346.589 638.59 347.125 638.59 347.819V350.649C638.59 351.326 638.379 351.854 637.966 352.231C637.606 352.574 637.105 352.732 636.569 352.732ZM649.429 355.097C650.598 355.097 651.697 354.64 652.505 353.857C653.323 353.058 653.806 351.933 653.806 350.632V347.837C653.806 346.536 653.323 345.411 652.505 344.603C651.697 343.82 650.598 343.372 649.429 343.372C648.26 343.372 647.153 343.82 646.344 344.603C645.527 345.411 645.043 346.536 645.043 347.837V350.632C645.043 351.933 645.527 353.058 646.344 353.857C647.153 354.64 648.26 355.097 649.429 355.097ZM649.429 352.732C648.893 352.732 648.383 352.557 648.023 352.231C647.61 351.854 647.399 351.326 647.399 350.649V347.819C647.399 347.125 647.627 346.589 648.023 346.237C648.383 345.912 648.893 345.736 649.429 345.736C649.965 345.736 650.466 345.895 650.827 346.237C651.222 346.589 651.451 347.125 651.451 347.819V350.649C651.451 351.326 651.24 351.854 650.827 352.231C650.466 352.574 649.965 352.732 649.429 352.732Z" fill="#8A899A"/>
<mask id="path-16-inside-1_280_2268" fill="white">
<path fill-rule="evenodd" clip-rule="evenodd" d="M320 309H312.642C297.928 309 286 320.928 286 335.642V393C286 395.761 290.701 398 296.5 398C302.299 398 307 395.761 307 393V344C307 336.268 313.268 330 321 330V329.79C323.282 328.817 325 324.58 325 319.5C325 314.42 323.282 310.183 321 309.21V309H320Z"/>
</mask>
<path fill-rule="evenodd" clip-rule="evenodd" d="M320 309H312.642C297.928 309 286 320.928 286 335.642V393C286 395.761 290.701 398 296.5 398C302.299 398 307 395.761 307 393V344C307 336.268 313.268 330 321 330V329.79C323.282 328.817 325 324.58 325 319.5C325 314.42 323.282 310.183 321 309.21V309H320Z" fill="#ACABC0"/>
<path d="M321 330H324V333H321V330ZM321 329.79H318V327.808L319.824 327.03L321 329.79ZM321 309.21L319.824 311.97L318 311.192V309.21H321ZM321 309V306H324V309H321ZM320 312H312.642V306H320V312ZM312.642 312C299.585 312 289 322.585 289 335.642H283C283 319.271 296.271 306 312.642 306V312ZM289 335.642V393H283V335.642H289ZM289 393C289 392.555 288.727 393.047 290.365 393.827C291.78 394.501 293.946 395 296.5 395V401C293.255 401 290.171 400.38 287.786 399.244C285.624 398.215 283 396.206 283 393H289ZM296.5 395C299.054 395 301.22 394.501 302.635 393.827C304.273 393.047 304 392.555 304 393H310C310 396.206 307.376 398.215 305.214 399.244C302.829 400.38 299.745 401 296.5 401V395ZM304 393V344H310V393H304ZM304 344C304 334.611 311.611 327 321 327V333C314.925 333 310 337.925 310 344H304ZM318 330V329.79H324V330H318ZM319.824 327.03C319.804 327.039 319.961 326.974 320.229 326.633C320.491 326.299 320.787 325.791 321.064 325.086C321.62 323.674 322 321.726 322 319.5H328C328 322.354 327.521 325.065 326.647 327.284C325.827 329.369 324.423 331.592 322.176 332.55L319.824 327.03ZM322 319.5C322 317.274 321.62 315.326 321.064 313.914C320.787 313.209 320.491 312.701 320.229 312.367C319.961 312.026 319.804 311.961 319.824 311.97L322.176 306.45C324.423 307.408 325.827 309.631 326.647 311.716C327.521 313.935 328 316.646 328 319.5H322ZM318 309.21V309H324V309.21H318ZM321 312H320V306H321V312Z" fill="#676773" mask="url(#path-16-inside-1_280_2268)"/>
</g>
</svg>
