<svg width="1033" height="632" viewBox="0 0 1033 632" fill="none" xmlns="http://www.w3.org/2000/svg">
<mask id="mask0_280_2268" style="mask-type:alpha" maskUnits="userSpaceOnUse" x="0" y="0" width="1032" height="632">
<path d="M31.6133 17.243C32.1102 7.57999 40.09 0 49.7658 0H1013.36C1023.77 0 1032.05 8.71841 1031.52 19.1099L1000.89 614.757C1000.39 624.42 992.41 632 982.734 632H19.1352C8.72991 632 0.448336 623.282 0.982711 612.89L31.6133 17.243Z" fill="#FF0000"/>
</mask>
<g mask="url(#mask0_280_2268)">
<path d="M739.5 250.747V328.5H297.5V252.153C297.5 242.836 302.055 234.106 309.698 228.776L327.125 216.623C331.907 213.288 337.597 211.5 343.428 211.5H707.966L729.01 228.659C735.648 234.072 739.5 242.182 739.5 250.747Z" fill="#F8DAEB" stroke="#C39BB2" stroke-width="3"/>
<mask id="path-3-outside-1_280_2268" maskUnits="userSpaceOnUse" x="280" y="327" width="476" height="71" fill="black">
<rect fill="white" x="280" y="327" width="476" height="71"/>
<path fill-rule="evenodd" clip-rule="evenodd" d="M307.987 387V368H728.013V387C728.013 391.418 731.594 395 736.013 395H745C749.418 395 753 391.418 753 387V338.259C753 333.841 749.418 330.259 745 330.259H739.986C739.695 330.094 739.358 330 739 330H298C297.642 330 297.305 330.094 297.014 330.259H291C286.582 330.259 283 333.841 283 338.259V387C283 391.418 286.582 395 291 395H299.987C304.406 395 307.987 391.418 307.987 387Z"/>
</mask>
<path fill-rule="evenodd" clip-rule="evenodd" d="M307.987 387V368H728.013V387C728.013 391.418 731.594 395 736.013 395H745C749.418 395 753 391.418 753 387V338.259C753 333.841 749.418 330.259 745 330.259H739.986C739.695 330.094 739.358 330 739 330H298C297.642 330 297.305 330.094 297.014 330.259H291C286.582 330.259 283 333.841 283 338.259V387C283 391.418 286.582 395 291 395H299.987C304.406 395 307.987 391.418 307.987 387Z" fill="#FCFCFC"/>
<path d="M307.987 368V365H304.987V368H307.987ZM728.013 368H731.013V365H728.013V368ZM739.986 330.259L738.505 332.869L739.194 333.259H739.986V330.259ZM297.014 330.259V333.259H297.806L298.495 332.869L297.014 330.259ZM304.987 368V387H310.987V368H304.987ZM728.013 365H307.987V371H728.013V365ZM731.013 387V368H725.013V387H731.013ZM736.013 392C733.251 392 731.013 389.761 731.013 387H725.013C725.013 393.075 729.938 398 736.013 398V392ZM745 392H736.013V398H745V392ZM750 387C750 389.761 747.761 392 745 392V398C751.075 398 756 393.075 756 387H750ZM750 338.259V387H756V338.259H750ZM745 333.259C747.761 333.259 750 335.498 750 338.259H756C756 332.184 751.075 327.259 745 327.259V333.259ZM739.986 333.259H745V327.259H739.986V333.259ZM739 333C738.826 333 738.654 332.953 738.505 332.869L741.466 327.65C740.736 327.236 739.891 327 739 327V333ZM298 333H739V327H298V333ZM298.495 332.869C298.346 332.953 298.174 333 298 333V327C297.109 327 296.264 327.236 295.534 327.65L298.495 332.869ZM291 333.259H297.014V327.259H291V333.259ZM286 338.259C286 335.498 288.239 333.259 291 333.259V327.259C284.925 327.259 280 332.184 280 338.259H286ZM286 387V338.259H280V387H286ZM291 392C288.239 392 286 389.761 286 387H280C280 393.075 284.925 398 291 398V392ZM299.987 392H291V398H299.987V392ZM304.987 387C304.987 389.761 302.749 392 299.987 392V398C306.062 398 310.987 393.075 310.987 387H304.987Z" fill="#ACABC0" mask="url(#path-3-outside-1_280_2268)"/>
<line x1="738" y1="241.5" x2="436" y2="241.5" stroke="#ACABC0" stroke-width="3"/>
<mask id="mask1_280_2268" style="mask-type:alpha" maskUnits="userSpaceOnUse" x="433" y="200" width="308" height="130">
<path d="M739.5 228.516V328.5H434.5V227.861C434.5 220.853 438.459 214.448 444.727 211.314L460.448 203.453C463.017 202.169 465.849 201.5 468.721 201.5H699.654C703.629 201.5 707.56 202.331 711.195 203.941L728.491 211.601C735.184 214.565 739.5 221.196 739.5 228.516Z" fill="#FCFCFC" stroke="#ACABC0" stroke-width="3"/>
</mask>
<g mask="url(#mask1_280_2268)">
<rect x="374" y="179" width="460" height="173" fill="#FCFCFC"/>
<line x1="475.5" y1="203" x2="475.5" y2="329" stroke="#DEDDE6" stroke-width="3"/>
<line x1="738" y1="221.5" x2="436" y2="221.5" stroke="#DEDDE6" stroke-width="3"/>
<line x1="738" y1="266.5" x2="436" y2="266.5" stroke="#DEDDE6" stroke-width="3"/>
<line x1="738" y1="311.5" x2="436" y2="311.5" stroke="#DEDDE6" stroke-width="3"/>
<line x1="520.5" y1="203" x2="520.5" y2="327" stroke="#DEDDE6" stroke-width="3"/>
<line x1="565.5" y1="203" x2="565.5" y2="327" stroke="#DEDDE6" stroke-width="3"/>
<line x1="610.5" y1="203" x2="610.5" y2="327" stroke="#DEDDE6" stroke-width="3"/>
<path d="M700 203L700 327" stroke="#DEDDE6" stroke-width="3"/>
<line x1="655.5" y1="203" x2="655.5" y2="327" stroke="#DEDDE6" stroke-width="3"/>
</g>
<path d="M739.5 228.516V328.5H434.5V227.861C434.5 220.853 438.459 214.448 444.727 211.314L460.448 203.453C463.017 202.169 465.849 201.5 468.721 201.5H699.654C703.629 201.5 707.56 202.331 711.195 203.941L728.491 211.601C735.184 214.565 739.5 221.196 739.5 228.516Z" stroke="#ACABC0" stroke-width="3"/>
<mask id="mask2_280_2268" style="mask-type:alpha" maskUnits="userSpaceOnUse" x="311" y="176" width="118" height="64">
<path d="M427.5 197.657V220C427.5 230.217 419.217 238.5 409 238.5H331C320.783 238.5 312.5 230.217 312.5 220V198.31C312.5 190.852 316.977 184.124 323.856 181.244L329.374 178.935C331.636 177.988 334.064 177.5 336.517 177.5H405.503C408.242 177.5 410.947 178.108 413.422 179.281L416.92 180.937C423.381 183.998 427.5 190.507 427.5 197.657Z" fill="white" stroke="#ACABC0" stroke-width="3"/>
</mask>
<g mask="url(#mask2_280_2268)">
<rect x="303" y="165" width="131" height="80" fill="#FCFCFC"/>
</g>
<path d="M427.5 197.657V220C427.5 230.217 419.217 238.5 409 238.5H331C320.783 238.5 312.5 230.217 312.5 220V198.31C312.5 190.852 316.977 184.124 323.856 181.244L329.374 178.935C331.636 177.988 334.064 177.5 336.517 177.5H405.503C408.242 177.5 410.947 178.108 413.422 179.281L416.92 180.937C423.381 183.998 427.5 190.507 427.5 197.657Z" stroke="#ACABC0" stroke-width="3"/>
</g>
</svg>
