<svg width="1030" height="576" viewBox="0 0 1030 576" fill="none" xmlns="http://www.w3.org/2000/svg">
<g clip-path="url(#clip0_251_2283)">
<mask id="mask0_251_2283" style="mask-type:alpha" maskUnits="userSpaceOnUse" x="0" y="0" width="1029" height="576">
<path d="M28.6167 17.2468C29.1117 7.58219 37.0921 0 46.7694 0H1010.37C1020.77 0 1029.05 8.71601 1028.52 19.1062L1000.88 558.753C1000.39 568.418 992.408 576 982.731 576H19.1312C8.72747 576 0.446393 567.284 0.978528 556.894L28.6167 17.2468Z" fill="#FAFAFA"/>
</mask>
<g mask="url(#mask0_251_2283)">
<path d="M326.72 199.928L331.207 196.114L337.684 203.734L333.197 207.547C324.695 214.774 318.769 224.566 316.311 235.451C314.273 244.48 310.223 252.932 304.463 260.178L297.936 268.39L290.108 262.167L296.635 253.956C301.458 247.888 304.85 240.809 306.557 233.248C309.492 220.251 316.568 208.558 326.72 199.928Z" fill="#F8F8FA" stroke="#ACABC0" stroke-width="3"/>
<path d="M705.076 199.928L700.59 196.114L694.113 203.734L698.6 207.547C707.102 214.774 713.028 224.566 715.485 235.451C717.524 244.48 721.574 252.932 727.334 260.178L733.861 268.39L741.689 262.167L735.162 253.956C730.339 247.888 726.947 240.809 725.24 233.248C722.305 220.251 715.229 208.558 705.076 199.928Z" fill="#F8F8FA" stroke="#ACABC0" stroke-width="3"/>
<rect x="511.5" y="217.5" width="10" height="29" fill="#F8F8FA" stroke="#ACABC0" stroke-width="3"/>
<rect x="451.5" y="169.5" width="10" height="81" fill="#F8F8FA" stroke="#ACABC0" stroke-width="3"/>
<rect x="408.5" y="172.5" width="10" height="81" fill="#F8F8FA" stroke="#ACABC0" stroke-width="3"/>
<rect x="365.5" y="197.5" width="10" height="81" fill="#F8F8FA" stroke="#ACABC0" stroke-width="3"/>
<rect x="-1.5" y="1.5" width="10" height="81" transform="matrix(-1 0 0 1 579 165)" fill="#F8F8FA" stroke="#ACABC0" stroke-width="3"/>
<rect x="-1.5" y="1.5" width="10" height="81" transform="matrix(-1 0 0 1 622 168)" fill="#F8F8FA" stroke="#ACABC0" stroke-width="3"/>
<rect x="-1.5" y="1.5" width="10" height="81" transform="matrix(-1 0 0 1 665 193)" fill="#F8F8FA" stroke="#ACABC0" stroke-width="3"/>
<path d="M596.557 168.763C582.414 167.116 568.236 171.714 558.228 181.234L551.899 187.255L544.201 180.233L550.376 174.359C562.746 162.59 580.336 156.86 597.932 158.909C607.571 160.031 616.733 163.439 624.539 168.797L636.241 176.829C647.583 184.614 660.535 190.109 674.271 192.969L696.181 197.531L693.852 207.235L671.854 202.654C656.617 199.482 642.262 193.388 629.702 184.768L618.001 176.736C611.695 172.408 604.311 169.666 596.557 168.763Z" fill="#F8F8FA" stroke="#ACABC0" stroke-width="3"/>
<path d="M436.443 168.763C450.586 167.116 464.764 171.714 474.772 181.234L481.101 187.255L488.799 180.233L482.624 174.359C470.254 162.59 452.664 156.86 435.068 158.909C425.429 160.031 416.267 163.439 408.461 168.797L396.759 176.829C385.417 184.614 372.465 190.109 358.729 192.969L336.819 197.531L339.148 207.235L361.146 202.654C376.383 199.482 390.738 193.388 403.298 184.768L414.999 176.736C421.305 172.408 428.689 169.666 436.443 168.763Z" fill="#F8F8FA" stroke="#ACABC0" stroke-width="3"/>
<path d="M513.616 230.562L513.606 230.556L513.596 230.55C513.081 230.26 512.75 229.993 512.548 229.768L512.422 229.628L512.344 229.576L512.313 229.531L512.208 229.425L511.931 229.148L490.87 207.443C490.87 207.443 490.869 207.442 490.869 207.442C487.574 204.035 485.015 200.156 483.184 195.798C481.397 191.416 480.5 186.754 480.5 181.8C480.5 178.952 481.05 176.237 482.151 173.643C483.256 171.039 484.803 168.743 486.799 166.746C488.754 164.79 491.028 163.259 493.633 162.152C496.225 161.051 498.937 160.5 501.783 160.5C504.501 160.5 507.038 160.965 509.405 161.884L509.405 161.884L509.412 161.887C511.829 162.811 514.014 164.144 515.973 165.891L516.961 166.772L517.958 165.901C519.919 164.189 522.108 162.871 524.531 161.944L524.54 161.94L524.549 161.937C526.959 160.979 529.473 160.5 532.103 160.5C535.03 160.5 537.78 161.053 540.367 162.152C542.97 163.258 545.264 164.789 547.258 166.746C549.214 168.742 550.743 171.037 551.849 173.643C552.95 176.237 553.5 178.952 553.5 181.8C553.5 186.749 552.567 191.406 550.707 195.785C548.841 200.18 546.226 204.078 542.858 207.486C542.857 207.487 542.857 207.488 542.856 207.488L542.405 207.94L542.397 207.948L542.389 207.955L521.27 229.719C520.068 230.919 518.662 231.5 516.971 231.5C516.371 231.5 515.739 231.411 515.073 231.223L514.782 231.126L514.277 230.943C514.247 230.926 514.205 230.902 514.147 230.869C514.02 230.796 513.843 230.694 513.616 230.562ZM515.801 218.776L516.878 219.886L517.954 218.776L535.272 200.931L535.761 200.441L535.761 200.442L535.767 200.435C538.24 197.928 540.136 195.095 541.503 191.876C542.819 188.777 543.5 185.454 543.5 181.8C543.5 180.282 543.215 178.897 542.644 177.549C542.038 176.123 541.234 174.908 540.204 173.836L540.184 173.815L540.163 173.795C539.092 172.764 537.878 171.96 536.456 171.355C535.148 170.8 533.732 170.5 532.103 170.5C530.723 170.5 529.463 170.745 528.241 171.23L528.173 171.257L528.105 171.283C526.785 171.788 525.613 172.493 524.536 173.433L516.893 180.109L509.318 173.355C508.252 172.405 507.109 171.712 505.838 171.226C505.838 171.226 505.838 171.226 505.838 171.226L505.815 171.217L505.808 171.215L505.785 171.206C504.637 170.76 503.335 170.5 501.783 170.5C500.269 170.5 498.888 170.784 497.544 171.355C496.097 171.97 494.902 172.784 493.873 173.814C492.786 174.902 491.961 176.124 491.356 177.549C490.785 178.897 490.5 180.282 490.5 181.8C490.5 185.491 491.157 188.846 492.42 191.963L492.424 191.973L492.428 191.984C493.775 195.169 495.634 197.983 498.051 200.483L498.051 200.484L498.059 200.492L498.061 200.493L515.801 218.776Z" fill="#F8F8FA" stroke="#ACABC0" stroke-width="3"/>
<rect x="692.5" y="182.5" width="10" height="144" fill="#F8F8FA" stroke="#ACABC0" stroke-width="3"/>
<circle cx="697.5" cy="173.5" r="13" fill="#F8F8FA" stroke="#ACABC0" stroke-width="3"/>
<rect x="289.5" y="343.5" width="444" height="26" fill="#F8F8FA" stroke="#ACABC0" stroke-width="3"/>
<rect x="328.5" y="182.5" width="10" height="144" fill="#F8F8FA" stroke="#ACABC0" stroke-width="3"/>
<circle cx="333.5" cy="173.5" r="13" fill="#F8F8FA" stroke="#ACABC0" stroke-width="3"/>
<path d="M284.5 253.5H294.5V392.5C294.5 395.261 292.261 397.5 289.5 397.5C286.739 397.5 284.5 395.261 284.5 392.5V253.5Z" fill="#F8F8FA" stroke="#ACABC0" stroke-width="3"/>
<circle cx="289.5" cy="244.5" r="13" fill="#F8F8FA" stroke="#ACABC0" stroke-width="3"/>
<path d="M732.5 256.5H742.5V395.5C742.5 398.261 740.261 400.5 737.5 400.5C734.739 400.5 732.5 398.261 732.5 395.5V256.5Z" fill="#F8F8FA" stroke="#ACABC0" stroke-width="3"/>
<circle cx="737.5" cy="247.5" r="13" fill="#F8F8FA" stroke="#ACABC0" stroke-width="3"/>
<path d="M729.5 279.483V320C729.5 335.74 716.74 348.5 701 348.5H325.5C309.76 348.5 297 335.74 297 320V279.843C297 269.947 302.134 260.759 310.561 255.572L326.554 245.729C331.046 242.964 336.218 241.5 341.492 241.5H686.209C691.662 241.5 697.001 243.064 701.591 246.008L716.382 255.491C724.556 260.731 729.5 269.773 729.5 279.483Z" fill="#CAE68D" stroke="#85AB34" stroke-width="3"/>
<path d="M372 272.664C372 261.541 378.155 251.33 387.991 246.136L409.133 234.972C413.451 232.692 418.259 231.5 423.142 231.5H691.862C698.733 231.5 705.395 233.858 710.735 238.18L719.873 245.575C726.911 251.271 731 259.841 731 268.895V350.5C731 354.918 727.418 358.5 723 358.5H380C375.582 358.5 372 354.918 372 350.5V272.664Z" fill="url(#paint0_linear_251_2283)"/>
<path d="M729.5 268.895V350.5C729.5 354.09 726.59 357 723 357H380C376.41 357 373.5 354.09 373.5 350.5V272.664C373.5 262.097 379.347 252.397 388.692 247.463L409.833 236.298C413.935 234.132 418.503 233 423.142 233H691.862C698.389 233 704.718 235.24 709.792 239.346L718.929 246.741C725.615 252.153 729.5 260.294 729.5 268.895Z" stroke="#1E254B" stroke-opacity="0.38" stroke-width="3" style="mix-blend-mode:color-burn"/>
<mask id="path-26-inside-1_251_2283" fill="white">
<path fill-rule="evenodd" clip-rule="evenodd" d="M350.055 253H402.013H461.735H462.332V252.99C471.621 252.675 479.055 245.046 479.055 235.681C479.055 227.841 473.846 221.217 466.7 219.083C467.73 216.867 468.305 214.396 468.305 211.792C468.305 202.226 460.551 194.472 450.985 194.472C448.238 194.472 445.641 195.112 443.334 196.25C437.519 179.245 421.216 167 402.013 167C383.591 167 367.837 178.27 361.453 194.2C357.924 192.834 354.079 192.083 350.055 192.083C332.903 192.083 318.999 205.72 318.999 222.542C318.999 238.575 331.631 251.715 347.666 252.911V253H350.055Z"/>
</mask>
<path fill-rule="evenodd" clip-rule="evenodd" d="M350.055 253H402.013H461.735H462.332V252.99C471.621 252.675 479.055 245.046 479.055 235.681C479.055 227.841 473.846 221.217 466.7 219.083C467.73 216.867 468.305 214.396 468.305 211.792C468.305 202.226 460.551 194.472 450.985 194.472C448.238 194.472 445.641 195.112 443.334 196.25C437.519 179.245 421.216 167 402.013 167C383.591 167 367.837 178.27 361.453 194.2C357.924 192.834 354.079 192.083 350.055 192.083C332.903 192.083 318.999 205.72 318.999 222.542C318.999 238.575 331.631 251.715 347.666 252.911V253H350.055Z" fill="#F8F8FA"/>
<path d="M462.332 253H465.332V256H462.332V253ZM462.332 252.99H459.332V250.09L462.231 249.992L462.332 252.99ZM466.7 219.083L465.841 221.958L462.517 220.965L463.979 217.819L466.7 219.083ZM443.334 196.25L444.661 198.94L441.599 200.45L440.495 197.22L443.334 196.25ZM361.453 194.2L364.238 195.316L363.135 198.068L360.37 196.998L361.453 194.2ZM347.666 252.911L347.889 249.92L350.666 250.127V252.911H347.666ZM347.666 253V256H344.666V253H347.666ZM350.055 250H402.013V256H350.055V250ZM402.013 250H461.735V256H402.013V250ZM461.735 250H462.332V256H461.735V250ZM459.332 253V252.99H465.332V253H459.332ZM462.231 249.992C469.909 249.731 476.055 243.423 476.055 235.681H482.055C482.055 246.669 473.334 255.619 462.434 255.988L462.231 249.992ZM476.055 235.681C476.055 229.203 471.751 223.723 465.841 221.958L467.558 216.209C475.94 218.712 482.055 226.478 482.055 235.681H476.055ZM463.979 217.819C464.829 215.99 465.305 213.951 465.305 211.792H471.305C471.305 214.842 470.63 217.743 469.42 220.348L463.979 217.819ZM465.305 211.792C465.305 203.883 458.894 197.472 450.985 197.472V191.472C462.207 191.472 471.305 200.57 471.305 211.792H465.305ZM450.985 197.472C448.709 197.472 446.565 198.001 444.661 198.94L442.007 193.559C444.718 192.222 447.768 191.472 450.985 191.472V197.472ZM440.495 197.22C435.09 181.413 419.916 170 402.013 170V164C422.515 164 439.948 177.076 446.172 195.279L440.495 197.22ZM402.013 170C384.839 170 370.174 180.503 364.238 195.316L358.668 193.084C365.501 176.036 382.343 164 402.013 164V170ZM360.37 196.998C357.182 195.764 353.703 195.083 350.055 195.083V189.083C354.454 189.083 358.666 189.904 362.536 191.403L360.37 196.998ZM350.055 195.083C334.505 195.083 321.999 207.432 321.999 222.542H315.999C315.999 204.008 331.302 189.083 350.055 189.083V195.083ZM321.999 222.542C321.999 236.944 333.358 248.835 347.889 249.92L347.443 255.903C329.903 254.594 315.999 240.206 315.999 222.542H321.999ZM350.666 252.911V253H344.666V252.911H350.666ZM347.666 250H350.055V256H347.666V250Z" fill="#ACABC0" mask="url(#path-26-inside-1_251_2283)"/>
<path d="M383.993 220.493L377.84 212.857C374.838 209.131 369.162 209.131 366.16 212.857L360.007 220.493C359.506 221.114 358.85 221.591 358.105 221.875L348.941 225.367C344.47 227.071 342.716 232.469 345.332 236.475L350.693 244.687C351.129 245.355 351.379 246.126 351.419 246.923L351.909 256.718C352.148 261.496 356.739 264.832 361.358 263.583L370.825 261.022C371.594 260.814 372.406 260.814 373.175 261.022L382.642 263.583C387.261 264.832 391.852 261.496 392.091 256.718L392.581 246.923C392.621 246.126 392.871 245.355 393.307 244.687L398.668 236.475C401.284 232.469 399.53 227.071 395.059 225.367L385.895 221.875C385.15 221.591 384.494 221.114 383.993 220.493Z" fill="#FFEBB7" stroke="#CCB26C" stroke-width="3"/>
</g>
</g>
<defs>
<linearGradient id="paint0_linear_251_2283" x1="391.941" y1="281.5" x2="733.064" y2="316.226" gradientUnits="userSpaceOnUse">
<stop stop-color="#F289A1"/>
<stop offset="0.239583" stop-color="#FFB682"/>
<stop offset="0.489583" stop-color="#FFE59F"/>
<stop offset="0.734375" stop-color="#B1E8FF"/>
<stop offset="0.973958" stop-color="#AEA7FF"/>
</linearGradient>
<clipPath id="clip0_251_2283">
<rect width="1029.5" height="576" fill="white"/>
</clipPath>
</defs>
</svg>
