<svg width="1033" height="632" viewBox="0 0 1033 632" fill="none" xmlns="http://www.w3.org/2000/svg">
<mask id="mask0_280_2268" style="mask-type:alpha" maskUnits="userSpaceOnUse" x="0" y="0" width="1032" height="632">
<path d="M31.6133 17.243C32.1102 7.57999 40.09 0 49.7658 0H1013.36C1023.77 0 1032.05 8.71841 1031.52 19.1099L1000.89 614.757C1000.39 624.42 992.41 632 982.734 632H19.1352C8.72991 632 0.448336 623.282 0.982711 612.89L31.6133 17.243Z" fill="#FF0000"/>
</mask>
<g mask="url(#mask0_280_2268)">
<mask id="mask1_280_2268" style="mask-type:alpha" maskUnits="userSpaceOnUse" x="299" y="229" width="449" height="195">
<mask id="path-2-inside-1_280_2268" fill="white">
<path fill-rule="evenodd" clip-rule="evenodd" d="M748 229H299V388C299 407.882 399.512 424 523.5 424C647.488 424 748 407.882 748 388V229Z"/>
</mask>
<path fill-rule="evenodd" clip-rule="evenodd" d="M748 229H299V388C299 407.882 399.512 424 523.5 424C647.488 424 748 407.882 748 388V229Z" fill="#927A63"/>
<path d="M299 229V226H296V229H299ZM748 229H751V226H748V229ZM299 232H748V226H299V232ZM302 388V229H296V388H302ZM523.5 421C461.614 421 405.656 416.976 365.23 410.494C344.993 407.249 328.786 403.408 317.706 399.208C312.15 397.101 308.059 394.969 305.411 392.894C302.712 390.779 302 389.125 302 388H296C296 391.845 298.429 395.045 301.711 397.617C305.044 400.229 309.775 402.618 315.579 404.818C327.219 409.231 343.89 413.148 364.28 416.418C405.106 422.965 461.398 427 523.5 427V421ZM745 388C745 389.125 744.288 390.779 741.589 392.894C738.941 394.969 734.85 397.101 729.294 399.208C718.214 403.408 702.007 407.249 681.77 410.494C641.344 416.976 585.386 421 523.5 421V427C585.602 427 641.894 422.965 682.72 416.418C703.11 413.148 719.781 409.231 731.421 404.818C737.225 402.618 741.956 400.229 745.289 397.617C748.571 395.045 751 391.845 751 388H745ZM745 229V388H751V229H745Z" fill="#4D341D" mask="url(#path-2-inside-1_280_2268)"/>
</mask>
<g mask="url(#mask1_280_2268)">
<rect x="254.1" y="207" width="512.051" height="252" fill="#9E7955"/>
<path fill-rule="evenodd" clip-rule="evenodd" d="M318.105 184V450H321.105V184H318.105ZM392.62 450V184H395.62V450H392.62ZM467.135 184V450H470.135V184H467.135ZM504.393 184V450H507.393V184H504.393ZM541.65 450V184H544.65V450H541.65ZM578.908 184V450H581.908V184H578.908ZM616.165 450V184H619.165V450H616.165ZM653.422 184V450H656.422V184H653.422ZM690.68 450V184H693.68V450H690.68ZM727.937 184V450H730.937V184H727.937ZM355.363 450V184H358.363V450H355.363ZM429.878 184V450H432.878V184H429.878Z" fill="#7E6144"/>
<path fill-rule="evenodd" clip-rule="evenodd" d="M365.546 359.519C405.839 365.98 461.687 370 523.5 370C585.313 370 641.161 365.98 681.454 359.519C701.64 356.282 717.692 352.467 728.585 348.338C734.059 346.262 737.936 344.215 740.355 342.32C742.86 340.357 746.523 339.218 746.523 339H753C753 343.752 749.999 347.467 746.523 350.191C742.961 352.982 738.017 355.456 732.13 357.688C720.303 362.172 703.478 366.115 683.037 369.393C642.077 375.961 585.674 380 523.5 380C461.326 380 404.923 375.961 363.963 369.393C343.522 366.115 326.697 362.172 314.87 357.688C308.983 355.456 304.039 352.982 300.477 350.191C297.001 347.467 294 343.752 294 339L300.477 337C300.477 337.218 304.14 340.357 306.645 342.32C309.064 344.215 312.941 346.262 318.415 348.338C329.308 352.467 345.36 356.282 365.546 359.519Z" fill="#BDBCCD" stroke="#676773" stroke-width="3"/>
<path fill-rule="evenodd" clip-rule="evenodd" d="M365.546 295.519C405.839 301.98 461.687 306 523.5 306C585.313 306 641.161 301.98 681.454 295.519C701.64 292.282 717.692 288.467 728.585 284.338C734.059 282.262 737.936 280.215 740.355 278.32C742.86 276.357 746.523 275.218 746.523 275H753C753 279.752 749.999 283.467 746.523 286.191C742.961 288.982 738.017 291.456 732.13 293.688C720.303 298.172 703.478 302.115 683.037 305.393C642.077 311.961 585.674 316 523.5 316C461.326 316 404.923 311.961 363.963 305.393C343.522 302.115 326.697 298.172 314.87 293.688C308.983 291.456 304.039 288.982 300.477 286.191C297.001 283.467 294 279.752 294 275L300.477 273C300.477 273.218 304.14 276.357 306.645 278.32C309.064 280.215 312.941 282.262 318.415 284.338C329.308 288.467 345.36 292.282 365.546 295.519Z" fill="#BDBCCD" stroke="#676773" stroke-width="3"/>
</g>
<mask id="path-8-inside-2_280_2268" fill="white">
<path fill-rule="evenodd" clip-rule="evenodd" d="M748 229H299V388C299 407.882 399.512 424 523.5 424C647.488 424 748 407.882 748 388V229Z"/>
</mask>
<path d="M299 229V226H296V229H299ZM748 229H751V226H748V229ZM299 232H748V226H299V232ZM302 388V229H296V388H302ZM523.5 421C461.614 421 405.656 416.976 365.23 410.494C344.993 407.249 328.786 403.408 317.706 399.208C312.15 397.101 308.059 394.969 305.411 392.894C302.712 390.779 302 389.125 302 388H296C296 391.845 298.429 395.045 301.711 397.617C305.044 400.229 309.775 402.618 315.579 404.818C327.219 409.231 343.89 413.148 364.28 416.418C405.106 422.965 461.398 427 523.5 427V421ZM745 388C745 389.125 744.288 390.779 741.589 392.894C738.941 394.969 734.85 397.101 729.294 399.208C718.214 403.408 702.007 407.249 681.77 410.494C641.344 416.976 585.386 421 523.5 421V427C585.602 427 641.894 422.965 682.72 416.418C703.11 413.148 719.781 409.231 731.421 404.818C737.225 402.618 741.956 400.229 745.289 397.617C748.571 395.045 751 391.845 751 388H745ZM745 229V388H751V229H745Z" fill="#5F4933" mask="url(#path-8-inside-2_280_2268)"/>
<path d="M746.5 229C746.5 230.805 745.359 232.845 742.514 235.075C739.695 237.284 735.444 239.48 729.826 241.61C718.606 245.864 702.283 249.724 682.008 252.975C641.482 259.473 585.44 263.5 523.5 263.5C461.56 263.5 405.518 259.473 364.992 252.975C344.717 249.724 328.394 245.864 317.174 241.61C311.556 239.48 307.305 237.284 304.486 235.075C301.641 232.845 300.5 230.805 300.5 229C300.5 227.195 301.641 225.155 304.486 222.925C307.305 220.716 311.556 218.52 317.174 216.39C328.394 212.136 344.717 208.276 364.992 205.025C405.518 198.527 461.56 194.5 523.5 194.5C585.44 194.5 641.482 198.527 682.008 205.025C702.283 208.276 718.606 212.136 729.826 216.39C735.444 218.52 739.695 220.716 742.514 222.925C745.359 225.155 746.5 227.195 746.5 229Z" fill="#B19477" stroke="#5F4933" stroke-width="3"/>
<mask id="mask2_280_2268" style="mask-type:alpha" maskUnits="userSpaceOnUse" x="311" y="202" width="423" height="53">
<path d="M732.171 228.5C732.171 229.479 731.346 230.876 728.597 232.562C725.95 234.186 721.948 235.806 716.653 237.377C706.086 240.513 690.721 243.356 671.647 245.75C633.52 250.536 580.804 253.5 522.545 253.5C464.287 253.5 411.571 250.536 373.444 245.75C354.37 243.356 339.005 240.513 328.438 237.377C323.143 235.806 319.141 234.186 316.494 232.562C313.745 230.876 312.92 229.479 312.92 228.5C312.92 227.521 313.745 226.124 316.494 224.438C319.141 222.814 323.143 221.194 328.438 219.623C339.005 216.487 354.37 213.644 373.444 211.25C411.571 206.464 464.287 203.5 522.545 203.5C580.804 203.5 633.52 206.464 671.647 211.25C690.721 213.644 706.086 216.487 716.653 219.623C721.948 221.194 725.95 222.814 728.597 224.438C731.346 226.124 732.171 227.521 732.171 228.5Z" fill="#D9D9D9" stroke="black" stroke-width="3"/>
</mask>
<g mask="url(#mask2_280_2268)">
<rect x="293.883" y="170.447" width="451.594" height="127.2" fill="#7E6144"/>
<path d="M720.708 254.344C720.708 255.906 719.72 257.708 717.168 259.708C714.642 261.688 710.823 263.663 705.76 265.583C695.652 269.415 680.938 272.895 662.651 275.827C626.101 281.688 575.552 285.32 519.68 285.32C463.808 285.32 413.259 281.688 376.709 275.827C358.422 272.895 343.708 269.415 333.6 265.583C328.537 263.663 324.718 261.688 322.192 259.708C319.64 257.708 318.652 255.906 318.652 254.344C318.652 252.782 319.64 250.979 322.192 248.979C324.718 247 328.537 245.024 333.6 243.105C343.708 239.273 358.422 235.793 376.709 232.86C413.259 226.999 463.808 223.367 519.68 223.367C575.552 223.367 626.101 226.999 662.651 232.86C680.938 235.793 695.652 239.273 705.76 243.105C710.823 245.024 714.642 247 717.168 248.979C719.72 250.979 720.708 252.782 720.708 254.344Z" fill="#D8F3FF" stroke="#7EB5CC" stroke-width="3"/>
<circle cx="657" cy="230" r="6.5" fill="#D8F3FF" stroke="#7EB5CC" stroke-width="3"/>
<circle cx="681" cy="240" r="9.5" fill="#D8F3FF" stroke="#7EB5CC" stroke-width="3"/>
<circle cx="616" cy="248" r="5.5" fill="#D8F3FF" stroke="#7EB5CC" stroke-width="3"/>
<circle cx="348" cy="238" r="5.5" fill="#D8F3FF" stroke="#7EB5CC" stroke-width="3"/>
<circle cx="366" cy="244" r="7.5" fill="#D8F3FF" stroke="#7EB5CC" stroke-width="3"/>
<circle cx="389.5" cy="230.5" r="3" fill="#D8F3FF" stroke="#7EB5CC" stroke-width="3"/>
<circle cx="407.5" cy="244.5" r="3" fill="#D8F3FF" stroke="#7EB5CC" stroke-width="3"/>
<circle cx="420" cy="239" r="4.5" fill="#D8F3FF" stroke="#7EB5CC" stroke-width="3"/>
<circle cx="477" cy="250" r="3.5" fill="#D8F3FF" stroke="#7EB5CC" stroke-width="3"/>
</g>
<path d="M732.171 228.5C732.171 229.479 731.346 230.876 728.597 232.562C725.95 234.186 721.948 235.806 716.653 237.377C706.086 240.513 690.721 243.356 671.647 245.75C633.52 250.536 580.804 253.5 522.545 253.5C464.287 253.5 411.571 250.536 373.444 245.75C354.37 243.356 339.005 240.513 328.438 237.377C323.143 235.806 319.141 234.186 316.494 232.562C313.745 230.876 312.92 229.479 312.92 228.5C312.92 227.521 313.745 226.124 316.494 224.438C319.141 222.814 323.143 221.194 328.438 219.623C339.005 216.487 354.37 213.644 373.444 211.25C411.571 206.464 464.287 203.5 522.545 203.5C580.804 203.5 633.52 206.464 671.647 211.25C690.721 213.644 706.086 216.487 716.653 219.623C721.948 221.194 725.95 222.814 728.597 224.438C731.346 226.124 732.171 227.521 732.171 228.5Z" stroke="#5F4933" stroke-width="3"/>
<path d="M318.542 210C303.331 210 291 222.331 291 237.542V391C291 392.657 287.418 394 283 394C278.582 394 275 392.657 275 391V237.542C275 213.494 294.494 194 318.542 194H320.597C338.614 194 354.496 205.823 359.664 223.083V223.225C359.665 224.792 356.292 226.803 352.296 227.892C348.033 229.054 344.296 227.841 343.861 226.242C340.303 216.537 331.04 210 320.597 210H318.542Z" fill="#BDBCCD"/>
<path d="M359.664 223.083V223.225L343.861 226.242C340.303 216.537 331.04 210 320.597 210H318.542C303.331 210 291 222.331 291 237.542V391C291 392.657 287.418 394 283 394C278.582 394 275 392.657 275 391V237.542C275 213.494 294.494 194 318.542 194H320.597C338.614 194 354.496 205.823 359.664 223.083ZM320.597 195.5C337.849 195.5 353.069 206.755 358.138 223.221C358.109 223.271 358.054 223.353 357.954 223.466C357.704 223.746 357.287 224.091 356.687 224.464C355.494 225.206 353.793 225.93 351.902 226.445C349.995 226.965 348.249 226.939 346.987 226.642C346.353 226.493 345.89 226.287 345.598 226.092C345.376 225.943 345.313 225.844 345.302 225.827L345.291 225.786L345.269 225.726C341.495 215.432 331.672 208.5 320.597 208.5H318.542C302.502 208.5 289.5 221.502 289.5 237.542V390.918C289.48 390.944 289.442 390.987 289.376 391.045C289.158 391.239 288.756 391.482 288.13 391.717C286.89 392.182 285.077 392.5 283 392.5C280.923 392.5 279.11 392.182 277.87 391.717C277.244 391.482 276.842 391.239 276.624 391.045C276.558 390.987 276.52 390.944 276.5 390.918V237.542C276.5 214.323 295.323 195.5 318.542 195.5H320.597ZM289.521 390.885C289.521 390.885 289.52 390.888 289.517 390.893C289.519 390.888 289.521 390.885 289.521 390.885ZM276.479 390.885C276.479 390.885 276.481 390.888 276.483 390.893C276.48 390.888 276.479 390.885 276.479 390.885Z" fill="#BDBCCD" stroke="#676773" stroke-width="3"/>
</g>
</svg>
