<svg width="1033" height="632" viewBox="0 0 1033 632" fill="none" xmlns="http://www.w3.org/2000/svg">
<mask id="mask0_280_2268" style="mask-type:alpha" maskUnits="userSpaceOnUse" x="0" y="0" width="1032" height="632">
<path d="M31.6133 17.243C32.1102 7.57999 40.09 0 49.7658 0H1013.36C1023.77 0 1032.05 8.71841 1031.52 19.1099L1000.89 614.757C1000.39 624.42 992.41 632 982.734 632H19.1352C8.72991 632 0.448336 623.282 0.982711 612.89L31.6133 17.243Z" fill="#FF0000"/>
</mask>
<g mask="url(#mask0_280_2268)">
<path d="M294.5 254C294.5 244.682 299.055 235.953 306.698 230.623L324.125 218.47C328.907 215.135 334.597 213.347 340.428 213.347H694.819C701.382 213.347 707.744 215.611 712.83 219.759L726.01 230.506C732.648 235.918 736.5 244.029 736.5 252.594V367.847C736.5 383.587 723.74 396.347 708 396.347H323C307.26 396.347 294.5 383.587 294.5 367.847V254Z" fill="#CAE68D" stroke="#85AB34" stroke-width="3"/>
<mask id="path-3-inside-1_280_2268" fill="white">
<path fill-rule="evenodd" clip-rule="evenodd" d="M293.078 360.026C293.026 359.306 293 358.579 293 357.847V305.711C297.445 303.249 302.559 301.847 308 301.847C313.877 301.847 319.372 303.482 324.055 306.323C329.853 309.84 339.074 309.84 344.872 306.323C349.555 303.482 355.05 301.847 360.927 301.847C366.804 301.847 372.299 303.482 376.982 306.323C382.78 309.84 392.001 309.84 397.799 306.323C402.482 303.482 407.977 301.847 413.854 301.847C419.731 301.847 425.226 303.482 429.909 306.323C435.707 309.84 444.928 309.84 450.725 306.323C455.408 303.482 460.903 301.847 466.78 301.847C472.657 301.847 478.152 303.482 482.835 306.323C488.633 309.84 497.855 309.84 503.652 306.323C508.335 303.482 513.83 301.847 519.707 301.847C525.584 301.847 531.079 303.482 535.762 306.323C541.56 309.84 550.782 309.84 556.579 306.323C561.262 303.482 566.757 301.847 572.634 301.847C578.511 301.847 584.006 303.482 588.689 306.323C594.487 309.84 603.709 309.84 609.506 306.323C614.189 303.482 619.684 301.847 625.561 301.847C631.438 301.847 636.933 303.482 641.616 306.323C647.414 309.84 656.635 309.84 662.433 306.323C667.115 303.482 672.611 301.847 678.488 301.847C684.365 301.847 689.86 303.482 694.543 306.323C700.34 309.84 709.562 309.84 715.36 306.323C720.043 303.482 725.538 301.847 731.415 301.847C733.674 301.847 735.878 302.088 738 302.548V357.847C738 359.69 737.834 361.495 737.515 363.247C735.543 363.64 733.503 363.847 731.415 363.847C725.538 363.847 720.043 362.211 715.36 359.371C709.562 355.854 700.34 355.854 694.543 359.371C689.86 362.211 684.365 363.847 678.488 363.847C672.611 363.847 667.115 362.211 662.433 359.371C656.635 355.854 647.414 355.854 641.616 359.371C636.933 362.211 631.438 363.847 625.561 363.847C619.684 363.847 614.189 362.211 609.506 359.371C603.709 355.854 594.487 355.854 588.689 359.371C584.006 362.211 578.511 363.847 572.634 363.847C566.757 363.847 561.262 362.211 556.579 359.371C550.782 355.854 541.56 355.854 535.762 359.371C531.079 362.211 525.584 363.847 519.707 363.847C513.83 363.847 508.335 362.211 503.652 359.371C497.855 355.854 488.633 355.854 482.835 359.371C478.152 362.211 472.657 363.847 466.78 363.847C460.903 363.847 455.408 362.211 450.725 359.371C444.928 355.854 435.707 355.854 429.909 359.371C425.226 362.211 419.731 363.847 413.854 363.847C407.977 363.847 402.482 362.211 397.799 359.371C392.001 355.854 382.78 355.854 376.982 359.371C372.299 362.211 366.804 363.847 360.927 363.847C355.05 363.847 349.555 362.211 344.872 359.371C339.074 355.854 329.853 355.854 324.055 359.371C319.372 362.211 313.877 363.847 308 363.847C302.591 363.847 297.505 362.461 293.078 360.026Z"/>
</mask>
<path fill-rule="evenodd" clip-rule="evenodd" d="M293.078 360.026C293.026 359.306 293 358.579 293 357.847V305.711C297.445 303.249 302.559 301.847 308 301.847C313.877 301.847 319.372 303.482 324.055 306.323C329.853 309.84 339.074 309.84 344.872 306.323C349.555 303.482 355.05 301.847 360.927 301.847C366.804 301.847 372.299 303.482 376.982 306.323C382.78 309.84 392.001 309.84 397.799 306.323C402.482 303.482 407.977 301.847 413.854 301.847C419.731 301.847 425.226 303.482 429.909 306.323C435.707 309.84 444.928 309.84 450.725 306.323C455.408 303.482 460.903 301.847 466.78 301.847C472.657 301.847 478.152 303.482 482.835 306.323C488.633 309.84 497.855 309.84 503.652 306.323C508.335 303.482 513.83 301.847 519.707 301.847C525.584 301.847 531.079 303.482 535.762 306.323C541.56 309.84 550.782 309.84 556.579 306.323C561.262 303.482 566.757 301.847 572.634 301.847C578.511 301.847 584.006 303.482 588.689 306.323C594.487 309.84 603.709 309.84 609.506 306.323C614.189 303.482 619.684 301.847 625.561 301.847C631.438 301.847 636.933 303.482 641.616 306.323C647.414 309.84 656.635 309.84 662.433 306.323C667.115 303.482 672.611 301.847 678.488 301.847C684.365 301.847 689.86 303.482 694.543 306.323C700.34 309.84 709.562 309.84 715.36 306.323C720.043 303.482 725.538 301.847 731.415 301.847C733.674 301.847 735.878 302.088 738 302.548V357.847C738 359.69 737.834 361.495 737.515 363.247C735.543 363.64 733.503 363.847 731.415 363.847C725.538 363.847 720.043 362.211 715.36 359.371C709.562 355.854 700.34 355.854 694.543 359.371C689.86 362.211 684.365 363.847 678.488 363.847C672.611 363.847 667.115 362.211 662.433 359.371C656.635 355.854 647.414 355.854 641.616 359.371C636.933 362.211 631.438 363.847 625.561 363.847C619.684 363.847 614.189 362.211 609.506 359.371C603.709 355.854 594.487 355.854 588.689 359.371C584.006 362.211 578.511 363.847 572.634 363.847C566.757 363.847 561.262 362.211 556.579 359.371C550.782 355.854 541.56 355.854 535.762 359.371C531.079 362.211 525.584 363.847 519.707 363.847C513.83 363.847 508.335 362.211 503.652 359.371C497.855 355.854 488.633 355.854 482.835 359.371C478.152 362.211 472.657 363.847 466.78 363.847C460.903 363.847 455.408 362.211 450.725 359.371C444.928 355.854 435.707 355.854 429.909 359.371C425.226 362.211 419.731 363.847 413.854 363.847C407.977 363.847 402.482 362.211 397.799 359.371C392.001 355.854 382.78 355.854 376.982 359.371C372.299 362.211 366.804 363.847 360.927 363.847C355.05 363.847 349.555 362.211 344.872 359.371C339.074 355.854 329.853 355.854 324.055 359.371C319.372 362.211 313.877 363.847 308 363.847C302.591 363.847 297.505 362.461 293.078 360.026Z" fill="#F8F8FA"/>
<path d="M293.078 360.026L290.086 360.24L290.202 361.868L291.632 362.654L293.078 360.026ZM293 305.711L291.546 303.087L290 303.943V305.711H293ZM324.055 306.323L322.499 308.888L324.055 306.323ZM344.872 306.323L343.316 303.758V303.758L344.872 306.323ZM376.982 306.323L378.538 303.758L378.538 303.758L376.982 306.323ZM397.799 306.323L399.355 308.888L399.355 308.888L397.799 306.323ZM429.909 306.323L431.465 303.758V303.758L429.909 306.323ZM450.725 306.323L449.169 303.758V303.758L450.725 306.323ZM482.835 306.323L481.279 308.888V308.888L482.835 306.323ZM503.652 306.323L502.096 303.758V303.758L503.652 306.323ZM535.762 306.323L537.318 303.758V303.758L535.762 306.323ZM556.579 306.323L558.135 308.888V308.888L556.579 306.323ZM588.689 306.323L590.245 303.758V303.758L588.689 306.323ZM609.506 306.323L607.95 303.758V303.758L609.506 306.323ZM641.616 306.323L643.172 303.758V303.758L641.616 306.323ZM662.433 306.323L660.877 303.758V303.758L662.433 306.323ZM694.543 306.323L696.098 303.758V303.758L694.543 306.323ZM715.36 306.323L713.804 303.758V303.758L715.36 306.323ZM738 302.548H741V300.127L738.634 299.615L738 302.548ZM737.515 363.247L738.102 366.189L740.102 365.789L740.467 363.783L737.515 363.247ZM715.36 359.371L713.804 361.936L715.36 359.371ZM694.543 359.371L696.098 361.936L694.543 359.371ZM662.433 359.371L660.877 361.936V361.936L662.433 359.371ZM641.616 359.371L643.172 361.936V361.936L641.616 359.371ZM609.506 359.371L607.95 361.936L609.506 359.371ZM588.689 359.371L590.245 361.936L588.689 359.371ZM556.579 359.371L558.135 356.806V356.806L556.579 359.371ZM535.762 359.371L534.206 356.806L535.762 359.371ZM503.652 359.371L502.096 361.936L503.652 359.371ZM482.835 359.371L484.391 361.936L482.835 359.371ZM450.725 359.371L449.169 361.936L449.169 361.936L450.725 359.371ZM429.909 359.371L431.465 361.936L431.465 361.936L429.909 359.371ZM397.799 359.371L396.243 361.936H396.243L397.799 359.371ZM376.982 359.371L375.426 356.806L376.982 359.371ZM344.872 359.371L346.428 356.806L344.872 359.371ZM324.055 359.371L325.611 361.936L324.055 359.371ZM296.07 359.811C296.024 359.163 296 358.508 296 357.847H290C290 358.651 290.029 359.449 290.086 360.24L296.07 359.811ZM296 357.847V305.711H290V357.847H296ZM308 298.847C302.037 298.847 296.425 300.384 291.546 303.087L294.454 308.335C298.465 306.113 303.08 304.847 308 304.847V298.847ZM325.611 303.758C320.472 300.641 314.441 298.847 308 298.847V304.847C313.313 304.847 318.272 306.324 322.499 308.888L325.611 303.758ZM343.316 303.758C340.985 305.172 337.797 305.96 334.463 305.96C331.13 305.96 327.942 305.172 325.611 303.758L322.499 308.888C325.965 310.99 330.288 311.96 334.463 311.96C338.639 311.96 342.962 310.99 346.428 308.888L343.316 303.758ZM360.927 298.847C354.486 298.847 348.455 300.641 343.316 303.758L346.428 308.888C350.655 306.324 355.614 304.847 360.927 304.847V298.847ZM378.538 303.758C373.399 300.641 367.368 298.847 360.927 298.847V304.847C366.24 304.847 371.199 306.324 375.426 308.888L378.538 303.758ZM396.243 303.758C393.912 305.172 390.724 305.96 387.39 305.96C384.057 305.96 380.869 305.172 378.538 303.758L375.426 308.888C378.892 310.99 383.215 311.96 387.39 311.96C391.566 311.96 395.889 310.99 399.355 308.888L396.243 303.758ZM413.854 298.847C407.413 298.847 401.382 300.641 396.243 303.758L399.355 308.888C403.582 306.324 408.541 304.847 413.854 304.847V298.847ZM431.465 303.758C426.326 300.641 420.295 298.847 413.854 298.847V304.847C419.167 304.847 424.126 306.324 428.353 308.888L431.465 303.758ZM449.169 303.758C446.838 305.172 443.651 305.96 440.317 305.96C436.983 305.96 433.796 305.172 431.465 303.758L428.353 308.888C431.819 310.99 436.142 311.96 440.317 311.96C444.493 311.96 448.815 310.99 452.281 308.888L449.169 303.758ZM466.78 298.847C460.339 298.847 454.308 300.641 449.169 303.758L452.281 308.888C456.508 306.324 461.467 304.847 466.78 304.847V298.847ZM484.391 303.758C479.253 300.641 473.221 298.847 466.78 298.847V304.847C472.093 304.847 477.052 306.324 481.279 308.888L484.391 303.758ZM502.096 303.758C499.765 305.172 496.578 305.96 493.244 305.96C489.91 305.96 486.723 305.172 484.391 303.758L481.279 308.888C484.746 310.99 489.068 311.96 493.244 311.96C497.42 311.96 501.742 310.99 505.208 308.888L502.096 303.758ZM519.707 298.847C513.266 298.847 507.235 300.641 502.096 303.758L505.208 308.888C509.435 306.324 514.394 304.847 519.707 304.847V298.847ZM537.318 303.758C532.179 300.641 526.148 298.847 519.707 298.847V304.847C525.02 304.847 529.979 306.324 534.206 308.888L537.318 303.758ZM555.023 303.758C552.692 305.172 549.505 305.96 546.171 305.96C542.837 305.96 539.65 305.172 537.318 303.758L534.206 308.888C537.673 310.99 541.995 311.96 546.171 311.96C550.347 311.96 554.669 310.99 558.135 308.888L555.023 303.758ZM572.634 298.847C566.193 298.847 560.162 300.641 555.023 303.758L558.135 308.888C562.362 306.324 567.321 304.847 572.634 304.847V298.847ZM590.245 303.758C585.106 300.641 579.075 298.847 572.634 298.847V304.847C577.947 304.847 582.906 306.324 587.133 308.888L590.245 303.758ZM607.95 303.758C605.619 305.172 602.432 305.96 599.098 305.96C595.764 305.96 592.577 305.172 590.245 303.758L587.133 308.888C590.6 310.99 594.922 311.96 599.098 311.96C603.273 311.96 607.596 310.99 611.062 308.888L607.95 303.758ZM625.561 298.847C619.12 298.847 613.089 300.641 607.95 303.758L611.062 308.888C615.289 306.324 620.248 304.847 625.561 304.847V298.847ZM643.172 303.758C638.033 300.641 632.002 298.847 625.561 298.847V304.847C630.874 304.847 635.833 306.324 640.06 308.888L643.172 303.758ZM660.877 303.758C658.545 305.172 655.358 305.96 652.024 305.96C648.691 305.96 645.503 305.172 643.172 303.758L640.06 308.888C643.527 310.99 647.849 311.96 652.024 311.96C656.2 311.96 660.522 310.99 663.989 308.888L660.877 303.758ZM678.488 298.847C672.047 298.847 666.015 300.641 660.877 303.758L663.989 308.888C668.216 306.324 673.175 304.847 678.488 304.847V298.847ZM696.098 303.758C690.96 300.641 684.929 298.847 678.488 298.847V304.847C683.801 304.847 688.76 306.324 692.987 308.888L696.098 303.758ZM713.804 303.758C711.472 305.172 708.285 305.96 704.951 305.96C701.617 305.96 698.43 305.172 696.098 303.758L692.987 308.888C696.453 310.99 700.775 311.96 704.951 311.96C709.127 311.96 713.449 310.99 716.916 308.888L713.804 303.758ZM731.415 298.847C724.974 298.847 718.942 300.641 713.804 303.758L716.916 308.888C721.143 306.324 726.102 304.847 731.415 304.847V298.847ZM738.634 299.615C736.305 299.111 733.889 298.847 731.415 298.847V304.847C733.46 304.847 735.45 305.065 737.366 305.48L738.634 299.615ZM735 302.548V357.847H741V302.548H735ZM735 357.847C735 359.509 734.85 361.135 734.564 362.71L740.467 363.783C740.817 361.855 741 359.871 741 357.847H735ZM731.415 366.847C733.701 366.847 735.938 366.621 738.102 366.189L736.928 360.305C735.148 360.66 733.305 360.847 731.415 360.847V366.847ZM713.804 361.936C718.942 365.053 724.974 366.847 731.415 366.847V360.847C726.102 360.847 721.143 359.37 716.916 356.806L713.804 361.936ZM696.098 361.936C698.43 360.521 701.617 359.733 704.951 359.733C708.285 359.733 711.472 360.521 713.804 361.936L716.916 356.806C713.449 354.703 709.127 353.733 704.951 353.733C700.775 353.733 696.453 354.703 692.987 356.806L696.098 361.936ZM678.488 366.847C684.929 366.847 690.96 365.053 696.098 361.936L692.987 356.806C688.76 359.37 683.801 360.847 678.488 360.847V366.847ZM660.877 361.936C666.015 365.053 672.047 366.847 678.488 366.847V360.847C673.175 360.847 668.216 359.37 663.989 356.806L660.877 361.936ZM643.172 361.936C645.503 360.521 648.691 359.733 652.024 359.733C655.358 359.733 658.545 360.521 660.877 361.936L663.989 356.806C660.522 354.703 656.2 353.733 652.024 353.733C647.849 353.733 643.527 354.703 640.06 356.806L643.172 361.936ZM625.561 366.847C632.002 366.847 638.033 365.053 643.172 361.936L640.06 356.806C635.833 359.37 630.874 360.847 625.561 360.847V366.847ZM607.95 361.936C613.089 365.053 619.12 366.847 625.561 366.847V360.847C620.248 360.847 615.289 359.37 611.062 356.806L607.95 361.936ZM590.245 361.936C592.577 360.521 595.764 359.733 599.098 359.733C602.432 359.733 605.619 360.521 607.95 361.936L611.062 356.806C607.596 354.703 603.273 353.733 599.098 353.733C594.922 353.733 590.6 354.703 587.133 356.806L590.245 361.936ZM572.634 366.847C579.075 366.847 585.106 365.053 590.245 361.936L587.133 356.806C582.906 359.37 577.947 360.847 572.634 360.847V366.847ZM555.023 361.936C560.162 365.053 566.193 366.847 572.634 366.847V360.847C567.321 360.847 562.362 359.37 558.135 356.806L555.023 361.936ZM537.318 361.936C539.65 360.521 542.837 359.733 546.171 359.733C549.505 359.733 552.692 360.521 555.023 361.936L558.135 356.806C554.669 354.703 550.347 353.733 546.171 353.733C541.995 353.733 537.673 354.703 534.206 356.806L537.318 361.936ZM519.707 366.847C526.148 366.847 532.179 365.053 537.318 361.936L534.206 356.806C529.979 359.37 525.02 360.847 519.707 360.847V366.847ZM502.096 361.936C507.235 365.053 513.266 366.847 519.707 366.847V360.847C514.394 360.847 509.435 359.37 505.208 356.806L502.096 361.936ZM484.391 361.936C486.723 360.521 489.91 359.733 493.244 359.733C496.578 359.733 499.765 360.521 502.096 361.936L505.208 356.806C501.742 354.703 497.42 353.733 493.244 353.733C489.068 353.733 484.746 354.703 481.279 356.806L484.391 361.936ZM466.78 366.847C473.221 366.847 479.253 365.053 484.391 361.936L481.279 356.806C477.052 359.37 472.093 360.847 466.78 360.847V366.847ZM449.169 361.936C454.308 365.053 460.339 366.847 466.78 366.847V360.847C461.467 360.847 456.508 359.37 452.281 356.806L449.169 361.936ZM431.465 361.936C433.796 360.521 436.983 359.733 440.317 359.733C443.651 359.733 446.838 360.521 449.169 361.936L452.281 356.806C448.815 354.703 444.493 353.733 440.317 353.733C436.142 353.733 431.819 354.703 428.353 356.806L431.465 361.936ZM413.854 366.847C420.295 366.847 426.326 365.053 431.465 361.936L428.353 356.806C424.126 359.37 419.167 360.847 413.854 360.847V366.847ZM396.243 361.936C401.382 365.053 407.413 366.847 413.854 366.847V360.847C408.541 360.847 403.582 359.37 399.355 356.806L396.243 361.936ZM378.538 361.936C380.869 360.521 384.057 359.733 387.39 359.733C390.724 359.733 393.912 360.521 396.243 361.936L399.355 356.806C395.889 354.703 391.566 353.733 387.39 353.733C383.215 353.733 378.892 354.703 375.426 356.806L378.538 361.936ZM360.927 366.847C367.368 366.847 373.399 365.053 378.538 361.936L375.426 356.806C371.199 359.37 366.24 360.847 360.927 360.847V366.847ZM343.316 361.936C348.455 365.053 354.486 366.847 360.927 366.847V360.847C355.614 360.847 350.655 359.37 346.428 356.806L343.316 361.936ZM325.611 361.936C327.942 360.521 331.13 359.733 334.463 359.733C337.797 359.733 340.985 360.521 343.316 361.936L346.428 356.806C342.962 354.703 338.639 353.733 334.463 353.733C330.288 353.733 325.965 354.703 322.499 356.806L325.611 361.936ZM308 366.847C314.441 366.847 320.472 365.053 325.611 361.936L322.499 356.806C318.272 359.37 313.313 360.847 308 360.847V366.847ZM291.632 362.654C296.49 365.327 302.072 366.847 308 366.847V360.847C303.109 360.847 298.519 359.595 294.524 357.397L291.632 362.654Z" fill="#CDCDD9" mask="url(#path-3-inside-1_280_2268)"/>
<path d="M309 340.847V320.079C309 317.825 310.965 316.075 313.204 316.335L333.489 318.691C350.564 320.675 365.673 330.677 374.167 345.622C374.985 347.061 373.946 348.847 372.291 348.847H317C312.582 348.847 309 345.265 309 340.847Z" fill="url(#paint0_radial_280_2268)" stroke="#8F4053" stroke-width="3"/>
<path d="M464 340.847V320.079C464 317.825 462.035 316.075 459.796 316.335L439.511 318.691C422.436 320.675 407.327 330.677 398.833 345.622C398.015 347.061 399.054 348.847 400.709 348.847H456C460.418 348.847 464 345.265 464 340.847Z" fill="url(#paint1_radial_280_2268)" stroke="#8F4053" stroke-width="3"/>
<path d="M486 340.847V320.079C486 317.825 487.965 316.075 490.204 316.335L510.489 318.691C527.564 320.675 542.673 330.677 551.167 345.622C551.985 347.061 550.946 348.847 549.291 348.847H494C489.582 348.847 486 345.265 486 340.847Z" fill="url(#paint2_radial_280_2268)" stroke="#8F4053" stroke-width="3"/>
<path d="M635 340.847V320.079C635 317.825 633.035 316.075 630.796 316.335L610.511 318.691C593.436 320.675 578.327 330.677 569.833 345.622C569.015 347.061 570.054 348.847 571.709 348.847H627C631.418 348.847 635 345.265 635 340.847Z" fill="url(#paint3_radial_280_2268)" stroke="#8F4053" stroke-width="3"/>
<path d="M659 340.847V320.079C659 317.825 660.965 316.075 663.204 316.335L683.489 318.691C700.564 320.675 715.673 330.677 724.167 345.622C724.985 347.061 723.946 348.847 722.291 348.847H667C662.582 348.847 659 345.265 659 340.847Z" fill="url(#paint4_radial_280_2268)" stroke="#8F4053" stroke-width="3"/>
<path d="M306.698 230.623L324.125 218.47C328.907 215.135 334.597 213.347 340.428 213.347H694.819C701.382 213.347 707.744 215.611 712.83 219.759L726.01 230.506C732.648 235.918 736.5 244.029 736.5 252.594V267.347H294.5V254C294.5 244.682 299.055 235.953 306.698 230.623Z" fill="#F8F8FA" stroke="#CDCDD9" stroke-width="3"/>
<mask id="path-11-inside-2_280_2268" fill="white">
<path fill-rule="evenodd" clip-rule="evenodd" d="M364.5 224.509C361.159 227.809 356.567 229.847 351.5 229.847C349.834 229.847 348.219 229.626 346.684 229.214C343.957 236.031 337.291 240.847 329.5 240.847C328.993 240.847 328.491 240.826 327.995 240.786C327.992 240.916 327.988 241.045 327.982 241.174C331.655 241.873 334.944 243.659 337.5 246.184C340.841 242.884 345.433 240.847 350.5 240.847C355.567 240.847 360.159 242.884 363.5 246.184C366.841 242.884 371.433 240.847 376.5 240.847C381.567 240.847 386.159 242.884 389.5 246.184C392.841 242.884 397.433 240.847 402.5 240.847C407.567 240.847 412.159 242.884 415.5 246.184C418.841 242.884 423.433 240.847 428.5 240.847C433.567 240.847 438.159 242.884 441.5 246.184C444.841 242.884 449.433 240.847 454.5 240.847C459.567 240.847 464.159 242.884 467.5 246.184C470.841 242.884 475.433 240.847 480.5 240.847C485.567 240.847 490.159 242.884 493.5 246.184C496.841 242.884 501.433 240.847 506.5 240.847C511.567 240.847 516.159 242.884 519.5 246.184C522.841 242.884 527.433 240.847 532.5 240.847C537.567 240.847 542.159 242.884 545.5 246.184C548.841 242.884 553.433 240.847 558.5 240.847C563.567 240.847 568.159 242.884 571.5 246.184C574.841 242.884 579.433 240.847 584.5 240.847C589.567 240.847 594.159 242.884 597.5 246.184C600.841 242.884 605.433 240.847 610.5 240.847C615.567 240.847 620.159 242.884 623.5 246.184C626.841 242.884 631.433 240.847 636.5 240.847C641.567 240.847 646.159 242.884 649.5 246.184C652.841 242.884 657.433 240.847 662.5 240.847C667.567 240.847 672.159 242.884 675.5 246.184C678.841 242.884 683.433 240.847 688.5 240.847C693.567 240.847 698.159 242.884 701.5 246.184C703.824 243.889 706.752 242.205 710.024 241.392C710.054 240.804 710.111 240.224 710.195 239.652C709.315 239.78 708.415 239.847 707.5 239.847C700.322 239.847 694.099 235.759 691.032 229.784C690.527 229.826 690.016 229.847 689.5 229.847C684.433 229.847 679.841 227.809 676.5 224.509C673.159 227.809 668.567 229.847 663.5 229.847C658.433 229.847 653.841 227.809 650.5 224.509C647.159 227.809 642.567 229.847 637.5 229.847C632.433 229.847 627.841 227.809 624.5 224.509C621.159 227.809 616.567 229.847 611.5 229.847C606.433 229.847 601.841 227.809 598.5 224.509C595.159 227.809 590.567 229.847 585.5 229.847C580.433 229.847 575.841 227.809 572.5 224.509C569.159 227.809 564.567 229.847 559.5 229.847C554.433 229.847 549.841 227.809 546.5 224.509C543.159 227.809 538.567 229.847 533.5 229.847C528.433 229.847 523.841 227.809 520.5 224.509C517.159 227.809 512.567 229.847 507.5 229.847C502.433 229.847 497.841 227.809 494.5 224.509C491.159 227.809 486.567 229.847 481.5 229.847C476.433 229.847 471.841 227.809 468.5 224.509C465.159 227.809 460.567 229.847 455.5 229.847C450.433 229.847 445.841 227.809 442.5 224.509C439.159 227.809 434.567 229.847 429.5 229.847C424.433 229.847 419.841 227.809 416.5 224.509C413.159 227.809 408.567 229.847 403.5 229.847C398.433 229.847 393.841 227.809 390.5 224.509C387.159 227.809 382.567 229.847 377.5 229.847C372.433 229.847 367.841 227.809 364.5 224.509ZM705.968 202.909C702.901 196.935 696.678 192.847 689.5 192.847C684.433 192.847 679.841 194.884 676.5 198.184C673.159 194.884 668.567 192.847 663.5 192.847C658.433 192.847 653.841 194.884 650.5 198.184C647.159 194.884 642.567 192.847 637.5 192.847C632.433 192.847 627.841 194.884 624.5 198.184C621.159 194.884 616.567 192.847 611.5 192.847C606.433 192.847 601.841 194.884 598.5 198.184C595.159 194.884 590.567 192.847 585.5 192.847C580.433 192.847 575.841 194.884 572.5 198.184C569.159 194.884 564.567 192.847 559.5 192.847C554.433 192.847 549.841 194.884 546.5 198.184C543.159 194.884 538.567 192.847 533.5 192.847C528.433 192.847 523.841 194.884 520.5 198.184C517.159 194.884 512.567 192.847 507.5 192.847C502.433 192.847 497.841 194.884 494.5 198.184C491.159 194.884 486.567 192.847 481.5 192.847C476.433 192.847 471.841 194.884 468.5 198.184C465.159 194.884 460.567 192.847 455.5 192.847C450.433 192.847 445.841 194.884 442.5 198.184C439.159 194.884 434.567 192.847 429.5 192.847C424.433 192.847 419.841 194.884 416.5 198.184C413.159 194.884 408.567 192.847 403.5 192.847C398.433 192.847 393.841 194.884 390.5 198.184C387.159 194.884 382.567 192.847 377.5 192.847C372.433 192.847 367.841 194.884 364.5 198.184C361.159 194.884 356.567 192.847 351.5 192.847C343.709 192.847 337.043 197.663 334.316 204.48C332.781 204.067 331.166 203.847 329.5 203.847C319.43 203.847 311.239 211.893 311.005 221.907C310.509 221.867 310.007 221.847 309.5 221.847C299.283 221.847 291 230.129 291 240.347C291 241.034 291.038 241.713 291.111 242.381C284.571 245.234 280 251.756 280 259.347C280 269.564 288.283 277.847 298.5 277.847C303.567 277.847 308.159 275.809 311.5 272.509C314.841 275.809 319.433 277.847 324.5 277.847C329.567 277.847 334.159 275.809 337.5 272.509C340.841 275.809 345.433 277.847 350.5 277.847C355.567 277.847 360.159 275.809 363.5 272.509C366.841 275.809 371.433 277.847 376.5 277.847C381.567 277.847 386.159 275.809 389.5 272.509C392.841 275.809 397.433 277.847 402.5 277.847C407.567 277.847 412.159 275.809 415.5 272.509C418.841 275.809 423.433 277.847 428.5 277.847C433.567 277.847 438.159 275.809 441.5 272.509C444.841 275.809 449.433 277.847 454.5 277.847C459.567 277.847 464.159 275.809 467.5 272.509C470.841 275.809 475.433 277.847 480.5 277.847C485.567 277.847 490.159 275.809 493.5 272.509C496.841 275.809 501.433 277.847 506.5 277.847C511.567 277.847 516.159 275.809 519.5 272.509C522.841 275.809 527.433 277.847 532.5 277.847C537.567 277.847 542.159 275.809 545.5 272.509C548.841 275.809 553.433 277.847 558.5 277.847C563.567 277.847 568.159 275.809 571.5 272.509C574.841 275.809 579.433 277.847 584.5 277.847C589.567 277.847 594.159 275.809 597.5 272.509C600.841 275.809 605.433 277.847 610.5 277.847C615.567 277.847 620.159 275.809 623.5 272.509C626.841 275.809 631.433 277.847 636.5 277.847C641.567 277.847 646.159 275.809 649.5 272.509C652.841 275.809 657.433 277.847 662.5 277.847C667.567 277.847 672.159 275.809 675.5 272.509C678.841 275.809 683.433 277.847 688.5 277.847C693.567 277.847 698.159 275.809 701.5 272.509C704.841 275.809 709.433 277.847 714.5 277.847C719.567 277.847 724.159 275.809 727.5 272.509C730.841 275.809 735.433 277.847 740.5 277.847C750.717 277.847 759 269.564 759 259.347C759 251.416 754.009 244.65 746.997 242.02C746.823 231.953 738.608 223.847 728.5 223.847C727.585 223.847 726.685 223.913 725.805 224.042C725.934 223.162 726 222.262 726 221.347C726 211.129 717.717 202.847 707.5 202.847C706.984 202.847 706.473 202.868 705.968 202.909Z"/>
</mask>
<path fill-rule="evenodd" clip-rule="evenodd" d="M364.5 224.509C361.159 227.809 356.567 229.847 351.5 229.847C349.834 229.847 348.219 229.626 346.684 229.214C343.957 236.031 337.291 240.847 329.5 240.847C328.993 240.847 328.491 240.826 327.995 240.786C327.992 240.916 327.988 241.045 327.982 241.174C331.655 241.873 334.944 243.659 337.5 246.184C340.841 242.884 345.433 240.847 350.5 240.847C355.567 240.847 360.159 242.884 363.5 246.184C366.841 242.884 371.433 240.847 376.5 240.847C381.567 240.847 386.159 242.884 389.5 246.184C392.841 242.884 397.433 240.847 402.5 240.847C407.567 240.847 412.159 242.884 415.5 246.184C418.841 242.884 423.433 240.847 428.5 240.847C433.567 240.847 438.159 242.884 441.5 246.184C444.841 242.884 449.433 240.847 454.5 240.847C459.567 240.847 464.159 242.884 467.5 246.184C470.841 242.884 475.433 240.847 480.5 240.847C485.567 240.847 490.159 242.884 493.5 246.184C496.841 242.884 501.433 240.847 506.5 240.847C511.567 240.847 516.159 242.884 519.5 246.184C522.841 242.884 527.433 240.847 532.5 240.847C537.567 240.847 542.159 242.884 545.5 246.184C548.841 242.884 553.433 240.847 558.5 240.847C563.567 240.847 568.159 242.884 571.5 246.184C574.841 242.884 579.433 240.847 584.5 240.847C589.567 240.847 594.159 242.884 597.5 246.184C600.841 242.884 605.433 240.847 610.5 240.847C615.567 240.847 620.159 242.884 623.5 246.184C626.841 242.884 631.433 240.847 636.5 240.847C641.567 240.847 646.159 242.884 649.5 246.184C652.841 242.884 657.433 240.847 662.5 240.847C667.567 240.847 672.159 242.884 675.5 246.184C678.841 242.884 683.433 240.847 688.5 240.847C693.567 240.847 698.159 242.884 701.5 246.184C703.824 243.889 706.752 242.205 710.024 241.392C710.054 240.804 710.111 240.224 710.195 239.652C709.315 239.78 708.415 239.847 707.5 239.847C700.322 239.847 694.099 235.759 691.032 229.784C690.527 229.826 690.016 229.847 689.5 229.847C684.433 229.847 679.841 227.809 676.5 224.509C673.159 227.809 668.567 229.847 663.5 229.847C658.433 229.847 653.841 227.809 650.5 224.509C647.159 227.809 642.567 229.847 637.5 229.847C632.433 229.847 627.841 227.809 624.5 224.509C621.159 227.809 616.567 229.847 611.5 229.847C606.433 229.847 601.841 227.809 598.5 224.509C595.159 227.809 590.567 229.847 585.5 229.847C580.433 229.847 575.841 227.809 572.5 224.509C569.159 227.809 564.567 229.847 559.5 229.847C554.433 229.847 549.841 227.809 546.5 224.509C543.159 227.809 538.567 229.847 533.5 229.847C528.433 229.847 523.841 227.809 520.5 224.509C517.159 227.809 512.567 229.847 507.5 229.847C502.433 229.847 497.841 227.809 494.5 224.509C491.159 227.809 486.567 229.847 481.5 229.847C476.433 229.847 471.841 227.809 468.5 224.509C465.159 227.809 460.567 229.847 455.5 229.847C450.433 229.847 445.841 227.809 442.5 224.509C439.159 227.809 434.567 229.847 429.5 229.847C424.433 229.847 419.841 227.809 416.5 224.509C413.159 227.809 408.567 229.847 403.5 229.847C398.433 229.847 393.841 227.809 390.5 224.509C387.159 227.809 382.567 229.847 377.5 229.847C372.433 229.847 367.841 227.809 364.5 224.509ZM705.968 202.909C702.901 196.935 696.678 192.847 689.5 192.847C684.433 192.847 679.841 194.884 676.5 198.184C673.159 194.884 668.567 192.847 663.5 192.847C658.433 192.847 653.841 194.884 650.5 198.184C647.159 194.884 642.567 192.847 637.5 192.847C632.433 192.847 627.841 194.884 624.5 198.184C621.159 194.884 616.567 192.847 611.5 192.847C606.433 192.847 601.841 194.884 598.5 198.184C595.159 194.884 590.567 192.847 585.5 192.847C580.433 192.847 575.841 194.884 572.5 198.184C569.159 194.884 564.567 192.847 559.5 192.847C554.433 192.847 549.841 194.884 546.5 198.184C543.159 194.884 538.567 192.847 533.5 192.847C528.433 192.847 523.841 194.884 520.5 198.184C517.159 194.884 512.567 192.847 507.5 192.847C502.433 192.847 497.841 194.884 494.5 198.184C491.159 194.884 486.567 192.847 481.5 192.847C476.433 192.847 471.841 194.884 468.5 198.184C465.159 194.884 460.567 192.847 455.5 192.847C450.433 192.847 445.841 194.884 442.5 198.184C439.159 194.884 434.567 192.847 429.5 192.847C424.433 192.847 419.841 194.884 416.5 198.184C413.159 194.884 408.567 192.847 403.5 192.847C398.433 192.847 393.841 194.884 390.5 198.184C387.159 194.884 382.567 192.847 377.5 192.847C372.433 192.847 367.841 194.884 364.5 198.184C361.159 194.884 356.567 192.847 351.5 192.847C343.709 192.847 337.043 197.663 334.316 204.48C332.781 204.067 331.166 203.847 329.5 203.847C319.43 203.847 311.239 211.893 311.005 221.907C310.509 221.867 310.007 221.847 309.5 221.847C299.283 221.847 291 230.129 291 240.347C291 241.034 291.038 241.713 291.111 242.381C284.571 245.234 280 251.756 280 259.347C280 269.564 288.283 277.847 298.5 277.847C303.567 277.847 308.159 275.809 311.5 272.509C314.841 275.809 319.433 277.847 324.5 277.847C329.567 277.847 334.159 275.809 337.5 272.509C340.841 275.809 345.433 277.847 350.5 277.847C355.567 277.847 360.159 275.809 363.5 272.509C366.841 275.809 371.433 277.847 376.5 277.847C381.567 277.847 386.159 275.809 389.5 272.509C392.841 275.809 397.433 277.847 402.5 277.847C407.567 277.847 412.159 275.809 415.5 272.509C418.841 275.809 423.433 277.847 428.5 277.847C433.567 277.847 438.159 275.809 441.5 272.509C444.841 275.809 449.433 277.847 454.5 277.847C459.567 277.847 464.159 275.809 467.5 272.509C470.841 275.809 475.433 277.847 480.5 277.847C485.567 277.847 490.159 275.809 493.5 272.509C496.841 275.809 501.433 277.847 506.5 277.847C511.567 277.847 516.159 275.809 519.5 272.509C522.841 275.809 527.433 277.847 532.5 277.847C537.567 277.847 542.159 275.809 545.5 272.509C548.841 275.809 553.433 277.847 558.5 277.847C563.567 277.847 568.159 275.809 571.5 272.509C574.841 275.809 579.433 277.847 584.5 277.847C589.567 277.847 594.159 275.809 597.5 272.509C600.841 275.809 605.433 277.847 610.5 277.847C615.567 277.847 620.159 275.809 623.5 272.509C626.841 275.809 631.433 277.847 636.5 277.847C641.567 277.847 646.159 275.809 649.5 272.509C652.841 275.809 657.433 277.847 662.5 277.847C667.567 277.847 672.159 275.809 675.5 272.509C678.841 275.809 683.433 277.847 688.5 277.847C693.567 277.847 698.159 275.809 701.5 272.509C704.841 275.809 709.433 277.847 714.5 277.847C719.567 277.847 724.159 275.809 727.5 272.509C730.841 275.809 735.433 277.847 740.5 277.847C750.717 277.847 759 269.564 759 259.347C759 251.416 754.009 244.65 746.997 242.02C746.823 231.953 738.608 223.847 728.5 223.847C727.585 223.847 726.685 223.913 725.805 224.042C725.934 223.162 726 222.262 726 221.347C726 211.129 717.717 202.847 707.5 202.847C706.984 202.847 706.473 202.868 705.968 202.909Z" fill="#F8F8FA"/>
<path d="M364.5 224.509L366.608 222.375L364.5 220.292L362.392 222.375L364.5 224.509ZM346.684 229.214L347.463 226.316L344.888 225.624L343.898 228.099L346.684 229.214ZM327.995 240.786L328.236 237.796L325.07 237.541L324.996 240.716L327.995 240.786ZM327.982 241.174L324.985 241.042L324.871 243.635L327.421 244.121L327.982 241.174ZM337.5 246.184L335.392 248.319L337.5 250.401L339.608 248.319L337.5 246.184ZM363.5 246.184L361.392 248.319L363.5 250.401L365.608 248.319L363.5 246.184ZM389.5 246.184L387.392 248.319L389.5 250.401L391.608 248.319L389.5 246.184ZM415.5 246.184L413.392 248.319L415.5 250.401L417.608 248.319L415.5 246.184ZM441.5 246.184L439.392 248.319L441.5 250.401L443.608 248.319L441.5 246.184ZM467.5 246.184L465.392 248.319L467.5 250.401L469.608 248.319L467.5 246.184ZM493.5 246.184L491.392 248.319L493.5 250.401L495.608 248.319L493.5 246.184ZM519.5 246.184L517.392 248.319L519.5 250.401L521.608 248.319L519.5 246.184ZM545.5 246.184L543.392 248.319L545.5 250.401L547.608 248.319L545.5 246.184ZM571.5 246.184L569.392 248.319L571.5 250.401L573.608 248.319L571.5 246.184ZM597.5 246.184L595.392 248.319L597.5 250.401L599.608 248.319L597.5 246.184ZM623.5 246.184L621.392 248.319L623.5 250.401L625.608 248.319L623.5 246.184ZM649.5 246.184L647.392 248.319L649.5 250.401L651.608 248.319L649.5 246.184ZM675.5 246.184L673.392 248.319L675.5 250.401L677.608 248.319L675.5 246.184ZM701.5 246.184L699.392 248.319L701.5 250.401L703.608 248.319L701.5 246.184ZM710.024 241.392L710.748 244.303L712.907 243.767L713.02 241.544L710.024 241.392ZM710.195 239.652L713.163 240.085L713.745 236.102L709.762 236.683L710.195 239.652ZM691.032 229.784L693.701 228.414L692.785 226.63L690.787 226.794L691.032 229.784ZM676.5 224.509L678.608 222.375L676.5 220.292L674.392 222.375L676.5 224.509ZM650.5 224.509L652.608 222.375L650.5 220.292L648.392 222.375L650.5 224.509ZM624.5 224.509L626.608 222.375L624.5 220.292L622.392 222.375L624.5 224.509ZM598.5 224.509L600.608 222.375L598.5 220.292L596.392 222.375L598.5 224.509ZM572.5 224.509L574.608 222.375L572.5 220.292L570.392 222.375L572.5 224.509ZM546.5 224.509L548.608 222.375L546.5 220.292L544.392 222.375L546.5 224.509ZM520.5 224.509L522.608 222.375L520.5 220.292L518.392 222.375L520.5 224.509ZM494.5 224.509L496.608 222.375L494.5 220.292L492.392 222.375L494.5 224.509ZM468.5 224.509L470.608 222.375L468.5 220.292L466.392 222.375L468.5 224.509ZM442.5 224.509L444.608 222.375L442.5 220.292L440.392 222.375L442.5 224.509ZM416.5 224.509L418.608 222.375L416.5 220.292L414.392 222.375L416.5 224.509ZM390.5 224.509L392.608 222.375L390.5 220.292L388.392 222.375L390.5 224.509ZM705.968 202.909L703.299 204.279L704.215 206.063L706.213 205.899L705.968 202.909ZM676.5 198.184L674.392 200.319L676.5 202.401L678.608 200.319L676.5 198.184ZM650.5 198.184L648.392 200.319L650.5 202.401L652.608 200.319L650.5 198.184ZM624.5 198.184L622.392 200.319L624.5 202.401L626.608 200.319L624.5 198.184ZM598.5 198.184L596.392 200.319L598.5 202.401L600.608 200.319L598.5 198.184ZM572.5 198.184L570.392 200.319L572.5 202.401L574.608 200.319L572.5 198.184ZM546.5 198.184L544.392 200.319L546.5 202.401L548.608 200.319L546.5 198.184ZM520.5 198.184L518.392 200.319L520.5 202.401L522.608 200.319L520.5 198.184ZM494.5 198.184L492.392 200.319L494.5 202.401L496.608 200.319L494.5 198.184ZM468.5 198.184L466.392 200.319L468.5 202.401L470.608 200.319L468.5 198.184ZM442.5 198.184L440.392 200.319L442.5 202.401L444.608 200.319L442.5 198.184ZM416.5 198.184L414.392 200.319L416.5 202.401L418.608 200.319L416.5 198.184ZM390.5 198.184L388.392 200.319L390.5 202.401L392.608 200.319L390.5 198.184ZM364.5 198.184L362.392 200.319L364.5 202.401L366.608 200.319L364.5 198.184ZM334.316 204.48L333.537 207.377L336.112 208.069L337.102 205.594L334.316 204.48ZM311.005 221.907L310.764 224.897L313.93 225.152L314.004 221.977L311.005 221.907ZM291.111 242.381L292.31 245.131L294.333 244.249L294.093 242.055L291.111 242.381ZM311.5 272.509L313.608 270.375L311.5 268.292L309.392 270.375L311.5 272.509ZM337.5 272.509L339.608 270.375L337.5 268.292L335.392 270.375L337.5 272.509ZM363.5 272.509L365.608 270.375L363.5 268.292L361.392 270.375L363.5 272.509ZM389.5 272.509L391.608 270.375L389.5 268.292L387.392 270.375L389.5 272.509ZM415.5 272.509L417.608 270.375L415.5 268.292L413.392 270.375L415.5 272.509ZM441.5 272.509L443.608 270.375L441.5 268.292L439.392 270.375L441.5 272.509ZM467.5 272.509L469.608 270.375L467.5 268.292L465.392 270.375L467.5 272.509ZM493.5 272.509L495.608 270.375L493.5 268.292L491.392 270.375L493.5 272.509ZM519.5 272.509L521.608 270.375L519.5 268.292L517.392 270.375L519.5 272.509ZM545.5 272.509L547.608 270.375L545.5 268.292L543.392 270.375L545.5 272.509ZM571.5 272.509L573.608 270.375L571.5 268.292L569.392 270.375L571.5 272.509ZM597.5 272.509L599.608 270.375L597.5 268.292L595.392 270.375L597.5 272.509ZM623.5 272.509L625.608 270.375L623.5 268.292L621.392 270.375L623.5 272.509ZM649.5 272.509L651.608 270.375L649.5 268.292L647.392 270.375L649.5 272.509ZM675.5 272.509L677.608 270.375L675.5 268.292L673.392 270.375L675.5 272.509ZM701.5 272.509L703.608 270.375L701.5 268.292L699.392 270.375L701.5 272.509ZM727.5 272.509L729.608 270.375L727.5 268.292L725.392 270.375L727.5 272.509ZM746.997 242.02L743.998 242.072L744.033 244.112L745.943 244.829L746.997 242.02ZM725.805 224.042L722.837 223.608L722.255 227.591L726.238 227.01L725.805 224.042ZM351.5 232.847C357.388 232.847 362.728 230.476 366.608 226.643L362.392 222.375C359.589 225.143 355.747 226.847 351.5 226.847V232.847ZM345.905 232.111C347.692 232.591 349.569 232.847 351.5 232.847V226.847C350.099 226.847 348.747 226.662 347.463 226.316L345.905 232.111ZM329.5 243.847C338.559 243.847 346.302 238.245 349.469 230.328L343.898 228.099C341.612 233.817 336.023 237.847 329.5 237.847V243.847ZM327.754 243.777C328.331 243.823 328.913 243.847 329.5 243.847V237.847C329.074 237.847 328.652 237.83 328.236 237.796L327.754 243.777ZM330.979 241.306C330.986 241.156 330.991 241.006 330.994 240.856L324.996 240.716C324.993 240.825 324.989 240.934 324.985 241.042L330.979 241.306ZM339.608 244.05C336.641 241.119 332.818 239.041 328.543 238.227L327.421 244.121C330.492 244.706 333.246 246.2 335.392 248.319L339.608 244.05ZM350.5 237.847C344.612 237.847 339.272 240.218 335.392 244.05L339.608 248.319C342.411 245.55 346.253 243.847 350.5 243.847V237.847ZM365.608 244.05C361.728 240.218 356.388 237.847 350.5 237.847V243.847C354.747 243.847 358.589 245.55 361.392 248.319L365.608 244.05ZM376.5 237.847C370.612 237.847 365.272 240.218 361.392 244.05L365.608 248.319C368.411 245.55 372.253 243.847 376.5 243.847V237.847ZM391.608 244.05C387.728 240.218 382.388 237.847 376.5 237.847V243.847C380.747 243.847 384.589 245.55 387.392 248.319L391.608 244.05ZM402.5 237.847C396.612 237.847 391.272 240.218 387.392 244.05L391.608 248.319C394.411 245.55 398.253 243.847 402.5 243.847V237.847ZM417.608 244.05C413.728 240.218 408.388 237.847 402.5 237.847V243.847C406.747 243.847 410.589 245.55 413.392 248.319L417.608 244.05ZM428.5 237.847C422.612 237.847 417.272 240.218 413.392 244.05L417.608 248.319C420.411 245.55 424.253 243.847 428.5 243.847V237.847ZM443.608 244.05C439.728 240.218 434.388 237.847 428.5 237.847V243.847C432.747 243.847 436.589 245.55 439.392 248.319L443.608 244.05ZM454.5 237.847C448.612 237.847 443.272 240.218 439.392 244.05L443.608 248.319C446.411 245.55 450.253 243.847 454.5 243.847V237.847ZM469.608 244.05C465.728 240.218 460.388 237.847 454.5 237.847V243.847C458.747 243.847 462.589 245.55 465.392 248.319L469.608 244.05ZM480.5 237.847C474.612 237.847 469.272 240.218 465.392 244.05L469.608 248.319C472.411 245.55 476.253 243.847 480.5 243.847V237.847ZM495.608 244.05C491.728 240.218 486.388 237.847 480.5 237.847V243.847C484.747 243.847 488.589 245.55 491.392 248.319L495.608 244.05ZM506.5 237.847C500.612 237.847 495.272 240.218 491.392 244.05L495.608 248.319C498.411 245.55 502.253 243.847 506.5 243.847V237.847ZM521.608 244.05C517.728 240.218 512.388 237.847 506.5 237.847V243.847C510.747 243.847 514.589 245.55 517.392 248.319L521.608 244.05ZM532.5 237.847C526.612 237.847 521.272 240.218 517.392 244.05L521.608 248.319C524.411 245.55 528.253 243.847 532.5 243.847V237.847ZM547.608 244.05C543.728 240.218 538.388 237.847 532.5 237.847V243.847C536.747 243.847 540.589 245.55 543.392 248.319L547.608 244.05ZM558.5 237.847C552.612 237.847 547.272 240.218 543.392 244.05L547.608 248.319C550.411 245.55 554.253 243.847 558.5 243.847V237.847ZM573.608 244.05C569.728 240.218 564.388 237.847 558.5 237.847V243.847C562.747 243.847 566.589 245.55 569.392 248.319L573.608 244.05ZM584.5 237.847C578.612 237.847 573.272 240.218 569.392 244.05L573.608 248.319C576.411 245.55 580.253 243.847 584.5 243.847V237.847ZM599.608 244.05C595.728 240.218 590.388 237.847 584.5 237.847V243.847C588.747 243.847 592.589 245.55 595.392 248.319L599.608 244.05ZM610.5 237.847C604.612 237.847 599.272 240.218 595.392 244.05L599.608 248.319C602.411 245.55 606.253 243.847 610.5 243.847V237.847ZM625.608 244.05C621.728 240.218 616.388 237.847 610.5 237.847V243.847C614.747 243.847 618.589 245.55 621.392 248.319L625.608 244.05ZM636.5 237.847C630.612 237.847 625.272 240.218 621.392 244.05L625.608 248.319C628.411 245.55 632.253 243.847 636.5 243.847V237.847ZM651.608 244.05C647.728 240.218 642.388 237.847 636.5 237.847V243.847C640.747 243.847 644.589 245.55 647.392 248.319L651.608 244.05ZM662.5 237.847C656.612 237.847 651.272 240.218 647.392 244.05L651.608 248.319C654.411 245.55 658.253 243.847 662.5 243.847V237.847ZM677.608 244.05C673.728 240.218 668.388 237.847 662.5 237.847V243.847C666.747 243.847 670.589 245.55 673.392 248.319L677.608 244.05ZM688.5 237.847C682.612 237.847 677.272 240.218 673.392 244.05L677.608 248.319C680.411 245.55 684.253 243.847 688.5 243.847V237.847ZM703.608 244.05C699.728 240.218 694.388 237.847 688.5 237.847V243.847C692.747 243.847 696.589 245.55 699.392 248.319L703.608 244.05ZM709.301 238.48C705.492 239.427 702.089 241.386 699.392 244.05L703.608 248.319C705.558 246.393 708.011 244.983 710.748 244.303L709.301 238.48ZM707.226 239.219C707.129 239.883 707.063 240.557 707.028 241.239L713.02 241.544C713.045 241.051 713.094 240.564 713.163 240.085L707.226 239.219ZM707.5 242.847C708.561 242.847 709.605 242.77 710.628 242.62L709.762 236.683C709.025 236.791 708.27 236.847 707.5 236.847V242.847ZM688.363 231.154C691.924 238.09 699.154 242.847 707.5 242.847V236.847C701.49 236.847 696.274 233.427 693.701 228.414L688.363 231.154ZM689.5 232.847C690.098 232.847 690.69 232.822 691.277 232.774L690.787 226.794C690.363 226.829 689.934 226.847 689.5 226.847V232.847ZM674.392 226.643C678.272 230.476 683.612 232.847 689.5 232.847V226.847C685.253 226.847 681.411 225.143 678.608 222.375L674.392 226.643ZM663.5 232.847C669.388 232.847 674.728 230.476 678.608 226.643L674.392 222.375C671.589 225.143 667.747 226.847 663.5 226.847V232.847ZM648.392 226.643C652.272 230.476 657.612 232.847 663.5 232.847V226.847C659.253 226.847 655.411 225.143 652.608 222.375L648.392 226.643ZM637.5 232.847C643.388 232.847 648.728 230.476 652.608 226.643L648.392 222.375C645.589 225.143 641.747 226.847 637.5 226.847V232.847ZM622.392 226.643C626.272 230.476 631.612 232.847 637.5 232.847V226.847C633.253 226.847 629.411 225.143 626.608 222.375L622.392 226.643ZM611.5 232.847C617.388 232.847 622.728 230.476 626.608 226.643L622.392 222.375C619.589 225.143 615.747 226.847 611.5 226.847V232.847ZM596.392 226.643C600.272 230.476 605.612 232.847 611.5 232.847V226.847C607.253 226.847 603.411 225.143 600.608 222.375L596.392 226.643ZM585.5 232.847C591.388 232.847 596.728 230.476 600.608 226.643L596.392 222.375C593.589 225.143 589.747 226.847 585.5 226.847V232.847ZM570.392 226.643C574.272 230.476 579.612 232.847 585.5 232.847V226.847C581.253 226.847 577.411 225.143 574.608 222.375L570.392 226.643ZM559.5 232.847C565.388 232.847 570.728 230.476 574.608 226.643L570.392 222.375C567.589 225.143 563.747 226.847 559.5 226.847V232.847ZM544.392 226.643C548.272 230.476 553.612 232.847 559.5 232.847V226.847C555.253 226.847 551.411 225.143 548.608 222.375L544.392 226.643ZM533.5 232.847C539.388 232.847 544.728 230.476 548.608 226.643L544.392 222.375C541.589 225.143 537.747 226.847 533.5 226.847V232.847ZM518.392 226.643C522.272 230.476 527.612 232.847 533.5 232.847V226.847C529.253 226.847 525.411 225.143 522.608 222.375L518.392 226.643ZM507.5 232.847C513.388 232.847 518.728 230.476 522.608 226.643L518.392 222.375C515.589 225.143 511.747 226.847 507.5 226.847V232.847ZM492.392 226.643C496.272 230.476 501.612 232.847 507.5 232.847V226.847C503.253 226.847 499.411 225.143 496.608 222.375L492.392 226.643ZM481.5 232.847C487.388 232.847 492.728 230.476 496.608 226.643L492.392 222.375C489.589 225.143 485.747 226.847 481.5 226.847V232.847ZM466.392 226.643C470.272 230.476 475.612 232.847 481.5 232.847V226.847C477.253 226.847 473.411 225.143 470.608 222.375L466.392 226.643ZM455.5 232.847C461.388 232.847 466.728 230.476 470.608 226.643L466.392 222.375C463.589 225.143 459.747 226.847 455.5 226.847V232.847ZM440.392 226.643C444.272 230.476 449.612 232.847 455.5 232.847V226.847C451.253 226.847 447.411 225.143 444.608 222.375L440.392 226.643ZM429.5 232.847C435.388 232.847 440.728 230.476 444.608 226.643L440.392 222.375C437.589 225.143 433.747 226.847 429.5 226.847V232.847ZM414.392 226.643C418.272 230.476 423.612 232.847 429.5 232.847V226.847C425.253 226.847 421.411 225.143 418.608 222.375L414.392 226.643ZM403.5 232.847C409.388 232.847 414.728 230.476 418.608 226.643L414.392 222.375C411.589 225.143 407.747 226.847 403.5 226.847V232.847ZM388.392 226.643C392.272 230.476 397.612 232.847 403.5 232.847V226.847C399.253 226.847 395.411 225.143 392.608 222.375L388.392 226.643ZM377.5 232.847C383.388 232.847 388.728 230.476 392.608 226.643L388.392 222.375C385.589 225.143 381.747 226.847 377.5 226.847V232.847ZM362.392 226.643C366.272 230.476 371.612 232.847 377.5 232.847V226.847C373.253 226.847 369.411 225.143 366.608 222.375L362.392 226.643ZM708.637 201.539C705.076 194.603 697.846 189.847 689.5 189.847V195.847C695.51 195.847 700.726 199.266 703.299 204.279L708.637 201.539ZM689.5 189.847C683.612 189.847 678.272 192.218 674.392 196.05L678.608 200.319C681.411 197.55 685.253 195.847 689.5 195.847V189.847ZM678.608 196.05C674.728 192.218 669.388 189.847 663.5 189.847V195.847C667.747 195.847 671.589 197.55 674.392 200.319L678.608 196.05ZM663.5 189.847C657.612 189.847 652.272 192.218 648.392 196.05L652.608 200.319C655.411 197.55 659.253 195.847 663.5 195.847V189.847ZM652.608 196.05C648.728 192.218 643.388 189.847 637.5 189.847V195.847C641.747 195.847 645.589 197.55 648.392 200.319L652.608 196.05ZM637.5 189.847C631.612 189.847 626.272 192.218 622.392 196.05L626.608 200.319C629.411 197.55 633.253 195.847 637.5 195.847V189.847ZM626.608 196.05C622.728 192.218 617.388 189.847 611.5 189.847V195.847C615.747 195.847 619.589 197.55 622.392 200.319L626.608 196.05ZM611.5 189.847C605.612 189.847 600.272 192.218 596.392 196.05L600.608 200.319C603.411 197.55 607.253 195.847 611.5 195.847V189.847ZM600.608 196.05C596.728 192.218 591.388 189.847 585.5 189.847V195.847C589.747 195.847 593.589 197.55 596.392 200.319L600.608 196.05ZM585.5 189.847C579.612 189.847 574.272 192.218 570.392 196.05L574.608 200.319C577.411 197.55 581.253 195.847 585.5 195.847V189.847ZM574.608 196.05C570.728 192.218 565.388 189.847 559.5 189.847V195.847C563.747 195.847 567.589 197.55 570.392 200.319L574.608 196.05ZM559.5 189.847C553.612 189.847 548.272 192.218 544.392 196.05L548.608 200.319C551.411 197.55 555.253 195.847 559.5 195.847V189.847ZM548.608 196.05C544.728 192.218 539.388 189.847 533.5 189.847V195.847C537.747 195.847 541.589 197.55 544.392 200.319L548.608 196.05ZM533.5 189.847C527.612 189.847 522.272 192.218 518.392 196.05L522.608 200.319C525.411 197.55 529.253 195.847 533.5 195.847V189.847ZM522.608 196.05C518.728 192.218 513.388 189.847 507.5 189.847V195.847C511.747 195.847 515.589 197.55 518.392 200.319L522.608 196.05ZM507.5 189.847C501.612 189.847 496.272 192.218 492.392 196.05L496.608 200.319C499.411 197.55 503.253 195.847 507.5 195.847V189.847ZM496.608 196.05C492.728 192.218 487.388 189.847 481.5 189.847V195.847C485.747 195.847 489.589 197.55 492.392 200.319L496.608 196.05ZM481.5 189.847C475.612 189.847 470.272 192.218 466.392 196.05L470.608 200.319C473.411 197.55 477.253 195.847 481.5 195.847V189.847ZM470.608 196.05C466.728 192.218 461.388 189.847 455.5 189.847V195.847C459.747 195.847 463.589 197.55 466.392 200.319L470.608 196.05ZM455.5 189.847C449.612 189.847 444.272 192.218 440.392 196.05L444.608 200.319C447.411 197.55 451.253 195.847 455.5 195.847V189.847ZM444.608 196.05C440.728 192.218 435.388 189.847 429.5 189.847V195.847C433.747 195.847 437.589 197.55 440.392 200.319L444.608 196.05ZM429.5 189.847C423.612 189.847 418.272 192.218 414.392 196.05L418.608 200.319C421.411 197.55 425.253 195.847 429.5 195.847V189.847ZM418.608 196.05C414.728 192.218 409.388 189.847 403.5 189.847V195.847C407.747 195.847 411.589 197.55 414.392 200.319L418.608 196.05ZM403.5 189.847C397.612 189.847 392.272 192.218 388.392 196.05L392.608 200.319C395.411 197.55 399.253 195.847 403.5 195.847V189.847ZM392.608 196.05C388.728 192.218 383.388 189.847 377.5 189.847V195.847C381.747 195.847 385.589 197.55 388.392 200.319L392.608 196.05ZM377.5 189.847C371.612 189.847 366.272 192.218 362.392 196.05L366.608 200.319C369.411 197.55 373.253 195.847 377.5 195.847V189.847ZM366.608 196.05C362.728 192.218 357.388 189.847 351.5 189.847V195.847C355.747 195.847 359.589 197.55 362.392 200.319L366.608 196.05ZM351.5 189.847C342.441 189.847 334.698 195.448 331.531 203.366L337.102 205.594C339.388 199.877 344.977 195.847 351.5 195.847V189.847ZM335.095 201.583C333.308 201.102 331.431 200.847 329.5 200.847V206.847C330.901 206.847 332.253 207.032 333.537 207.377L335.095 201.583ZM329.5 200.847C317.796 200.847 308.277 210.198 308.006 221.837L314.004 221.977C314.2 213.588 321.063 206.847 329.5 206.847V200.847ZM311.246 218.917C310.669 218.87 310.087 218.847 309.5 218.847V224.847C309.926 224.847 310.348 224.864 310.764 224.897L311.246 218.917ZM309.5 218.847C297.626 218.847 288 228.473 288 240.347H294C294 231.786 300.94 224.847 309.5 224.847V218.847ZM288 240.347C288 241.144 288.043 241.931 288.128 242.708L294.093 242.055C294.032 241.495 294 240.925 294 240.347H288ZM289.911 239.632C282.318 242.944 277 250.521 277 259.347H283C283 252.992 286.825 247.524 292.31 245.131L289.911 239.632ZM277 259.347C277 271.221 286.626 280.847 298.5 280.847V274.847C289.94 274.847 283 267.907 283 259.347H277ZM298.5 280.847C304.388 280.847 309.728 278.476 313.608 274.643L309.392 270.375C306.589 273.143 302.747 274.847 298.5 274.847V280.847ZM309.392 274.643C313.272 278.476 318.612 280.847 324.5 280.847V274.847C320.253 274.847 316.411 273.143 313.608 270.375L309.392 274.643ZM324.5 280.847C330.388 280.847 335.728 278.476 339.608 274.643L335.392 270.375C332.589 273.143 328.747 274.847 324.5 274.847V280.847ZM335.392 274.643C339.272 278.476 344.612 280.847 350.5 280.847V274.847C346.253 274.847 342.411 273.143 339.608 270.375L335.392 274.643ZM350.5 280.847C356.388 280.847 361.728 278.476 365.608 274.643L361.392 270.375C358.589 273.143 354.747 274.847 350.5 274.847V280.847ZM361.392 274.643C365.272 278.476 370.612 280.847 376.5 280.847V274.847C372.253 274.847 368.411 273.143 365.608 270.375L361.392 274.643ZM376.5 280.847C382.388 280.847 387.728 278.476 391.608 274.643L387.392 270.375C384.589 273.143 380.747 274.847 376.5 274.847V280.847ZM387.392 274.643C391.272 278.476 396.612 280.847 402.5 280.847V274.847C398.253 274.847 394.411 273.143 391.608 270.375L387.392 274.643ZM402.5 280.847C408.388 280.847 413.728 278.476 417.608 274.643L413.392 270.375C410.589 273.143 406.747 274.847 402.5 274.847V280.847ZM413.392 274.643C417.272 278.476 422.612 280.847 428.5 280.847V274.847C424.253 274.847 420.411 273.143 417.608 270.375L413.392 274.643ZM428.5 280.847C434.388 280.847 439.728 278.476 443.608 274.643L439.392 270.375C436.589 273.143 432.747 274.847 428.5 274.847V280.847ZM439.392 274.643C443.272 278.476 448.612 280.847 454.5 280.847V274.847C450.253 274.847 446.411 273.143 443.608 270.375L439.392 274.643ZM454.5 280.847C460.388 280.847 465.728 278.476 469.608 274.643L465.392 270.375C462.589 273.143 458.747 274.847 454.5 274.847V280.847ZM465.392 274.643C469.272 278.476 474.612 280.847 480.5 280.847V274.847C476.253 274.847 472.411 273.143 469.608 270.375L465.392 274.643ZM480.5 280.847C486.388 280.847 491.728 278.476 495.608 274.643L491.392 270.375C488.589 273.143 484.747 274.847 480.5 274.847V280.847ZM491.392 274.643C495.272 278.476 500.612 280.847 506.5 280.847V274.847C502.253 274.847 498.411 273.143 495.608 270.375L491.392 274.643ZM506.5 280.847C512.388 280.847 517.728 278.476 521.608 274.643L517.392 270.375C514.589 273.143 510.747 274.847 506.5 274.847V280.847ZM517.392 274.643C521.272 278.476 526.612 280.847 532.5 280.847V274.847C528.253 274.847 524.411 273.143 521.608 270.375L517.392 274.643ZM532.5 280.847C538.388 280.847 543.728 278.476 547.608 274.644L543.392 270.375C540.589 273.143 536.747 274.847 532.5 274.847V280.847ZM543.392 274.644C547.272 278.476 552.612 280.847 558.5 280.847V274.847C554.253 274.847 550.411 273.143 547.608 270.375L543.392 274.644ZM558.5 280.847C564.388 280.847 569.728 278.476 573.608 274.644L569.392 270.375C566.589 273.143 562.747 274.847 558.5 274.847V280.847ZM569.392 274.644C573.272 278.476 578.612 280.847 584.5 280.847V274.847C580.253 274.847 576.411 273.143 573.608 270.375L569.392 274.644ZM584.5 280.847C590.388 280.847 595.728 278.476 599.608 274.644L595.392 270.375C592.589 273.143 588.747 274.847 584.5 274.847V280.847ZM595.392 274.644C599.272 278.476 604.612 280.847 610.5 280.847V274.847C606.253 274.847 602.411 273.143 599.608 270.375L595.392 274.644ZM610.5 280.847C616.388 280.847 621.728 278.476 625.608 274.644L621.392 270.375C618.589 273.143 614.747 274.847 610.5 274.847V280.847ZM621.392 274.644C625.272 278.476 630.612 280.847 636.5 280.847V274.847C632.253 274.847 628.411 273.143 625.608 270.375L621.392 274.644ZM636.5 280.847C642.388 280.847 647.728 278.476 651.608 274.644L647.392 270.375C644.589 273.143 640.747 274.847 636.5 274.847V280.847ZM647.392 274.644C651.272 278.476 656.612 280.847 662.5 280.847V274.847C658.253 274.847 654.411 273.143 651.608 270.375L647.392 274.644ZM662.5 280.847C668.388 280.847 673.728 278.476 677.608 274.644L673.392 270.375C670.589 273.143 666.747 274.847 662.5 274.847V280.847ZM673.392 274.644C677.272 278.476 682.612 280.847 688.5 280.847V274.847C684.253 274.847 680.411 273.143 677.608 270.375L673.392 274.644ZM688.5 280.847C694.388 280.847 699.728 278.476 703.608 274.644L699.392 270.375C696.589 273.143 692.747 274.847 688.5 274.847V280.847ZM699.392 274.644C703.272 278.476 708.612 280.847 714.5 280.847V274.847C710.253 274.847 706.411 273.143 703.608 270.375L699.392 274.644ZM714.5 280.847C720.388 280.847 725.728 278.476 729.608 274.644L725.392 270.375C722.589 273.143 718.747 274.847 714.5 274.847V280.847ZM725.392 274.644C729.272 278.476 734.612 280.847 740.5 280.847V274.847C736.253 274.847 732.411 273.143 729.608 270.375L725.392 274.644ZM740.5 280.847C752.374 280.847 762 271.221 762 259.347H756C756 267.907 749.06 274.847 740.5 274.847V280.847ZM762 259.347C762 250.125 756.195 242.266 748.051 239.211L745.943 244.829C751.823 247.034 756 252.707 756 259.347H762ZM749.997 241.968C749.794 230.268 740.247 220.847 728.5 220.847V226.847C736.969 226.847 743.851 233.639 743.998 242.072L749.997 241.968ZM728.5 220.847C727.439 220.847 726.395 220.924 725.372 221.073L726.238 227.01C726.975 226.903 727.73 226.847 728.5 226.847V220.847ZM728.774 224.475C728.923 223.452 729 222.407 729 221.347H723C723 222.117 722.944 222.872 722.837 223.608L728.774 224.475ZM729 221.347C729 209.473 719.374 199.847 707.5 199.847V205.847C716.06 205.847 723 212.786 723 221.347H729ZM707.5 199.847C706.902 199.847 706.31 199.871 705.723 199.919L706.213 205.899C706.637 205.864 707.066 205.847 707.5 205.847V199.847Z" fill="#CDCDD9" mask="url(#path-11-inside-2_280_2268)"/>
<circle cx="464.5" cy="214.347" r="14" fill="#45444D" stroke="#2C2336" stroke-width="3"/>
<path d="M467 202.847L468 199.847" stroke="#2C2336" stroke-width="3" stroke-linecap="round"/>
<path d="M455 203.847L460.794 205.629C461.214 205.759 461.5 206.146 461.5 206.585V208.426C461.5 209.235 462.411 209.709 463.073 209.245L465.55 207.511C466.051 207.161 466.745 207.337 467.018 207.883L468.725 211.297C469.148 212.142 470.399 211.983 470.597 211.059L471.211 208.197C471.353 207.531 472.105 207.199 472.692 207.542L477.5 210.347" stroke="#2C2336" stroke-width="3"/>
<path d="M321.756 185.06L325.801 178.918C327.866 175.782 330.345 172.94 333.17 170.467L345.094 160.03C351.325 154.576 359.434 151.762 367.704 152.183C374.782 152.543 381.538 155.252 386.904 159.882L389.901 162.468C398.773 170.123 404.174 181.04 404.875 192.737L405.657 205.79C405.848 208.979 405.541 212.178 404.746 215.273C401.232 228.952 388.847 238.474 374.724 238.354L374.141 238.349C372.234 238.333 370.332 238.143 368.459 237.783L355.151 235.221C350.986 234.419 346.925 233.146 343.047 231.426L334.214 227.508C328.067 224.782 323.059 220.003 320.048 213.991C315.41 204.734 316.062 193.707 321.756 185.06Z" fill="#EF6B8A" stroke="#8F4053" stroke-width="3"/>
<path d="M313.119 194.197L314.403 191.031C316.255 186.463 318.554 182.09 321.266 177.974L322.496 176.107C325.941 170.88 330.176 166.218 335.05 162.289C340.934 157.546 347.654 153.947 354.862 151.678L362.614 149.238C364.045 148.788 365.606 149.27 366.533 150.449C368.064 152.396 367.223 155.271 364.884 156.086L359.67 157.903C355.642 159.306 355.991 165.114 360.157 166.026C361.199 166.254 362.116 166.867 362.725 167.743L362.832 167.896C364.697 170.579 363.329 174.299 360.17 175.133L357.685 175.789C357.14 175.933 356.579 176.006 356.016 176.005L353.346 176.002C347.921 175.995 344.808 182.177 348.046 186.531L348.822 187.575C350.268 189.52 350.122 192.22 348.473 193.997C346.464 196.163 343.031 196.14 341.051 193.948L338.019 190.59C334.247 186.412 327.404 187.619 325.289 192.836L322.708 198.373C320.481 203.149 313.388 202.008 312.771 196.774C312.668 195.9 312.788 195.013 313.119 194.197Z" fill="#85AB34" stroke="#42561A" stroke-width="3"/>
<path d="M323.421 162.933L331.909 171.467C333.434 173 335.917 172.997 337.438 171.459C339.029 169.851 338.919 167.23 337.199 165.761L328.047 157.942C326.738 156.823 324.799 156.858 323.531 158.024C322.107 159.332 322.057 161.562 323.421 162.933Z" fill="#85AB34" stroke="#42561A" stroke-width="3"/>
<circle cx="378.984" cy="185.819" r="3.37551" transform="rotate(-11.6166 378.984 185.819)" fill="#F5A6B9"/>
<circle cx="363.162" cy="198.26" r="3.37551" transform="rotate(-11.6166 363.162 198.26)" fill="#F5A6B9"/>
<circle cx="367.013" cy="216.997" r="3.37551" transform="rotate(-11.6166 367.013 216.997)" fill="#F5A6B9"/>
<circle cx="348.957" cy="224.155" r="3.37551" transform="rotate(-11.6166 348.957 224.155)" fill="#F5A6B9"/>
<circle cx="325.041" cy="208.394" r="3.37551" transform="rotate(-11.6166 325.041 208.394)" fill="#F5A6B9"/>
<circle cx="389.222" cy="202.092" r="3.37551" transform="rotate(-11.6166 389.222 202.092)" fill="#F5A6B9"/>
<circle cx="378.213" cy="165.301" r="3.37551" transform="rotate(-11.6166 378.213 165.301)" fill="#F5A6B9"/>
<circle cx="386.461" cy="222.189" r="3.37551" transform="rotate(-11.6166 386.461 222.189)" fill="#F5A6B9"/>
<circle cx="343.582" cy="209.178" r="3.37551" transform="rotate(-11.6166 343.582 209.178)" fill="#F5A6B9"/>
<path d="M399.955 222.083L410.303 187.245C411.529 183.117 415.803 180.7 419.972 181.777L464.579 193.3C468.925 194.423 471.497 198.9 470.277 203.22L462.145 232.021C461.172 235.467 458.027 237.847 454.446 237.847H432.86C432.288 237.847 431.718 237.785 431.16 237.664L405.924 232.178C401.377 231.189 398.63 226.543 399.955 222.083Z" fill="#7E6144" stroke="#3F3022" stroke-width="3"/>
<path d="M434.154 198.832L437.5 202.847L443.987 200.771C447.586 199.619 451.521 200.874 453.788 203.898C456.018 206.871 456.159 210.92 454.139 214.041L453.723 214.684C452.602 216.416 450.971 217.758 449.055 218.525L432 225.347L421.364 211.165C420.466 209.968 419.848 208.585 419.554 207.118L419.316 205.928C418.545 202.071 420.525 198.189 424.101 196.55C427.583 194.955 431.702 195.889 434.154 198.832Z" stroke="#3F3022" stroke-width="3"/>
<circle cx="398.5" cy="225.347" r="14" fill="#45444D" stroke="#2C2336" stroke-width="3"/>
<path d="M401 213.847L402 210.847" stroke="#2C2336" stroke-width="3" stroke-linecap="round"/>
<path d="M389 214.847L394.794 216.629C395.214 216.759 395.5 217.146 395.5 217.585V219.426C395.5 220.235 396.411 220.709 397.073 220.245L399.55 218.511C400.051 218.161 400.745 218.337 401.018 218.883L402.725 222.297C403.148 223.142 404.399 222.983 404.597 222.059L405.211 219.197C405.353 218.531 406.105 218.199 406.692 218.542L411.5 221.347" stroke="#2C2336" stroke-width="3"/>
</g>
<defs>
<radialGradient id="paint0_radial_280_2268" cx="0" cy="0" r="1" gradientUnits="userSpaceOnUse" gradientTransform="translate(313.117 343.222) rotate(-86.8695) scale(27.4159 71.7911)">
<stop stop-color="#FCE1E8"/>
<stop offset="1" stop-color="#EF6B8A"/>
</radialGradient>
<radialGradient id="paint1_radial_280_2268" cx="0" cy="0" r="1" gradientUnits="userSpaceOnUse" gradientTransform="translate(459.883 343.222) rotate(-93.1305) scale(27.4159 71.7911)">
<stop stop-color="#FCE1E8"/>
<stop offset="1" stop-color="#EF6B8A"/>
</radialGradient>
<radialGradient id="paint2_radial_280_2268" cx="0" cy="0" r="1" gradientUnits="userSpaceOnUse" gradientTransform="translate(490.117 343.222) rotate(-86.8695) scale(27.4159 71.7911)">
<stop stop-color="#FCE1E8"/>
<stop offset="1" stop-color="#EF6B8A"/>
</radialGradient>
<radialGradient id="paint3_radial_280_2268" cx="0" cy="0" r="1" gradientUnits="userSpaceOnUse" gradientTransform="translate(630.883 343.222) rotate(-93.1305) scale(27.4159 71.7911)">
<stop stop-color="#FCE1E8"/>
<stop offset="1" stop-color="#EF6B8A"/>
</radialGradient>
<radialGradient id="paint4_radial_280_2268" cx="0" cy="0" r="1" gradientUnits="userSpaceOnUse" gradientTransform="translate(663.117 343.222) rotate(-86.8695) scale(27.4159 71.7911)">
<stop stop-color="#FCE1E8"/>
<stop offset="1" stop-color="#EF6B8A"/>
</radialGradient>
</defs>
</svg>
