<svg width="1033" height="632" viewBox="0 0 1033 632" fill="none" xmlns="http://www.w3.org/2000/svg">
<mask id="mask0_280_2268" style="mask-type:alpha" maskUnits="userSpaceOnUse" x="0" y="0" width="1032" height="632">
<path d="M31.6133 17.243C32.1102 7.57999 40.09 0 49.7658 0H1013.36C1023.77 0 1032.05 8.71841 1031.52 19.1099L1000.89 614.757C1000.39 624.42 992.41 632 982.734 632H19.1352C8.72991 632 0.448336 623.282 0.982711 612.89L31.6133 17.243Z" fill="#FF0000"/>
</mask>
<g mask="url(#mask0_280_2268)">
<path d="M672.076 310.589L619.69 296.865C618.661 296.596 617.601 297.178 617.278 298.192L616.349 301.1C616.133 301.777 616.292 302.518 616.768 303.046L670.498 362.715C670.778 363.026 671.149 363.241 671.557 363.331L725.969 375.239C726.402 375.333 726.854 375.282 727.255 375.091L780.85 349.618C781.547 349.287 781.992 348.584 781.992 347.812V344.867C781.992 344.359 781.798 343.869 781.45 343.499L727.637 286.142C727.042 285.507 726.103 285.33 725.318 285.705L673.444 310.459C673.017 310.663 672.533 310.709 672.076 310.589Z" fill="#ACABC0" stroke="#676773" stroke-width="3"/>
<path d="M672.991 311.576L725.991 370.377L672.783 358.685L619.991 298.076L672.991 311.576Z" fill="#FCFCFC"/>
<path d="M730.49 360.507L688.373 315.582C687.444 314.591 687.752 312.983 688.981 312.405L710.645 302.209C711.445 301.833 712.396 302.026 712.986 302.684L753.711 348.09C754.601 349.082 754.289 350.652 753.086 351.229L732.813 360.943C732.027 361.319 731.087 361.143 730.49 360.507Z" fill="#45444D" stroke="#42394D" stroke-width="3" stroke-linecap="round"/>
<path d="M731.178 302.877C730.273 300.197 731.712 297.291 734.392 296.386L751.598 290.576L754.875 300.281L737.669 306.091C734.989 306.996 732.082 305.557 731.178 302.877Z" fill="#FFE6D1"/>
<path d="M729.755 303.357C728.585 299.892 730.446 296.135 733.91 294.965L752.538 288.675L753.492 291.499L750.655 292.477L734.87 297.807C732.975 298.447 731.958 300.502 732.597 302.397C733.237 304.292 735.292 305.31 737.187 304.67L747.591 301.157C748.368 300.895 749.211 301.305 749.485 302.079C749.763 302.867 749.343 303.732 748.55 304L738.147 307.512C734.682 308.682 730.925 306.822 729.755 303.357Z" fill="#2C2336"/>
</g>
</svg>
