<svg width="1033" height="632" viewBox="0 0 1033 632" fill="none" xmlns="http://www.w3.org/2000/svg">
<mask id="mask0_280_2268" style="mask-type:alpha" maskUnits="userSpaceOnUse" x="0" y="0" width="1032" height="632">
<path d="M31.6133 17.243C32.1102 7.57999 40.09 0 49.7658 0H1013.36C1023.77 0 1032.05 8.71841 1031.52 19.1099L1000.89 614.757C1000.39 624.42 992.41 632 982.734 632H19.1352C8.72991 632 0.448336 623.282 0.982711 612.89L31.6133 17.243Z" fill="#FF0000"/>
</mask>
<g mask="url(#mask0_280_2268)">
<path d="M737.145 302.636L766.393 319.636C777.477 326.078 779.104 341.436 769.616 350.058C757.722 360.867 740.007 362.22 726.609 353.343L702.995 337.695C691.404 330.015 690.87 313.188 701.95 304.788C712.174 297.038 726.053 296.189 737.145 302.636Z" fill="#8A899A" stroke="#45444D" stroke-width="3"/>
<ellipse cx="715.262" cy="310" rx="5.5" ry="3" fill="#8A899A" stroke="#45444D" stroke-width="3"/>
<ellipse cx="731.262" cy="310" rx="5.5" ry="3" fill="#8A899A" stroke="#45444D" stroke-width="3"/>
<path d="M753.138 341.298L757.739 343.966C758.044 344.143 758.42 344.147 758.728 343.975L764.051 341.005C764.726 340.628 764.737 339.661 764.07 339.269L759.888 336.813L763.261 334.572C763.892 334.153 763.846 333.212 763.177 332.857L758.328 330.278C758.01 330.109 757.626 330.124 757.322 330.317L753.243 332.91L749.235 330.555C748.93 330.376 748.555 330.371 748.246 330.541L742.795 333.546C742.114 333.921 742.103 334.896 742.776 335.286L746.293 337.327L742.15 339.96C741.523 340.358 741.534 341.276 742.169 341.66L747.089 344.629C747.42 344.829 747.837 344.82 748.159 344.606L753.138 341.298Z" fill="#8A899A" stroke="#45444D" stroke-width="3"/>
<g filter="url(#filter0_d_280_2268)">
<rect x="580" y="171" width="145.76" height="81.9236" rx="2" fill="#EBF9FF" fill-opacity="0.5" shape-rendering="crispEdges"/>
<rect x="580" y="171" width="145.76" height="81.9236" rx="2" stroke="#EBF9FF" stroke-width="3" shape-rendering="crispEdges"/>
</g>
<g filter="url(#filter1_d_280_2268)">
<rect x="603.406" y="188.023" width="64.9006" height="38.302" rx="5" stroke="#EBF9FF" stroke-width="3" shape-rendering="crispEdges"/>
</g>
<g filter="url(#filter2_d_280_2268)">
<path d="M694.517 204.495L694.507 204.489L694.497 204.483C694.48 204.473 694.467 204.465 694.458 204.459C694.455 204.458 694.453 204.456 694.452 204.455L694.35 204.339L694.317 204.317L694.269 204.267L688.379 198.033C688.379 198.033 688.379 198.032 688.379 198.032C687.548 197.15 686.904 196.148 686.44 195.017C685.993 193.889 685.766 192.683 685.766 191.388C685.766 190.705 685.893 190.062 686.148 189.446C686.406 188.821 686.765 188.275 687.227 187.8C687.676 187.338 688.197 186.978 688.798 186.716C689.386 186.459 689.997 186.332 690.644 186.332C691.275 186.332 691.847 186.441 692.375 186.652L692.375 186.652L692.382 186.655C692.932 186.871 693.431 187.182 693.884 187.597L694.887 188.515L695.899 187.608C696.353 187.2 696.856 186.89 697.412 186.671L697.421 186.668L697.43 186.664C697.974 186.442 698.538 186.332 699.134 186.332C699.807 186.332 700.428 186.461 701.012 186.716C701.612 186.978 702.138 187.337 702.599 187.8C703.05 188.274 703.404 188.82 703.663 189.447C703.917 190.062 704.044 190.705 704.044 191.388C704.044 192.678 703.808 193.879 703.343 195.005C702.871 196.146 702.213 197.153 701.365 198.035C701.364 198.036 701.363 198.037 701.362 198.038L701.24 198.163L701.232 198.171L701.225 198.179L695.319 204.43C695.183 204.567 695.068 204.61 694.897 204.61C694.845 204.61 694.777 204.603 694.69 204.58L694.651 204.567L694.612 204.552C694.586 204.537 694.555 204.518 694.517 204.495Z" stroke="#FBE7F2" stroke-width="3" shape-rendering="crispEdges"/>
</g>
<rect x="610.291" y="195.971" width="36.238" height="2.19183" rx="1.09592" fill="#D8F3FF" stroke="#EBF9FF"/>
<rect x="610.291" y="203.418" width="36.238" height="2.19183" rx="1.09592" fill="#D8F3FF" stroke="#EBF9FF"/>
<rect x="610.291" y="210.866" width="26.6625" height="2.19183" rx="1.09592" fill="#D8F3FF" stroke="#EBF9FF"/>
<g filter="url(#filter3_d_280_2268)">
<path d="M720.441 329.528L580 255.052" stroke="#EBF9FF" stroke-width="3" stroke-linejoin="round" stroke-dasharray="1 6"/>
</g>
<g filter="url(#filter4_d_280_2268)">
<path d="M722.568 328.464L725.76 255.052" stroke="#EBF9FF" stroke-width="3" stroke-linejoin="round" stroke-dasharray="1 6"/>
</g>
<g filter="url(#filter5_d_280_2268)">
<circle cx="722.324" cy="329.282" r="1.59592" transform="rotate(-11.5082 722.324 329.282)" fill="#FCFCFC"/>
<circle cx="722.324" cy="329.282" r="1.59592" transform="rotate(-11.5082 722.324 329.282)" stroke="#EBF9FF" stroke-width="3"/>
</g>
<g filter="url(#filter6_d_280_2268)">
<path fill-rule="evenodd" clip-rule="evenodd" d="M672.527 221C668.108 221 664.527 224.582 664.527 229V233C664.527 233.227 664.536 233.451 664.555 233.673C664.635 234.645 664.233 235.647 663.361 236.083L657.316 239.106C656.372 239.577 656.708 241 657.763 241H672.527H674.527H697.527C701.945 241 705.527 237.418 705.527 233V229C705.527 224.582 701.945 221 697.527 221H672.527Z" fill="#EBF9FF"/>
</g>
<path d="M731.178 302.877C730.273 300.197 731.712 297.291 734.392 296.386L751.598 290.576L754.875 300.281L737.669 306.091C734.989 306.996 732.082 305.557 731.178 302.877Z" fill="#FFE6D1"/>
<path d="M729.755 303.357C728.585 299.892 730.446 296.135 733.91 294.965L752.538 288.675L753.492 291.499L750.655 292.477L734.87 297.807C732.975 298.447 731.958 300.502 732.597 302.397C733.237 304.292 735.292 305.31 737.187 304.67L747.591 301.157C748.368 300.895 749.211 301.305 749.485 302.079C749.763 302.867 749.343 303.732 748.55 304L738.147 307.512C734.682 308.682 730.925 306.822 729.755 303.357Z" fill="#2C2336"/>
</g>
<defs>
<filter id="filter0_d_280_2268" x="563.5" y="154.5" width="178.76" height="114.924" filterUnits="userSpaceOnUse" color-interpolation-filters="sRGB">
<feFlood flood-opacity="0" result="BackgroundImageFix"/>
<feColorMatrix in="SourceAlpha" type="matrix" values="0 0 0 0 0 0 0 0 0 0 0 0 0 0 0 0 0 0 127 0" result="hardAlpha"/>
<feOffset/>
<feGaussianBlur stdDeviation="7.5"/>
<feComposite in2="hardAlpha" operator="out"/>
<feColorMatrix type="matrix" values="0 0 0 0 0.875972 0 0 0 0 0.963289 0 0 0 0 0.991667 0 0 0 1 0"/>
<feBlend mode="normal" in2="BackgroundImageFix" result="effect1_dropShadow_280_2268"/>
<feBlend mode="normal" in="SourceGraphic" in2="effect1_dropShadow_280_2268" result="shape"/>
</filter>
<filter id="filter1_d_280_2268" x="586.906" y="171.523" width="97.9004" height="71.3018" filterUnits="userSpaceOnUse" color-interpolation-filters="sRGB">
<feFlood flood-opacity="0" result="BackgroundImageFix"/>
<feColorMatrix in="SourceAlpha" type="matrix" values="0 0 0 0 0 0 0 0 0 0 0 0 0 0 0 0 0 0 127 0" result="hardAlpha"/>
<feOffset/>
<feGaussianBlur stdDeviation="7.5"/>
<feComposite in2="hardAlpha" operator="out"/>
<feColorMatrix type="matrix" values="0 0 0 0 1 0 0 0 0 1 0 0 0 0 1 0 0 0 1 0"/>
<feBlend mode="normal" in2="BackgroundImageFix" result="effect1_dropShadow_280_2268"/>
<feBlend mode="normal" in="SourceGraphic" in2="effect1_dropShadow_280_2268" result="shape"/>
</filter>
<filter id="filter2_d_280_2268" x="664.266" y="164.832" width="61.2793" height="61.2788" filterUnits="userSpaceOnUse" color-interpolation-filters="sRGB">
<feFlood flood-opacity="0" result="BackgroundImageFix"/>
<feColorMatrix in="SourceAlpha" type="matrix" values="0 0 0 0 0 0 0 0 0 0 0 0 0 0 0 0 0 0 127 0" result="hardAlpha"/>
<feOffset/>
<feGaussianBlur stdDeviation="10"/>
<feComposite in2="hardAlpha" operator="out"/>
<feColorMatrix type="matrix" values="0 0 0 0 0.976471 0 0 0 0 0.866667 0 0 0 0 0.92549 0 0 0 1 0"/>
<feBlend mode="normal" in2="BackgroundImageFix" result="effect1_dropShadow_280_2268"/>
<feBlend mode="normal" in="SourceGraphic" in2="effect1_dropShadow_280_2268" result="shape"/>
</filter>
<filter id="filter3_d_280_2268" x="564.297" y="242.727" width="171.846" height="107.126" filterUnits="userSpaceOnUse" color-interpolation-filters="sRGB">
<feFlood flood-opacity="0" result="BackgroundImageFix"/>
<feColorMatrix in="SourceAlpha" type="matrix" values="0 0 0 0 0 0 0 0 0 0 0 0 0 0 0 0 0 0 127 0" result="hardAlpha"/>
<feOffset dy="4"/>
<feGaussianBlur stdDeviation="7.5"/>
<feComposite in2="hardAlpha" operator="out"/>
<feColorMatrix type="matrix" values="0 0 0 0 0.87451 0 0 0 0 0.964706 0 0 0 0 0.992157 0 0 0 1 0"/>
<feBlend mode="normal" in2="BackgroundImageFix" result="effect1_dropShadow_280_2268"/>
<feBlend mode="normal" in="SourceGraphic" in2="effect1_dropShadow_280_2268" result="shape"/>
</filter>
<filter id="filter4_d_280_2268" x="706.07" y="243.987" width="36.1875" height="103.542" filterUnits="userSpaceOnUse" color-interpolation-filters="sRGB">
<feFlood flood-opacity="0" result="BackgroundImageFix"/>
<feColorMatrix in="SourceAlpha" type="matrix" values="0 0 0 0 0 0 0 0 0 0 0 0 0 0 0 0 0 0 127 0" result="hardAlpha"/>
<feOffset dy="4"/>
<feGaussianBlur stdDeviation="7.5"/>
<feComposite in2="hardAlpha" operator="out"/>
<feColorMatrix type="matrix" values="0 0 0 0 0.87451 0 0 0 0 0.964706 0 0 0 0 0.992157 0 0 0 1 0"/>
<feBlend mode="normal" in2="BackgroundImageFix" result="effect1_dropShadow_280_2268"/>
<feBlend mode="normal" in="SourceGraphic" in2="effect1_dropShadow_280_2268" result="shape"/>
</filter>
<filter id="filter5_d_280_2268" x="715.227" y="322.186" width="14.1934" height="14.1929" filterUnits="userSpaceOnUse" color-interpolation-filters="sRGB">
<feFlood flood-opacity="0" result="BackgroundImageFix"/>
<feColorMatrix in="SourceAlpha" type="matrix" values="0 0 0 0 0 0 0 0 0 0 0 0 0 0 0 0 0 0 127 0" result="hardAlpha"/>
<feOffset/>
<feGaussianBlur stdDeviation="2"/>
<feComposite in2="hardAlpha" operator="out"/>
<feColorMatrix type="matrix" values="0 0 0 0 0.875972 0 0 0 0 0.963289 0 0 0 0 0.991667 0 0 0 1 0"/>
<feBlend mode="normal" in2="BackgroundImageFix" result="effect1_dropShadow_280_2268"/>
<feBlend mode="normal" in="SourceGraphic" in2="effect1_dropShadow_280_2268" result="shape"/>
</filter>
<filter id="filter6_d_280_2268" x="641.762" y="206" width="78.7656" height="50" filterUnits="userSpaceOnUse" color-interpolation-filters="sRGB">
<feFlood flood-opacity="0" result="BackgroundImageFix"/>
<feColorMatrix in="SourceAlpha" type="matrix" values="0 0 0 0 0 0 0 0 0 0 0 0 0 0 0 0 0 0 127 0" result="hardAlpha"/>
<feOffset/>
<feGaussianBlur stdDeviation="7.5"/>
<feComposite in2="hardAlpha" operator="out"/>
<feColorMatrix type="matrix" values="0 0 0 0 0.875972 0 0 0 0 0.963289 0 0 0 0 0.991667 0 0 0 1 0"/>
<feBlend mode="normal" in2="BackgroundImageFix" result="effect1_dropShadow_280_2268"/>
<feBlend mode="normal" in="SourceGraphic" in2="effect1_dropShadow_280_2268" result="shape"/>
</filter>
</defs>
</svg>
