<svg width="1033" height="632" viewBox="0 0 1033 632" fill="none" xmlns="http://www.w3.org/2000/svg">
<mask id="mask0_280_2268" style="mask-type:alpha" maskUnits="userSpaceOnUse" x="0" y="0" width="1032" height="632">
<path d="M31.6133 17.243C32.1102 7.57999 40.09 0 49.7658 0H1013.36C1023.77 0 1032.05 8.71841 1031.52 19.1099L1000.89 614.757C1000.39 624.42 992.41 632 982.734 632H19.1352C8.72991 632 0.448336 623.282 0.982711 612.89L31.6133 17.243Z" fill="#FF0000"/>
</mask>
<g mask="url(#mask0_280_2268)">
<path d="M716.072 299.992L716.528 301.421L716.072 299.992C714.974 300.342 713.612 300.4 712.164 300.095L710.598 299.766C707.51 299.116 704.332 299.663 702.313 301.597L701.438 302.436C700.796 303.051 699.804 303.511 698.516 303.652L697.058 303.811C694.053 304.139 691.506 305.81 690.745 308.576L690.434 309.708C690.222 310.478 689.692 311.164 688.812 311.651L687.683 312.275C685.094 313.706 683.908 316.395 684.595 319.273L684.895 320.527C685.129 321.505 684.979 322.359 684.553 323.035L683.927 324.028C682.397 326.453 682.879 329.462 684.662 331.903L685.527 333.087C686.291 334.133 686.62 335.176 686.598 336.065L686.569 337.277C686.501 340.072 688.239 342.788 690.8 344.631L692.099 345.566C693.3 346.43 694.176 347.475 694.656 348.522L695.228 349.768C696.443 352.412 699.055 354.569 702.08 355.638L703.615 356.181C705.042 356.686 706.334 357.495 707.318 358.482L708.404 359.572C710.595 361.769 713.758 363.165 716.858 363.302L718.395 363.37L718.461 361.872L718.395 363.37C719.787 363.432 721.256 363.84 722.591 364.555L724.026 365.323C726.855 366.837 730.209 367.312 732.981 366.427L734.286 366.01C735.384 365.659 736.746 365.602 738.194 365.906L739.76 366.236C742.848 366.886 746.026 366.339 748.045 364.404L748.92 363.566C749.562 362.951 750.554 362.491 751.842 362.35L753.3 362.191C756.305 361.863 758.852 360.191 759.613 357.426L759.924 356.294C760.136 355.523 760.666 354.837 761.546 354.351L762.675 353.727C765.264 352.295 766.45 349.606 765.763 346.729L765.463 345.475L764.004 345.824L765.463 345.475C765.229 344.497 765.379 343.643 765.805 342.967L766.431 341.974C767.961 339.548 767.479 336.54 765.696 334.099L764.831 332.915C764.067 331.869 763.738 330.825 763.759 329.937L763.789 328.725C763.857 325.929 762.119 323.214 759.558 321.37L758.259 320.436C757.058 319.571 756.182 318.527 755.702 317.48L755.13 316.234C753.915 313.589 751.303 311.433 748.278 310.363L746.743 309.821C745.316 309.316 744.024 308.506 743.04 307.519L741.954 306.43C739.763 304.232 736.6 302.837 733.5 302.7L731.963 302.632C730.571 302.57 729.102 302.161 727.767 301.447L726.332 300.679C723.503 299.165 720.149 298.689 717.377 299.575L716.072 299.992Z" fill="#5F4933" stroke="#3F3022" stroke-width="3"/>
<path d="M717.738 294.875L718.194 296.303L717.738 294.875C716.64 295.225 715.278 295.283 713.83 294.978L712.264 294.649C709.176 293.999 705.998 294.545 703.979 296.48L703.104 297.319C702.462 297.934 701.47 298.394 700.182 298.534L698.724 298.694C695.719 299.022 693.172 300.693 692.411 303.458L692.1 304.591C691.888 305.361 691.358 306.047 690.478 306.534L689.349 307.157C686.76 308.589 685.574 311.278 686.261 314.156L686.561 315.409C686.795 316.388 686.645 317.242 686.219 317.917L685.593 318.911C684.063 321.336 684.545 324.344 686.328 326.786L687.193 327.97C687.957 329.016 688.286 330.059 688.265 330.948L688.235 332.159C688.167 334.955 689.905 337.671 692.466 339.514L693.765 340.449C694.966 341.313 695.842 342.358 696.322 343.405L696.894 344.65C698.109 347.295 700.721 349.452 703.746 350.521L705.281 351.064C706.708 351.568 708 352.378 708.984 353.365L710.07 354.455C712.261 356.652 715.424 358.048 718.524 358.185L720.061 358.253L720.127 356.754L720.061 358.253C721.453 358.314 722.922 358.723 724.257 359.437L725.692 360.206C728.521 361.719 731.875 362.195 734.647 361.31L735.952 360.893C737.05 360.542 738.412 360.484 739.86 360.789L741.426 361.119C744.514 361.769 747.692 361.222 749.711 359.287L750.586 358.449C751.228 357.834 752.22 357.373 753.508 357.233L754.966 357.074C757.971 356.745 760.518 355.074 761.279 352.309L761.59 351.177C761.802 350.406 762.332 349.72 763.212 349.234L764.341 348.61C766.93 347.178 768.116 344.489 767.429 341.612L767.129 340.358L765.67 340.707L767.129 340.358C766.895 339.38 767.045 338.526 767.471 337.85L768.097 336.857C769.627 334.431 769.145 331.423 767.362 328.982L766.497 327.797C765.733 326.751 765.404 325.708 765.425 324.82L765.455 323.608C765.523 320.812 763.785 318.096 761.224 316.253L759.925 315.319C758.724 314.454 757.848 313.409 757.368 312.362L756.796 311.117C755.581 308.472 752.969 306.315 749.944 305.246L748.409 304.703C746.982 304.199 745.69 303.389 744.706 302.402L743.62 301.313C741.429 299.115 738.266 297.719 735.166 297.582L733.629 297.514C732.237 297.453 730.768 297.044 729.433 296.33L727.998 295.562C725.169 294.048 721.815 293.572 719.043 294.458L717.738 294.875Z" fill="#7E6144" stroke="#3F3022" stroke-width="3"/>
<path d="M758.966 343.591C756.054 349.117 750.045 352.536 742.391 353.398C734.748 354.258 725.63 352.532 716.897 347.929C708.163 343.327 701.585 336.781 697.974 329.99C694.359 323.189 693.782 316.3 696.694 310.774C699.606 305.248 705.616 301.829 713.269 300.967C720.912 300.106 730.03 301.833 738.764 306.435C747.497 311.038 754.076 317.583 757.686 324.375C761.301 331.175 761.878 338.065 758.966 343.591Z" fill="#F5F5F7" stroke="#BDBCCD" stroke-width="3"/>
<path d="M695.081 339.88L694.531 338.487L695.081 339.88C695.584 339.675 696.238 339.691 697.039 340.181L698.094 340.826C699.288 341.556 700.613 341.861 701.921 341.586C703.23 341.312 704.333 340.499 705.152 339.347L705.876 338.329C706.426 337.556 707.022 337.279 707.563 337.265L707.537 335.762L707.563 337.265L708.606 337.237C711.457 337.162 713.323 334.697 714.044 331.782L714.411 330.296C714.75 328.927 715.32 328.033 715.901 327.57L714.978 326.396L715.901 327.57L716.775 326.874C718.864 325.209 719.787 322.026 719.701 318.757L719.656 317.029C719.613 315.369 719.888 313.913 720.376 312.835L720.946 311.576C722.138 308.948 722.233 305.402 721.372 302.138L720.921 300.431C720.487 298.787 720.352 297.08 720.521 295.553L720.702 293.924C721.055 290.728 720.343 287.147 718.798 284.349L718.01 282.923C717.272 281.586 716.744 279.962 716.515 278.274L716.278 276.522C715.825 273.173 714.383 269.949 712.284 268.01L711.279 267.082C710.418 266.287 709.61 265.057 709.016 263.513L708.398 261.905C707.228 258.863 705.165 256.306 702.606 255.615L701.537 255.326C700.826 255.134 699.959 254.541 699.126 253.418L698.22 252.198C696.444 249.806 693.786 248.289 691.135 249.367L690.164 249.762C689.662 249.966 689.008 249.951 688.207 249.461L687.152 248.816C685.958 248.086 684.633 247.781 683.325 248.055C682.016 248.329 680.913 249.143 680.094 250.295L679.369 251.313C678.82 252.086 678.224 252.363 677.683 252.377L676.64 252.405C673.789 252.48 671.923 254.945 671.202 257.86L670.835 259.346C670.496 260.714 669.925 261.609 669.345 262.072L668.471 262.767C666.381 264.433 665.459 267.615 665.544 270.885L665.589 272.613C665.633 274.272 665.358 275.729 664.87 276.807L664.3 278.065C663.108 280.694 663.013 284.24 663.874 287.503L664.325 289.21C664.759 290.855 664.893 292.562 664.724 294.089L664.544 295.718C664.19 298.914 664.902 302.494 666.448 305.292L667.236 306.718C667.974 308.056 668.502 309.68 668.731 311.368L668.968 313.12C669.421 316.468 670.862 319.692 672.962 321.632L673.981 320.521L672.962 321.632L673.967 322.56C674.828 323.355 675.636 324.585 676.23 326.129L676.848 327.737C678.018 330.779 680.081 333.336 682.64 334.027L683.709 334.316L684.11 332.864L683.709 334.316C684.42 334.508 685.286 335.101 686.12 336.224L687.026 337.443C688.802 339.835 691.46 341.352 694.111 340.274L695.081 339.88Z" fill="#5F4933" stroke="#3F3022" stroke-width="3"/>
<path d="M687.835 339.88L687.285 338.487L687.835 339.88C688.338 339.675 688.992 339.691 689.793 340.181L690.848 340.826C692.042 341.556 693.367 341.861 694.675 341.586C695.983 341.312 697.086 340.499 697.906 339.347L698.63 338.329C699.18 337.556 699.776 337.279 700.316 337.265L700.291 335.762L700.316 337.265L701.36 337.237C704.21 337.162 706.077 334.697 706.798 331.782L707.165 330.296C707.504 328.927 708.074 328.033 708.655 327.57L707.732 326.396L708.655 327.57L709.528 326.874C711.618 325.209 712.541 322.026 712.455 318.757L712.41 317.029C712.367 315.369 712.642 313.913 713.13 312.835L713.7 311.576C714.891 308.948 714.987 305.402 714.125 302.138L713.675 300.431C713.241 298.787 713.106 297.08 713.275 295.553L713.456 293.924C713.809 290.728 713.097 287.147 711.552 284.349L710.764 282.923C710.026 281.586 709.498 279.962 709.269 278.274L709.032 276.522C708.579 273.173 707.137 269.949 705.038 268.01L704.033 267.082C703.172 266.287 702.364 265.057 701.77 263.513L701.152 261.905C699.982 258.863 697.918 256.306 695.36 255.615L694.291 255.326C693.58 255.134 692.713 254.541 691.879 253.418L690.974 252.198C689.198 249.806 686.54 248.289 683.889 249.367L682.918 249.762C682.415 249.966 681.762 249.951 680.961 249.461L679.906 248.816C678.712 248.086 677.387 247.781 676.078 248.055C674.77 248.329 673.667 249.143 672.847 250.295L672.123 251.313C671.573 252.086 670.978 252.363 670.437 252.377L669.394 252.405C666.543 252.48 664.677 254.945 663.956 257.86L663.589 259.346C663.25 260.714 662.679 261.609 662.098 262.072L661.225 262.767C659.135 264.433 658.213 267.615 658.298 270.885L658.343 272.613C658.387 274.272 658.112 275.729 657.624 276.807L657.054 278.065C655.862 280.694 655.767 284.24 656.628 287.503L657.079 289.21C657.513 290.855 657.647 292.562 657.478 294.089L657.298 295.718C656.944 298.914 657.656 302.494 659.202 305.292L659.989 306.718C660.728 308.056 661.256 309.68 661.484 311.368L661.721 313.12C662.175 316.468 663.616 319.692 665.716 321.632L666.735 320.521L665.716 321.632L666.721 322.56C667.582 323.355 668.39 324.585 668.984 326.129L669.602 327.737C670.772 330.779 672.835 333.336 675.394 334.027L676.463 334.316L676.864 332.864L676.463 334.316C677.174 334.508 678.04 335.101 678.874 336.224L679.78 337.443C681.556 339.835 684.214 341.352 686.865 340.274L687.835 339.88Z" fill="#7E6144" stroke="#3F3022" stroke-width="3"/>
<ellipse cx="688.82" cy="282.258" rx="1.55278" ry="3.18817" fill="#3F3022"/>
<ellipse cx="696.066" cy="302.45" rx="1.55278" ry="3.18817" fill="#3F3022"/>
<ellipse cx="688.82" cy="316.267" rx="1.55278" ry="3.18817" fill="#3F3022"/>
<ellipse cx="677.432" cy="309.889" rx="1.55278" ry="3.18817" fill="#3F3022"/>
<ellipse cx="671.221" cy="291.823" rx="1.55278" ry="3.18817" fill="#3F3022"/>
<ellipse cx="677.432" cy="278.008" rx="1.55278" ry="3.18817" fill="#3F3022"/>
<ellipse cx="682.607" cy="297.136" rx="1.55278" ry="3.18817" fill="#3F3022"/>
<path d="M731.178 302.877C730.273 300.197 731.712 297.291 734.392 296.386L751.598 290.576L754.875 300.281L737.669 306.091C734.989 306.996 732.082 305.557 731.178 302.877Z" fill="#FFE6D1"/>
<path d="M729.755 303.357C728.585 299.892 730.446 296.135 733.91 294.965L752.538 288.675L753.492 291.499L750.655 292.477L734.87 297.807C732.975 298.447 731.958 300.502 732.597 302.397C733.237 304.292 735.292 305.31 737.187 304.67L747.591 301.157C748.368 300.895 749.211 301.305 749.485 302.079C749.763 302.867 749.343 303.732 748.55 304L738.147 307.512C734.682 308.682 730.925 306.822 729.755 303.357Z" fill="#2C2336"/>
</g>
</svg>
