<svg width="1033" height="632" viewBox="0 0 1033 632" fill="none" xmlns="http://www.w3.org/2000/svg">
<mask id="mask0_280_2268" style="mask-type:alpha" maskUnits="userSpaceOnUse" x="0" y="0" width="1032" height="632">
<path d="M31.6133 17.243C32.1102 7.57999 40.09 0 49.7658 0H1013.36C1023.77 0 1032.05 8.71841 1031.52 19.1099L1000.89 614.757C1000.39 624.42 992.41 632 982.734 632H19.1352C8.72991 632 0.448336 623.282 0.982711 612.89L31.6133 17.243Z" fill="#FF0000"/>
</mask>
<g mask="url(#mask0_280_2268)">
<path d="M723.3 302.937C735.715 306.483 745.89 312.8 752.323 320.069C758.773 327.356 761.323 335.408 759.034 342.584C756.745 349.761 749.913 355.132 740.28 357.826C730.671 360.512 718.503 360.447 706.088 356.9C693.673 353.354 683.499 347.037 677.065 339.768C670.615 332.481 668.065 324.429 670.354 317.253C672.643 310.076 679.475 304.705 689.108 302.012C698.718 299.325 710.886 299.391 723.3 302.937Z" fill="#A6D641" stroke="#648027" stroke-width="3"/>
<path d="M725.414 294.937C737.829 298.483 748.003 304.8 754.437 312.069C760.886 319.356 763.437 327.408 761.148 334.584C758.859 341.761 752.026 347.132 742.393 349.826C732.784 352.512 720.616 352.447 708.201 348.9C695.786 345.354 685.612 339.037 679.178 331.768C672.729 324.481 670.178 316.429 672.467 309.253C674.756 302.076 681.588 296.705 691.222 294.012C700.831 291.325 712.999 291.391 725.414 294.937Z" fill="#A6D641" stroke="#648027" stroke-width="3"/>
<path d="M725.277 305.627C725.848 305.417 726.483 305.478 727.003 305.793L753.014 321.543C754.448 322.411 754.241 324.552 752.668 325.13L736.293 331.152C735.722 331.362 735.087 331.3 734.567 330.985L708.556 315.236C707.122 314.368 707.329 312.227 708.902 311.648L725.277 305.627Z" fill="#85AB34"/>
<mask id="mask1_280_2268" style="mask-type:alpha" maskUnits="userSpaceOnUse" x="654" y="250" width="73" height="90">
<path d="M723.542 281.096C726.742 294.535 725.854 307.545 721.894 317.723C717.906 327.978 710.87 335.225 701.865 337.406C692.861 339.586 683.289 336.361 675.05 329.067C666.817 321.778 660.039 310.512 656.761 296.975C655.438 291.515 656.131 283.733 657.55 275.942C658.833 268.905 660.666 262.069 661.953 257.267C662.025 257 662.095 256.739 662.163 256.485L669.517 252.042L707.283 258.06L723.542 281.096Z" fill="#B8C067" stroke="black" stroke-width="3"/>
</mask>
<g mask="url(#mask1_280_2268)">
<rect x="620.471" y="213.751" width="126" height="134" transform="rotate(-6.39145 620.471 213.751)" fill="#FFEBB7"/>
<path d="M736.311 273.225L713.518 285.338L628.836 306.396L635.07 362.048L729.976 351.417L736.311 273.225Z" fill="#A6D641"/>
</g>
<path d="M723.542 281.096C726.742 294.535 725.854 307.545 721.894 317.723C717.906 327.978 710.87 335.225 701.865 337.406C692.861 339.586 683.289 336.361 675.05 329.067C666.817 321.778 660.039 310.512 656.761 296.975C655.438 291.515 656.131 283.733 657.55 275.942C658.833 268.905 660.666 262.069 661.953 257.267C662.025 257 662.095 256.739 662.163 256.485L669.517 252.042L707.283 258.06L723.542 281.096Z" stroke="#648027" stroke-width="3"/>
<mask id="mask2_280_2268" style="mask-type:alpha" maskUnits="userSpaceOnUse" x="644" y="255" width="75" height="90">
<path d="M715.2 286.136C718.4 299.575 717.512 312.585 713.553 322.763C709.564 333.018 702.528 340.265 693.523 342.446C684.519 344.626 674.947 341.401 666.709 334.107C658.475 326.818 651.697 315.552 648.419 302.015C645.704 290.805 645.835 279.875 648.229 270.624L661.4 257.118L698.941 263.1L715.2 286.136Z" fill="#B8C067" stroke="black" stroke-width="3"/>
</mask>
<g mask="url(#mask2_280_2268)">
<rect x="630.432" y="239.805" width="113" height="86" transform="rotate(-6.39145 630.432 239.805)" fill="#FFEBB7"/>
<path d="M656.307 277.659L638.629 268.068L622.845 338.261L709.071 375.896L729.589 289.576L703.687 282.918L687.786 284.699L673.535 278.748L656.307 277.659Z" fill="#A6D641"/>
</g>
<path d="M715.2 286.136C718.4 299.575 717.512 312.585 713.553 322.763C709.564 333.018 702.528 340.265 693.523 342.446C684.519 344.626 674.947 341.401 666.709 334.107C658.475 326.818 651.697 315.552 648.419 302.015C645.704 290.805 645.835 279.875 648.229 270.624L661.4 257.118L698.941 263.1L715.2 286.136Z" stroke="#648027" stroke-width="3"/>
<path d="M685.347 240.594L712.646 243.835C712.952 243.871 713.224 244.046 713.383 244.309L728.479 269.166C728.864 269.8 728.449 270.618 727.71 270.681L716.368 271.655C716.209 271.669 716.049 271.644 715.902 271.583L699.898 264.998C699.793 264.954 699.696 264.893 699.611 264.817L686.662 253.204C686.5 253.058 686.389 252.863 686.348 252.649L684.248 241.777C684.119 241.112 684.675 240.514 685.347 240.594Z" fill="#F289A1" stroke="#8F4053" stroke-width="3" stroke-linecap="round"/>
<line x1="687.029" y1="251.632" x2="711.836" y2="245.18" stroke="#8F4053" stroke-width="3"/>
<line x1="700.019" y1="263.784" x2="710.845" y2="246.82" stroke="#8F4053" stroke-width="3"/>
<line x1="716.085" y1="272.566" x2="711.831" y2="245.978" stroke="#8F4053" stroke-width="3"/>
<path d="M716.337 239.611C714.978 238.55 713.015 238.791 711.953 240.151L710.612 241.869C709.984 242.673 710.127 243.832 710.93 244.46L712.944 246.032C713.748 246.66 714.908 246.517 715.535 245.714L716.877 243.995C717.939 242.636 717.697 240.673 716.337 239.611Z" fill="#FFEBB7" stroke="#998551" stroke-width="3"/>
<path d="M644.637 234.467L646.132 234.59L644.637 234.467C644.488 236.293 645.786 238.009 647.677 238.197L660.886 239.508C661.781 239.597 662.608 240.184 663.018 241.102L669.541 255.692C670.299 257.389 672.293 258.222 674.029 257.391C675.734 256.574 676.392 254.528 675.644 252.856L669.122 238.266C667.73 235.151 664.838 232.994 661.499 232.662L648.29 231.35C646.376 231.16 644.789 232.624 644.637 234.467Z" fill="#FF9E58" stroke="#CC6B25" stroke-width="3" stroke-linecap="round"/>
<path d="M731.178 302.877C730.273 300.197 731.712 297.291 734.392 296.386L751.598 290.576L754.875 300.281L737.669 306.091C734.989 306.996 732.082 305.557 731.178 302.877Z" fill="#FFE6D1"/>
<path d="M729.755 303.357C728.585 299.892 730.446 296.135 733.91 294.965L752.538 288.675L753.492 291.499L750.655 292.477L734.87 297.807C732.975 298.447 731.958 300.502 732.597 302.397C733.237 304.292 735.292 305.31 737.187 304.67L747.591 301.157C748.368 300.895 749.211 301.305 749.485 302.079C749.763 302.867 749.343 303.732 748.55 304L738.147 307.512C734.682 308.682 730.925 306.822 729.755 303.357Z" fill="#2C2336"/>
</g>
</svg>
