<svg width="1033" height="632" viewBox="0 0 1033 632" fill="none" xmlns="http://www.w3.org/2000/svg">
<mask id="mask0_280_2268" style="mask-type:alpha" maskUnits="userSpaceOnUse" x="0" y="0" width="1032" height="632">
<path d="M31.6133 17.243C32.1102 7.57999 40.09 0 49.7658 0H1013.36C1023.77 0 1032.05 8.71841 1031.52 19.1099L1000.89 614.757C1000.39 624.42 992.41 632 982.734 632H19.1352C8.72991 632 0.448336 623.282 0.982711 612.89L31.6133 17.243Z" fill="#FF0000"/>
</mask>
<g mask="url(#mask0_280_2268)">
<path d="M782.5 344.791V348.813C782.5 348.927 782.434 349.031 782.331 349.08L693.114 391.222C687.114 394.057 679.964 392.611 675.536 387.668C668.662 379.995 671.393 367.835 680.888 363.837L689.936 360.027C689.966 360.014 689.973 359.975 689.949 359.954L687.761 357.974C682.331 353.061 678.131 346.907 675.525 340.064C675.511 340.029 675.471 340.012 675.437 340.027L660.764 346.189C654.785 348.7 647.864 346.673 644.184 341.332C639.379 334.357 641.995 324.736 649.671 321.154L727.032 285.053C727.099 285.021 727.179 285.037 727.23 285.091L781.958 343.423C782.306 343.794 782.5 344.283 782.5 344.791Z" fill="#FFB682" stroke="#CC6B25" stroke-width="3"/>
<path d="M701.998 315.998L695.485 309.485C694.513 308.513 694.788 306.873 696.024 306.272L729.146 290.159C729.948 289.769 730.911 289.957 731.507 290.619L737.712 297.514C738.606 298.506 738.294 300.078 737.091 300.655L704.277 316.388C703.512 316.755 702.598 316.598 701.998 315.998Z" fill="#FCFCFC" stroke="#676773" stroke-width="3" stroke-linecap="round"/>
<path d="M712.498 325.998L705.985 319.485C705.013 318.513 705.288 316.873 706.524 316.272L739.646 300.159C740.448 299.769 741.411 299.957 742.007 300.619L748.212 307.514C749.106 308.506 748.794 310.078 747.591 310.655L714.777 326.388C714.012 326.755 713.098 326.598 712.498 325.998Z" fill="#FCFCFC" stroke="#676773" stroke-width="3" stroke-linecap="round"/>
<path d="M721.498 335.998L714.985 329.485C714.013 328.513 714.288 326.873 715.524 326.272L748.646 310.159C749.448 309.769 750.411 309.957 751.007 310.619L757.212 317.514C758.106 318.506 757.794 320.078 756.591 320.655L723.777 336.388C723.012 336.755 722.098 336.598 721.498 335.998Z" fill="#FCFCFC" stroke="#676773" stroke-width="3" stroke-linecap="round"/>
<path d="M730.015 345.46L723.898 339.003C722.962 338.016 723.265 336.402 724.495 335.82L757.654 320.137C758.453 319.759 759.405 319.95 759.996 320.607L766.182 327.48C767.084 328.482 766.756 330.072 765.53 330.635L732.302 345.902C731.523 346.26 730.604 346.082 730.015 345.46Z" fill="#FCFCFC" stroke="#676773" stroke-width="3" stroke-linecap="round"/>
<path d="M740.498 355.998L733.985 349.485C733.013 348.513 733.288 346.873 734.524 346.272L767.646 330.159C768.448 329.769 769.411 329.957 770.007 330.619L776.212 337.514C777.106 338.506 776.794 340.078 775.591 340.655L742.777 356.388C742.012 356.755 741.098 356.598 740.498 355.998Z" fill="#FCFCFC" stroke="#676773" stroke-width="3" stroke-linecap="round"/>
<path d="M701.423 330.061C700.628 329.827 699.795 330.282 699.561 331.077C699.327 331.872 699.782 332.705 700.577 332.939L701.423 330.061ZM700.577 332.939L702.293 333.444L703.14 330.566L701.423 330.061L700.577 332.939ZM702.293 333.444C705.862 334.493 708.489 337.53 709.015 341.212L711.985 340.788C711.293 335.942 707.835 331.947 703.14 330.566L702.293 333.444Z" fill="#2C2336"/>
<ellipse cx="720.091" cy="353.54" rx="6" ry="4" transform="rotate(23.2024 720.091 353.54)" fill="#EF6B8A"/>
<ellipse cx="692.091" cy="321.54" rx="6" ry="4" transform="rotate(23.2024 692.091 321.54)" fill="#EF6B8A"/>
<ellipse cx="688" cy="326.5" rx="5" ry="4" fill="#2C2336"/>
<ellipse cx="711" cy="355.5" rx="5" ry="4" fill="#2C2336"/>
<path d="M705.473 319.042L701.062 314.925C700.055 313.984 700.278 312.331 701.499 311.691L718.65 302.707C719.447 302.289 720.426 302.456 721.04 303.114L725.192 307.563C726.098 308.534 725.824 310.102 724.642 310.708L707.75 319.36C707 319.744 706.089 319.617 705.473 319.042Z" fill="#676773" stroke="#2C2336" stroke-width="3" stroke-linecap="round"/>
<path d="M717.473 331.542L713.062 327.425C712.055 326.484 712.278 324.831 713.499 324.191L730.65 315.207C731.447 314.789 732.426 314.956 733.04 315.614L737.192 320.063C738.098 321.034 737.824 322.602 736.642 323.208L719.75 331.86C719 332.244 718.089 332.117 717.473 331.542Z" fill="#676773" stroke="#2C2336" stroke-width="3" stroke-linecap="round"/>
<path d="M734.473 349.542L730.062 345.425C729.055 344.484 729.278 342.831 730.499 342.191L747.65 333.207C748.447 332.789 749.426 332.956 750.04 333.614L754.192 338.063C755.098 339.034 754.824 340.602 753.642 341.208L736.75 349.86C736 350.244 735.089 350.117 734.473 349.542Z" fill="#676773" stroke="#2C2336" stroke-width="3" stroke-linecap="round"/>
<path d="M731.178 302.877C730.273 300.197 731.712 297.291 734.392 296.386L751.598 290.576L754.875 300.281L737.669 306.091C734.989 306.996 732.082 305.557 731.178 302.877Z" fill="#FFE6D1"/>
<path d="M729.755 303.357C728.585 299.892 730.446 296.135 733.91 294.965L752.538 288.675L753.492 291.499L750.655 292.477L734.87 297.807C732.975 298.447 731.958 300.502 732.597 302.397C733.237 304.292 735.292 305.31 737.187 304.67L747.591 301.157C748.368 300.895 749.211 301.305 749.485 302.079C749.763 302.867 749.343 303.732 748.55 304L738.147 307.512C734.682 308.682 730.925 306.822 729.755 303.357Z" fill="#2C2336"/>
</g>
</svg>
