<svg width="1033" height="632" viewBox="0 0 1033 632" fill="none" xmlns="http://www.w3.org/2000/svg">
<mask id="mask0_280_2268" style="mask-type:alpha" maskUnits="userSpaceOnUse" x="0" y="0" width="1032" height="632">
<path d="M31.6133 17.243C32.1102 7.57999 40.09 0 49.7658 0H1013.36C1023.77 0 1032.05 8.71841 1031.52 19.1099L1000.89 614.757C1000.39 624.42 992.41 632 982.734 632H19.1352C8.72991 632 0.448336 623.282 0.982711 612.89L31.6133 17.243Z" fill="#FF0000"/>
</mask>
<g mask="url(#mask0_280_2268)">
<rect x="100.302" y="375.514" width="14" height="115" rx="7" transform="rotate(14 100.302 375.514)" fill="#F5F5F7" stroke="#ACABC0" stroke-width="3"/>
<rect x="181.693" y="378.902" width="14" height="115" rx="7" transform="rotate(-14 181.693 378.902)" fill="#F5F5F7" stroke="#ACABC0" stroke-width="3"/>
<rect x="140.5" y="375.5" width="14" height="140" rx="7" fill="#F5F5F7" stroke="#ACABC0" stroke-width="3"/>
<mask id="path-5-inside-1_280_2268" fill="white">
<path fill-rule="evenodd" clip-rule="evenodd" d="M217 330C217 318.402 185.66 309 147 309C108.34 309 77 318.402 77 330V383V385H77.3133C80.6704 395.66 110.589 404 147 404C183.411 404 213.33 395.66 216.687 385H217V383V330Z"/>
</mask>
<path fill-rule="evenodd" clip-rule="evenodd" d="M217 330C217 318.402 185.66 309 147 309C108.34 309 77 318.402 77 330V383V385H77.3133C80.6704 395.66 110.589 404 147 404C183.411 404 213.33 395.66 216.687 385H217V383V330Z" fill="#F5F5F7"/>
<path d="M77 385H74V388H77V385ZM77.3133 385L80.1748 384.099L79.5138 382H77.3133V385ZM216.687 385V382H214.486L213.825 384.099L216.687 385ZM217 385V388H220V385H217ZM147 312C166.122 312 183.318 314.329 195.635 318.024C201.813 319.878 206.594 322.025 209.763 324.273C213.011 326.576 214 328.555 214 330H220C220 325.646 217.072 322.1 213.235 319.379C209.32 316.602 203.849 314.224 197.36 312.277C184.342 308.372 166.538 306 147 306V312ZM80 330C80 328.555 80.9892 326.576 84.2365 324.273C87.406 322.025 92.1868 319.878 98.3646 318.024C110.682 314.329 127.878 312 147 312V306C127.462 306 109.658 308.372 96.6405 312.277C90.1507 314.224 84.6803 316.602 80.7654 319.379C76.9283 322.1 74 325.646 74 330H80ZM74 330V383H80V330H74ZM74 383V385H80V383H74ZM77 388H77.3133V382H77V388ZM74.4519 385.901C75.6244 389.624 78.901 392.634 82.9674 395.046C87.1243 397.512 92.5932 399.641 98.9672 401.39C111.734 404.895 128.593 407 147 407V401C128.996 401 112.69 398.935 100.555 395.604C94.4788 393.937 89.563 391.982 86.0281 389.886C82.4028 387.735 80.6808 385.706 80.1748 384.099L74.4519 385.901ZM147 407C165.407 407 182.266 404.895 195.033 401.39C201.407 399.641 206.876 397.512 211.033 395.046C215.099 392.634 218.376 389.624 219.548 385.901L213.825 384.099C213.319 385.706 211.597 387.735 207.972 389.886C204.437 391.982 199.521 393.937 193.445 395.604C181.31 398.935 165.004 401 147 401V407ZM216.687 388H217V382H216.687V388ZM220 385V383H214V385H220ZM220 383V330H214V383H220Z" fill="#ACABC0" mask="url(#path-5-inside-1_280_2268)"/>
<path d="M200.5 345.5C200.5 347.149 199.435 348.863 197.247 350.241C195.078 351.606 191.99 352.5 188.5 352.5C185.01 352.5 181.922 351.606 179.753 350.241C177.565 348.863 176.5 347.149 176.5 345.5C176.5 343.851 177.565 342.137 179.753 340.759C181.922 339.394 185.01 338.5 188.5 338.5C191.99 338.5 195.078 339.394 197.247 340.759C199.435 342.137 200.5 343.851 200.5 345.5Z" fill="#ACABC0" stroke="#ACABC0" stroke-width="3"/>
<path d="M215.5 330C215.5 332.172 214.026 334.543 210.631 336.951C207.275 339.331 202.322 341.536 196.066 343.413C183.574 347.16 166.226 349.5 147 349.5C127.774 349.5 110.426 347.16 97.9335 343.413C91.6778 341.536 86.7246 339.331 83.3687 336.951C79.974 334.543 78.5 332.172 78.5 330C78.5 327.828 79.974 325.457 83.3687 323.049C86.7246 320.669 91.6778 318.464 97.9335 316.587C110.426 312.84 127.774 310.5 147 310.5C166.226 310.5 183.574 312.84 196.066 316.587C202.322 318.464 207.275 320.669 210.631 323.049C214.026 325.457 215.5 327.828 215.5 330Z" fill="#FCFCFC" stroke="#ACABC0" stroke-width="3"/>
<line x1="128.5" y1="349" x2="128.5" y2="401" stroke="#ACABC0" stroke-width="3"/>
<circle cx="147.5" cy="291.5" r="43" fill="#FCFCFC" stroke="#ACABC0" stroke-width="3"/>
</g>
</svg>
