<svg width="1033" height="632" viewBox="0 0 1033 632" fill="none" xmlns="http://www.w3.org/2000/svg">
<mask id="mask0_280_2268" style="mask-type:alpha" maskUnits="userSpaceOnUse" x="0" y="0" width="1032" height="632">
<path d="M31.6133 17.243C32.1102 7.57999 40.09 0 49.7658 0H1013.36C1023.77 0 1032.05 8.71841 1031.52 19.1099L1000.89 614.757C1000.39 624.42 992.41 632 982.734 632H19.1352C8.72991 632 0.448336 623.282 0.982711 612.89L31.6133 17.243Z" fill="#FF0000"/>
</mask>
<g mask="url(#mask0_280_2268)">
<path fill-rule="evenodd" clip-rule="evenodd" d="M208.73 401C208.909 400.341 209.001 399.674 209.001 399C209.001 386.85 179.207 377 142.454 377C105.7 377 75.9062 386.85 75.9062 399C75.9062 399.674 75.998 400.341 76.1775 401H75.9062V480V482H76.1775C79.2341 493.213 107.74 502 142.454 502C177.167 502 205.673 493.213 208.73 482H209.001V480V401H208.73Z" fill="#FFF8E7"/>
<path d="M208.73 401L207.282 400.606L206.766 402.5H208.73V401ZM76.1775 401V402.5H78.1411L77.6247 400.606L76.1775 401ZM75.9062 401V399.5H74.4062V401H75.9062ZM75.9062 482H74.4062V483.5H75.9062V482ZM76.1775 482L77.6247 481.606L77.3234 480.5H76.1775V482ZM208.73 482V480.5H207.584L207.282 481.606L208.73 482ZM209.001 482V483.5H210.501V482H209.001ZM209.001 401H210.501V399.5H209.001V401ZM210.177 401.394C210.39 400.612 210.501 399.812 210.501 399H207.501C207.501 399.536 207.428 400.071 207.282 400.606L210.177 401.394ZM210.501 399C210.501 395.3 208.232 392.019 204.695 389.255C201.14 386.476 196.088 384.039 189.98 382.019C177.749 377.976 160.945 375.5 142.454 375.5V378.5C160.715 378.5 177.185 380.949 189.039 384.868C194.974 386.83 199.668 389.133 202.847 391.618C206.045 394.118 207.501 396.624 207.501 399H210.501ZM142.454 375.5C123.962 375.5 107.159 377.976 94.9267 382.019C88.8187 384.039 83.7675 386.476 80.2121 389.255C76.6751 392.019 74.4062 395.3 74.4062 399H77.4062C77.4062 396.624 78.8616 394.118 82.0596 391.618C85.2392 389.133 89.9336 386.83 95.8683 384.868C107.722 380.949 124.192 378.5 142.454 378.5V375.5ZM74.4062 399C74.4062 399.812 74.5169 400.612 74.7303 401.394L77.6247 400.606C77.479 400.071 77.4062 399.536 77.4062 399H74.4062ZM75.9062 402.5H76.1775V399.5H75.9062V402.5ZM77.4062 480V401H74.4062V480H77.4062ZM77.4062 482V480H74.4062V482H77.4062ZM76.1775 480.5H75.9062V483.5H76.1775V480.5ZM74.7303 482.394C75.6339 485.709 78.3405 488.621 82.1159 491.108C85.9214 493.615 91.0023 495.816 97.0082 497.64C109.028 501.291 124.985 503.5 142.454 503.5V500.5C125.209 500.5 109.556 498.316 97.88 494.77C92.0381 492.995 87.2499 490.897 83.7661 488.603C80.2522 486.288 78.2494 483.897 77.6247 481.606L74.7303 482.394ZM142.454 503.5C159.922 503.5 175.879 501.291 187.899 497.64C193.905 495.816 198.986 493.615 202.791 491.108C206.567 488.621 209.273 485.709 210.177 482.394L207.282 481.606C206.658 483.897 204.655 486.288 201.141 488.603C197.657 490.897 192.869 492.995 187.027 494.77C175.351 498.316 159.699 500.5 142.454 500.5V503.5ZM209.001 480.5H208.73V483.5H209.001V480.5ZM207.501 480V482H210.501V480H207.501ZM207.501 401V480H210.501V401H207.501ZM208.73 402.5H209.001V399.5H208.73V402.5Z" fill="#CCB26C"/>
<path fill-rule="evenodd" clip-rule="evenodd" d="M78.7708 356C77.1883 356 75.9054 357.283 75.9054 358.865C75.9054 359.965 76.5461 360.951 77.482 361.529C83.0234 364.948 86.7702 371.491 86.7702 379V379C86.7702 384.52 82.0435 388.295 78.1917 392.249C76.1193 394.376 75 396.645 75 399C75 411.15 104.794 421 141.547 421C172.965 421 199.298 413.802 206.281 404.123C207.16 402.904 209 401.865 209 400.363V400.363V400.363C209 399.226 208.129 398.15 207.837 397.051C207.312 395.074 205.997 393.173 203.995 391.38C201.227 388.902 198.416 386.13 198.18 382.422C198.15 381.952 198.135 381.478 198.135 381C198.135 373.787 201.592 367.466 206.776 363.948C208.076 363.065 209 361.665 209 360.094C209 357.833 207.167 356 204.906 356H78.7708Z" fill="#FFF8E7"/>
<path d="M77.482 361.529L76.6943 362.805L76.6943 362.805L77.482 361.529ZM206.776 363.948L207.618 365.189L207.618 365.189L206.776 363.948ZM203.995 391.38L204.996 390.263L203.995 391.38ZM198.18 382.422L196.683 382.517L198.18 382.422ZM206.281 404.123L205.065 403.245L206.281 404.123ZM207.837 397.051L206.387 397.436L207.837 397.051ZM77.4054 358.865C77.4054 358.111 78.0167 357.5 78.7708 357.5V354.5C76.3599 354.5 74.4054 356.454 74.4054 358.865H77.4054ZM78.2698 360.252C77.7019 359.902 77.4054 359.363 77.4054 358.865H74.4054C74.4054 360.568 75.3903 362 76.6943 362.805L78.2698 360.252ZM88.2702 379C88.2702 370.998 84.2763 363.959 78.2698 360.252L76.6943 362.805C81.7705 365.938 85.2702 371.984 85.2702 379H88.2702ZM76.5 399C76.5 397.155 77.3701 395.242 79.2661 393.296L77.1172 391.202C74.8685 393.511 73.5 396.135 73.5 399H76.5ZM141.547 419.5C123.286 419.5 106.816 417.051 94.9621 413.132C89.0273 411.17 84.333 408.867 81.1533 406.382C77.9554 403.882 76.5 401.376 76.5 399H73.5C73.5 402.7 75.7689 405.981 79.3059 408.745C82.8612 411.524 87.9125 413.961 94.0204 415.981C106.252 420.024 123.055 422.5 141.547 422.5V419.5ZM205.065 403.245C203.513 405.396 200.788 407.528 196.95 409.511C193.132 411.483 188.313 413.256 182.694 414.741C171.458 417.712 157.152 419.5 141.547 419.5V422.5C157.361 422.5 171.931 420.69 183.461 417.641C189.225 416.117 194.262 414.276 198.327 412.176C202.372 410.086 205.558 407.689 207.498 405L205.065 403.245ZM202.995 392.498C204.858 394.167 205.961 395.831 206.387 397.436L209.287 396.666C208.663 394.318 207.135 392.178 204.996 390.263L202.995 392.498ZM196.635 381C196.635 381.51 196.651 382.016 196.683 382.517L199.677 382.327C199.649 381.889 199.635 381.446 199.635 381H196.635ZM205.934 362.707C200.32 366.516 196.635 373.312 196.635 381H199.635C199.635 374.262 202.864 368.416 207.618 365.189L205.934 362.707ZM207.5 360.094C207.5 361.055 206.926 362.033 205.934 362.707L207.618 365.189C209.227 364.097 210.5 362.276 210.5 360.094H207.5ZM204.906 357.5C206.339 357.5 207.5 358.661 207.5 360.094H210.5C210.5 357.005 207.995 354.5 204.906 354.5V357.5ZM78.7708 357.5H204.906V354.5H78.7708V357.5ZM204.996 390.263C202.164 387.728 199.869 385.339 199.677 382.327L196.683 382.517C196.963 386.921 200.29 390.076 202.995 392.498L204.996 390.263ZM207.498 405C207.64 404.803 207.845 404.582 208.13 404.3C208.382 404.051 208.752 403.704 209.058 403.383C209.655 402.754 210.5 401.742 210.5 400.363H207.5C207.5 400.486 207.425 400.746 206.883 401.316C206.618 401.595 206.363 401.829 206.023 402.165C205.716 402.468 205.361 402.834 205.065 403.245L207.498 405ZM210.5 400.363C210.5 399.438 210.149 398.623 209.889 398.062C209.58 397.397 209.388 397.048 209.287 396.666L206.387 397.436C206.578 398.153 206.967 398.892 207.167 399.324C207.415 399.86 207.5 400.151 207.5 400.363H210.5ZM85.2702 379C85.2702 381.296 84.2975 383.3 82.7435 385.288C81.1469 387.331 79.1403 389.126 77.1172 391.202L79.2661 393.296C81.0948 391.419 83.3775 389.349 85.1072 387.136C86.8795 384.868 88.2702 382.224 88.2702 379H85.2702Z" fill="#CCB26C"/>
<path fill-rule="evenodd" clip-rule="evenodd" d="M208.933 311C207.352 299.314 178.214 290 142.5 290C106.786 290 77.6477 299.314 76.0675 311H76V312V356V358H76.2711C79.3254 369.213 107.811 378 142.5 378C177.189 378 205.675 369.213 208.729 358H209V356V312V311H208.933Z" fill="#FFF8E7"/>
<path d="M208.933 311L207.446 311.201L207.622 312.5H208.933V311ZM76.0675 311V312.5H77.3783L77.5539 311.201L76.0675 311ZM76 311V309.5H74.5V311H76ZM76 358H74.5V359.5H76V358ZM76.2711 358L77.7184 357.606L77.4172 356.5H76.2711V358ZM208.729 358V356.5H207.583L207.282 357.606L208.729 358ZM209 358V359.5H210.5V358H209ZM209 311H210.5V309.5H209V311ZM210.419 310.799C209.944 307.284 207.441 304.191 203.782 301.569C200.096 298.928 195.028 296.609 188.97 294.688C176.843 290.841 160.471 288.5 142.5 288.5V291.5C160.243 291.5 176.297 293.816 188.063 297.547C193.952 299.415 198.697 301.616 202.034 304.008C205.4 306.419 207.131 308.873 207.446 311.201L210.419 310.799ZM142.5 288.5C124.529 288.5 108.157 290.841 96.0301 294.688C89.9724 296.609 84.9044 298.928 81.2183 301.569C77.5594 304.191 75.0563 307.284 74.581 310.799L77.5539 311.201C77.8688 308.873 79.6005 306.419 82.9657 304.008C86.3034 301.616 91.0485 299.415 96.9371 297.547C108.703 293.816 124.757 291.5 142.5 291.5V288.5ZM76 312.5H76.0675V309.5H76V312.5ZM77.5 312V311H74.5V312H77.5ZM77.5 356V312H74.5V356H77.5ZM77.5 358V356H74.5V358H77.5ZM76.2711 356.5H76V359.5H76.2711V356.5ZM142.5 376.5C125.267 376.5 109.626 374.316 97.9587 370.77C92.1211 368.995 87.3364 366.898 83.8553 364.603C80.3441 362.289 78.3426 359.898 77.7184 357.606L74.8238 358.394C75.7267 361.709 78.4313 364.621 82.2043 367.108C86.0072 369.615 91.0846 371.816 97.0863 373.64C109.098 377.291 125.044 379.5 142.5 379.5V376.5ZM207.282 357.606C206.657 359.898 204.656 362.289 201.145 364.603C197.664 366.898 192.879 368.995 187.041 370.77C175.374 374.316 159.733 376.5 142.5 376.5V379.5C159.957 379.5 175.902 377.291 187.914 373.64C193.915 371.816 198.993 369.615 202.796 367.108C206.569 364.621 209.273 361.709 210.176 358.394L207.282 357.606ZM209 356.5H208.729V359.5H209V356.5ZM207.5 356V358H210.5V356H207.5ZM207.5 312V356H210.5V312H207.5ZM207.5 311V312H210.5V311H207.5ZM208.933 312.5H209V309.5H208.933V312.5Z" fill="#CCB26C"/>
<path fill-rule="evenodd" clip-rule="evenodd" d="M77.3431 307.37L99.9298 269.95C100.473 269.05 101.447 268.5 102.498 268.5H179.779C180.783 268.5 181.72 269.002 182.276 269.838L205.907 305.35C207.917 307.448 209.001 309.682 209.001 312C209.001 324.15 179.207 334 142.454 334C105.7 334 75.9062 324.15 75.9062 312C75.9062 310.545 76.3334 309.123 77.1485 307.747C77.2035 307.62 77.2682 307.494 77.3431 307.37Z" fill="#FFF8E7"/>
<path d="M99.9298 269.95L98.6456 269.175L99.9298 269.95ZM77.3431 307.37L78.6273 308.145L78.6273 308.145L77.3431 307.37ZM182.276 269.838L183.525 269.007L183.525 269.007L182.276 269.838ZM205.907 305.35L204.658 306.181L204.732 306.292L204.824 306.388L205.907 305.35ZM77.1485 307.747L78.4391 308.512L78.4881 308.429L78.5262 308.341L77.1485 307.747ZM98.6456 269.175L76.0589 306.594L78.6273 308.145L101.214 270.725L98.6456 269.175ZM102.498 267C100.922 267 99.4603 267.825 98.6456 269.175L101.214 270.725C101.486 270.275 101.973 270 102.498 270V267ZM179.779 267H102.498V270H179.779V267ZM183.525 269.007C182.691 267.753 181.285 267 179.779 267V270C180.281 270 180.749 270.251 181.028 270.669L183.525 269.007ZM207.156 304.519L183.525 269.007L181.028 270.669L204.658 306.181L207.156 304.519ZM204.824 306.388C206.658 308.303 207.501 310.184 207.501 312H210.501C210.501 309.18 209.175 306.594 206.99 304.312L204.824 306.388ZM207.501 312C207.501 314.376 206.045 316.882 202.847 319.382C199.668 321.867 194.974 324.17 189.039 326.132C177.185 330.051 160.715 332.5 142.454 332.5V335.5C160.945 335.5 177.749 333.024 189.98 328.981C196.088 326.961 201.14 324.524 204.695 321.745C208.232 318.981 210.501 315.7 210.501 312H207.501ZM142.454 332.5C124.192 332.5 107.722 330.051 95.8683 326.132C89.9336 324.17 85.2392 321.867 82.0596 319.382C78.8616 316.882 77.4062 314.376 77.4062 312H74.4062C74.4062 315.7 76.6751 318.981 80.2121 321.745C83.7675 324.524 88.8187 326.961 94.9267 328.981C107.159 333.024 123.962 335.5 142.454 335.5V332.5ZM77.4062 312C77.4062 310.852 77.7406 309.691 78.4391 308.512L75.858 306.983C74.9262 308.556 74.4062 310.239 74.4062 312H77.4062ZM76.0589 306.594C75.949 306.777 75.853 306.963 75.7709 307.154L78.5262 308.341C78.554 308.276 78.5874 308.211 78.6273 308.145L76.0589 306.594Z" fill="#CCB26C"/>
<mask id="path-10-inside-1_280_2268" fill="white">
<path fill-rule="evenodd" clip-rule="evenodd" d="M187.172 265H187.271V264V250C187.271 241.716 167.003 235 142.001 235C116.999 235 96.7305 241.716 96.7305 250V264V265H96.8295C98.3825 272.818 118.013 279 142.001 279C165.989 279 185.619 272.818 187.172 265Z"/>
</mask>
<path fill-rule="evenodd" clip-rule="evenodd" d="M187.172 265H187.271V264V250C187.271 241.716 167.003 235 142.001 235C116.999 235 96.7305 241.716 96.7305 250V264V265H96.8295C98.3825 272.818 118.013 279 142.001 279C165.989 279 185.619 272.818 187.172 265Z" fill="#EF6B8A"/>
<path d="M187.271 265V268H190.271V265H187.271ZM187.172 265V262H184.709L184.229 264.415L187.172 265ZM96.7305 265H93.7305V268H96.7305V265ZM96.8295 265L99.772 264.415L99.2922 262H96.8295V265ZM187.271 262H187.172V268H187.271V262ZM184.271 264V265H190.271V264H184.271ZM184.271 250V264H190.271V250H184.271ZM190.271 250C190.271 246.608 188.194 243.861 185.564 241.8C182.897 239.711 179.225 237.96 174.955 236.546C166.384 233.706 154.733 232 142.001 232V238C154.271 238 165.255 239.652 173.068 242.241C176.991 243.541 179.948 245.023 181.863 246.523C183.814 248.051 184.271 249.25 184.271 250H190.271ZM142.001 232C129.268 232 117.618 233.706 109.046 236.546C104.776 237.96 101.104 239.711 98.438 241.8C95.8073 243.861 93.7305 246.608 93.7305 250H99.7305C99.7305 249.25 100.187 248.051 102.138 246.523C104.053 245.023 107.011 243.541 110.933 242.241C118.747 239.652 129.731 238 142.001 238V232ZM99.7305 264V250H93.7305V264H99.7305ZM99.7305 265V264H93.7305V265H99.7305ZM96.8295 262H96.7305V268H96.8295V262ZM93.887 265.585C94.4959 268.65 96.7542 271.084 99.4657 272.955C102.235 274.866 105.893 276.483 110.11 277.796C118.564 280.429 129.78 282 142.001 282V276C130.233 276 119.641 274.48 111.894 272.067C108.011 270.858 104.971 269.464 102.873 268.016C100.717 266.529 99.9395 265.259 99.772 264.415L93.887 265.585ZM142.001 282C154.221 282 165.438 280.429 173.892 277.796C178.109 276.483 181.766 274.866 184.536 272.955C187.247 271.084 189.506 268.65 190.115 265.585L184.229 264.415C184.062 265.259 183.284 266.529 181.128 268.016C179.031 269.464 175.99 270.858 172.107 272.067C164.361 274.48 153.768 276 142.001 276V282Z" fill="#8F4053" mask="url(#path-10-inside-1_280_2268)"/>
<path d="M185.771 250C185.771 251.411 184.909 252.996 182.788 254.658C180.685 256.305 177.549 257.854 173.54 259.183C165.537 261.834 154.386 263.5 142.001 263.5C129.615 263.5 118.464 261.834 110.462 259.183C106.452 257.854 103.316 256.305 101.213 254.658C99.0922 252.996 98.2305 251.411 98.2305 250C98.2305 248.589 99.0922 247.004 101.213 245.342C103.316 243.695 106.452 242.146 110.462 240.817C118.464 238.166 129.615 236.5 142.001 236.5C154.386 236.5 165.537 238.166 173.54 240.817C177.549 242.146 180.685 243.695 182.788 245.342C184.909 247.004 185.771 248.589 185.771 250Z" fill="#EF6B8A" stroke="#8F4053" stroke-width="3"/>
<path fill-rule="evenodd" clip-rule="evenodd" d="M141 437.084C141 436.513 140.526 436.054 139.955 436.072C111.982 436.962 90 445.992 90 457C90 468.008 111.982 477.038 139.955 477.928C140.526 477.946 141 477.487 141 476.916V476.916C141 476.369 140.564 475.921 140.018 475.895C118.653 474.894 102 466.816 102 457C102 447.183 118.653 439.105 140.018 438.104C140.564 438.079 141 437.63 141 437.084V437.084ZM149 476.872C149 476.325 149.433 475.875 149.979 475.843C170.863 474.642 187 466.663 187 457C187 447.336 170.863 439.358 149.979 438.156C149.433 438.125 149 437.675 149 437.128V437.128C149 436.549 149.483 436.085 150.061 436.108C177.548 437.181 199 446.125 199 457C199 467.874 177.548 476.818 150.061 477.892C149.483 477.914 149 477.45 149 476.872V476.872Z" fill="#EF6B8A"/>
<path d="M119.558 464C120.04 464 120.511 463.795 120.839 463.467C121.178 463.128 121.373 462.657 121.373 462.154V459.375C122.193 458.976 122.849 458.381 123.331 457.602C123.823 456.812 124.069 455.93 124.069 454.966V452.341C124.069 451.859 123.885 451.398 123.557 451.07C123.229 450.742 122.767 450.557 122.275 450.557C121.783 450.557 121.301 450.742 120.973 451.07C120.634 451.398 120.429 451.859 120.429 452.341V455.253C120.419 455.571 120.296 455.828 120.05 456.043C119.814 456.258 119.537 456.361 119.209 456.361C118.912 456.361 118.594 456.248 118.348 456.053C118.091 455.848 117.927 455.561 117.917 455.243V452.341C117.917 451.859 117.732 451.398 117.404 451.07C117.066 450.742 116.625 450.557 116.133 450.557C115.641 450.557 115.159 450.742 114.831 451.07C114.492 451.408 114.277 451.859 114.277 452.341V455.202C114.277 455.305 114.287 455.407 114.308 455.5C114.42 456.453 114.81 457.345 115.415 458.053C116.03 458.781 116.82 459.324 117.712 459.611V462.154C117.712 462.677 117.917 463.139 118.255 463.467C118.583 463.795 119.065 464 119.558 464ZM130.386 464.103C131.739 464.103 133.011 463.549 133.923 462.636C134.836 461.724 135.39 460.462 135.39 459.119C135.39 457.776 134.836 456.515 133.923 455.582C133.011 454.648 131.739 454.105 130.386 454.105C129.042 454.105 127.781 454.648 126.869 455.582C125.936 456.515 125.382 457.776 125.382 459.119C125.382 460.462 125.936 461.724 126.869 462.636C127.781 463.549 129.042 464.103 130.386 464.103ZM130.386 460.452C130.027 460.452 129.709 460.319 129.453 460.062C129.176 459.806 129.032 459.488 129.032 459.119C129.032 458.76 129.166 458.442 129.442 458.166C129.688 457.93 130.027 457.786 130.386 457.786C130.755 457.786 131.073 457.909 131.35 458.166C131.616 458.432 131.75 458.75 131.75 459.119C131.75 459.488 131.616 459.806 131.339 460.062C131.093 460.309 130.755 460.452 130.386 460.452ZM140.055 469.127C140.465 469.127 140.824 468.983 141.132 468.696L141.296 468.542C141.47 468.368 141.624 468.225 141.747 468.173C141.901 468.091 142.065 468.071 142.516 468.04C143.675 467.989 144.587 467.702 145.244 467.179C146.033 466.553 146.433 465.589 146.433 464.267C146.433 463.621 146.341 463.057 146.156 462.585C146.023 462.247 145.828 461.939 145.582 461.683C146.064 460.873 146.3 460.011 146.3 459.119C146.3 457.776 145.746 456.515 144.833 455.582C143.921 454.648 142.649 454.105 141.296 454.105C139.953 454.105 138.691 454.648 137.779 455.582C136.846 456.515 136.292 457.776 136.292 459.119C136.292 460.462 136.846 461.724 137.779 462.636C138.691 463.549 139.953 464.103 141.296 464.103C141.737 464.103 142.188 464.041 142.67 463.918C142.783 464.01 142.834 464.103 142.834 464.308C142.834 464.42 142.824 464.451 142.629 464.482C142.475 464.492 142.311 464.502 142.137 464.502C141.983 464.513 141.665 464.513 141.183 464.513C140.629 464.513 140.117 464.677 139.655 464.995C139.296 465.251 139.04 465.528 138.702 465.938C138.302 466.358 138.097 466.799 138.097 467.25C138.097 467.743 138.333 468.235 138.712 468.573C139.091 468.912 139.573 469.127 140.055 469.127ZM141.296 460.452C140.937 460.452 140.599 460.309 140.353 460.062C140.076 459.806 139.942 459.488 139.942 459.119C139.942 458.76 140.076 458.442 140.353 458.166C140.599 457.93 140.937 457.786 141.296 457.786C141.665 457.786 141.983 457.909 142.26 458.166C142.526 458.432 142.66 458.75 142.66 459.119C142.66 459.499 142.526 459.806 142.26 460.062C141.983 460.319 141.665 460.452 141.296 460.452ZM152.729 464.103C154.052 464.103 155.241 463.58 156.103 462.667C156.964 461.765 157.466 460.534 157.466 459.211V455.848C157.466 455.366 157.282 454.905 156.954 454.577C156.615 454.249 156.174 454.054 155.692 454.054C155.2 454.054 154.718 454.249 154.38 454.577C154.042 454.915 153.826 455.366 153.826 455.848V459.273C153.795 460.042 153.437 460.473 152.729 460.473C152.36 460.473 152.011 460.35 151.765 460.134C151.519 459.929 151.365 459.611 151.365 459.252V455.848C151.365 455.366 151.16 454.915 150.822 454.577C150.483 454.249 150.012 454.054 149.53 454.054C149.048 454.054 148.597 454.249 148.258 454.577C147.93 454.905 147.725 455.366 147.725 455.848V459.201C147.725 460.524 148.279 461.754 149.212 462.667C150.145 463.569 151.386 464.103 152.729 464.103ZM161.147 464C161.629 464 162.081 463.805 162.409 463.477C162.737 463.149 162.932 462.708 162.932 462.216V459.324C162.942 458.914 163.126 458.514 163.424 458.217C163.721 457.919 164.09 457.755 164.531 457.725H164.603C165.095 457.714 165.567 457.52 165.905 457.191C166.264 456.853 166.438 456.422 166.438 455.91C166.438 455.397 166.274 454.977 165.957 454.638C165.608 454.29 165.157 454.115 164.613 454.105H164.552C163.188 454.105 161.875 454.659 160.922 455.602C159.948 456.545 159.343 457.827 159.292 459.191V462.216C159.292 462.708 159.507 463.149 159.845 463.477C160.184 463.805 160.655 464 161.147 464ZM172.56 464.123C173.421 464.123 174.365 463.856 175.093 463.395C175.872 462.903 176.354 462.195 176.354 461.365C176.354 460.883 176.169 460.452 175.852 460.134C175.534 459.816 175.124 459.642 174.703 459.642C174.17 459.642 173.75 459.857 173.339 460.257C173.186 460.411 172.919 460.483 172.56 460.483C172.211 460.483 171.914 460.339 171.668 460.062C171.432 459.816 171.309 459.458 171.309 459.078V457.109H173.544C174.037 457.109 174.498 456.925 174.826 456.597C175.165 456.269 175.37 455.838 175.37 455.356C175.37 454.874 175.165 454.402 174.836 454.064C174.498 453.736 174.026 453.531 173.544 453.531H171.309V452.905C171.309 452.403 171.094 451.941 170.735 451.603C170.376 451.275 169.904 451.07 169.412 451.07C168.93 451.07 168.458 451.275 168.13 451.603C167.792 451.931 167.577 452.413 167.577 452.905V459.058C167.577 460.411 168.12 461.672 169.033 462.616C169.966 463.559 171.207 464.123 172.56 464.123Z" fill="#EF6B8A"/>
</g>
</svg>
