<svg width="1033" height="632" viewBox="0 0 1033 632" fill="none" xmlns="http://www.w3.org/2000/svg">
<mask id="mask0_280_2268" style="mask-type:alpha" maskUnits="userSpaceOnUse" x="0" y="0" width="1032" height="632">
<path d="M31.6133 17.243C32.1102 7.57999 40.09 0 49.7658 0H1013.36C1023.77 0 1032.05 8.71841 1031.52 19.1099L1000.89 614.757C1000.39 624.42 992.41 632 982.734 632H19.1352C8.72991 632 0.448336 623.282 0.982711 612.89L31.6133 17.243Z" fill="#FF0000"/>
</mask>
<g mask="url(#mask0_280_2268)">
<mask id="path-2-inside-1_280_2268" fill="white">
<path fill-rule="evenodd" clip-rule="evenodd" d="M164 454.5C164 447.044 157.956 441 150.5 441C143.044 441 137 447.044 137 454.5V468.149C137 478.55 128.941 486.931 118.822 489.341C106.172 492.354 98 497.127 98 502.5C98 511.613 121.505 519 150.5 519C179.495 519 203 511.613 203 502.5C203 497.127 194.828 492.354 182.178 489.341C172.059 486.931 164 478.55 164 468.149V454.5Z"/>
</mask>
<path fill-rule="evenodd" clip-rule="evenodd" d="M164 454.5C164 447.044 157.956 441 150.5 441C143.044 441 137 447.044 137 454.5V468.149C137 478.55 128.941 486.931 118.822 489.341C106.172 492.354 98 497.127 98 502.5C98 511.613 121.505 519 150.5 519C179.495 519 203 511.613 203 502.5C203 497.127 194.828 492.354 182.178 489.341C172.059 486.931 164 478.55 164 468.149V454.5Z" fill="#F5F5F7"/>
<path d="M182.178 489.341L181.483 492.259L182.178 489.341ZM140 468.149V454.5H134V468.149H140ZM101 502.5C101 501.439 101.853 499.685 105.245 497.587C108.49 495.58 113.352 493.728 119.517 492.259L118.127 486.423C111.642 487.967 106.093 490.007 102.089 492.484C98.2331 494.869 95 498.188 95 502.5H101ZM150.5 516C136.221 516 123.413 514.177 114.276 511.305C109.69 509.864 106.197 508.21 103.915 506.515C101.577 504.777 101 503.387 101 502.5H95C95 506.169 97.3613 509.12 100.336 511.331C103.368 513.583 107.563 515.485 112.477 517.029C122.342 520.129 135.784 522 150.5 522V516ZM200 502.5C200 503.387 199.423 504.777 197.085 506.515C194.803 508.21 191.31 509.864 186.724 511.305C177.587 514.177 164.779 516 150.5 516V522C165.216 522 178.658 520.129 188.523 517.029C193.437 515.485 197.632 513.583 200.664 511.331C203.639 509.12 206 506.169 206 502.5H200ZM181.483 492.259C187.648 493.728 192.51 495.58 195.755 497.587C199.147 499.685 200 501.439 200 502.5H206C206 498.188 202.767 494.869 198.911 492.484C194.907 490.007 189.358 487.967 182.873 486.423L181.483 492.259ZM161 454.5V468.149H167V454.5H161ZM134 468.149C134 476.88 127.188 484.265 118.127 486.423L119.517 492.259C130.693 489.598 140 480.22 140 468.149H134ZM182.873 486.423C173.812 484.265 167 476.88 167 468.149H161C161 480.22 170.307 489.598 181.483 492.259L182.873 486.423ZM150.5 444C156.299 444 161 448.701 161 454.5H167C167 445.387 159.613 438 150.5 438V444ZM150.5 438C141.387 438 134 445.387 134 454.5H140C140 448.701 144.701 444 150.5 444V438Z" fill="#ACABC0" mask="url(#path-2-inside-1_280_2268)"/>
<mask id="mask1_280_2268" style="mask-type:alpha" maskUnits="userSpaceOnUse" x="33" y="231" width="235" height="235">
<circle cx="150.5" cy="348.5" r="116" fill="white" stroke="#ACABC0" stroke-width="3"/>
</mask>
<g mask="url(#mask1_280_2268)">
<rect x="4.6582" y="129.442" width="263.342" height="364.9" fill="#FCFCFC"/>
<path d="M266.501 342.595C266.501 402.183 221.089 450.329 165.262 450.329C109.435 450.329 64.0234 402.183 64.0234 342.595C64.0234 283.008 109.435 234.862 165.262 234.862C221.089 234.862 266.501 283.008 266.501 342.595Z" fill="#F5F5F7" stroke="#ACABC0" stroke-width="3"/>
</g>
<circle cx="150.5" cy="348.5" r="116" stroke="#ACABC0" stroke-width="3"/>
<mask id="mask2_280_2268" style="mask-type:alpha" maskUnits="userSpaceOnUse" x="75" y="246" width="182" height="196">
<path d="M254.69 343.776C254.69 396.863 214.811 439.701 165.851 439.701C116.891 439.701 77.0117 396.863 77.0117 343.776C77.0117 290.69 116.891 247.852 165.851 247.852C214.811 247.852 254.69 290.69 254.69 343.776Z" fill="#ABE697" stroke="black" stroke-width="3"/>
</mask>
<g mask="url(#mask2_280_2268)">
<rect x="50.9746" y="219.191" width="237.559" height="258.618" fill="#A6D641"/>
<path d="M64.7441 297.608C64.7441 281.868 77.504 269.108 93.2441 269.108H141.428C157.168 269.108 169.928 281.868 169.928 297.608V392.465H93.2441C77.504 392.465 64.7441 379.705 64.7441 363.965V297.608Z" fill="#B8DE67" stroke="#85AB34" stroke-width="3"/>
<rect x="56.5" y="391.5" width="173" height="87" rx="28.5" fill="#B8DE67" stroke="#85AB34" stroke-width="3"/>
</g>
<path d="M254.69 343.776C254.69 396.863 214.811 439.701 165.851 439.701C116.891 439.701 77.0117 396.863 77.0117 343.776C77.0117 290.69 116.891 247.852 165.851 247.852C214.811 247.852 254.69 290.69 254.69 343.776Z" stroke="#85AB34" stroke-width="3"/>
</g>
</svg>
