<svg width="1033" height="632" viewBox="0 0 1033 632" fill="none" xmlns="http://www.w3.org/2000/svg">
<mask id="mask0_280_2268" style="mask-type:alpha" maskUnits="userSpaceOnUse" x="0" y="0" width="1032" height="632">
<path d="M31.6133 17.243C32.1102 7.57999 40.09 0 49.7658 0H1013.36C1023.77 0 1032.05 8.71841 1031.52 19.1099L1000.89 614.757C1000.39 624.42 992.41 632 982.734 632H19.1352C8.72991 632 0.448336 623.282 0.982711 612.89L31.6133 17.243Z" fill="#FF0000"/>
</mask>
<g mask="url(#mask0_280_2268)">
<rect x="131.5" y="245.5" width="14" height="229" rx="2.5" fill="#FFEBB7" stroke="#CCB26C" stroke-width="3"/>
<rect x="94.8011" y="412.708" width="14" height="94" rx="2.5" transform="rotate(8.62345 94.8011 412.708)" fill="#FFEBB7" stroke="#CCB26C" stroke-width="3"/>
<rect x="-1.25813" y="1.70795" width="14" height="94" rx="2.5" transform="matrix(-0.988695 0.14994 0.14994 0.988695 181.05 411.208)" fill="#FFEBB7" stroke="#CCB26C" stroke-width="3"/>
<rect x="80.5" y="256.5" width="116" height="148" rx="2.5" fill="#FCFCFC" stroke="#ACABC0" stroke-width="3"/>
<rect x="71.5" y="402.5" width="135" height="16" rx="2.5" fill="#FFEBB7" stroke="#CCB26C" stroke-width="3"/>
<path d="M116.211 326.453C116.211 324.455 118.049 322.667 119.249 321.245C121.489 318.59 124.533 316.872 127.206 314.719C129.517 312.857 131.471 311.151 134.214 309.961C137.991 308.323 142.125 307.357 146.237 307.357C148.622 307.357 151.575 306.871 153.824 307.791C155.674 308.548 157.613 309.078 159.466 309.833C161.42 310.629 163.124 311.937 165.044 312.79C166.331 313.362 167.56 313.887 168.708 314.719C169.425 315.238 170.617 315.572 171.119 316.326C171.833 317.397 170.854 317.607 170.171 318.657C169.428 319.801 168.432 321.328 167.278 322.097C166.511 322.608 166.696 322.255 165.912 321.47C164.163 319.722 161.967 318.151 159.836 316.905C155.452 314.342 150.423 312.1 145.546 310.685C143.529 310.099 141.434 310.251 139.357 310.251C137.565 310.251 135.586 309.999 133.86 310.54C133.346 310.701 130.618 311.991 131.722 311.536C135.083 310.153 138.939 309.433 142.476 308.691C148.256 307.479 155.217 306.517 160.479 309.961C162.41 311.226 163.867 312.906 165.397 314.607C166.178 315.474 168.575 317.719 167.439 317.452C165.342 316.958 163.496 315.74 161.62 314.735C158.711 313.177 155.847 311.609 153.085 309.8C151.312 308.64 145.889 305.45 147.427 306.907C148.527 307.95 150.053 308.547 151.349 309.286C154.586 311.133 157.86 313.054 160.961 315.121C162.405 316.084 163.883 316.984 165.333 317.934C166.46 318.672 164.89 318.041 164.417 317.837C158.792 315.413 153.417 312.388 147.748 310.026C146.331 309.435 144.871 308.943 143.44 308.386C142.352 307.963 143.472 307.943 144.115 307.936C149.042 307.88 154.569 307.616 158.726 310.685C161.451 312.695 162.747 315.477 164.802 318.046C166.271 319.882 165.572 317.912 167.648 317.773C168.388 317.724 170.13 317.959 169.158 318.93" stroke="#2C2336" stroke-width="3" stroke-linecap="round"/>
<path d="M135.017 309.383C134.749 311.8 133.932 314.249 133.571 316.68C133.086 319.945 133.012 323.351 132.992 326.646C132.963 331.557 133.233 335.404 136.625 339.28C140.081 343.23 146.571 346.445 151.445 343.009C156.573 339.394 158.37 331.634 158.453 325.714C158.486 323.356 158.042 321.059 157.007 318.931C156.189 317.251 154.257 315.743 153.824 314.012" stroke="#2C2336" stroke-width="3" stroke-linecap="round"/>
<path d="M151.219 314.012C148.62 314.012 147.02 314.151 145.786 316.841C144.194 320.309 143.764 324.753 146.766 327.755C149.081 330.07 153.271 329.834 155.526 327.578C157.165 325.94 157.237 321.904 156.877 319.799C156.453 317.33 154.959 315.437 153.244 313.723" stroke="#2C2336" stroke-width="3" stroke-linecap="round"/>
<path d="M137.043 325.296C136.034 325.408 136.464 328.028 136.464 328.768C136.464 330.425 137.955 331.534 139.357 332.079C141.485 332.906 142.489 331.174 142.765 329.347C143.307 325.756 139.514 325.296 136.753 325.296" stroke="#2C2336" stroke-width="3" stroke-linecap="round"/>
<path d="M143.986 329.347C143.986 330.92 143.71 334.555 146.172 334.555C147.341 334.555 149.023 334.808 149.178 333.189C149.485 329.96 148.478 328.047 145.432 327.032" stroke="#2C2336" stroke-width="3" stroke-linecap="round"/>
<path d="M131.545 351.914C135.38 351.914 139.219 351.962 143.054 351.914C145.56 351.883 148.182 351.209 150.464 350.178C151.229 349.833 153.521 349.297 152.666 348.442" stroke="#2C2336" stroke-width="3" stroke-linecap="round"/>
<path d="M167.133 316.905C168.482 316.905 169.918 317.059 171.248 316.841C172.902 316.57 176.102 314.783 176.102 312.854" stroke="#2C2336" stroke-width="3" stroke-linecap="round"/>
<path d="M161.637 310.251C165.583 310.251 172.921 310.707 172.921 305.043" stroke="#2C2336" stroke-width="3" stroke-linecap="round"/>
<path d="M152.088 307.069C154.859 307.069 157.76 307.411 160.109 305.622C161.575 304.505 163.082 302.327 163.082 300.414" stroke="#2C2336" stroke-width="3" stroke-linecap="round"/>
<path d="M115.344 311.987C115.344 312.245 115.509 311.31 115.537 311.247C115.911 310.397 116.705 309.701 117.433 309.158C119.622 307.525 121.985 306.142 124.49 305.043C126.228 304.279 128.055 303.596 129.971 303.596C130.572 303.596 132.115 303.906 132.414 303.307" stroke="#2C2336" stroke-width="3" stroke-linecap="round"/>
<path d="M106 288.492C107.657 288.317 109.184 287.215 110.732 286.64C114.392 285.282 118.12 284.514 121.944 283.76C129.66 282.238 137.275 279.98 145.14 279.337C153.233 278.675 161.617 278.857 169.416 281.085" stroke="#2C2336" stroke-width="3" stroke-linecap="round"/>
<rect x="94.5" y="347.5" width="6" height="24" rx="2.5" fill="#FFEBB7" stroke="#CCB26C" stroke-width="3"/>
<rect x="102.5" y="353.5" width="6" height="24" rx="2.5" fill="#ACABC0" stroke="#2C2336" stroke-width="3"/>
<rect x="91.5" y="363.5" width="21" height="36" rx="2.5" fill="#F289A1" stroke="#BF566E" stroke-width="3"/>
<path d="M93.9617 341.707L97.03 333.525L100.533 341.531C101.558 343.875 99.8409 346.5 97.2829 346.5C94.8063 346.5 93.0921 344.026 93.9617 341.707Z" fill="#9E7955" stroke="#5F4933" stroke-width="3"/>
</g>
</svg>
