<svg width="1033" height="632" viewBox="0 0 1033 632" fill="none" xmlns="http://www.w3.org/2000/svg">
<mask id="mask0_280_2268" style="mask-type:alpha" maskUnits="userSpaceOnUse" x="0" y="0" width="1032" height="632">
<path d="M31.6133 17.243C32.1102 7.57999 40.09 0 49.7658 0H1013.36C1023.77 0 1032.05 8.71841 1031.52 19.1099L1000.89 614.757C1000.39 624.42 992.41 632 982.734 632H19.1352C8.72991 632 0.448336 623.282 0.982711 612.89L31.6133 17.243Z" fill="#FF0000"/>
</mask>
<g mask="url(#mask0_280_2268)">
<ellipse cx="153.5" cy="441" rx="33.5" ry="6" fill="#FF862E" stroke="#CC6B25" stroke-width="3"/>
<rect x="162.647" y="396.245" width="14" height="62" rx="3.5" transform="rotate(1.84877 162.647 396.245)" fill="#B8DE67" stroke="#648027" stroke-width="3"/>
<rect x="164.551" y="337.276" width="14" height="62" rx="3.5" transform="rotate(1.84877 164.551 337.276)" fill="#B8DE67" stroke="#648027" stroke-width="3"/>
<rect x="166.422" y="279.306" width="14" height="61" rx="3.5" transform="rotate(1.84877 166.422 279.306)" fill="#B8DE67" stroke="#648027" stroke-width="3"/>
<rect x="168.358" y="219.337" width="14" height="62" rx="3.5" transform="rotate(1.84877 168.358 219.337)" fill="#B8DE67" stroke="#648027" stroke-width="3"/>
<rect x="132.285" y="421.882" width="14" height="62" rx="3.5" transform="rotate(-2.54157 132.285 421.882)" fill="#B8DE67" stroke="#648027" stroke-width="3"/>
<rect x="129.667" y="362.94" width="14" height="62" rx="3.5" transform="rotate(-2.54157 129.667 362.94)" fill="#B8DE67" stroke="#648027" stroke-width="3"/>
<rect x="127.095" y="304.997" width="14" height="61" rx="3.5" transform="rotate(-2.54157 127.095 304.997)" fill="#B8DE67" stroke="#648027" stroke-width="3"/>
<rect x="124.435" y="245.056" width="14" height="62" rx="3.5" transform="rotate(-2.54157 124.435 245.056)" fill="#B8DE67" stroke="#648027" stroke-width="3"/>
<rect x="143.5" y="415.5" width="14" height="62" rx="3.5" fill="#B8DE67" stroke="#648027" stroke-width="3"/>
<rect x="143.5" y="356.5" width="14" height="62" rx="3.5" fill="#B8DE67" stroke="#648027" stroke-width="3"/>
<rect x="143.5" y="298.5" width="14" height="61" rx="3.5" fill="#B8DE67" stroke="#648027" stroke-width="3"/>
<rect x="143.5" y="238.5" width="14" height="62" rx="3.5" fill="#B8DE67" stroke="#648027" stroke-width="3"/>
<path d="M125 246L111 232" stroke="#648027" stroke-width="3"/>
<path d="M193 290.5L179.001 313.5M108.5 285.5L127.501 306.5" stroke="#648027" stroke-width="3"/>
<path d="M118.5 359L131.001 392.5" stroke="#648027" stroke-width="3"/>
<path d="M190.789 215.885C193.147 210.507 194.834 205.394 195.642 201.455C196.043 199.498 196.245 197.751 196.168 196.375C196.13 195.689 196.019 195.011 195.773 194.421C195.523 193.822 195.081 193.198 194.332 192.87C193.582 192.541 192.824 192.638 192.214 192.86C191.613 193.079 191.039 193.457 190.509 193.893C189.445 194.768 188.295 196.1 187.128 197.721C184.777 200.983 182.158 205.687 179.799 211.065C177.441 216.442 175.754 221.556 174.946 225.494C174.545 227.451 174.344 229.199 174.42 230.575C174.459 231.26 174.57 231.938 174.816 232.529C175.065 233.127 175.507 233.751 176.257 234.08C177.006 234.409 177.765 234.311 178.374 234.09C178.975 233.871 179.549 233.493 180.079 233.057C181.144 232.181 182.293 230.849 183.461 229.229C185.811 225.967 188.43 221.262 190.789 215.885Z" fill="#85AB34" stroke="#42561A" stroke-width="3"/>
<path d="M196.621 232.061C201.864 229.416 206.42 226.547 209.551 224.024C211.106 222.771 212.374 221.551 213.191 220.441C213.598 219.889 213.944 219.295 214.13 218.683C214.319 218.062 214.375 217.3 214.007 216.569C213.638 215.838 212.991 215.431 212.38 215.214C211.777 215 211.094 214.926 210.407 214.924C209.029 214.922 207.295 215.217 205.363 215.724C201.473 216.742 196.458 218.702 191.216 221.347C185.973 223.992 181.417 226.861 178.286 229.384C176.731 230.638 175.463 231.857 174.646 232.967C174.239 233.52 173.893 234.114 173.707 234.726C173.518 235.346 173.462 236.108 173.83 236.839C174.199 237.57 174.846 237.978 175.457 238.195C176.06 238.409 176.743 238.483 177.429 238.484C178.808 238.486 180.542 238.191 182.474 237.685C186.364 236.666 191.379 234.706 196.621 232.061Z" fill="#85AB34" stroke="#42561A" stroke-width="3"/>
<path d="M194.297 243.972C200.156 244.354 205.538 244.194 209.516 243.609C211.493 243.318 213.204 242.911 214.471 242.369C215.102 242.099 215.702 241.764 216.173 241.331C216.65 240.892 217.086 240.264 217.139 239.447C217.192 238.63 216.842 237.951 216.425 237.453C216.015 236.963 215.464 236.552 214.873 236.203C213.686 235.502 212.042 234.876 210.12 234.331C206.252 233.235 200.936 232.379 195.077 231.998C189.217 231.616 183.835 231.776 179.857 232.361C177.881 232.652 176.169 233.059 174.902 233.6C174.271 233.87 173.671 234.206 173.201 234.639C172.723 235.078 172.287 235.706 172.234 236.523C172.181 237.34 172.532 238.019 172.948 238.516C173.359 239.007 173.91 239.417 174.501 239.767C175.687 240.468 177.331 241.094 179.253 241.638C183.121 242.735 188.437 243.591 194.297 243.972Z" fill="#85AB34" stroke="#42561A" stroke-width="3"/>
<path d="M89.4148 219.91C83.6064 219.048 78.2294 218.765 74.2171 219.021C72.2235 219.149 70.4844 219.414 69.1769 219.849C68.5256 220.067 67.9005 220.352 67.3957 220.745C66.8838 221.143 66.398 221.733 66.2778 222.543C66.1577 223.353 66.4512 224.059 66.8254 224.588C67.1945 225.111 67.7098 225.565 68.27 225.962C69.3948 226.758 70.9819 227.517 72.8527 228.218C76.6177 229.628 81.8453 230.918 87.6537 231.78C93.4621 232.642 98.8391 232.925 102.851 232.668C104.845 232.541 106.584 232.276 107.892 231.84C108.543 231.623 109.168 231.338 109.673 230.945C110.185 230.547 110.671 229.957 110.791 229.147C110.911 228.337 110.617 227.631 110.243 227.101C109.874 226.579 109.359 226.124 108.798 225.728C107.674 224.931 106.087 224.172 104.216 223.472C100.451 222.062 95.2232 220.772 89.4148 219.91Z" fill="#85AB34" stroke="#42561A" stroke-width="3"/>
<path d="M103.487 210.03C99.5571 205.668 95.5911 202.026 92.334 199.669C90.7155 198.498 89.2057 197.595 87.92 197.099C87.2796 196.851 86.6159 196.673 85.9765 196.655C85.3282 196.636 84.5778 196.782 83.9696 197.33C83.3614 197.878 83.1383 198.609 83.0896 199.256C83.0416 199.893 83.1496 200.572 83.3289 201.235C83.6891 202.565 84.4299 204.161 85.4263 205.892C87.4318 209.377 90.6415 213.7 94.5718 218.062C98.5021 222.425 102.468 226.067 105.725 228.424C107.344 229.595 108.853 230.498 110.139 230.994C110.78 231.242 111.443 231.419 112.083 231.438C112.731 231.457 113.481 231.311 114.09 230.763C114.698 230.215 114.921 229.484 114.97 228.837C115.018 228.199 114.91 227.521 114.73 226.858C114.37 225.528 113.629 223.932 112.633 222.201C110.627 218.716 107.418 214.393 103.487 210.03Z" fill="#85AB34" stroke="#42561A" stroke-width="3"/>
<path d="M115.592 209.141C114.419 203.387 112.85 198.236 111.24 194.552C110.44 192.722 109.597 191.178 108.741 190.098C108.315 189.559 107.833 189.069 107.292 188.729C106.743 188.384 106.022 188.128 105.22 188.292C104.418 188.455 103.854 188.972 103.484 189.505C103.119 190.03 102.868 190.669 102.686 191.331C102.321 192.66 102.15 194.411 102.13 196.409C102.089 200.429 102.661 205.783 103.833 211.537C105.006 217.291 106.575 222.441 108.185 226.125C108.985 227.956 109.828 229.5 110.684 230.58C111.11 231.118 111.592 231.608 112.133 231.949C112.682 232.294 113.403 232.549 114.205 232.386C115.007 232.222 115.57 231.705 115.941 231.173C116.306 230.648 116.557 230.008 116.739 229.346C117.104 228.017 117.275 226.266 117.295 224.269C117.336 220.249 116.764 214.895 115.592 209.141Z" fill="#85AB34" stroke="#42561A" stroke-width="3"/>
<path d="M101.196 348.102C95.5146 346.617 90.1997 345.755 86.1832 345.576C84.1875 345.487 82.43 345.563 81.083 345.855C80.4121 346 79.7598 346.216 79.2155 346.552C78.6635 346.893 78.1168 347.427 77.9099 348.219C77.7029 349.011 77.9184 349.744 78.2332 350.311C78.5437 350.871 79.0068 351.378 79.5209 351.833C80.5529 352.747 82.0488 353.672 83.8329 354.571C87.4234 356.38 92.481 358.227 98.1623 359.712C103.844 361.196 109.158 362.059 113.175 362.238C115.171 362.327 116.928 362.251 118.275 361.959C118.946 361.814 119.598 361.598 120.143 361.262C120.695 360.921 121.241 360.387 121.448 359.595C121.655 358.803 121.44 358.069 121.125 357.502C120.814 356.943 120.351 356.435 119.837 355.98C118.805 355.067 117.309 354.141 115.525 353.242C111.935 351.434 106.877 349.586 101.196 348.102Z" fill="#85AB34" stroke="#42561A" stroke-width="3"/>
<path d="M116.255 339.801C112.819 335.039 109.27 330.99 106.287 328.295C104.804 326.956 103.401 325.895 102.176 325.262C101.566 324.947 100.926 324.699 100.292 324.611C99.6497 324.522 98.8879 324.586 98.224 325.065C97.5602 325.544 97.2593 326.247 97.141 326.885C97.0244 327.514 97.0584 328.2 97.1651 328.878C97.3793 330.24 97.9434 331.906 98.7469 333.735C100.364 337.416 103.088 342.06 106.523 346.822C109.959 351.584 113.508 355.633 116.492 358.329C117.974 359.668 119.378 360.728 120.602 361.361C121.212 361.676 121.853 361.925 122.486 362.012C123.129 362.101 123.89 362.037 124.554 361.558C125.218 361.079 125.519 360.376 125.637 359.739C125.754 359.11 125.72 358.423 125.613 357.745C125.399 356.384 124.835 354.717 124.031 352.888C122.414 349.208 119.691 344.563 116.255 339.801Z" fill="#85AB34" stroke="#42561A" stroke-width="3"/>
<path d="M128.383 340.224C127.839 334.378 126.836 329.087 125.633 325.251C125.036 323.345 124.365 321.719 123.631 320.552C123.265 319.971 122.839 319.432 122.338 319.035C121.829 318.632 121.14 318.301 120.325 318.377C119.51 318.452 118.894 318.905 118.469 319.395C118.049 319.877 117.73 320.486 117.478 321.125C116.972 322.406 116.612 324.128 116.376 326.112C115.901 330.104 115.891 335.489 116.435 341.336C116.979 347.182 117.982 352.473 119.185 356.309C119.782 358.215 120.453 359.841 121.187 361.008C121.553 361.589 121.979 362.128 122.48 362.525C122.989 362.928 123.678 363.259 124.493 363.183C125.308 363.107 125.924 362.655 126.349 362.165C126.769 361.682 127.088 361.074 127.34 360.435C127.846 359.154 128.206 357.432 128.442 355.448C128.917 351.455 128.927 346.071 128.383 340.224Z" fill="#85AB34" stroke="#42561A" stroke-width="3"/>
<path d="M142.913 192.344C139.523 187.549 136.012 183.466 133.055 180.742C131.585 179.389 130.192 178.315 128.974 177.671C128.367 177.35 127.729 177.095 127.096 177.002C126.454 176.907 125.692 176.963 125.024 177.436C124.355 177.908 124.048 178.608 123.923 179.245C123.801 179.873 123.828 180.559 123.928 181.238C124.129 182.602 124.678 184.273 125.463 186.11C127.045 189.806 129.724 194.477 133.114 199.271C136.504 204.066 140.015 208.149 142.972 210.873C144.441 212.226 145.835 213.3 147.053 213.944C147.66 214.265 148.298 214.52 148.931 214.613C149.572 214.708 150.335 214.652 151.003 214.179C151.672 213.706 151.979 213.007 152.104 212.37C152.226 211.742 152.199 211.056 152.099 210.377C151.897 209.013 151.349 207.342 150.563 205.505C148.982 201.809 146.303 197.138 142.913 192.344Z" fill="#85AB34" stroke="#42561A" stroke-width="3"/>
<path d="M159.779 195.692C160.218 189.836 160.111 184.453 159.564 180.47C159.293 178.491 158.902 176.775 158.373 175.503C158.109 174.869 157.779 174.266 157.351 173.791C156.917 173.31 156.293 172.868 155.477 172.807C154.66 172.746 153.978 173.089 153.476 173.501C152.982 173.907 152.566 174.454 152.211 175.041C151.498 176.221 150.856 177.859 150.293 179.775C149.159 183.633 148.251 188.94 147.813 194.796C147.374 200.651 147.481 206.035 148.028 210.018C148.299 211.997 148.69 213.712 149.219 214.985C149.483 215.619 149.813 216.221 150.241 216.696C150.675 217.178 151.299 217.62 152.116 217.681C152.932 217.742 153.615 217.398 154.116 216.987C154.61 216.581 155.026 216.034 155.381 215.446C156.094 214.267 156.736 212.629 157.299 210.712C158.433 206.855 159.341 201.548 159.779 195.692Z" fill="#85AB34" stroke="#42561A" stroke-width="3"/>
<path d="M168.785 203.827C172.135 199.005 174.774 194.312 176.325 190.602C177.095 188.759 177.629 187.083 177.819 185.718C177.914 185.038 177.935 184.351 177.807 183.724C177.678 183.089 177.364 182.392 176.692 181.925C176.02 181.458 175.257 181.408 174.616 181.508C173.984 181.607 173.348 181.867 172.744 182.193C171.531 182.847 170.147 183.933 168.689 185.299C165.754 188.047 162.279 192.159 158.929 196.982C155.579 201.805 152.94 206.498 151.389 210.207C150.618 212.051 150.084 213.727 149.895 215.092C149.8 215.772 149.779 216.459 149.906 217.085C150.036 217.721 150.35 218.418 151.022 218.885C151.694 219.352 152.457 219.402 153.098 219.302C153.73 219.203 154.366 218.943 154.97 218.617C156.183 217.962 157.567 216.877 159.025 215.511C161.96 212.763 165.435 208.65 168.785 203.827Z" fill="#85AB34" stroke="#42561A" stroke-width="3"/>
<path d="M142.913 230.344C139.523 225.549 136.012 221.466 133.055 218.742C131.585 217.389 130.192 216.315 128.974 215.671C128.367 215.35 127.729 215.095 127.096 215.002C126.454 214.907 125.692 214.963 125.024 215.436C124.355 215.908 124.048 216.608 123.923 217.245C123.801 217.873 123.828 218.559 123.928 219.238C124.129 220.602 124.678 222.273 125.463 224.11C127.045 227.806 129.724 232.477 133.114 237.271C136.504 242.066 140.015 246.149 142.972 248.873C144.441 250.226 145.835 251.3 147.053 251.944C147.66 252.265 148.298 252.52 148.931 252.613C149.572 252.708 150.335 252.652 151.003 252.179C151.672 251.706 151.979 251.007 152.104 250.37C152.226 249.742 152.199 249.056 152.099 248.377C151.897 247.013 151.349 245.342 150.563 243.505C148.982 239.809 146.303 235.138 142.913 230.344Z" fill="#85AB34" stroke="#42561A" stroke-width="3"/>
<path d="M159.779 233.692C160.218 227.836 160.111 222.453 159.564 218.47C159.293 216.491 158.902 214.775 158.373 213.503C158.109 212.869 157.779 212.266 157.351 211.791C156.917 211.31 156.293 210.868 155.477 210.807C154.66 210.746 153.978 211.089 153.476 211.501C152.982 211.907 152.566 212.454 152.211 213.041C151.498 214.221 150.856 215.859 150.293 217.775C149.159 221.633 148.251 226.94 147.813 232.796C147.374 238.651 147.481 244.035 148.028 248.018C148.299 249.997 148.69 251.712 149.219 252.985C149.483 253.619 149.813 254.221 150.241 254.696C150.675 255.178 151.299 255.62 152.116 255.681C152.932 255.742 153.615 255.398 154.116 254.987C154.61 254.581 155.026 254.034 155.381 253.446C156.094 252.267 156.736 250.629 157.299 248.712C158.433 244.855 159.341 239.548 159.779 233.692Z" fill="#85AB34" stroke="#42561A" stroke-width="3"/>
<path d="M168.785 241.827C172.135 237.005 174.774 232.312 176.325 228.602C177.095 226.759 177.629 225.083 177.819 223.718C177.914 223.038 177.935 222.351 177.807 221.724C177.678 221.089 177.364 220.392 176.692 219.925C176.02 219.458 175.257 219.408 174.616 219.508C173.984 219.607 173.348 219.867 172.744 220.193C171.531 220.847 170.147 221.933 168.689 223.299C165.754 226.047 162.279 230.159 158.929 234.982C155.579 239.805 152.94 244.498 151.389 248.207C150.618 250.051 150.084 251.727 149.895 253.092C149.8 253.772 149.779 254.459 149.906 255.085C150.036 255.721 150.35 256.418 151.022 256.885C151.694 257.352 152.457 257.402 153.098 257.302C153.73 257.203 154.366 256.943 154.97 256.617C156.183 255.962 157.567 254.877 159.025 253.511C161.96 250.763 165.435 246.65 168.785 241.827Z" fill="#85AB34" stroke="#42561A" stroke-width="3"/>
<path d="M206.365 275.737C208.02 270.103 209.042 264.817 209.341 260.808C209.49 258.815 209.467 257.056 209.216 255.701C209.091 255.026 208.895 254.368 208.575 253.814C208.251 253.252 207.734 252.689 206.948 252.458C206.163 252.228 205.423 252.421 204.847 252.719C204.279 253.012 203.757 253.46 203.287 253.96C202.343 254.964 201.373 256.431 200.421 258.188C198.505 261.722 196.506 266.722 194.851 272.356C193.197 277.99 192.175 283.277 191.875 287.286C191.726 289.278 191.749 291.037 192 292.392C192.125 293.067 192.322 293.726 192.641 294.28C192.965 294.842 193.483 295.404 194.268 295.635C195.053 295.866 195.793 295.672 196.369 295.375C196.938 295.081 197.459 294.634 197.929 294.133C198.873 293.129 199.844 291.662 200.796 289.906C202.712 286.371 204.71 281.371 206.365 275.737Z" fill="#85AB34" stroke="#42561A" stroke-width="3"/>
<path d="M214.208 291.04C219.071 287.749 223.225 284.323 226.009 281.422C227.392 279.98 228.495 278.61 229.164 277.405C229.497 276.804 229.765 276.172 229.871 275.541C229.979 274.901 229.938 274.138 229.48 273.46C229.021 272.782 228.327 272.46 227.694 272.323C227.068 272.187 226.381 272.201 225.7 272.287C224.333 272.46 222.651 272.974 220.798 273.722C217.07 275.228 212.346 277.81 207.483 281.101C202.62 284.392 198.466 287.818 195.682 290.719C194.299 292.16 193.196 293.531 192.527 294.736C192.194 295.336 191.926 295.969 191.82 296.6C191.712 297.239 191.753 298.003 192.211 298.681C192.67 299.359 193.364 299.681 193.998 299.818C194.623 299.954 195.31 299.94 195.991 299.854C197.358 299.681 199.04 299.167 200.893 298.419C204.621 296.913 209.345 294.331 214.208 291.04Z" fill="#85AB34" stroke="#42561A" stroke-width="3"/>
<path d="M213.421 303.149C219.281 302.782 224.599 301.938 228.47 300.851C230.393 300.311 232.039 299.689 233.227 298.991C233.819 298.643 234.371 298.233 234.783 297.744C235.2 297.248 235.552 296.569 235.501 295.752C235.45 294.935 235.016 294.306 234.539 293.866C234.069 293.432 233.471 293.095 232.84 292.824C231.574 292.279 229.864 291.868 227.888 291.572C223.912 290.978 218.53 290.805 212.67 291.173C206.809 291.541 201.491 292.384 197.62 293.471C195.697 294.011 194.051 294.633 192.863 295.332C192.272 295.68 191.72 296.089 191.308 296.578C190.89 297.074 190.538 297.753 190.589 298.57C190.641 299.387 191.075 300.016 191.551 300.456C192.021 300.89 192.62 301.227 193.25 301.499C194.516 302.043 196.227 302.455 198.203 302.75C202.179 303.345 207.56 303.517 213.421 303.149Z" fill="#85AB34" stroke="#42561A" stroke-width="3"/>
<path d="M193.711 333.188C195.365 327.554 196.388 322.268 196.687 318.258C196.836 316.266 196.813 314.507 196.562 313.152C196.437 312.477 196.24 311.819 195.921 311.264C195.597 310.702 195.079 310.14 194.294 309.909C193.509 309.679 192.769 309.872 192.193 310.169C191.624 310.463 191.103 310.911 190.633 311.411C189.689 312.415 188.718 313.882 187.766 315.638C185.85 319.173 183.852 324.173 182.197 329.807C180.542 335.441 179.52 340.727 179.221 344.737C179.072 346.729 179.095 348.488 179.346 349.843C179.471 350.518 179.667 351.176 179.987 351.73C180.311 352.292 180.828 352.855 181.614 353.086C182.399 353.316 183.139 353.123 183.715 352.825C184.283 352.532 184.805 352.084 185.275 351.584C186.219 350.58 187.189 349.113 188.141 347.356C190.057 343.822 192.056 338.822 193.711 333.188Z" fill="#85AB34" stroke="#42561A" stroke-width="3"/>
<path d="M201.554 348.49C206.417 345.199 210.571 341.774 213.355 338.873C214.738 337.431 215.84 336.06 216.509 334.855C216.843 334.255 217.11 333.622 217.217 332.992C217.325 332.352 217.284 331.589 216.825 330.911C216.367 330.233 215.673 329.911 215.039 329.774C214.414 329.638 213.727 329.651 213.046 329.738C211.679 329.911 209.996 330.425 208.144 331.173C204.416 332.678 199.692 335.261 194.828 338.552C189.965 341.843 185.811 345.269 183.028 348.17C181.645 349.611 180.542 350.982 179.873 352.187C179.54 352.787 179.272 353.42 179.165 354.051C179.057 354.69 179.098 355.454 179.557 356.131C180.016 356.809 180.709 357.131 181.343 357.269C181.968 357.404 182.655 357.391 183.336 357.305C184.704 357.131 186.386 356.618 188.238 355.87C191.966 354.364 196.691 351.781 201.554 348.49Z" fill="#85AB34" stroke="#42561A" stroke-width="3"/>
<path d="M200.767 360.6C206.627 360.232 211.945 359.389 215.816 358.302C217.739 357.762 219.385 357.14 220.573 356.441C221.164 356.093 221.716 355.684 222.128 355.195C222.546 354.699 222.898 354.02 222.847 353.203C222.796 352.386 222.361 351.757 221.885 351.317C221.415 350.883 220.816 350.546 220.186 350.274C218.92 349.73 217.209 349.318 215.234 349.023C211.257 348.428 205.876 348.256 200.015 348.624C194.155 348.991 188.837 349.835 184.966 350.922C183.043 351.462 181.397 352.084 180.209 352.782C179.617 353.13 179.066 353.54 178.654 354.029C178.236 354.525 177.884 355.204 177.935 356.021C177.986 356.838 178.42 357.467 178.897 357.907C179.367 358.341 179.965 358.678 180.596 358.949C181.862 359.494 183.573 359.905 185.548 360.201C189.524 360.795 194.906 360.968 200.767 360.6Z" fill="#85AB34" stroke="#42561A" stroke-width="3"/>
<path fill-rule="evenodd" clip-rule="evenodd" d="M120 441.371C120 441.353 120.015 441.338 120.033 441.338V441.338C120.048 441.338 120.06 441.346 120.065 441.36C121.147 444.492 135.703 446.972 153.5 446.972C171.297 446.972 185.853 444.492 186.935 441.36C186.94 441.346 186.952 441.338 186.967 441.338V441.338C186.985 441.338 187 441.353 187 441.371V510.012V510.331C187 510.349 186.985 510.364 186.967 510.364V510.364C186.953 510.364 186.941 510.372 186.936 510.386C185.857 513.518 171.3 515.999 153.5 515.999C135.7 515.999 121.143 513.518 120.064 510.386C120.059 510.372 120.047 510.364 120.033 510.364V510.364C120.015 510.364 120 510.349 120 510.331V510.012V441.371Z" fill="#FF9E58"/>
<path d="M120.064 510.386L118.646 510.874L120.064 510.386ZM186.936 510.386L188.354 510.874L186.936 510.386ZM186.935 441.36L188.353 441.85L186.935 441.36ZM153.5 445.472C144.661 445.472 136.66 444.855 130.764 443.861C127.808 443.363 125.437 442.779 123.77 442.153C122.933 441.84 122.329 441.536 121.93 441.263C121.505 440.971 121.465 440.819 121.482 440.87L118.647 441.85C118.935 442.684 119.587 443.294 120.234 443.738C120.908 444.199 121.758 444.603 122.716 444.963C124.639 445.683 127.222 446.306 130.265 446.819C136.367 447.848 144.542 448.472 153.5 448.472V445.472ZM185.518 440.87C185.535 440.819 185.495 440.971 185.07 441.263C184.671 441.536 184.067 441.84 183.23 442.153C181.563 442.779 179.192 443.363 176.236 443.861C170.34 444.855 162.339 445.472 153.5 445.472V448.472C162.458 448.472 170.633 447.848 176.735 446.819C179.778 446.306 182.361 445.683 184.284 444.963C185.242 444.603 186.092 444.199 186.766 443.738C187.413 443.294 188.065 442.684 188.353 441.85L185.518 440.87ZM188.5 510.012V441.371H185.5V510.012H188.5ZM188.5 510.331V510.012H185.5V510.331H188.5ZM185.518 509.897C185.535 509.846 185.496 509.998 185.071 510.289C184.672 510.563 184.069 510.866 183.233 511.18C181.566 511.805 179.194 512.39 176.239 512.888C170.343 513.883 162.34 514.499 153.5 514.499V517.499C162.459 517.499 170.635 516.876 176.738 515.846C179.781 515.333 182.364 514.71 184.286 513.989C185.245 513.629 186.094 513.225 186.768 512.763C187.415 512.32 188.067 511.709 188.354 510.874L185.518 509.897ZM153.5 514.499C144.66 514.499 136.657 513.883 130.761 512.888C127.806 512.39 125.434 511.805 123.767 511.18C122.931 510.866 122.328 510.563 121.929 510.289C121.504 509.998 121.465 509.846 121.482 509.897L118.646 510.874C118.933 511.709 119.585 512.32 120.232 512.763C120.906 513.225 121.755 513.629 122.714 513.989C124.636 514.71 127.219 515.333 130.262 515.846C136.365 516.876 144.541 517.499 153.5 517.499V514.499ZM118.5 510.012V510.331H121.5V510.012H118.5ZM118.5 441.371V510.012H121.5V441.371H118.5ZM120.033 508.864C120.843 508.864 121.5 509.521 121.5 510.331H118.5C118.5 511.178 119.186 511.864 120.033 511.864V508.864ZM121.482 509.897C121.259 509.249 120.656 508.864 120.033 508.864V511.864C119.438 511.864 118.86 511.495 118.646 510.874L121.482 509.897ZM186.967 508.864C186.344 508.864 185.741 509.249 185.518 509.897L188.354 510.874C188.14 511.495 187.562 511.864 186.967 511.864V508.864ZM186.967 442.838C186.157 442.838 185.5 442.181 185.5 441.371H188.5C188.5 440.524 187.813 439.838 186.967 439.838V442.838ZM188.353 441.85C188.139 442.47 187.561 442.838 186.967 442.838V439.838C186.344 439.838 185.741 440.223 185.518 440.87L188.353 441.85ZM185.5 510.331C185.5 509.521 186.157 508.864 186.967 508.864V511.864C187.814 511.864 188.5 511.178 188.5 510.331H185.5ZM120.033 439.838C119.186 439.838 118.5 440.524 118.5 441.371H121.5C121.5 442.181 120.843 442.838 120.033 442.838V439.838ZM120.033 442.838C119.439 442.838 118.861 442.47 118.647 441.85L121.482 440.87C121.259 440.223 120.656 439.838 120.033 439.838V442.838Z" fill="#CC6B25"/>
<path d="M87.1368 270.949C81.3765 269.809 76.0193 269.268 71.9993 269.331C70.0019 269.362 68.2521 269.544 66.9252 269.916C66.2642 270.102 65.6261 270.357 65.103 270.725C64.5725 271.098 64.059 271.664 63.9001 272.467C63.7412 273.27 64.0004 273.989 64.3488 274.536C64.6923 275.076 65.1852 275.555 65.7257 275.978C66.8108 276.828 68.3597 277.662 70.1946 278.451C73.8876 280.041 79.0472 281.581 84.8075 282.72C90.5678 283.86 95.9249 284.401 99.9449 284.338C101.942 284.307 103.692 284.125 105.019 283.753C105.68 283.567 106.318 283.312 106.841 282.944C107.372 282.571 107.885 282.005 108.044 281.202C108.203 280.399 107.944 279.68 107.595 279.133C107.252 278.593 106.759 278.114 106.219 277.691C105.133 276.841 103.585 276.007 101.75 275.218C98.0567 273.628 92.8971 272.088 87.1368 270.949Z" fill="#85AB34" stroke="#42561A" stroke-width="3"/>
<path d="M101.668 261.757C97.9516 257.21 94.1652 253.382 91.0251 250.871C89.4648 249.624 88 248.649 86.7397 248.092C86.1119 247.814 85.4575 247.604 84.8198 247.555C84.1732 247.505 83.4166 247.615 82.7828 248.133C82.149 248.651 81.891 249.37 81.8113 250.014C81.7327 250.649 81.8079 251.332 81.9552 252.002C82.251 253.348 82.9143 254.978 83.8264 256.755C85.6621 260.332 88.6605 264.804 92.3766 269.351C96.0928 273.897 99.8791 277.726 103.019 280.236C104.58 281.484 106.044 282.458 107.305 283.016C107.932 283.294 108.587 283.503 109.225 283.552C109.871 283.602 110.628 283.493 111.262 282.975C111.895 282.457 112.153 281.737 112.233 281.093C112.312 280.458 112.236 279.776 112.089 279.105C111.793 277.759 111.13 276.13 110.218 274.352C108.382 270.775 105.384 266.303 101.668 261.757Z" fill="#85AB34" stroke="#42561A" stroke-width="3"/>
<path d="M113.799 261.449C112.904 255.646 111.584 250.425 110.153 246.668C109.442 244.802 108.674 243.219 107.871 242.099C107.471 241.541 107.014 241.028 106.489 240.662C105.957 240.291 105.25 240.001 104.441 240.126C103.632 240.251 103.044 240.74 102.649 241.254C102.259 241.761 101.977 242.388 101.764 243.04C101.336 244.35 101.08 246.091 100.964 248.085C100.731 252.099 101.044 257.474 101.939 263.277C102.834 269.081 104.153 274.301 105.585 278.058C106.296 279.925 107.064 281.508 107.867 282.628C108.267 283.186 108.724 283.698 109.249 284.065C109.781 284.436 110.488 284.725 111.297 284.601C112.106 284.476 112.694 283.987 113.089 283.473C113.479 282.965 113.761 282.339 113.974 281.686C114.402 280.376 114.658 278.636 114.774 276.641C115.007 272.628 114.694 267.252 113.799 261.449Z" fill="#85AB34" stroke="#42561A" stroke-width="3"/>
</g>
</svg>
