<svg width="1033" height="632" viewBox="0 0 1033 632" fill="none" xmlns="http://www.w3.org/2000/svg">
<mask id="mask0_280_2268" style="mask-type:alpha" maskUnits="userSpaceOnUse" x="0" y="0" width="1032" height="632">
<path d="M31.6133 17.243C32.1102 7.57999 40.09 0 49.7658 0H1013.36C1023.77 0 1032.05 8.71841 1031.52 19.1099L1000.89 614.757C1000.39 624.42 992.41 632 982.734 632H19.1352C8.72991 632 0.448336 623.282 0.982711 612.89L31.6133 17.243Z" fill="#FF0000"/>
</mask>
<g mask="url(#mask0_280_2268)">
<path d="M517.5 917C730.998 917 924.374 884.237 1064.45 831.199C1134.48 804.683 1191.29 773.06 1230.63 737.844C1269.96 702.629 1292 663.655 1292 622.5C1292 581.344 1269.96 542.371 1230.63 507.156C1191.29 471.94 1134.48 440.317 1064.45 413.801C924.374 360.763 730.998 328 517.5 328C304.002 328 110.626 360.763 -29.4482 413.801C-99.4781 440.317 -156.289 471.94 -195.627 507.156C-234.964 542.371 -257 581.344 -257 622.5C-257 663.655 -234.964 702.629 -195.627 737.844C-156.289 773.06 -99.4781 804.683 -29.4482 831.199C110.626 884.237 304.002 917 517.5 917Z" fill="url(#paint0_linear_280_2268)" stroke="#3F3022" stroke-width="4"/>
<path d="M53.8627 539.538L52.5412 536.84C50.8951 533.48 46.1049 533.48 44.4588 536.84L43.1373 539.538C42.8691 540.086 42.2963 540.416 41.6881 540.375L38.691 540.17C34.9575 539.916 32.5625 544.064 34.6498 547.17L36.3254 549.663C36.6655 550.169 36.6655 550.831 36.3254 551.337L34.6498 553.83C32.5625 556.936 34.9576 561.084 38.691 560.83L41.6881 560.625C42.2963 560.584 42.8691 560.914 43.1373 561.462L44.4588 564.16C46.1049 567.52 50.8951 567.52 52.5412 564.16L53.8627 561.462C54.1309 560.914 54.7037 560.584 55.3119 560.625L58.309 560.83C62.0425 561.084 64.4375 556.936 62.3502 553.83L60.6746 551.337C60.3345 550.831 60.3345 550.169 60.6746 549.663L62.3502 547.17C64.4375 544.064 62.0424 539.916 58.309 540.17L55.3119 540.375C54.7037 540.416 54.1309 540.086 53.8627 539.538Z" fill="#F9C4D0" stroke="#BF566E" stroke-width="3"/>
<path d="M45.76 546L42.7921 548.319C41.3308 549.46 41.2449 551.641 42.6119 552.894L46 556" stroke="#BF566E" stroke-width="3" stroke-linecap="round"/>
<path d="M438.863 544.538L437.541 541.84C435.895 538.48 431.105 538.48 429.459 541.84L428.137 544.538C427.869 545.086 427.296 545.416 426.688 545.375L423.691 545.17C419.958 544.916 417.562 549.064 419.65 552.17L421.325 554.663C421.665 555.169 421.665 555.831 421.325 556.337L419.65 558.83C417.562 561.936 419.958 566.084 423.691 565.83L426.688 565.625C427.296 565.584 427.869 565.914 428.137 566.462L429.459 569.16C431.105 572.52 435.895 572.52 437.541 569.16L438.863 566.462C439.131 565.914 439.704 565.584 440.312 565.625L443.309 565.83C447.042 566.084 449.438 561.936 447.35 558.83L445.675 556.337C445.335 555.831 445.335 555.169 445.675 554.663L447.35 552.17C449.438 549.064 447.042 544.916 443.309 545.17L440.312 545.375C439.704 545.416 439.131 545.086 438.863 544.538Z" fill="#F9C4D0" stroke="#BF566E" stroke-width="3"/>
<path d="M430.76 551L427.792 553.319C426.331 554.46 426.245 556.641 427.612 557.894L431 561" stroke="#BF566E" stroke-width="3" stroke-linecap="round"/>
<path d="M249.863 391.538L248.541 388.84C246.895 385.48 242.105 385.48 240.459 388.84L239.137 391.538C238.869 392.086 238.296 392.416 237.688 392.375L234.691 392.17C230.958 391.916 228.562 396.064 230.65 399.17L232.325 401.663C232.665 402.169 232.665 402.831 232.325 403.337L230.65 405.83C228.562 408.936 230.958 413.084 234.691 412.83L237.688 412.625C238.296 412.584 238.869 412.914 239.137 413.462L240.459 416.16C242.105 419.52 246.895 419.52 248.541 416.16L249.863 413.462C250.131 412.914 250.704 412.584 251.312 412.625L254.309 412.83C258.042 413.084 260.438 408.936 258.35 405.83L256.675 403.337C256.335 402.831 256.335 402.169 256.675 401.663L258.35 399.17C260.438 396.064 258.042 391.916 254.309 392.17L251.312 392.375C250.704 392.416 250.131 392.086 249.863 391.538Z" fill="#F9C4D0" stroke="#BF566E" stroke-width="3"/>
<path d="M241.76 398L238.792 400.319C237.331 401.46 237.245 403.641 238.612 404.894L242 408" stroke="#BF566E" stroke-width="3" stroke-linecap="round"/>
<path d="M712.863 478.538L711.541 475.84C709.895 472.48 705.105 472.48 703.459 475.84L702.137 478.538C701.869 479.086 701.296 479.416 700.688 479.375L697.691 479.17C693.958 478.916 691.562 483.064 693.65 486.17L695.325 488.663C695.665 489.169 695.665 489.831 695.325 490.337L693.65 492.83C691.562 495.936 693.958 500.084 697.691 499.83L700.688 499.625C701.296 499.584 701.869 499.914 702.137 500.462L703.459 503.16C705.105 506.52 709.895 506.52 711.541 503.16L712.863 500.462C713.131 499.914 713.704 499.584 714.312 499.625L717.309 499.83C721.042 500.084 723.438 495.936 721.35 492.83L719.675 490.337C719.335 489.831 719.335 489.169 719.675 488.663L721.35 486.17C723.438 483.064 721.042 478.916 717.309 479.17L714.312 479.375C713.704 479.416 713.131 479.086 712.863 478.538Z" fill="#F9C4D0" stroke="#BF566E" stroke-width="3"/>
<path d="M704.76 485L701.792 487.319C700.331 488.46 700.245 490.641 701.612 491.894L705 495" stroke="#BF566E" stroke-width="3" stroke-linecap="round"/>
<path d="M224.347 567.563L225.72 570.235C227.43 573.563 232.219 573.472 233.801 570.08L235.071 567.358C235.328 566.805 235.895 566.464 236.504 566.494L239.504 566.641C243.242 566.824 245.557 562.631 243.411 559.565L241.688 557.104C241.338 556.605 241.326 555.944 241.656 555.431L243.284 552.906C245.311 549.761 242.837 545.659 239.109 545.985L236.117 546.247C235.509 546.3 234.93 545.98 234.652 545.438L233.279 542.766C231.569 539.437 226.78 539.529 225.198 542.92L223.928 545.643C223.671 546.196 223.104 546.537 222.495 546.507L219.495 546.36C215.757 546.177 213.442 550.37 215.588 553.436L217.311 555.896C217.661 556.396 217.673 557.057 217.343 557.57L215.715 560.094C213.688 563.24 216.162 567.342 219.89 567.016L222.882 566.754C223.49 566.701 224.069 567.02 224.347 567.563Z" fill="#9DE2FF" stroke="#5E8899" stroke-width="3"/>
<path d="M232.325 560.947L235.248 558.573C236.687 557.403 236.732 555.221 235.341 553.994L231.894 550.954" stroke="#5E8899" stroke-width="3" stroke-linecap="round"/>
<path d="M953.445 461.858L955.611 463.939C958.31 466.532 962.809 464.889 963.203 461.168L963.52 458.18C963.584 457.574 964.009 457.067 964.594 456.897L967.48 456.062C971.074 455.021 971.902 450.303 968.876 448.101L966.447 446.333C965.954 445.975 965.727 445.353 965.873 444.761L966.592 441.845C967.488 438.211 963.815 435.136 960.396 436.655L957.65 437.875C957.093 438.122 956.442 438.008 956.002 437.586L953.836 435.505C951.137 432.912 946.637 434.555 946.243 438.276L945.927 441.264C945.863 441.87 945.438 442.377 944.853 442.546L941.967 443.382C938.373 444.423 937.545 449.141 940.571 451.343L943 453.111C943.493 453.469 943.72 454.091 943.574 454.682L942.855 457.599C941.959 461.233 945.631 464.308 949.051 462.789L951.796 461.569C952.353 461.321 953.005 461.436 953.445 461.858Z" fill="#9DE2FF" stroke="#5E8899" stroke-width="3"/>
<path d="M958.841 453.01L960.834 449.814C961.815 448.24 961.148 446.162 959.434 445.454L955.187 443.698" stroke="#5E8899" stroke-width="3" stroke-linecap="round"/>
<path d="M581.394 459.805L583.906 458.158C587.035 456.106 586.439 451.353 582.899 450.139L580.058 449.164C579.481 448.966 579.081 448.439 579.047 447.83L578.876 444.831C578.664 441.095 574.25 439.235 571.428 441.693L569.163 443.666C568.703 444.067 568.047 444.149 567.502 443.875L564.82 442.523C561.478 440.839 557.66 443.732 558.378 447.404L558.954 450.353C559.071 450.951 558.815 451.561 558.305 451.895L555.793 453.542C552.663 455.594 553.26 460.347 556.8 461.562L559.641 462.537C560.218 462.735 560.617 463.262 560.652 463.87L560.822 466.87C561.035 470.606 565.449 472.465 568.271 470.007L570.536 468.034C570.996 467.634 571.652 467.551 572.196 467.826L574.879 469.178C578.221 470.862 582.038 467.968 581.32 464.296L580.744 461.347C580.627 460.749 580.884 460.14 581.394 459.805Z" fill="#9DE2FF" stroke="#5E8899" stroke-width="3"/>
<path d="M573.973 452.571L571.303 449.915C569.988 448.607 567.814 448.793 566.741 450.306L564.081 454.055" stroke="#5E8899" stroke-width="3" stroke-linecap="round"/>
<path d="M324.793 493.184L327.06 491.213C329.884 488.758 328.652 484.129 324.982 483.402L322.035 482.819C321.437 482.701 320.97 482.232 320.854 481.634L320.28 478.685C319.567 475.011 314.942 473.763 312.477 476.579L310.498 478.84C310.097 479.298 309.458 479.468 308.881 479.27L306.041 478.292C302.503 477.073 299.11 480.454 300.316 483.997L301.284 486.841C301.481 487.418 301.308 488.056 300.848 488.456L298.581 490.427C295.756 492.882 296.988 497.511 300.659 498.238L303.606 498.821C304.204 498.939 304.671 499.408 304.787 500.006L305.36 502.955C306.074 506.629 310.699 507.876 313.164 505.061L315.142 502.8C315.544 502.342 316.183 502.172 316.759 502.37L319.6 503.348C323.138 504.567 326.531 501.185 325.325 497.643L324.357 494.799C324.16 494.222 324.332 493.584 324.793 493.184Z" fill="#FFE59F" stroke="#CCB26C" stroke-width="3"/>
<path d="M316.465 487.015L313.462 484.743C311.983 483.625 309.853 484.102 308.994 485.745L306.863 489.818" stroke="#CCB26C" stroke-width="3" stroke-linecap="round"/>
<path d="M544.99 549.967L547.528 551.574C550.69 553.575 554.771 551.068 554.414 547.342L554.128 544.352C554.07 543.745 554.385 543.164 554.925 542.88L557.585 541.486C560.9 539.748 560.769 534.96 557.364 533.406L554.631 532.159C554.076 531.906 553.73 531.342 553.755 530.733L553.877 527.732C554.03 523.993 549.817 521.712 546.77 523.884L544.323 525.627C543.827 525.981 543.166 525.999 542.651 525.673L540.112 524.066C536.95 522.065 532.869 524.572 533.226 528.297L533.512 531.288C533.57 531.895 533.256 532.476 532.716 532.759L530.055 534.154C526.741 535.892 526.872 540.68 530.276 542.234L533.009 543.481C533.564 543.734 533.91 544.297 533.885 544.906L533.763 547.908C533.611 551.647 537.823 553.928 540.871 551.756L543.317 550.013C543.814 549.659 544.475 549.641 544.99 549.967Z" fill="#FFE59F" stroke="#CCB26C" stroke-width="3"/>
<path d="M548.51 540.22L549.825 536.69C550.473 534.953 549.404 533.05 547.583 532.698L543.071 531.825" stroke="#CCB26C" stroke-width="3" stroke-linecap="round"/>
<path d="M529.851 394.776L531.27 392.128C533.038 388.83 530.242 384.94 526.552 385.565L523.591 386.067C522.99 386.169 522.387 385.897 522.065 385.379L520.482 382.826C518.51 379.646 513.743 380.123 512.44 383.63L511.393 386.446C511.181 387.018 510.644 387.404 510.034 387.423L507.032 387.518C503.292 387.636 501.321 392.002 503.707 394.885L505.623 397.199C506.012 397.669 506.077 398.327 505.789 398.864L504.37 401.512C502.602 404.81 505.398 408.7 509.088 408.074L512.05 407.573C512.651 407.471 513.254 407.743 513.575 408.261L515.159 410.814C517.131 413.994 521.897 413.517 523.201 410.01L524.247 407.194C524.46 406.622 524.997 406.236 525.606 406.217L528.609 406.122C532.349 406.004 534.319 401.638 531.933 398.755L530.018 396.441C529.629 395.971 529.563 395.313 529.851 394.776Z" fill="#FFE59F" stroke="#CCB26C" stroke-width="3"/>
<path d="M519.874 391.968L516.259 390.912C514.479 390.392 512.658 391.595 512.438 393.436L511.894 398" stroke="#CCB26C" stroke-width="3" stroke-linecap="round"/>
<path d="M835.959 458.699L833.097 457.785C829.532 456.646 826.216 460.103 827.502 463.618L828.534 466.439C828.744 467.011 828.586 467.654 828.135 468.064L825.913 470.085C823.144 472.603 824.48 477.203 828.166 477.847L831.126 478.364C831.726 478.469 832.204 478.927 832.333 479.522L832.973 482.457C833.769 486.114 838.421 487.257 840.821 484.387L842.749 482.082C843.14 481.614 843.775 481.43 844.356 481.615L847.217 482.529C850.782 483.668 854.098 480.211 852.812 476.697L851.78 473.875C851.571 473.303 851.729 472.661 852.18 472.25L854.402 470.229C857.17 467.711 855.835 463.111 852.148 462.467L849.189 461.95C848.588 461.846 848.111 461.388 847.981 460.792L847.342 457.857C846.546 454.2 841.894 453.057 839.493 455.928L837.566 458.232C837.175 458.7 836.54 458.884 835.959 458.699Z" fill="#AEA7FF" stroke="#484199" stroke-width="3"/>
<path d="M835.013 469.02L834.632 472.766C834.444 474.611 835.958 476.183 837.809 476.064L842.395 475.769" stroke="#484199" stroke-width="3" stroke-linecap="round"/>
<path d="M776.241 583.466L774.613 585.991C772.586 589.137 775.06 593.238 778.788 592.912L781.781 592.65C782.388 592.597 782.967 592.917 783.245 593.459L784.618 596.131C786.329 599.459 791.118 599.368 792.699 595.976L793.969 593.253C794.226 592.701 794.793 592.359 795.402 592.389L798.402 592.536C802.14 592.719 804.455 588.525 802.308 585.46L800.585 582.999C800.236 582.5 800.223 581.839 800.553 581.326L802.181 578.801C804.208 575.656 801.734 571.554 798.006 571.88L795.013 572.142C794.406 572.196 793.827 571.876 793.549 571.334L792.176 568.662C790.465 565.333 785.676 565.425 784.095 568.817L782.825 571.539C782.567 572.092 782.001 572.433 781.392 572.404L778.392 572.257C774.654 572.074 772.339 576.267 774.485 579.332L776.209 581.793C776.558 582.293 776.571 582.954 776.241 583.466Z" fill="#AEA7FF" stroke="#484199" stroke-width="3"/>
<path d="M785.958 587.067L789.477 588.411C791.209 589.072 793.121 588.019 793.488 586.202L794.397 581.696" stroke="#484199" stroke-width="3" stroke-linecap="round"/>
<path d="M51.8803 426.883L53.0295 424.107C54.4612 420.65 51.2927 417.057 47.6834 418.046L44.786 418.839C44.1981 419 43.5711 418.789 43.2 418.306L41.3709 415.922C39.0925 412.954 34.3969 413.902 33.4482 417.521L32.6866 420.427C32.532 421.017 32.0359 421.455 31.4315 421.534L28.4532 421.927C24.7431 422.416 23.2161 426.956 25.8766 429.587L28.0124 431.7C28.4458 432.129 28.5766 432.777 28.3434 433.34L27.1942 436.116C25.7625 439.573 28.931 443.166 32.5403 442.178L35.4377 441.384C36.0256 441.223 36.6526 441.434 37.0237 441.918L38.8528 444.301C41.1312 447.269 45.8267 446.322 46.7755 442.702L47.5371 439.796C47.6917 439.206 48.1878 438.769 48.7922 438.689L51.7705 438.297C55.4806 437.808 57.0076 433.267 54.3471 430.636L52.2113 428.523C51.7779 428.095 51.6471 427.446 51.8803 426.883Z" fill="#AEA7FF" stroke="#484199" stroke-width="3"/>
<path d="M41.6752 425.08L37.9731 424.388C36.1502 424.047 34.4578 425.425 34.4222 427.279L34.334 431.875" stroke="#484199" stroke-width="3" stroke-linecap="round"/>
<path d="M447.753 465.771L446.318 468.411C444.532 471.699 447.306 475.604 450.999 475L453.964 474.515C454.565 474.417 455.167 474.692 455.485 475.212L457.054 477.774C459.008 480.965 463.777 480.515 465.101 477.015L466.163 474.205C466.378 473.635 466.918 473.252 467.527 473.236L470.53 473.158C474.271 473.061 476.266 468.706 473.896 465.81L471.994 463.485C471.608 463.013 471.546 462.355 471.837 461.819L473.271 459.18C475.058 455.891 472.284 451.986 468.591 452.59L465.626 453.075C465.024 453.174 464.423 452.898 464.105 452.378L462.536 449.817C460.581 446.625 455.812 447.075 454.489 450.575L453.427 453.385C453.211 453.956 452.672 454.339 452.062 454.354L449.059 454.432C445.318 454.529 443.323 458.884 445.693 461.78L447.595 464.105C447.981 464.577 448.044 465.236 447.753 465.771Z" fill="#FCFCFC" stroke="#ACABC0" stroke-width="3"/>
<path d="M457.713 468.635L461.322 469.712C463.099 470.242 464.927 469.049 465.157 467.209L465.727 462.649" stroke="#ACABC0" stroke-width="3" stroke-linecap="round"/>
<path d="M-24.2475 476.771L-25.6816 479.411C-27.4681 482.699 -24.6942 486.604 -21.0011 486L-18.0364 485.515C-17.4348 485.417 -16.8335 485.692 -16.5151 486.212L-14.9462 488.774C-12.9918 491.965 -8.22279 491.515 -6.89943 488.015L-5.83708 485.205C-5.6215 484.635 -5.08226 484.252 -4.47285 484.236L-1.4698 484.158C2.27112 484.061 4.26615 479.706 1.89644 476.81L-0.00587769 474.485C-0.391912 474.013 -0.45401 473.355 -0.162978 472.819L1.27118 470.18C3.05771 466.891 0.283725 462.986 -3.40935 463.59L-6.37401 464.075C-6.97563 464.174 -7.57697 463.898 -7.89534 463.378L-9.46424 460.817C-11.4186 457.625 -16.1876 458.075 -17.511 461.575L-18.5734 464.385C-18.7889 464.956 -19.3282 465.339 -19.9376 465.354L-22.9406 465.432C-26.6816 465.529 -28.6766 469.884 -26.3069 472.78L-24.4046 475.105C-24.0185 475.577 -23.9564 476.236 -24.2475 476.771Z" fill="#FCFCFC" stroke="#ACABC0" stroke-width="3"/>
<path d="M911.426 510.255L913.982 508.675C917.165 506.708 916.695 501.94 913.19 500.632L910.375 499.581C909.804 499.368 909.419 498.83 909.401 498.221L909.31 495.218C909.198 491.477 904.835 489.5 901.949 491.882L899.631 493.794C899.161 494.182 898.503 494.247 897.966 493.958L895.321 492.535C892.025 490.762 888.131 493.552 888.751 497.242L889.248 500.205C889.349 500.806 889.076 501.409 888.557 501.729L886.002 503.309C882.819 505.276 883.288 510.043 886.794 511.352L889.608 512.403C890.179 512.616 890.565 513.154 890.583 513.763L890.673 516.766C890.786 520.506 895.149 522.483 898.035 520.102L900.352 518.19C900.822 517.802 901.481 517.737 902.018 518.026L904.663 519.449C907.959 521.222 911.852 518.432 911.233 514.741L910.736 511.779C910.635 511.178 910.908 510.575 911.426 510.255Z" fill="#FCFCFC" stroke="#ACABC0" stroke-width="3"/>
<path d="M904.201 502.824L901.603 500.098C900.323 498.755 898.145 498.883 897.032 500.367L894.273 504.043" stroke="#ACABC0" stroke-width="3" stroke-linecap="round"/>
</g>
<defs>
<linearGradient id="paint0_linear_280_2268" x1="517.5" y1="330" x2="517.5" y2="623" gradientUnits="userSpaceOnUse">
<stop stop-color="#9E7955"/>
<stop offset="1" stop-color="#5F4933"/>
</linearGradient>
</defs>
</svg>
