<svg width="1033" height="632" viewBox="0 0 1033 632" fill="none" xmlns="http://www.w3.org/2000/svg">
<mask id="mask0_280_2268" style="mask-type:alpha" maskUnits="userSpaceOnUse" x="0" y="0" width="1032" height="632">
<path d="M31.6133 17.243C32.1102 7.57999 40.09 0 49.7658 0H1013.36C1023.77 0 1032.05 8.71841 1031.52 19.1099L1000.89 614.757C1000.39 624.42 992.41 632 982.734 632H19.1352C8.72991 632 0.448336 623.282 0.982711 612.89L31.6133 17.243Z" fill="#FF0000"/>
</mask>
<g mask="url(#mask0_280_2268)">
<path d="M517.5 917C730.998 917 924.374 884.237 1064.45 831.199C1134.48 804.683 1191.29 773.06 1230.63 737.844C1269.96 702.629 1292 663.655 1292 622.5C1292 581.344 1269.96 542.371 1230.63 507.156C1191.29 471.94 1134.48 440.317 1064.45 413.801C924.374 360.763 730.998 328 517.5 328C304.002 328 110.626 360.763 -29.4482 413.801C-99.4781 440.317 -156.289 471.94 -195.627 507.156C-234.964 542.371 -257 581.344 -257 622.5C-257 663.655 -234.964 702.629 -195.627 737.844C-156.289 773.06 -99.4781 804.683 -29.4482 831.199C110.626 884.237 304.002 917 517.5 917Z" fill="url(#paint0_linear_280_2268)" stroke="#C5AF99" stroke-width="4"/>
<path d="M269.411 472.5C210.911 528 349.412 545 349.412 545C349.412 545 232.412 601.5 318.912 669C405.412 736.499 505.912 629 505.912 629C505.912 629 594.912 708.999 693.412 669C791.912 629 673.912 545 673.912 545C673.912 545 835.412 524.5 761.412 464C687.412 403.5 596.412 455.5 596.412 455.5C596.412 455.5 589.413 394 505.912 394C422.412 394 419.412 455.5 419.412 455.5C419.412 455.5 327.911 417 269.411 472.5Z" fill="#F8F8FA" stroke="#CDCDD9" stroke-width="3" stroke-linecap="round"/>
<path d="M600.5 523.978C600.5 536.841 592.828 548.67 578.34 557.355C563.841 566.048 542.626 571.5 515.982 571.5C489.337 571.5 468.897 566.047 455.172 557.374C441.477 548.72 434.5 536.902 434.5 523.978C434.5 511.312 444.462 500.456 459.983 492.678C475.428 484.938 495.937 480.5 515.982 480.5C536.03 480.5 557.308 484.939 573.524 492.69C589.848 500.493 600.5 511.36 600.5 523.978Z" fill="#FFEBB7" stroke="#CCB26C" stroke-width="3"/>
</g>
<defs>
<linearGradient id="paint0_linear_280_2268" x1="518" y1="306" x2="518" y2="728" gradientUnits="userSpaceOnUse">
<stop stop-color="#FFF2CF"/>
<stop offset="1" stop-color="#E2C0A2"/>
</linearGradient>
</defs>
</svg>
