<svg width="1033" height="632" viewBox="0 0 1033 632" fill="none" xmlns="http://www.w3.org/2000/svg">
<mask id="mask0_280_2268" style="mask-type:alpha" maskUnits="userSpaceOnUse" x="0" y="0" width="1032" height="632">
<path d="M31.6133 17.243C32.1102 7.57999 40.09 0 49.7658 0H1013.36C1023.77 0 1032.05 8.71841 1031.52 19.1099L1000.89 614.757C1000.39 624.42 992.41 632 982.734 632H19.1352C8.72991 632 0.448336 623.282 0.982711 612.89L31.6133 17.243Z" fill="#FF0000"/>
</mask>
<g mask="url(#mask0_280_2268)">
<path d="M1288 622.5C1288 662.116 1266.8 700.091 1227.96 734.864C1189.12 769.636 1132.8 801.042 1063.03 827.458C923.516 880.285 730.642 913 517.5 913C304.358 913 111.484 880.285 -28.0318 827.458C-97.7968 801.042 -154.116 769.636 -192.959 734.864C-231.803 700.091 -253 662.116 -253 622.5C-253 582.884 -231.803 544.909 -192.959 510.136C-154.116 475.364 -97.7968 443.958 -28.0318 417.542C111.484 364.715 304.358 332 517.5 332C730.642 332 923.516 364.715 1063.03 417.542C1132.8 443.958 1189.12 475.364 1227.96 510.136C1266.8 544.909 1288 582.884 1288 622.5Z" fill="url(#paint0_linear_280_2268)" stroke="#302B66" stroke-width="4"/>
<mask id="mask1_280_2268" style="mask-type:alpha" maskUnits="userSpaceOnUse" x="-255" y="330" width="1545" height="585">
<path d="M1288 622.5C1288 662.116 1266.8 700.091 1227.96 734.864C1189.12 769.636 1132.8 801.042 1063.03 827.458C923.516 880.285 730.642 913 517.5 913C304.358 913 111.484 880.285 -28.0318 827.458C-97.7968 801.042 -154.116 769.636 -192.959 734.864C-231.803 700.091 -253 662.116 -253 622.5C-253 582.884 -231.803 544.909 -192.959 510.136C-154.116 475.364 -97.7968 443.958 -28.0318 417.542C111.484 364.715 304.358 332 517.5 332C730.642 332 923.516 364.715 1063.03 417.542C1132.8 443.958 1189.12 475.364 1227.96 510.136C1266.8 544.909 1288 582.884 1288 622.5Z" fill="url(#paint1_linear_280_2268)" stroke="#93A2EC" stroke-width="4"/>
</mask>
<g mask="url(#mask1_280_2268)">
<path d="M822.081 464C822.081 467.821 825.179 470.919 829 470.919C832.821 470.919 835.919 467.821 835.919 464C835.919 460.179 832.821 457.081 829 457.081C825.179 457.081 822.081 460.179 822.081 464ZM1013.08 391C1013.08 394.821 1016.18 397.919 1020 397.919C1023.82 397.919 1026.92 394.821 1026.92 391C1026.92 387.179 1023.82 384.081 1020 384.081C1016.18 384.081 1013.08 387.179 1013.08 391ZM829 465.297H1018.27V462.703H829V465.297ZM1021.3 462.27V391H1018.7V462.27H1021.3ZM1018.27 465.297C1019.94 465.297 1021.3 463.942 1021.3 462.27H1018.7C1018.7 462.509 1018.51 462.703 1018.27 462.703V465.297Z" fill="#786CFF"/>
<path d="M821.081 673C821.081 676.821 824.179 679.919 828 679.919C831.821 679.919 834.919 676.821 834.919 673C834.919 669.179 831.821 666.081 828 666.081C824.179 666.081 821.081 669.179 821.081 673ZM1011.58 501C1011.58 504.821 1014.68 507.919 1018.5 507.919C1022.32 507.919 1025.42 504.821 1025.42 501C1025.42 497.179 1022.32 494.081 1018.5 494.081C1014.68 494.081 1011.58 497.179 1011.58 501ZM829.297 673V502.73H826.703V673H829.297ZM829.73 502.297H1018.5V499.703H829.73V502.297ZM829.297 502.73C829.297 502.491 829.491 502.297 829.73 502.297V499.703C828.058 499.703 826.703 501.058 826.703 502.73H829.297Z" fill="#786CFF"/>
<path d="M1067.08 539C1067.08 542.821 1070.18 545.919 1074 545.919C1077.82 545.919 1080.92 542.821 1080.92 539C1080.92 535.179 1077.82 532.081 1074 532.081C1070.18 532.081 1067.08 535.179 1067.08 539ZM1067.08 577C1067.08 580.821 1070.18 583.919 1074 583.919C1077.82 583.919 1080.92 580.821 1080.92 577C1080.92 573.179 1077.82 570.081 1074 570.081C1070.18 570.081 1067.08 573.179 1067.08 577ZM-71.4193 539C-71.4193 542.821 -68.3214 545.919 -64.5 545.919C-60.6786 545.919 -57.5807 542.821 -57.5807 539C-57.5807 535.179 -60.6786 532.081 -64.5 532.081C-68.3214 532.081 -71.4193 535.179 -71.4193 539ZM345.581 616.5C345.581 620.321 348.679 623.419 352.5 623.419C356.321 623.419 359.419 620.321 359.419 616.5C359.419 612.679 356.321 609.581 352.5 609.581C348.679 609.581 345.581 612.679 345.581 616.5ZM199.495 539.45L198.622 540.41L199.495 539.45ZM220.434 558.485L221.306 557.525L220.434 558.485ZM1074 537.703H867.73V540.297H1074V537.703ZM864.703 540.73V575.27H867.297V540.73H864.703ZM867.73 578.297H1074V575.703H867.73V578.297ZM-64.5 540.297H198.331V537.703H-64.5V540.297ZM198.622 540.41L219.561 559.445L221.306 557.525L200.368 538.49L198.622 540.41ZM219.703 559.765V614.77H222.297V559.765H219.703ZM222.73 617.797H352.5V615.203H222.73V617.797ZM198.331 540.297C198.439 540.297 198.543 540.337 198.622 540.41L200.368 538.49C199.81 537.983 199.084 537.703 198.331 537.703V540.297ZM219.703 614.77C219.703 616.442 221.058 617.797 222.73 617.797V615.203C222.491 615.203 222.297 615.009 222.297 614.77H219.703ZM864.703 575.27C864.703 576.942 866.058 578.297 867.73 578.297V575.703C867.491 575.703 867.297 575.509 867.297 575.27H864.703ZM219.561 559.445C219.651 559.527 219.703 559.643 219.703 559.765H222.297C222.297 558.912 221.938 558.099 221.306 557.525L219.561 559.445ZM867.73 537.703C866.058 537.703 864.703 539.058 864.703 540.73H867.297C867.297 540.491 867.491 540.297 867.73 540.297V537.703Z" fill="#786CFF"/>
<path d="M-71.9193 578C-71.9193 581.821 -68.8214 584.919 -65 584.919C-61.1786 584.919 -58.0807 581.821 -58.0807 578C-58.0807 574.179 -61.1786 571.081 -65 571.081C-68.8214 571.081 -71.9193 574.179 -71.9193 578ZM308.581 654C308.581 657.821 311.679 660.919 315.5 660.919C319.321 660.919 322.419 657.821 322.419 654C322.419 650.179 319.321 647.081 315.5 647.081C311.679 647.081 308.581 650.179 308.581 654ZM-65 579.297H180.77V576.703H-65V579.297ZM181.203 579.73V652.27H183.797V579.73H181.203ZM184.23 655.297H315.5V652.703H184.23V655.297ZM181.203 652.27C181.203 653.942 182.558 655.297 184.23 655.297V652.703C183.991 652.703 183.797 652.509 183.797 652.27H181.203ZM180.77 579.297C181.009 579.297 181.203 579.491 181.203 579.73H183.797C183.797 578.058 182.442 576.703 180.77 576.703V579.297Z" fill="#786CFF"/>
<path d="M137.081 655C137.081 658.821 140.179 661.919 144 661.919C147.821 661.919 150.919 658.821 150.919 655C150.919 651.179 147.821 648.081 144 648.081C140.179 648.081 137.081 651.179 137.081 655ZM-8.41931 614.5C-8.41931 618.321 -5.32143 621.419 -1.5 621.419C2.32143 621.419 5.41931 618.321 5.41931 614.5C5.41931 610.679 2.32143 607.581 -1.5 607.581C-5.32143 607.581 -8.41931 610.679 -8.41931 614.5ZM145.297 655V616.23H142.703V655H145.297ZM142.27 613.203H-1.5V615.797H142.27V613.203ZM145.297 616.23C145.297 614.558 143.942 613.203 142.27 613.203V615.797C142.509 615.797 142.703 615.991 142.703 616.23H145.297Z" fill="#786CFF"/>
<path d="M203 331V462.27C203 463.226 202.226 464 201.27 464H164.73C163.774 464 163 463.226 163 462.27V343.739" stroke="#786CFF" stroke-width="2.59474" stroke-linecap="round" stroke-linejoin="round"/>
<path d="M118.081 463C118.081 466.821 121.179 469.919 125 469.919C128.821 469.919 131.919 466.821 131.919 463C131.919 459.179 128.821 456.081 125 456.081C121.179 456.081 118.081 459.179 118.081 463ZM42.0807 361C42.0807 364.821 45.1786 367.919 49 367.919C52.8214 367.919 55.9193 364.821 55.9193 361C55.9193 357.179 52.8214 354.081 49 354.081C45.1786 354.081 42.0807 357.179 42.0807 361ZM125 461.703H50.7298V464.297H125V461.703ZM50.2974 461.27V361H47.7026V461.27H50.2974ZM50.7298 461.703C50.491 461.703 50.2974 461.509 50.2974 461.27H47.7026C47.7026 462.942 49.0579 464.297 50.7298 464.297V461.703Z" fill="#786CFF"/>
<path d="M118.081 338C118.081 341.821 121.179 344.919 125 344.919C128.821 344.919 131.919 341.821 131.919 338C131.919 334.179 128.821 331.081 125 331.081C121.179 331.081 118.081 334.179 118.081 338ZM118.081 424C118.081 427.821 121.179 430.919 125 430.919C128.821 430.919 131.919 427.821 131.919 424C131.919 420.179 128.821 417.081 125 417.081C121.179 417.081 118.081 420.179 118.081 424ZM123.703 338L123.703 424L126.297 424L126.297 338L123.703 338Z" fill="#786CFF"/>
<path d="M81.0807 349C81.0807 352.821 84.1786 355.919 88 355.919C91.8214 355.919 94.9193 352.821 94.9193 349C94.9193 345.179 91.8214 342.081 88 342.081C84.1786 342.081 81.0807 345.179 81.0807 349ZM81.0807 425C81.0807 428.821 84.1786 431.919 88 431.919C91.8214 431.919 94.9193 428.821 94.9193 425C94.9193 421.179 91.8214 418.081 88 418.081C84.1786 418.081 81.0807 421.179 81.0807 425ZM86.7026 349V425H89.2974V349H86.7026Z" fill="#786CFF"/>
<path d="M536.081 537.755C536.081 541.577 539.179 544.674 543 544.674C546.821 544.674 549.919 541.577 549.919 537.755C549.919 533.934 546.821 530.836 543 530.836C539.179 530.836 536.081 533.934 536.081 537.755ZM608.733 264.442C608.733 268.264 611.831 271.362 615.653 271.362C619.474 271.362 622.572 268.264 622.572 264.442C622.572 260.621 619.474 257.523 615.653 257.523C611.831 257.523 608.733 260.621 608.733 264.442ZM541.703 350.73V537.755H544.297V350.73H541.703ZM544.73 350.297H613.923V347.703H544.73V350.297ZM616.95 347.27V264.442H614.355V347.27H616.95ZM613.923 350.297C615.595 350.297 616.95 348.942 616.95 347.27H614.355C614.355 347.509 614.162 347.703 613.923 347.703V350.297ZM544.297 350.73C544.297 350.491 544.491 350.297 544.73 350.297V347.703C543.058 347.703 541.703 349.058 541.703 350.73H544.297Z" fill="#786CFF"/>
<path d="M572.081 386.844C572.081 390.665 575.179 393.763 579 393.763C582.821 393.763 585.919 390.665 585.919 386.844C585.919 383.023 582.821 379.925 579 379.925C575.179 379.925 572.081 383.023 572.081 386.844ZM815.121 277C815.121 280.821 818.219 283.919 822.041 283.919C825.862 283.919 828.96 280.821 828.96 277C828.96 273.179 825.862 270.081 822.041 270.081C818.219 270.081 815.121 273.179 815.121 277ZM579 388.141H651.745V385.547H579V388.141ZM654.772 385.114V278.73H652.177V385.114H654.772ZM655.204 278.297H822.041V275.703H655.204V278.297ZM654.772 278.73C654.772 278.491 654.965 278.297 655.204 278.297V275.703C653.532 275.703 652.177 277.058 652.177 278.73H654.772ZM651.745 388.141C653.416 388.141 654.772 386.786 654.772 385.114H652.177C652.177 385.353 651.983 385.547 651.745 385.547V388.141Z" fill="#786CFF"/>
<path d="M572.081 425C572.081 428.822 575.179 431.92 579 431.92C582.821 431.92 585.919 428.822 585.919 425C585.919 421.179 582.821 418.081 579 418.081C575.179 418.081 572.081 421.179 572.081 425ZM946.534 320C946.534 323.822 949.632 326.92 953.453 326.92C957.275 326.92 960.373 323.822 960.373 320C960.373 316.179 957.275 313.081 953.453 313.081C949.632 313.081 946.534 316.179 946.534 320ZM694.245 317.71L694.257 316.412L694.245 317.71ZM579 426.298H690.77V423.703H579V426.298ZM693.797 423.271V319.44H691.203V423.271H693.797ZM694.234 319.007L953.442 321.298L953.465 318.703L694.257 316.412L694.234 319.007ZM693.797 319.44C693.797 319.199 693.993 319.005 694.234 319.007L694.257 316.412C692.574 316.398 691.203 317.757 691.203 319.44H693.797ZM690.77 426.298C692.442 426.298 693.797 424.943 693.797 423.271H691.203C691.203 423.509 691.009 423.703 690.77 423.703V426.298Z" fill="#786CFF"/>
<path d="M574.081 465C574.081 468.821 577.179 471.919 581 471.919C584.821 471.919 587.919 468.821 587.919 465C587.919 461.179 584.821 458.081 581 458.081C577.179 458.081 574.081 461.179 574.081 465ZM783.081 730C783.081 733.821 786.179 736.919 790 736.919C793.821 736.919 796.919 733.821 796.919 730C796.919 726.179 793.821 723.081 790 723.081C786.179 723.081 783.081 726.179 783.081 730ZM579.703 465V535.706H582.297V465H579.703ZM582.73 538.733H636.27V536.139H582.73V538.733ZM636.703 539.166V650.77H639.297V539.166H636.703ZM639.73 653.797H788.27V651.203H639.73V653.797ZM788.703 654.23V730H791.297V654.23H788.703ZM788.27 653.797C788.509 653.797 788.703 653.991 788.703 654.23H791.297C791.297 652.558 789.942 651.203 788.27 651.203V653.797ZM636.703 650.77C636.703 652.442 638.058 653.797 639.73 653.797V651.203C639.491 651.203 639.297 651.009 639.297 650.77H636.703ZM636.27 538.733C636.509 538.733 636.703 538.927 636.703 539.166H639.297C639.297 537.494 637.942 536.139 636.27 536.139V538.733ZM579.703 535.706C579.703 537.378 581.058 538.733 582.73 538.733V536.139C582.491 536.139 582.297 535.945 582.297 535.706H579.703Z" fill="#786CFF"/>
<path d="M288.581 502C288.581 505.821 291.679 508.919 295.5 508.919C299.321 508.919 302.419 505.821 302.419 502C302.419 498.179 299.321 495.081 295.5 495.081C291.679 495.081 288.581 498.179 288.581 502ZM422.581 673.5C422.581 677.321 425.679 680.419 429.5 680.419C433.321 680.419 436.419 677.321 436.419 673.5C436.419 669.679 433.321 666.581 429.5 666.581C425.679 666.581 422.581 669.679 422.581 673.5ZM505.628 576.971L504.61 576.168L505.628 576.971ZM295.5 503.297H504.27V500.703H295.5V503.297ZM504.703 503.73V575.9H507.297V503.73H504.703ZM504.61 576.168L428.481 672.697L430.519 674.303L506.647 577.775L504.61 576.168ZM504.703 575.9C504.703 575.997 504.67 576.091 504.61 576.168L506.647 577.775C507.068 577.24 507.297 576.58 507.297 575.9H504.703ZM504.27 503.297C504.509 503.297 504.703 503.491 504.703 503.73H507.297C507.297 502.058 505.942 500.703 504.27 500.703V503.297Z" fill="#786CFF"/>
<path d="M289.081 539C289.081 542.821 292.179 545.919 296 545.919C299.821 545.919 302.919 542.821 302.919 539C302.919 535.179 299.821 532.081 296 532.081C292.179 532.081 289.081 535.179 289.081 539ZM346.081 691.5C346.081 695.321 349.179 698.419 353 698.419C356.821 698.419 359.919 695.321 359.919 691.5C359.919 687.679 356.821 684.581 353 684.581C349.179 684.581 346.081 687.679 346.081 691.5ZM465.595 557.483L466.588 558.317L465.595 557.483ZM296 540.297H464.27V537.703H296V540.297ZM464.703 540.73V556.37H467.297V540.73H464.703ZM464.601 556.648L352.007 690.665L353.993 692.335L466.588 558.317L464.601 556.648ZM464.703 556.37C464.703 556.472 464.667 556.57 464.601 556.648L466.588 558.317C467.046 557.772 467.297 557.082 467.297 556.37H464.703ZM464.27 540.297C464.509 540.297 464.703 540.491 464.703 540.73H467.297C467.297 539.058 465.942 537.703 464.27 537.703V540.297Z" fill="#786CFF"/>
<path d="M384.081 577.5C384.081 581.321 387.179 584.419 391 584.419C394.821 584.419 397.919 581.321 397.919 577.5C397.919 573.679 394.821 570.581 391 570.581C387.179 570.581 384.081 573.679 384.081 577.5ZM42.0807 500.5C42.0807 504.321 45.1786 507.419 49 507.419C52.8214 507.419 55.9193 504.321 55.9193 500.5C55.9193 496.679 52.8214 493.581 49 493.581C45.1786 493.581 42.0807 496.679 42.0807 500.5ZM220.004 500.991L219.099 501.92L220.004 500.991ZM257.477 537.491L258.382 536.561L257.477 537.491ZM391 576.203H259.73V578.797H391V576.203ZM259.297 575.77V538.73H256.703V575.77H259.297ZM258.382 536.561L220.909 500.061L219.099 501.92L256.572 538.42L258.382 536.561ZM218.797 499.203H49V501.797H218.797V499.203ZM220.909 500.061C220.344 499.511 219.586 499.203 218.797 499.203V501.797C218.91 501.797 219.018 501.841 219.099 501.92L220.909 500.061ZM259.297 538.73C259.297 537.913 258.967 537.131 258.382 536.561L256.572 538.42C256.655 538.502 256.703 538.613 256.703 538.73H259.297ZM259.73 576.203C259.491 576.203 259.297 576.009 259.297 575.77H256.703C256.703 577.442 258.058 578.797 259.73 578.797V576.203Z" fill="#786CFF"/>
<path d="M726.339 349C726.339 352.821 729.436 355.919 733.258 355.919C737.079 355.919 740.177 352.821 740.177 349C740.177 345.179 737.079 342.081 733.258 342.081C729.436 342.081 726.339 345.179 726.339 349ZM991.867 349C991.867 352.821 994.965 355.919 998.786 355.919C1002.61 355.919 1005.71 352.821 1005.71 349C1005.71 345.179 1002.61 342.081 998.786 342.081C994.965 342.081 991.867 345.179 991.867 349ZM733.258 350.297H998.786V347.703H733.258V350.297Z" fill="#786CFF"/>
<path d="M726.081 387C726.081 390.821 729.179 393.919 733 393.919C736.821 393.919 739.919 390.821 739.919 387C739.919 383.179 736.821 380.081 733 380.081C729.179 380.081 726.081 383.179 726.081 387ZM962.202 387C962.202 390.821 965.3 393.919 969.121 393.919C972.943 393.919 976.041 390.821 976.041 387C976.041 383.179 972.943 380.081 969.121 380.081C965.3 380.081 962.202 383.179 962.202 387ZM733 388.297H969.121V385.703H733V388.297Z" fill="#786CFF"/>
<path d="M726.081 425C726.081 428.821 729.179 431.919 733 431.919C736.821 431.919 739.919 428.821 739.919 425C739.919 421.179 736.821 418.081 733 418.081C729.179 418.081 726.081 421.179 726.081 425ZM962.202 425C962.202 428.821 965.3 431.919 969.121 431.919C972.943 431.919 976.041 428.821 976.041 425C976.041 421.179 972.943 418.081 969.121 418.081C965.3 418.081 962.202 421.179 962.202 425ZM733 426.297H969.121V423.703H733V426.297Z" fill="#786CFF"/>
<path d="M752 456.081C748.179 456.081 745.081 459.179 745.081 463C745.081 466.821 748.179 469.919 752 469.919C755.821 469.919 758.919 466.821 758.919 463C758.919 459.179 755.821 456.081 752 456.081ZM752 513.081C748.179 513.081 745.081 516.179 745.081 520C745.081 523.821 748.179 526.919 752 526.919C755.821 526.919 758.919 523.821 758.919 520C758.919 516.179 755.821 513.081 752 513.081ZM750.703 463V520H753.297V463H750.703Z" fill="#786CFF"/>
<path d="M790 456.081C786.179 456.081 783.081 459.179 783.081 463C783.081 466.821 786.179 469.919 790 469.919C793.821 469.919 796.919 466.821 796.919 463C796.919 459.179 793.821 456.081 790 456.081ZM790 513.081C786.179 513.081 783.081 516.179 783.081 520C783.081 523.821 786.179 526.919 790 526.919C793.821 526.919 796.919 523.821 796.919 520C796.919 516.179 793.821 513.081 790 513.081ZM788.703 463V520H791.297V463H788.703Z" fill="#786CFF"/>
<path d="M613.081 501.5C613.081 505.321 616.179 508.419 620 508.419C623.821 508.419 626.919 505.321 626.919 501.5C626.919 497.679 623.821 494.581 620 494.581C616.179 494.581 613.081 497.679 613.081 501.5ZM783.081 577.5C783.081 581.321 786.179 584.419 790 584.419C793.821 584.419 796.919 581.321 796.919 577.5C796.919 573.679 793.821 570.581 790 570.581C786.179 570.581 783.081 573.679 783.081 577.5ZM621.297 501.5V464.73H618.703V501.5H621.297ZM621.73 464.297H712.77V461.703H621.73V464.297ZM713.203 464.73V575.77H715.797V464.73H713.203ZM716.23 578.797H790V576.203H716.23V578.797ZM713.203 575.77C713.203 577.442 714.558 578.797 716.23 578.797V576.203C715.991 576.203 715.797 576.009 715.797 575.77H713.203ZM712.77 464.297C713.009 464.297 713.203 464.491 713.203 464.73H715.797C715.797 463.058 714.442 461.703 712.77 461.703V464.297ZM621.297 464.73C621.297 464.491 621.491 464.297 621.73 464.297V461.703C620.058 461.703 618.703 463.058 618.703 464.73H621.297Z" fill="#786CFF"/>
<path d="M670.081 502.5C670.081 506.321 673.179 509.419 677 509.419C680.821 509.419 683.919 506.321 683.919 502.5C683.919 498.679 680.821 495.581 677 495.581C673.179 495.581 670.081 498.679 670.081 502.5ZM784.081 614C784.081 617.821 787.179 620.919 791 620.919C794.821 620.919 797.919 617.821 797.919 614C797.919 610.179 794.821 607.081 791 607.081C787.179 607.081 784.081 610.179 784.081 614ZM675.703 502.5V612.27H678.297V502.5H675.703ZM678.73 615.297H791V612.703H678.73V615.297ZM675.703 612.27C675.703 613.942 677.058 615.297 678.73 615.297V612.703C678.491 612.703 678.297 612.509 678.297 612.27H675.703Z" fill="#786CFF"/>
<path d="M422.081 264C422.081 267.821 425.179 270.919 429 270.919C432.821 270.919 435.919 267.821 435.919 264C435.919 260.179 432.821 257.081 429 257.081C425.179 257.081 422.081 260.179 422.081 264ZM422.081 387C422.081 390.821 425.179 393.919 429 393.919C432.821 393.919 435.919 390.821 435.919 387C435.919 383.179 432.821 380.081 429 380.081C425.179 380.081 422.081 383.179 422.081 387ZM427.703 264L427.703 387L430.297 387L430.297 264L427.703 264Z" fill="#786CFF"/>
<path d="M307.081 264C307.081 267.821 310.179 270.919 314 270.919C317.821 270.919 320.919 267.821 320.919 264C320.919 260.179 317.821 257.081 314 257.081C310.179 257.081 307.081 260.179 307.081 264ZM307.081 387C307.081 390.821 310.179 393.919 314 393.919C317.821 393.919 320.919 390.821 320.919 387C320.919 383.179 317.821 380.081 314 380.081C310.179 380.081 307.081 383.179 307.081 387ZM312.703 264V387H315.297V264H312.703Z" fill="#786CFF"/>
<path d="M271.081 264C271.081 267.821 274.179 270.919 278 270.919C281.821 270.919 284.919 267.821 284.919 264C284.919 260.179 281.821 257.081 278 257.081C274.179 257.081 271.081 260.179 271.081 264ZM271.081 387C271.081 390.821 274.179 393.919 278 393.919C281.821 393.919 284.919 390.821 284.919 387C284.919 383.179 281.821 380.081 278 380.081C274.179 380.081 271.081 383.179 271.081 387ZM276.703 264V387H279.297V264H276.703Z" fill="#786CFF"/>
<path d="M232.081 264C232.081 267.821 235.179 270.919 239 270.919C242.821 270.919 245.919 267.821 245.919 264C245.919 260.179 242.821 257.081 239 257.081C235.179 257.081 232.081 260.179 232.081 264ZM346.081 329C346.081 332.821 349.179 335.919 353 335.919C356.821 335.919 359.919 332.821 359.919 329C359.919 325.179 356.821 322.081 353 322.081C349.179 322.081 346.081 325.179 346.081 329ZM353 423.27L354.297 423.27L353 423.27ZM237.703 264L237.703 423.27L240.297 423.27L240.297 264L237.703 264ZM240.73 426.297L351.27 426.297L351.27 423.703L240.73 423.703L240.73 426.297ZM354.297 423.27L354.297 329L351.703 329L351.703 423.27L354.297 423.27ZM351.27 426.297C352.942 426.297 354.297 424.942 354.297 423.27L351.703 423.27C351.703 423.509 351.509 423.703 351.27 423.703L351.27 426.297ZM237.703 423.27C237.703 424.942 239.058 426.297 240.73 426.297L240.73 423.703C240.491 423.703 240.297 423.509 240.297 423.27L237.703 423.27Z" fill="#786CFF"/>
<path d="M498.067 263.577C498.067 267.399 501.165 270.496 504.986 270.496C508.808 270.496 511.906 267.399 511.906 263.577C511.906 259.756 508.808 256.658 504.986 256.658C501.165 256.658 498.067 259.756 498.067 263.577ZM251.581 464.237C251.581 468.059 254.679 471.156 258.5 471.156C262.321 471.156 265.419 468.059 265.419 464.237C265.419 460.416 262.321 457.318 258.5 457.318C254.679 457.318 251.581 460.416 251.581 464.237ZM503.689 263.577V462.507H506.284V263.577H503.689ZM503.257 462.94H258.5V465.535H503.257V462.94ZM503.689 462.507C503.689 462.746 503.495 462.94 503.257 462.94V465.535C504.928 465.535 506.284 464.179 506.284 462.507H503.689Z" fill="#786CFF"/>
<path d="M537.081 578.5C537.081 582.321 540.179 585.419 544 585.419C547.821 585.419 550.919 582.321 550.919 578.5C550.919 574.679 547.821 571.581 544 571.581C540.179 571.581 537.081 574.679 537.081 578.5ZM594.581 691.5C594.581 695.321 597.679 698.419 601.5 698.419C605.321 698.419 608.419 695.321 608.419 691.5C608.419 687.679 605.321 684.581 601.5 684.581C597.679 684.581 594.581 687.679 594.581 691.5ZM544 579.797H599.77V577.203H544V579.797ZM600.203 580.23V691.5H602.797V580.23H600.203ZM599.77 579.797C600.009 579.797 600.203 579.991 600.203 580.23H602.797C602.797 578.558 601.442 577.203 599.77 577.203V579.797Z" fill="#786CFF"/>
<path d="M555.581 730.5C555.581 734.321 558.679 737.419 562.5 737.419C566.321 737.419 569.419 734.321 569.419 730.5C569.419 726.679 566.321 723.581 562.5 723.581C558.679 723.581 555.581 726.679 555.581 730.5ZM516.581 616C516.581 619.821 519.679 622.919 523.5 622.919C527.321 622.919 530.419 619.821 530.419 616C530.419 612.179 527.321 609.081 523.5 609.081C519.679 609.081 516.581 612.179 516.581 616ZM563.797 730.5V617.73H561.203V730.5H563.797ZM560.77 614.703H523.5V617.297H560.77V614.703ZM563.797 617.73C563.797 616.058 562.442 614.703 560.77 614.703V617.297C561.009 617.297 561.203 617.491 561.203 617.73H563.797Z" fill="#786CFF"/>
<path d="M391 330.5V424.27C391 425.226 391.774 426 392.73 426H466.27C467.226 426 468 425.226 468 424.27V330.5" stroke="#786CFF" stroke-width="2.59474" stroke-linecap="round" stroke-linejoin="round"/>
</g>
<path d="M1288 622.5C1288 662.116 1266.8 700.091 1227.96 734.864C1189.12 769.636 1132.8 801.042 1063.03 827.458C923.516 880.285 730.642 913 517.5 913C304.358 913 111.484 880.285 -28.0318 827.458C-97.7968 801.042 -154.116 769.636 -192.959 734.864C-231.803 700.091 -253 662.116 -253 622.5C-253 582.884 -231.803 544.909 -192.959 510.136C-154.116 475.364 -97.7968 443.958 -28.0318 417.542C111.484 364.715 304.358 332 517.5 332C730.642 332 923.516 364.715 1063.03 417.542C1132.8 443.958 1189.12 475.364 1227.96 510.136C1266.8 544.909 1288 582.884 1288 622.5Z" stroke="#302B66" stroke-width="4"/>
</g>
<defs>
<linearGradient id="paint0_linear_280_2268" x1="538.398" y1="330" x2="538.398" y2="927.897" gradientUnits="userSpaceOnUse">
<stop stop-color="#6056CC"/>
<stop offset="1" stop-color="#181633"/>
</linearGradient>
<linearGradient id="paint1_linear_280_2268" x1="538.398" y1="330" x2="538.398" y2="927.897" gradientUnits="userSpaceOnUse">
<stop stop-color="#151515"/>
<stop offset="1" stop-color="#909EEB"/>
</linearGradient>
</defs>
</svg>
