<svg width="1033" height="632" viewBox="0 0 1033 632" fill="none" xmlns="http://www.w3.org/2000/svg">
<mask id="mask0_280_2268" style="mask-type:alpha" maskUnits="userSpaceOnUse" x="0" y="0" width="1032" height="632">
<path d="M31.6133 17.243C32.1102 7.57999 40.09 0 49.7658 0H1013.36C1023.77 0 1032.05 8.71841 1031.52 19.1099L1000.89 614.757C1000.39 624.42 992.41 632 982.734 632H19.1352C8.72991 632 0.448336 623.282 0.982711 612.89L31.6133 17.243Z" fill="#FF0000"/>
</mask>
<g mask="url(#mask0_280_2268)">
<mask id="mask1_280_2268" style="mask-type:alpha" maskUnits="userSpaceOnUse" x="-259" y="326" width="1553" height="593">
<path d="M517.5 917C730.998 917 924.374 884.237 1064.45 831.199C1134.48 804.683 1191.29 773.06 1230.63 737.844C1269.96 702.629 1292 663.655 1292 622.5C1292 581.344 1269.96 542.371 1230.63 507.156C1191.29 471.94 1134.48 440.317 1064.45 413.801C924.374 360.763 730.998 328 517.5 328C304.002 328 110.626 360.763 -29.4482 413.801C-99.4781 440.317 -156.289 471.94 -195.627 507.156C-234.964 542.371 -257 581.344 -257 622.5C-257 663.655 -234.964 702.629 -195.627 737.844C-156.289 773.06 -99.4781 804.683 -29.4482 831.199C110.626 884.237 304.002 917 517.5 917Z" fill="url(#paint0_linear_280_2268)" stroke="#967E66" stroke-width="4"/>
</mask>
<g mask="url(#mask1_280_2268)">
<rect x="-257" y="328" width="1549" height="589" rx="10" fill="url(#paint1_linear_280_2268)" stroke="#B19477" stroke-width="4"/>
<line x1="-266" y1="407.5" x2="1308" y2="407.5" stroke="#B19477" stroke-width="3"/>
<line x1="-266" y1="380.5" x2="1308" y2="380.5" stroke="#B19477" stroke-width="3"/>
<line x1="-266" y1="353.5" x2="1308" y2="353.5" stroke="#B19477" stroke-width="3"/>
<line x1="-266" y1="488.5" x2="1308" y2="488.5" stroke="#B19477" stroke-width="3"/>
<line x1="-266" y1="461.5" x2="1308" y2="461.5" stroke="#B19477" stroke-width="3"/>
<line x1="-266" y1="434.5" x2="1308" y2="434.5" stroke="#B19477" stroke-width="3"/>
<line x1="-266" y1="569.5" x2="1308" y2="569.5" stroke="#B19477" stroke-width="3"/>
<line x1="-266" y1="542.5" x2="1308" y2="542.5" stroke="#B19477" stroke-width="3"/>
<line x1="-266" y1="515.5" x2="1308" y2="515.5" stroke="#B19477" stroke-width="3"/>
<line x1="-266" y1="623.5" x2="1308" y2="623.5" stroke="#B19477" stroke-width="3"/>
<line x1="-266" y1="596.5" x2="1308" y2="596.5" stroke="#B19477" stroke-width="3"/>
</g>
<path d="M517.5 917C730.998 917 924.374 884.237 1064.45 831.199C1134.48 804.683 1191.29 773.06 1230.63 737.844C1269.96 702.629 1292 663.655 1292 622.5C1292 581.344 1269.96 542.371 1230.63 507.156C1191.29 471.94 1134.48 440.317 1064.45 413.801C924.374 360.763 730.998 328 517.5 328C304.002 328 110.626 360.763 -29.4482 413.801C-99.4781 440.317 -156.289 471.94 -195.627 507.156C-234.964 542.371 -257 581.344 -257 622.5C-257 663.655 -234.964 702.629 -195.627 737.844C-156.289 773.06 -99.4781 804.683 -29.4482 831.199C110.626 884.237 304.002 917 517.5 917Z" stroke="#9E7955" stroke-width="4"/>
<path d="M371.851 449.5H654.175C656.996 449.5 659.495 451.32 660.361 454.004L685.2 531.004C686.553 535.202 683.424 539.5 679.013 539.5H354.947C350.795 539.5 347.708 535.661 348.598 531.606L365.502 454.606C366.157 451.624 368.798 449.5 371.851 449.5Z" fill="#F8F8FA" stroke="#ACABC0" stroke-width="3"/>
<path d="M389 498L390.759 494.598C391.793 492.598 394.624 492.518 395.77 494.456V494.456C396.785 496.174 399.201 496.354 400.459 494.806L401.596 493.406C402.902 491.799 405.428 492.059 406.379 493.898V493.898C407.357 495.789 409.979 495.998 411.243 494.286L411.81 493.519C412.969 491.95 415.391 492.216 416.182 494V494C416.972 495.784 419.395 496.05 420.554 494.481L421.009 493.864C422.325 492.083 425.053 492.3 426.07 494.267L428 498" stroke="#DEDDE6" stroke-width="3"/>
<path d="M489 469L490.786 466.054C491.94 464.149 494.673 464.066 495.941 465.897V465.897C497.051 467.498 499.351 467.677 500.694 466.266L502.005 464.89C503.392 463.434 505.784 463.693 506.826 465.413V465.413C507.9 467.185 510.389 467.396 511.745 465.829L512.479 464.982C513.717 463.552 516.007 463.822 516.879 465.5V465.5C517.751 467.178 520.041 467.448 521.279 466.018L521.833 465.378C523.278 463.709 525.929 463.933 527.073 465.821L529 469" stroke="#DEDDE6" stroke-width="3"/>
<path d="M466 498L467.747 495.049C468.86 493.167 471.554 493.086 472.779 494.897V494.897C473.852 496.484 476.124 496.66 477.429 495.257L478.687 493.904C480.035 492.454 482.399 492.709 483.408 494.413V494.413C484.446 496.168 486.905 496.374 488.222 494.817L488.387 494.622C489.84 492.903 492.576 493.222 493.595 495.23L495 498" stroke="#DEDDE6" stroke-width="3"/>
<path d="M584 527L585.747 524.049C586.86 522.167 589.554 522.086 590.779 523.897V523.897C591.852 525.484 594.124 525.66 595.429 524.257L596.687 522.904C598.035 521.454 600.399 521.709 601.408 523.413V523.413C602.446 525.168 604.905 525.374 606.222 523.817L606.387 523.622C607.84 521.903 610.576 522.222 611.595 524.23L613 527" stroke="#DEDDE6" stroke-width="3"/>
<path d="M564 469L565.747 466.049C566.86 464.167 569.554 464.086 570.779 465.897V465.897C571.852 467.484 574.124 467.66 575.429 466.257L576.687 464.904C578.035 463.454 580.399 463.709 581.408 465.413V465.413C582.446 467.168 584.905 467.374 586.222 465.817L586.387 465.622C587.84 463.903 590.576 464.222 591.595 466.23L593 469" stroke="#DEDDE6" stroke-width="3"/>
<path d="M434 527L435.747 524.049C436.86 522.167 439.554 522.086 440.779 523.897V523.897C441.852 525.484 444.124 525.66 445.429 524.257L446.687 522.904C448.035 521.454 450.399 521.709 451.408 523.413V523.413C452.446 525.168 454.905 525.374 456.222 523.817L456.387 523.622C457.84 521.903 460.576 522.222 461.595 524.23L463 527" stroke="#DEDDE6" stroke-width="3"/>
<path d="M603 502L604.744 499.049C605.855 497.168 608.546 497.087 609.768 498.897V498.897C610.839 500.483 613.109 500.659 614.411 499.256L615.666 497.905C617.012 496.456 619.374 496.71 620.38 498.413V498.413C621.417 500.167 623.874 500.373 625.188 498.816L625.878 497.998C627.079 496.576 629.341 496.84 630.182 498.5V498.5C631.023 500.16 633.285 500.424 634.485 499.002L635.012 498.378C636.406 496.727 639.013 496.945 640.113 498.806L642 502" stroke="#DEDDE6" stroke-width="3"/>
<path d="M544 509L545.786 506.054C546.94 504.149 549.673 504.066 550.941 505.897V505.897C552.051 507.498 554.351 507.677 555.694 506.266L556.32 505.61C558.052 503.791 561.039 504.115 562.341 506.263L564 509" stroke="#DEDDE6" stroke-width="3"/>
<path d="M499 524L500.786 521.054C501.94 519.149 504.673 519.066 505.941 520.897V520.897C507.051 522.498 509.351 522.677 510.694 521.266L511.32 520.61C513.052 518.791 516.039 519.115 517.341 521.263L519 524" stroke="#DEDDE6" stroke-width="3"/>
<path d="M436 462L437.786 459.054C438.94 457.149 441.673 457.066 442.941 458.897V458.897C444.051 460.498 446.351 460.677 447.694 459.266L448.32 458.61C450.052 456.791 453.039 457.115 454.341 459.263L456 462" stroke="#DEDDE6" stroke-width="3"/>
<path d="M373 478L374.786 475.054C375.94 473.149 378.673 473.066 379.941 474.897V474.897C381.051 476.498 383.351 476.677 384.694 475.266L385.32 474.61C387.052 472.791 390.039 473.115 391.341 475.263L393 478" stroke="#DEDDE6" stroke-width="3"/>
<path d="M637 476L638.786 473.054C639.94 471.149 642.673 471.066 643.941 472.897V472.897C645.051 474.498 647.351 474.677 648.694 473.266L649.32 472.61C651.052 470.791 654.039 471.115 655.341 473.263L657 476" stroke="#DEDDE6" stroke-width="3"/>
</g>
<defs>
<linearGradient id="paint0_linear_280_2268" x1="119" y1="330" x2="119" y2="915" gradientUnits="userSpaceOnUse">
<stop stop-color="#D0B396"/>
<stop offset="1" stop-color="#927A63"/>
</linearGradient>
<linearGradient id="paint1_linear_280_2268" x1="119" y1="330" x2="119" y2="915" gradientUnits="userSpaceOnUse">
<stop stop-color="#C5AF99"/>
<stop offset="1" stop-color="#9E7955"/>
</linearGradient>
</defs>
</svg>
