<svg width="1033" height="632" viewBox="0 0 1033 632" fill="none" xmlns="http://www.w3.org/2000/svg">
<mask id="mask0_280_2268" style="mask-type:alpha" maskUnits="userSpaceOnUse" x="0" y="0" width="1032" height="632">
<path d="M31.6133 17.243C32.1102 7.57999 40.09 0 49.7658 0H1013.36C1023.77 0 1032.05 8.71841 1031.52 19.1099L1000.89 614.757C1000.39 624.42 992.41 632 982.734 632H19.1352C8.72991 632 0.448336 623.282 0.982711 612.89L31.6133 17.243Z" fill="#FF0000"/>
</mask>
<g mask="url(#mask0_280_2268)">
<path d="M1288 622.5C1288 662.116 1266.8 700.091 1227.96 734.864C1189.12 769.636 1132.8 801.042 1063.03 827.458C923.516 880.285 730.642 913 517.5 913C304.358 913 111.484 880.285 -28.0318 827.458C-97.7968 801.042 -154.116 769.636 -192.959 734.864C-231.803 700.091 -253 662.116 -253 622.5C-253 582.884 -231.803 544.909 -192.959 510.136C-154.116 475.364 -97.7968 443.958 -28.0318 417.542C111.484 364.715 304.358 332 517.5 332C730.642 332 923.516 364.715 1063.03 417.542C1132.8 443.958 1189.12 475.364 1227.96 510.136C1266.8 544.909 1288 582.884 1288 622.5Z" fill="url(#paint0_linear_280_2268)" stroke="#B1E8FF" stroke-width="4"/>
<mask id="mask1_280_2268" style="mask-type:alpha" maskUnits="userSpaceOnUse" x="-255" y="330" width="1545" height="585">
<path d="M1288 622.5C1288 662.116 1266.8 700.091 1227.96 734.864C1189.12 769.636 1132.8 801.042 1063.03 827.458C923.516 880.285 730.642 913 517.5 913C304.358 913 111.484 880.285 -28.0318 827.458C-97.7968 801.042 -154.116 769.636 -192.959 734.864C-231.803 700.091 -253 662.116 -253 622.5C-253 582.884 -231.803 544.909 -192.959 510.136C-154.116 475.364 -97.7968 443.958 -28.0318 417.542C111.484 364.715 304.358 332 517.5 332C730.642 332 923.516 364.715 1063.03 417.542C1132.8 443.958 1189.12 475.364 1227.96 510.136C1266.8 544.909 1288 582.884 1288 622.5Z" fill="url(#paint1_linear_280_2268)" stroke="#93A2EC" stroke-width="4"/>
</mask>
<g mask="url(#mask1_280_2268)">
<mask id="path-4-inside-1_280_2268" fill="white">
<path fill-rule="evenodd" clip-rule="evenodd" d="M697.057 489.236C697.057 493.434 694.925 497.429 691.08 501.05C744.949 507.129 784.501 527.266 784.501 551.172C784.501 573.436 750.193 592.432 701.963 599.846C700.295 629.876 642.971 654 572.5 654C532.591 654 496.898 646.263 473.143 634.098C452.121 642.696 423.298 648 391.5 648C327.159 648 275 626.286 275 599.5C275 592.062 279.021 585.016 286.209 578.717C264.631 571.076 251 559.844 251 547.321C251 524.302 297.056 505.642 353.868 505.642C356.539 505.642 359.187 505.683 361.808 505.764C356.693 500.815 353.868 495.381 353.868 489.679C353.868 466.66 399.923 448 456.736 448C504.356 448 544.419 461.111 556.136 478.909C566.406 467.593 593.068 459.528 624.34 459.528C664.5 459.528 697.057 472.829 697.057 489.236Z"/>
</mask>
<path fill-rule="evenodd" clip-rule="evenodd" d="M697.057 489.236C697.057 493.434 694.925 497.429 691.08 501.05C744.949 507.129 784.501 527.266 784.501 551.172C784.501 573.436 750.193 592.432 701.963 599.846C700.295 629.876 642.971 654 572.5 654C532.591 654 496.898 646.263 473.143 634.098C452.121 642.696 423.298 648 391.5 648C327.159 648 275 626.286 275 599.5C275 592.062 279.021 585.016 286.209 578.717C264.631 571.076 251 559.844 251 547.321C251 524.302 297.056 505.642 353.868 505.642C356.539 505.642 359.187 505.683 361.808 505.764C356.693 500.815 353.868 495.381 353.868 489.679C353.868 466.66 399.923 448 456.736 448C504.356 448 544.419 461.111 556.136 478.909C566.406 467.593 593.068 459.528 624.34 459.528C664.5 459.528 697.057 472.829 697.057 489.236Z" fill="#EBF9FF"/>
<path d="M691.08 501.05L689.023 498.866L684.309 503.305L690.743 504.031L691.08 501.05ZM701.963 599.846L701.507 596.881L699.102 597.25L698.967 599.68L701.963 599.846ZM473.143 634.098L474.511 631.428L473.283 630.799L472.007 631.321L473.143 634.098ZM286.209 578.717L288.186 580.973L292.037 577.598L287.21 575.889L286.209 578.717ZM361.808 505.764L361.715 508.762L369.468 509.002L363.894 503.608L361.808 505.764ZM556.136 478.909L553.631 480.559L555.758 483.79L558.358 480.925L556.136 478.909ZM693.136 503.234C697.358 499.259 700.057 494.527 700.057 489.236H694.057C694.057 492.341 692.492 495.599 689.023 498.866L693.136 503.234ZM787.501 551.172C787.501 537.452 776.237 525.674 759.393 516.773C742.341 507.764 718.594 501.136 691.416 498.069L690.743 504.031C717.436 507.043 740.398 513.523 756.59 522.078C772.988 530.743 781.501 540.986 781.501 551.172H787.501ZM702.419 602.811C726.765 599.068 747.791 592.379 762.822 583.674C777.701 575.056 787.501 563.959 787.501 551.172H781.501C781.501 560.649 774.146 570.181 759.815 578.481C745.634 586.694 725.391 593.209 701.507 596.881L702.419 602.811ZM572.5 657C608.039 657 640.399 650.922 664.192 640.951C676.085 635.967 685.965 629.957 693.025 623.134C700.091 616.305 704.487 608.5 704.958 600.012L698.967 599.68C698.605 606.207 695.209 612.679 688.856 618.819C682.497 624.965 673.329 630.616 661.873 635.417C638.97 645.016 607.432 651 572.5 651V657ZM471.776 636.768C496.072 649.21 532.269 657 572.5 657V651C532.913 651 497.724 643.316 474.511 631.428L471.776 636.768ZM391.5 651C423.593 651 452.818 645.653 474.279 636.875L472.007 631.321C451.424 639.74 423.004 645 391.5 645V651ZM272 599.5C272 607.242 275.782 614.346 282.051 620.516C288.309 626.676 297.211 632.086 307.969 636.564C329.498 645.527 359.033 651 391.5 651V645C359.626 645 330.911 639.616 310.275 631.025C299.951 626.727 291.792 621.685 286.26 616.24C280.738 610.806 278 605.15 278 599.5H272ZM284.231 576.46C276.663 583.094 272 590.896 272 599.5H278C278 593.229 281.38 586.938 288.186 580.973L284.231 576.46ZM248 547.321C248 554.757 252.057 561.451 258.54 567.11C265.027 572.772 274.207 577.65 285.207 581.545L287.21 575.889C276.632 572.143 268.208 567.585 262.485 562.589C256.758 557.591 254 552.408 254 547.321H248ZM353.868 502.642C325.174 502.642 299.057 507.348 280.003 515.069C270.483 518.926 262.58 523.594 257.009 528.931C251.429 534.276 248 540.49 248 547.321H254C254 542.642 256.328 537.892 261.159 533.264C265.998 528.628 273.16 524.315 282.256 520.63C300.433 513.265 325.75 508.642 353.868 508.642V502.642ZM361.9 502.765C359.249 502.683 356.57 502.642 353.868 502.642V508.642C356.509 508.642 359.125 508.682 361.715 508.762L361.9 502.765ZM350.868 489.679C350.868 496.446 354.234 502.609 359.721 507.92L363.894 503.608C359.152 499.02 356.868 494.315 356.868 489.679H350.868ZM456.736 445C428.042 445 401.925 449.707 382.871 457.427C373.351 461.284 365.448 465.952 359.877 471.289C354.297 476.634 350.868 482.848 350.868 489.679H356.868C356.868 485.001 359.196 480.25 364.027 475.622C368.866 470.986 376.028 466.673 385.124 462.988C403.3 455.623 428.618 451 456.736 451V445ZM558.642 477.26C552.202 467.476 538.424 459.481 520.803 453.919C503.033 448.31 480.802 445 456.736 445V451C480.291 451 501.901 454.245 518.997 459.641C536.241 465.084 548.354 472.544 553.631 480.559L558.642 477.26ZM624.34 456.528C608.461 456.528 593.693 458.574 581.528 462.093C569.454 465.587 559.596 470.633 553.915 476.893L558.358 480.925C562.947 475.869 571.555 471.225 583.196 467.857C594.748 464.515 608.947 462.528 624.34 462.528V456.528ZM700.057 489.236C700.057 484.067 697.48 479.43 693.427 475.515C689.382 471.608 683.686 468.227 676.893 465.452C663.293 459.896 644.711 456.528 624.34 456.528V462.528C644.129 462.528 661.906 465.811 674.624 471.007C680.99 473.608 685.944 476.629 689.258 479.83C692.564 483.023 694.057 486.201 694.057 489.236H700.057Z" fill="#C4EEFF" mask="url(#path-4-inside-1_280_2268)"/>
<mask id="path-6-inside-2_280_2268" fill="white">
<path fill-rule="evenodd" clip-rule="evenodd" d="M-62.8131 630.708C-76.1874 633.579 -91.4669 635.207 -107.694 635.207C-160.33 635.207 -203 618.079 -203 596.95C-203 585.04 -189.441 574.401 -168.182 567.385C-188.936 562.705 -203 553.654 -203 543.257C-203 528.059 -172.951 515.739 -135.883 515.739C-119.245 515.739 -104.022 518.221 -92.2946 522.331C-75.3947 511.894 -46.2183 505 -13.0586 505C36.0688 505 76.453 520.133 81.1254 539.497C135.748 543.884 176.883 563.132 176.883 586.212C176.883 610.99 129.471 631.351 68.8598 633.649C61.5985 645.338 35.1886 654 3.72073 654C-30.3338 654 -58.4646 643.855 -62.8131 630.708Z"/>
</mask>
<path fill-rule="evenodd" clip-rule="evenodd" d="M-62.8131 630.708C-76.1874 633.579 -91.4669 635.207 -107.694 635.207C-160.33 635.207 -203 618.079 -203 596.95C-203 585.04 -189.441 574.401 -168.182 567.385C-188.936 562.705 -203 553.654 -203 543.257C-203 528.059 -172.951 515.739 -135.883 515.739C-119.245 515.739 -104.022 518.221 -92.2946 522.331C-75.3947 511.894 -46.2183 505 -13.0586 505C36.0688 505 76.453 520.133 81.1254 539.497C135.748 543.884 176.883 563.132 176.883 586.212C176.883 610.99 129.471 631.351 68.8598 633.649C61.5985 645.338 35.1886 654 3.72073 654C-30.3338 654 -58.4646 643.855 -62.8131 630.708Z" fill="#EBF9FF"/>
<path d="M-62.8131 630.708L-59.9648 629.766L-60.8103 627.21L-63.4427 627.775L-62.8131 630.708ZM-168.182 567.385L-167.241 570.234L-156.959 566.84L-167.522 564.458L-168.182 567.385ZM-92.2946 522.331L-93.2869 525.162L-91.9362 525.635L-90.7184 524.883L-92.2946 522.331ZM81.1254 539.497L78.2091 540.201L78.7188 542.313L80.8852 542.487L81.1254 539.497ZM68.8598 633.649L68.7462 630.651L67.1529 630.712L66.3115 632.066L68.8598 633.649ZM-63.4427 627.775C-76.5937 630.598 -91.6612 632.207 -107.694 632.207V638.207C-91.2727 638.207 -75.781 636.561 -62.1834 633.642L-63.4427 627.775ZM-107.694 632.207C-133.727 632.207 -157.157 627.966 -173.968 621.218C-182.382 617.841 -188.989 613.894 -193.445 609.666C-197.894 605.443 -200 601.146 -200 596.95H-206C-206 603.319 -202.772 609.086 -197.576 614.018C-192.386 618.943 -185.036 623.24 -176.203 626.786C-158.52 633.884 -134.297 638.207 -107.694 638.207V632.207ZM-200 596.95C-200 592.225 -197.318 587.354 -191.646 582.64C-185.987 577.937 -177.662 573.673 -167.241 570.234L-169.122 564.536C-179.961 568.113 -189.045 572.677 -195.481 578.025C-201.902 583.362 -206 589.766 -206 596.95H-200ZM-167.522 564.458C-177.678 562.168 -185.993 558.848 -191.689 554.982C-197.458 551.066 -200 546.994 -200 543.257H-206C-206 549.917 -201.509 555.568 -195.058 559.947C-188.534 564.376 -179.439 567.922 -168.841 570.311L-167.522 564.458ZM-200 543.257C-200 540.52 -198.66 537.629 -195.638 534.7C-192.606 531.761 -188.063 528.977 -182.204 526.574C-170.5 521.776 -154.125 518.739 -135.883 518.739V512.739C-154.709 512.739 -171.892 515.862 -184.48 521.023C-190.767 523.6 -196.052 526.746 -199.814 530.391C-203.584 534.046 -206 538.394 -206 543.257H-200ZM-135.883 518.739C-119.518 518.739 -104.639 521.183 -93.2869 525.162L-91.3024 519.5C-103.405 515.258 -118.973 512.739 -135.883 512.739V518.739ZM-90.7184 524.883C-74.4728 514.851 -45.921 508 -13.0586 508V502C-46.5156 502 -76.3166 508.938 -93.8709 519.778L-90.7184 524.883ZM-13.0586 508C11.2284 508 33.243 511.745 49.666 517.802C57.8806 520.831 64.5925 524.401 69.4798 528.286C74.3847 532.185 77.2524 536.236 78.2091 540.201L84.0417 538.793C82.6621 533.076 78.7297 527.974 73.2132 523.589C67.6792 519.19 60.3485 515.346 51.7421 512.172C34.5231 505.822 11.7819 502 -13.0586 502V508ZM80.8852 542.487C107.949 544.661 131.502 550.508 148.185 558.547C156.53 562.568 163.024 567.074 167.394 571.824C171.749 576.557 173.883 581.395 173.883 586.212H179.883C179.883 579.488 176.875 573.266 171.81 567.761C166.76 562.274 159.557 557.366 150.79 553.142C133.25 544.69 108.923 538.72 81.3655 536.507L80.8852 542.487ZM173.883 586.212C173.883 591.379 171.424 596.58 166.399 601.64C161.362 606.711 153.906 611.465 144.401 615.611C125.403 623.897 98.7875 629.512 68.7462 630.651L68.9735 636.647C99.5435 635.488 126.939 629.773 146.8 621.11C156.724 616.781 164.909 611.655 170.656 605.868C176.415 600.069 179.883 593.433 179.883 586.212H173.883ZM66.3115 632.066C63.2671 636.966 55.7306 641.777 44.4614 645.348C33.3575 648.867 19.2002 651 3.72073 651V657C19.7092 657 34.4907 654.802 46.2741 651.068C57.8921 647.386 67.1912 642.02 71.4081 635.232L66.3115 632.066ZM3.72073 651C-13.0371 651 -28.2353 648.5 -39.6868 644.455C-45.4148 642.432 -50.1132 640.055 -53.5862 637.483C-57.0814 634.895 -59.141 632.257 -59.9648 629.766L-65.6613 631.65C-64.311 635.733 -61.2235 639.293 -57.1569 642.305C-53.0682 645.333 -47.7902 647.957 -41.6851 650.113C-29.4705 654.427 -13.576 657 3.72073 657V651Z" fill="#C4EEFF" mask="url(#path-6-inside-2_280_2268)"/>
<mask id="path-8-inside-3_280_2268" fill="white">
<path fill-rule="evenodd" clip-rule="evenodd" d="M163.304 410.081C154.784 411.91 145.051 412.947 134.714 412.947C101.182 412.947 74 402.036 74 388.576C74 380.988 82.6375 374.211 96.1808 369.741C82.9596 366.76 74 360.994 74 354.371C74 344.689 93.1426 336.841 116.756 336.841C127.355 336.841 137.053 338.422 144.524 341.04C155.29 334.392 173.876 330 195 330C226.296 330 252.023 339.64 254.999 351.976C289.795 354.771 316 367.032 316 381.735C316 397.52 285.797 410.491 247.185 411.954C242.56 419.401 225.735 424.919 205.689 424.919C183.995 424.919 166.074 418.456 163.304 410.081Z"/>
</mask>
<path fill-rule="evenodd" clip-rule="evenodd" d="M163.304 410.081C154.784 411.91 145.051 412.947 134.714 412.947C101.182 412.947 74 402.036 74 388.576C74 380.988 82.6375 374.211 96.1808 369.741C82.9596 366.76 74 360.994 74 354.371C74 344.689 93.1426 336.841 116.756 336.841C127.355 336.841 137.053 338.422 144.524 341.04C155.29 334.392 173.876 330 195 330C226.296 330 252.023 339.64 254.999 351.976C289.795 354.771 316 367.032 316 381.735C316 397.52 285.797 410.491 247.185 411.954C242.56 419.401 225.735 424.919 205.689 424.919C183.995 424.919 166.074 418.456 163.304 410.081Z" fill="#EBF9FF"/>
<path d="M163.304 410.081L166.153 409.139L165.307 406.583L162.675 407.148L163.304 410.081ZM96.1808 369.741L97.121 372.59L107.403 369.197L96.8408 366.815L96.1808 369.741ZM144.524 341.04L143.532 343.871L144.882 344.345L146.1 343.593L144.524 341.04ZM254.999 351.976L252.083 352.68L252.592 354.792L254.759 354.966L254.999 351.976ZM247.185 411.954L247.072 408.957L245.478 409.017L244.637 410.371L247.185 411.954ZM162.675 407.148C154.378 408.929 144.857 409.947 134.714 409.947V415.947C145.245 415.947 155.191 414.891 163.934 413.014L162.675 407.148ZM134.714 409.947C118.233 409.947 103.451 407.26 92.9002 403.025C87.6165 400.904 83.5416 398.453 80.8363 395.886C78.1378 393.325 77 390.854 77 388.576H71C71 393.027 73.26 396.968 76.706 400.238C80.1454 403.502 84.9617 406.303 90.6651 408.593C102.088 413.178 117.663 415.947 134.714 415.947V409.947ZM77 388.576C77 386.012 78.4515 383.187 81.9291 380.297C85.393 377.418 90.5584 374.756 97.121 372.59L95.2406 366.892C88.2599 369.196 82.3349 372.158 78.0942 375.682C73.8673 379.195 71 383.552 71 388.576H77ZM96.8408 366.815C90.4504 365.374 85.2953 363.3 81.8172 360.94C78.2655 358.529 77 356.221 77 354.371H71C71 359.144 74.2143 363.031 78.4477 365.904C82.7547 368.827 88.69 371.127 95.5209 372.668L96.8408 366.815ZM77 354.371C77 353.013 77.6584 351.436 79.448 349.701C81.2468 347.958 84.0063 346.249 87.6611 344.751C94.9561 341.76 105.241 339.841 116.756 339.841V333.841C104.658 333.841 93.5646 335.846 85.3849 339.199C81.3024 340.873 77.8004 342.942 75.2719 345.393C72.7344 347.853 71 350.887 71 354.371H77ZM116.756 339.841C127.083 339.841 136.436 341.385 143.532 343.871L145.516 338.209C137.67 335.459 127.627 333.841 116.756 333.841V339.841ZM146.1 343.593C156.212 337.349 174.174 333 195 333V327C173.579 327 154.368 331.435 142.948 338.488L146.1 343.593ZM195 333C210.371 333 224.264 335.372 234.581 339.177C239.743 341.081 243.907 343.305 246.903 345.687C249.916 348.082 251.55 350.472 252.083 352.68L257.915 351.272C256.96 347.312 254.261 343.871 250.636 340.99C246.993 338.094 242.211 335.596 236.658 333.547C225.544 329.449 210.925 327 195 327V333ZM254.759 354.966C271.91 356.344 286.773 360.046 297.246 365.093C302.485 367.617 306.493 370.415 309.154 373.307C311.8 376.182 313 379.013 313 381.735H319C319 377.106 316.925 372.891 313.57 369.244C310.23 365.615 305.512 362.415 299.851 359.687C288.522 354.228 272.884 350.403 255.239 348.986L254.759 354.966ZM313 381.735C313 384.654 311.617 387.707 308.549 390.796C305.469 393.897 300.852 396.857 294.873 399.465C282.927 404.676 266.113 408.235 247.072 408.957L247.299 414.952C266.869 414.21 284.463 410.552 297.272 404.965C303.67 402.174 309.016 398.84 312.806 395.024C316.608 391.196 319 386.708 319 381.735H313ZM244.637 410.371C242.91 413.151 238.429 416.114 231.314 418.369C224.363 420.572 215.458 421.919 205.689 421.919V427.919C215.967 427.919 225.496 426.507 233.126 424.089C240.591 421.723 246.834 418.204 249.734 413.537L244.637 410.371ZM205.689 421.919C195.111 421.919 185.556 420.34 178.399 417.812C174.819 416.547 171.931 415.077 169.83 413.522C167.707 411.95 166.582 410.437 166.153 409.139L160.456 411.023C161.412 413.913 163.565 416.348 166.259 418.343C168.976 420.355 172.443 422.071 176.401 423.469C184.32 426.267 194.572 427.919 205.689 427.919V421.919Z" fill="#C4EEFF" mask="url(#path-8-inside-3_280_2268)"/>
<mask id="path-10-inside-4_280_2268" fill="white">
<path fill-rule="evenodd" clip-rule="evenodd" d="M1029.43 518.649C1019.47 520.787 1008.09 522 996 522C956.788 522 925 509.24 925 493.5C925 484.627 935.101 476.702 950.939 471.475C935.477 467.988 925 461.246 925 453.5C925 442.178 947.386 433 975 433C987.394 433 998.735 434.849 1007.47 437.911C1020.06 430.136 1041.8 425 1066.5 425C1103.1 425 1133.18 436.274 1136.66 450.699C1177.36 453.967 1208 468.306 1208 485.5C1208 503.959 1172.68 519.127 1127.53 520.839C1122.12 529.547 1102.44 536 1079 536C1053.63 536 1032.67 528.442 1029.43 518.649Z"/>
</mask>
<path fill-rule="evenodd" clip-rule="evenodd" d="M1029.43 518.649C1019.47 520.787 1008.09 522 996 522C956.788 522 925 509.24 925 493.5C925 484.627 935.101 476.702 950.939 471.475C935.477 467.988 925 461.246 925 453.5C925 442.178 947.386 433 975 433C987.394 433 998.735 434.849 1007.47 437.911C1020.06 430.136 1041.8 425 1066.5 425C1103.1 425 1133.18 436.274 1136.66 450.699C1177.36 453.967 1208 468.306 1208 485.5C1208 503.959 1172.68 519.127 1127.53 520.839C1122.12 529.547 1102.44 536 1079 536C1053.63 536 1032.67 528.442 1029.43 518.649Z" fill="#EBF9FF"/>
<path d="M1029.43 518.649L1032.28 517.706L1031.44 515.15L1028.8 515.715L1029.43 518.649ZM950.939 471.475L951.879 474.323L962.161 470.93L951.599 468.548L950.939 471.475ZM1007.47 437.911L1006.48 440.742L1007.83 441.216L1009.05 440.463L1007.47 437.911ZM1136.66 450.699L1133.75 451.403L1134.26 453.516L1136.42 453.69L1136.66 450.699ZM1127.53 520.839L1127.41 517.841L1125.82 517.902L1124.98 519.256L1127.53 520.839ZM1028.8 515.715C1019.06 517.806 1007.89 519 996 519V525C1008.28 525 1019.88 523.768 1030.06 521.582L1028.8 515.715ZM996 519C976.679 519 959.325 515.851 946.913 510.868C940.699 508.374 935.87 505.479 932.645 502.417C929.426 499.362 928 496.348 928 493.5H922C922 498.522 924.548 503.005 928.514 506.77C932.474 510.528 938.044 513.774 944.678 516.437C957.962 521.769 976.109 525 996 525V519ZM928 493.5C928 490.293 929.817 486.86 933.948 483.427C938.064 480.006 944.169 476.868 951.879 474.323L949.998 468.626C941.87 471.308 935.006 474.746 930.113 478.813C925.233 482.868 922 487.834 922 493.5H928ZM951.599 468.548C944.088 466.854 937.994 464.411 933.856 461.602C929.645 458.744 928 455.911 928 453.5H922C922 458.834 925.594 463.246 930.487 466.567C935.453 469.938 942.328 472.608 950.279 474.401L951.599 468.548ZM928 453.5C928 451.732 928.861 449.765 931.017 447.675C933.183 445.576 936.473 443.547 940.783 441.78C949.389 438.252 961.485 436 975 436V430C960.901 430 947.997 432.337 938.507 436.229C933.769 438.171 929.736 440.56 926.841 443.366C923.937 446.181 922 449.607 922 453.5H928ZM975 436C987.122 436 998.119 437.812 1006.48 440.742L1008.46 435.08C999.352 431.886 987.667 430 975 430V436ZM1009.05 440.463C1020.98 433.093 1042.09 428 1066.5 428V422C1041.5 422 1019.14 427.18 1005.9 435.358L1009.05 440.463ZM1066.5 428C1084.52 428 1100.83 430.78 1112.96 435.255C1119.03 437.493 1123.95 440.118 1127.51 442.946C1131.09 445.789 1133.09 448.673 1133.75 451.403L1139.58 449.995C1138.5 445.513 1135.43 441.578 1131.25 438.249C1127.04 434.907 1121.5 432.008 1115.04 429.625C1102.11 424.857 1085.08 422 1066.5 422V428ZM1136.42 453.69C1156.52 455.304 1173.97 459.644 1186.29 465.58C1192.45 468.55 1197.2 471.855 1200.37 475.3C1203.52 478.727 1205 482.155 1205 485.5H1211C1211 480.248 1208.65 475.436 1204.78 471.237C1200.94 467.055 1195.48 463.348 1188.89 460.175C1175.72 453.826 1157.5 449.363 1136.9 447.709L1136.42 453.69ZM1205 485.5C1205 489.088 1203.3 492.78 1199.65 496.454C1195.99 500.141 1190.52 503.635 1183.5 506.7C1169.45 512.825 1149.73 516.995 1127.41 517.841L1127.64 523.837C1150.48 522.971 1170.99 518.701 1185.9 512.2C1193.34 508.951 1199.53 505.085 1203.9 500.682C1208.29 496.268 1211 491.142 1211 485.5H1205ZM1124.98 519.256C1122.86 522.666 1117.47 526.179 1109.12 528.825C1100.93 531.419 1090.47 533 1079 533V539C1090.98 539 1102.07 537.354 1110.93 534.545C1119.63 531.788 1126.78 527.72 1130.07 522.422L1124.98 519.256ZM1079 533C1066.58 533 1055.35 531.147 1046.92 528.168C1042.7 526.678 1039.27 524.938 1036.76 523.081C1034.23 521.206 1032.83 519.359 1032.28 517.706L1026.59 519.591C1027.66 522.835 1030.09 525.605 1033.19 527.902C1036.32 530.216 1040.32 532.202 1044.92 533.826C1054.12 537.074 1066.05 539 1079 539V533Z" fill="#C4EEFF" mask="url(#path-10-inside-4_280_2268)"/>
</g>
<path d="M1288 622.5C1288 662.116 1266.8 700.091 1227.96 734.864C1189.12 769.636 1132.8 801.042 1063.03 827.458C923.516 880.285 730.642 913 517.5 913C304.358 913 111.484 880.285 -28.0318 827.458C-97.7968 801.042 -154.116 769.636 -192.959 734.864C-231.803 700.091 -253 662.116 -253 622.5C-253 582.884 -231.803 544.909 -192.959 510.136C-154.116 475.364 -97.7968 443.958 -28.0318 417.542C111.484 364.715 304.358 332 517.5 332C730.642 332 923.516 364.715 1063.03 417.542C1132.8 443.958 1189.12 475.364 1227.96 510.136C1266.8 544.909 1288 582.884 1288 622.5Z" stroke="#B1E8FF" stroke-width="4"/>
</g>
<defs>
<linearGradient id="paint0_linear_280_2268" x1="538.398" y1="330" x2="538.398" y2="927.897" gradientUnits="userSpaceOnUse">
<stop stop-color="#DFF6FD"/>
<stop offset="1" stop-color="#AEA7FF"/>
</linearGradient>
<linearGradient id="paint1_linear_280_2268" x1="538.398" y1="330" x2="538.398" y2="927.897" gradientUnits="userSpaceOnUse">
<stop stop-color="#DFF6FD"/>
<stop offset="1" stop-color="#909EEB"/>
</linearGradient>
</defs>
</svg>
