<svg width="525" height="94" viewBox="0 0 525 94" fill="none" xmlns="http://www.w3.org/2000/svg">
<path d="M108.743 70C116.426 70 123.091 66.0014 123.169 58.2394C123.247 52.359 119.406 48.9876 114.545 47.0275L109.135 44.9106C107.018 44.1266 105.45 43.1073 105.45 41.2256C105.45 39.5791 106.626 38.1678 109.135 38.1678C111.408 38.1678 113.604 39.2655 116.113 41.3824C116.818 41.9312 117.367 42.0097 117.916 41.3824L121.366 37.227C121.758 36.7566 121.915 36.1293 121.444 35.5805C118.23 31.7387 113.604 29.7002 108.586 29.7002C101.451 29.7002 95.1786 33.934 95.1786 41.304C95.1786 46.6355 98.6284 49.9285 103.568 51.8886L108.429 53.8487C111.252 55.0248 112.428 55.8872 112.428 57.7689C112.428 59.9643 110.703 60.9835 108.115 60.9835C105.136 60.9835 102.47 59.6506 99.2557 57.2201C98.6284 56.7497 97.9228 56.5929 97.2955 57.5337L94.5514 61.3755C94.0026 62.238 93.9242 63.1004 94.3946 63.6493C97.4524 67.2559 102.313 70 108.743 70Z" fill="#2A84EE"/>
<path d="M504.591 70C510.001 70 514.94 68.4319 518.233 65.1389C518.939 64.5117 519.017 63.9629 518.625 63.414L515.724 59.4154C515.332 58.8666 514.94 58.7882 514.391 59.1018C511.255 60.9051 508.432 61.4539 505.453 61.4539C499.259 61.4539 495.261 58.7882 494.085 53.9271H517.449C520.82 53.9271 521.683 51.8102 521.683 48.0468C521.683 38.3246 514.94 29.7002 503.258 29.7002C491.419 29.7002 483.5 38.403 483.5 49.6933C483.5 61.2971 491.968 70 504.591 70ZM493.928 46.3219C494.869 41.2256 498.554 38.6383 503.336 38.6383C507.962 38.6383 511.412 41.2256 512.039 46.3219H493.928Z" fill="#2A84EE"/>
<path d="M465.284 70C472.967 70 479.632 66.0014 479.71 58.2394C479.789 52.359 475.947 48.9876 471.086 47.0275L465.676 44.9106C463.559 44.1266 461.991 43.1073 461.991 41.2256C461.991 39.5791 463.167 38.1678 465.676 38.1678C467.949 38.1678 470.145 39.2655 472.654 41.3824C473.359 41.9312 473.908 42.0097 474.457 41.3824L477.907 37.227C478.299 36.7566 478.456 36.1293 477.985 35.5805C474.771 31.7387 470.145 29.7002 465.127 29.7002C457.992 29.7002 451.72 33.934 451.72 41.304C451.72 46.6355 455.17 49.9285 460.109 51.8886L464.97 53.8487C467.793 55.0248 468.969 55.8872 468.969 57.7689C468.969 59.9643 467.244 60.9835 464.657 60.9835C461.677 60.9835 459.011 59.6506 455.797 57.2201C455.17 56.7497 454.464 56.5929 453.837 57.5337L451.093 61.3755C450.544 62.238 450.465 63.1004 450.936 63.6493C453.994 67.2559 458.855 70 465.284 70Z" fill="#2A84EE"/>
<path d="M422.079 70C427.802 70 431.487 67.1775 433.682 63.2572L433.996 67.8047C434.074 68.7455 434.467 69.0592 435.172 69.0592H443.248C443.953 69.0592 444.502 68.5887 444.502 67.8831V31.8171C444.502 31.1114 443.953 30.641 443.248 30.641H434.859C434.153 30.641 433.682 31.1114 433.682 31.8171V51.7318C433.682 57.1417 430.703 60.0427 426.156 60.0427C421.53 60.0427 419.021 57.1417 419.021 51.7318V31.8171C419.021 31.1114 418.55 30.641 417.845 30.641H409.377C408.671 30.641 408.201 31.1114 408.201 31.8171V54.1623C408.201 64.1981 414.003 70 422.079 70Z" fill="#2A84EE"/>
<path d="M382.785 70C394.31 70 402.856 61.2187 402.856 49.8501C402.856 38.4814 394.31 29.7002 382.785 29.7002C371.181 29.7002 362.635 38.4814 362.635 49.8501C362.635 61.2187 371.181 70 382.785 70ZM373.062 49.8501C373.062 43.5777 377.296 39.6575 382.785 39.6575C388.195 39.6575 392.428 43.5777 392.428 49.8501C392.428 56.1224 388.195 60.0427 382.785 60.0427C377.296 60.0427 373.062 56.1224 373.062 49.8501Z" fill="#2A84EE"/>
<path d="M321.782 69.0591H330.249C330.955 69.0591 331.425 68.5887 331.425 67.8831V47.9684C331.425 42.5584 334.405 39.6575 338.952 39.6575C343.578 39.6575 346.087 42.5584 346.087 47.9684V67.8831C346.087 68.5887 346.557 69.0591 347.263 69.0591H355.652C356.358 69.0591 356.907 68.5887 356.907 67.8831V45.5378C356.907 35.502 351.026 29.7001 343.029 29.7001C337.306 29.7001 333.621 32.5227 331.425 36.4429V14.1761C331.425 13.4704 330.955 13 330.249 13H321.782C321.076 13 320.606 13.4704 320.606 14.1761V67.8831C320.606 68.5887 321.076 69.0591 321.782 69.0591Z" fill="#2A84EE"/>
<path d="M302.144 69.0591H310.69C311.395 69.0591 311.866 68.5887 311.866 67.8831V14.1761C311.866 13.4704 311.395 13 310.69 13H302.144C301.438 13 300.968 13.4704 300.968 14.1761V67.8831C300.968 68.5887 301.438 69.0591 302.144 69.0591Z" fill="#2A84EE"/>
<path d="M274.176 70C285.701 70 294.247 61.2187 294.247 49.8501C294.247 38.4814 285.701 29.7002 274.176 29.7002C262.572 29.7002 254.026 38.4814 254.026 49.8501C254.026 61.2187 262.572 70 274.176 70ZM264.454 49.8501C264.454 43.5777 268.688 39.6575 274.176 39.6575C279.586 39.6575 283.82 43.5777 283.82 49.8501C283.82 56.1224 279.586 60.0427 274.176 60.0427C268.688 60.0427 264.454 56.1224 264.454 49.8501Z" fill="#2A84EE"/>
<path d="M230.187 70C241.712 70 250.258 61.2187 250.258 49.8501C250.258 38.4814 241.712 29.7002 230.187 29.7002C218.583 29.7002 210.037 38.4814 210.037 49.8501C210.037 61.2187 218.583 70 230.187 70ZM220.465 49.8501C220.465 43.5777 224.698 39.6575 230.187 39.6575C235.597 39.6575 239.83 43.5777 239.83 49.8501C239.83 56.1224 235.597 60.0427 230.187 60.0427C224.698 60.0427 220.465 56.1224 220.465 49.8501Z" fill="#2A84EE"/>
<path d="M169.184 69.0591H177.651C178.357 69.0591 178.828 68.5887 178.828 67.8831V47.9684C178.828 42.5584 181.807 39.6575 186.354 39.6575C190.98 39.6575 193.489 42.5584 193.489 47.9684V67.8831C193.489 68.5887 193.96 69.0591 194.665 69.0591H203.055C203.76 69.0591 204.309 68.5887 204.309 67.8831V45.5378C204.309 35.502 198.429 29.7001 190.431 29.7001C184.708 29.7001 181.023 32.5227 178.828 36.4429V14.1761C178.828 13.4704 178.357 13 177.651 13H169.184C168.478 13 168.008 13.4704 168.008 14.1761V67.8831C168.008 68.5887 168.478 69.0591 169.184 69.0591Z" fill="#2A84EE"/>
<path d="M147.265 70C153.459 70 158.713 67.3343 162.005 63.1004C162.476 62.5516 162.319 61.9244 161.849 61.4539L157.144 56.8281C156.517 56.2008 155.655 56.2792 155.106 56.8281C152.989 58.945 150.715 60.0427 147.736 60.0427C141.385 60.0427 137.387 55.3384 137.387 49.6933C137.387 44.0482 141.385 39.6575 147.501 39.6575C150.637 39.6575 152.911 40.7552 155.028 42.8721C155.576 43.4209 156.439 43.4993 157.066 42.8721L161.77 38.2462C162.241 37.7758 162.398 37.1486 161.927 36.5997C158.634 32.3659 153.381 29.7002 147.03 29.7002C135.505 29.7002 126.959 38.3246 126.959 49.6933C126.959 61.2187 135.583 70 147.265 70Z" fill="#2A84EE"/>
<path d="M28 11.75C28 9.54086 26.2091 7.75 24 7.75C23.317 7.75 22.67 7.91328 22.1075 8.21509C8.99888 14.7822 0 28.3402 0 44C0 64.7414 15.7867 81.7956 36 83.8025V87H35C31.6863 87 29 89.6863 29 93C29 93.5523 29.4477 94 30 94H50C50.5523 94 51 93.5523 51 93C51 89.6863 48.3137 87 45 87H44V78.0173C44 76.8146 42.9455 75.8887 41.7445 75.9533C41.1669 75.9843 40.5853 76 40 76C22.3269 76 8 61.6731 8 44C8 31.5165 15.1482 20.7026 25.5748 15.4281C27.001 14.8167 28 13.4 28 11.75Z" fill="#B6C1D0"/>
<path d="M36 8V13C36 14.1046 36.8954 15 38 15H42.5C43.6046 15 44.5 14.1046 44.5 13V10.5C44.5 8.84315 45.8431 7.5 47.5 7.5H50.5C51.6046 7.5 52.5 6.60457 52.5 5.5V2C52.5 0.895431 51.6046 0 50.5 0H44C39.5817 0 36 3.58172 36 8Z" fill="#0DDD8B"/>
<path d="M14 44C14 30.7452 24.7452 20 38 20H44C57.2548 20 68 30.7452 68 44C68 57.2548 57.2548 68 44 68H38C24.7452 68 14 57.2548 14 44Z" fill="#F06618"/>
<path d="M53.5486 66.0254C58.093 61.076 61 53.4963 61 45C61 34.2971 56.387 25.0487 49.6987 20.6806C47.872 20.2358 45.9636 20 44 20H38C36.0364 20 34.128 20.2358 32.3013 20.6806C25.613 25.0487 21 34.2971 21 45C21 53.4963 23.907 61.076 28.4514 66.0254C31.3777 67.2957 34.6066 68 38 68H44C47.3934 68 50.6223 67.2957 53.5486 66.0254Z" fill="#F97700"/>
<path d="M47.128 67.798C50.0568 63.0072 52 54.5871 52 45C52 33.7478 49.3232 24.1033 45.5178 20.0472C45.0159 20.0159 44.5098 20 44 20H38C37.8404 20 37.6812 20.0016 37.5224 20.0047C33.6956 24.0355 31 33.7083 31 45C31 54.6644 32.9746 63.1428 35.943 67.9131C36.621 67.9706 37.3071 68 38 68H44C45.0601 68 46.1042 67.9313 47.128 67.798Z" fill="#FF8A1E"/>
</svg>
