<svg width="1033" height="632" viewBox="0 0 1033 632" fill="none" xmlns="http://www.w3.org/2000/svg">
<mask id="mask0_280_2268" style="mask-type:alpha" maskUnits="userSpaceOnUse" x="0" y="0" width="1032" height="632">
<path d="M31.6133 17.243C32.1102 7.57999 40.09 0 49.7658 0H1013.36C1023.77 0 1032.05 8.71841 1031.52 19.1099L1000.89 614.757C1000.39 624.42 992.41 632 982.734 632H19.1352C8.72991 632 0.448336 623.282 0.982711 612.89L31.6133 17.243Z" fill="#FF0000"/>
</mask>
<g mask="url(#mask0_280_2268)">
<rect x="-18" width="1072" height="563" fill="url(#paint0_linear_280_2268)"/>
<path d="M337.639 11.7174C338.305 10.0291 340.695 10.0291 341.361 11.7174L343 15.8736C343.203 16.389 343.611 16.797 344.126 17.0003L348.283 18.6395C349.971 19.3053 349.971 21.6947 348.283 22.3605L344.126 23.9997C343.611 24.203 343.203 24.611 343 25.1264L341.361 29.2826C340.695 30.9709 338.305 30.9709 337.639 29.2826L336 25.1264C335.797 24.611 335.389 24.203 334.874 23.9997L330.717 22.3605C329.029 21.6947 329.029 19.3053 330.717 18.6395L334.874 17.0003C335.389 16.797 335.797 16.389 336 15.8736L337.639 11.7174Z" fill="#FCFCFC"/>
<path d="M200.639 132.717C201.305 131.029 203.695 131.029 204.361 132.717L206 136.874C206.203 137.389 206.611 137.797 207.126 138L211.283 139.639C212.971 140.305 212.971 142.695 211.283 143.361L207.126 145C206.611 145.203 206.203 145.611 206 146.126L204.361 150.283C203.695 151.971 201.305 151.971 200.639 150.283L199 146.126C198.797 145.611 198.389 145.203 197.874 145L193.717 143.361C192.029 142.695 192.029 140.305 193.717 139.639L197.874 138C198.389 137.797 198.797 137.389 199 136.874L200.639 132.717Z" fill="#FCFCFC"/>
<path d="M275.639 85.7174C276.305 84.0291 278.695 84.0291 279.361 85.7174L281 89.8736C281.203 90.389 281.611 90.797 282.126 91.0003L286.283 92.6395C287.971 93.3053 287.971 95.6947 286.283 96.3605L282.126 97.9997C281.611 98.203 281.203 98.611 281 99.1264L279.361 103.283C278.695 104.971 276.305 104.971 275.639 103.283L274 99.1264C273.797 98.611 273.389 98.203 272.874 97.9997L268.717 96.3605C267.029 95.6947 267.029 93.3053 268.717 92.6395L272.874 91.0003C273.389 90.797 273.797 90.389 274 89.8736L275.639 85.7174Z" fill="#FCFCFC"/>
<path d="M599.639 58.7174C600.305 57.0291 602.695 57.0291 603.361 58.7174L605 62.8736C605.203 63.389 605.611 63.797 606.126 64.0003L610.283 65.6395C611.971 66.3053 611.971 68.6947 610.283 69.3605L606.126 70.9997C605.611 71.203 605.203 71.611 605 72.1264L603.361 76.2826C602.695 77.9709 600.305 77.9709 599.639 76.2826L598 72.1264C597.797 71.611 597.389 71.203 596.874 70.9997L592.717 69.3605C591.029 68.6947 591.029 66.3053 592.717 65.6395L596.874 64.0003C597.389 63.797 597.797 63.389 598 62.8736L599.639 58.7174Z" fill="#FCFCFC"/>
<path d="M461.053 137.669C461.571 136.356 463.429 136.356 463.947 137.669L465.222 140.902C465.38 141.303 465.697 141.62 466.098 141.778L469.331 143.053C470.644 143.571 470.644 145.429 469.331 145.947L466.098 147.222C465.697 147.38 465.38 147.697 465.222 148.098L463.947 151.331C463.429 152.644 461.571 152.644 461.053 151.331L459.778 148.098C459.62 147.697 459.303 147.38 458.902 147.222L455.669 145.947C454.356 145.429 454.356 143.571 455.669 143.053L458.902 141.778C459.303 141.62 459.62 141.303 459.778 140.902L461.053 137.669Z" fill="#FCFCFC"/>
<path d="M324.053 181.669C324.571 180.356 326.429 180.356 326.947 181.669L328.222 184.902C328.38 185.303 328.697 185.62 329.098 185.778L332.331 187.053C333.644 187.571 333.644 189.429 332.331 189.947L329.098 191.222C328.697 191.38 328.38 191.697 328.222 192.098L326.947 195.331C326.429 196.644 324.571 196.644 324.053 195.331L322.778 192.098C322.62 191.697 322.303 191.38 321.902 191.222L318.669 189.947C317.356 189.429 317.356 187.571 318.669 187.053L321.902 185.778C322.303 185.62 322.62 185.303 322.778 184.902L324.053 181.669Z" fill="#FCFCFC"/>
<path d="M484.639 42.7174C485.305 41.0291 487.695 41.0291 488.361 42.7174L490 46.8736C490.203 47.389 490.611 47.797 491.126 48.0003L495.283 49.6395C496.971 50.3053 496.971 52.6947 495.283 53.3605L491.126 54.9997C490.611 55.203 490.203 55.611 490 56.1264L488.361 60.2826C487.695 61.9709 485.305 61.9709 484.639 60.2826L483 56.1264C482.797 55.611 482.389 55.203 481.874 54.9997L477.717 53.3605C476.029 52.6947 476.029 50.3053 477.717 49.6395L481.874 48.0003C482.389 47.797 482.797 47.389 483 46.8736L484.639 42.7174Z" fill="#FCFCFC"/>
<path d="M382.639 93.7174C383.305 92.0291 385.695 92.0291 386.361 93.7174L388 97.8736C388.203 98.389 388.611 98.797 389.126 99.0003L393.283 100.639C394.971 101.305 394.971 103.695 393.283 104.361L389.126 106C388.611 106.203 388.203 106.611 388 107.126L386.361 111.283C385.695 112.971 383.305 112.971 382.639 111.283L381 107.126C380.797 106.611 380.389 106.203 379.874 106L375.717 104.361C374.029 103.695 374.029 101.305 375.717 100.639L379.874 99.0003C380.389 98.797 380.797 98.389 381 97.8736L382.639 93.7174Z" fill="#FCFCFC"/>
<path d="M692.639 170.717C693.305 169.029 695.695 169.029 696.361 170.717L698 174.874C698.203 175.389 698.611 175.797 699.126 176L703.283 177.639C704.971 178.305 704.971 180.695 703.283 181.361L699.126 183C698.611 183.203 698.203 183.611 698 184.126L696.361 188.283C695.695 189.971 693.305 189.971 692.639 188.283L691 184.126C690.797 183.611 690.389 183.203 689.874 183L685.717 181.361C684.029 180.695 684.029 178.305 685.717 177.639L689.874 176C690.389 175.797 690.797 175.389 691 174.874L692.639 170.717Z" fill="#FCFCFC"/>
<path d="M742.639 80.7174C743.305 79.0291 745.695 79.0291 746.361 80.7174L748 84.8736C748.203 85.389 748.611 85.797 749.126 86.0003L753.283 87.6395C754.971 88.3053 754.971 90.6947 753.283 91.3605L749.126 92.9997C748.611 93.203 748.203 93.611 748 94.1264L746.361 98.2826C745.695 99.9709 743.305 99.9709 742.639 98.2826L741 94.1264C740.797 93.611 740.389 93.203 739.874 92.9997L735.717 91.3605C734.029 90.6947 734.029 88.3053 735.717 87.6395L739.874 86.0003C740.389 85.797 740.797 85.389 741 84.8736L742.639 80.7174Z" fill="#FCFCFC"/>
<path d="M961.692 290.387C962.876 287.385 967.124 287.385 968.308 290.387L971.222 297.775C971.583 298.692 972.308 299.417 973.225 299.778L980.613 302.692C983.615 303.876 983.615 308.124 980.613 309.308L973.225 312.222C972.308 312.583 971.583 313.308 971.222 314.225L968.308 321.613C967.124 324.615 962.876 324.615 961.692 321.613L958.778 314.225C958.417 313.308 957.692 312.583 956.775 312.222L949.387 309.308C946.385 308.124 946.385 303.876 949.387 302.692L956.775 299.778C957.692 299.417 958.417 298.692 958.778 297.775L961.692 290.387Z" fill="#FCFCFC"/>
<path d="M546.106 110.338C547.142 107.712 550.858 107.712 551.894 110.338L554.444 116.803C554.76 117.605 555.395 118.24 556.197 118.556L562.662 121.106C565.288 122.142 565.288 125.858 562.662 126.894L556.197 129.444C555.395 129.76 554.76 130.395 554.444 131.197L551.894 137.662C550.858 140.288 547.142 140.288 546.106 137.662L543.556 131.197C543.24 130.395 542.605 129.76 541.803 129.444L535.338 126.894C532.712 125.858 532.712 122.142 535.338 121.106L541.803 118.556C542.605 118.24 543.24 117.605 543.556 116.803L546.106 110.338Z" fill="#FCFCFC"/>
<path d="M799.106 33.3382C800.142 30.712 803.858 30.712 804.894 33.3382L807.444 39.8033C807.76 40.6051 808.395 41.2398 809.197 41.556L815.662 44.1058C818.288 45.1416 818.288 48.8584 815.662 49.8942L809.197 52.444C808.395 52.7602 807.76 53.3949 807.444 54.1967L804.894 60.6618C803.858 63.288 800.142 63.288 799.106 60.6618L796.556 54.1967C796.24 53.3949 795.605 52.7602 794.803 52.444L788.338 49.8942C785.712 48.8584 785.712 45.1416 788.338 44.1058L794.803 41.556C795.605 41.2398 796.24 40.6051 796.556 39.8033L799.106 33.3382Z" fill="#FCFCFC"/>
<path d="M58.2789 317.435C59.6106 314.058 64.3894 314.058 65.7211 317.435L68.9994 325.747C69.4059 326.778 70.222 327.594 71.2529 328.001L79.5651 331.279C82.9417 332.611 82.9417 337.389 79.5651 338.721L71.2529 341.999C70.222 342.406 69.4059 343.222 68.9994 344.253L65.7211 352.565C64.3894 355.942 59.6106 355.942 58.2789 352.565L55.0006 344.253C54.5941 343.222 53.778 342.406 52.7471 341.999L44.4349 338.721C41.0583 337.389 41.0583 332.611 44.4349 331.279L52.7471 328.001C53.778 327.594 54.5941 326.778 55.0006 325.747L58.2789 317.435Z" fill="#FCFCFC"/>
<mask id="mask1_280_2268" style="mask-type:alpha" maskUnits="userSpaceOnUse" x="175" y="-22" width="151" height="151">
<circle cx="250.5" cy="53.5" r="74" fill="#FF9E76" stroke="black" stroke-width="3"/>
</mask>
<g mask="url(#mask1_280_2268)">
<circle cx="250.5" cy="53.5" r="74" fill="#FF9E58" stroke="#FF862E" stroke-width="3"/>
<path d="M178.953 27.0161L261.141 50.1102C269.656 52.503 278.798 50.8974 285.989 45.7459V45.7459C295.203 39.1444 307.41 38.487 317.281 44.0608L334.697 53.8957" stroke="#FF862E" stroke-width="16.59" stroke-linecap="round" stroke-linejoin="round"/>
<path d="M178.953 53.8945L261.141 76.9886C269.656 79.3814 278.798 77.7758 285.989 72.6243V72.6243C295.203 66.0228 307.41 65.3654 317.281 70.9392L334.697 80.7741" stroke="#FF862E" stroke-width="16.59" stroke-linecap="round" stroke-linejoin="round"/>
<path d="M191.602 3.6935L262.116 22.6643C266.929 23.9592 272.005 23.911 276.792 22.5251L277.66 22.2739C290.202 18.6434 298.168 6.34584 296.353 -6.58398V-6.58398" stroke="#FF862E" stroke-width="16.59" stroke-linecap="round" stroke-linejoin="round"/>
<circle cx="303.469" cy="112.003" r="22.5314" fill="#FF862E"/>
<path d="M170.256 79.1938L249.868 100.278C254.186 101.422 257.591 104.74 258.845 109.026V109.026C260.454 114.524 258.202 120.42 253.337 123.444L217.69 145.602" stroke="#FF862E" stroke-width="16.59" stroke-linecap="round" stroke-linejoin="round"/>
</g>
<circle cx="250.5" cy="53.5" r="74" stroke="#CC6B25" stroke-width="3"/>
<path fill-rule="evenodd" clip-rule="evenodd" d="M1054 0H-18V563H1054V0ZM262 47.8779C245.431 47.8779 232 61.3094 232 77.8779V161.878C232 178.446 245.431 191.878 262 191.878H773.5C790.069 191.878 803.5 178.446 803.5 161.878V77.8779C803.5 61.3094 790.069 47.8779 773.5 47.8779H262Z" fill="url(#paint1_linear_280_2268)"/>
<g filter="url(#filter0_d_280_2268)">
<path d="M253 32H784C804.435 32 821 48.5655 821 69V172C821 192.435 804.435 209 784 209H253C232.565 209 216 192.435 216 172V69C216 48.5655 232.565 32 253 32Z" stroke="#AEA7FF" stroke-width="6" shape-rendering="crispEdges"/>
</g>
<g filter="url(#filter1_d_280_2268)">
<path d="M210 -15V-1C210 9.49341 201.493 18 191 18V18C180.507 18 172 26.5066 172 37V201C172 223.091 189.909 241 212 241H215.5C237.591 241 255.5 258.909 255.5 281V358" stroke="#AEA7FF" stroke-width="6"/>
</g>
<g filter="url(#filter2_d_280_2268)">
<path d="M825.5 -15V-1C825.5 9.49341 834.007 18 844.5 18V18C854.993 18 863.5 26.5066 863.5 37V201C863.5 223.091 845.591 241 823.5 241H820C797.909 241 780 258.909 780 281V358" stroke="#AEA7FF" stroke-width="6"/>
</g>
<g filter="url(#filter3_d_280_2268)">
<rect x="-31" y="55" width="119" height="358" rx="37" stroke="#AEA7FF" stroke-width="6" shape-rendering="crispEdges"/>
</g>
<g filter="url(#filter4_d_280_2268)">
<rect x="948" y="55" width="119" height="358" rx="37" stroke="#AEA7FF" stroke-width="6" shape-rendering="crispEdges"/>
</g>
</g>
<defs>
<filter id="filter0_d_280_2268" x="193" y="9" width="651" height="223" filterUnits="userSpaceOnUse" color-interpolation-filters="sRGB">
<feFlood flood-opacity="0" result="BackgroundImageFix"/>
<feColorMatrix in="SourceAlpha" type="matrix" values="0 0 0 0 0 0 0 0 0 0 0 0 0 0 0 0 0 0 127 0" result="hardAlpha"/>
<feOffset/>
<feGaussianBlur stdDeviation="10"/>
<feComposite in2="hardAlpha" operator="out"/>
<feColorMatrix type="matrix" values="0 0 0 0 0.788235 0 0 0 0 0.768627 0 0 0 0 1 0 0 0 1 0"/>
<feBlend mode="normal" in2="BackgroundImageFix" result="effect1_dropShadow_280_2268"/>
<feBlend mode="normal" in="SourceGraphic" in2="effect1_dropShadow_280_2268" result="shape"/>
</filter>
<filter id="filter1_d_280_2268" x="149" y="-35" width="129.5" height="413" filterUnits="userSpaceOnUse" color-interpolation-filters="sRGB">
<feFlood flood-opacity="0" result="BackgroundImageFix"/>
<feColorMatrix in="SourceAlpha" type="matrix" values="0 0 0 0 0 0 0 0 0 0 0 0 0 0 0 0 0 0 127 0" result="hardAlpha"/>
<feOffset/>
<feGaussianBlur stdDeviation="10"/>
<feComposite in2="hardAlpha" operator="out"/>
<feColorMatrix type="matrix" values="0 0 0 0 0.788235 0 0 0 0 0.768627 0 0 0 0 1 0 0 0 1 0"/>
<feBlend mode="normal" in2="BackgroundImageFix" result="effect1_dropShadow_280_2268"/>
<feBlend mode="normal" in="SourceGraphic" in2="effect1_dropShadow_280_2268" result="shape"/>
</filter>
<filter id="filter2_d_280_2268" x="757" y="-35" width="129.5" height="413" filterUnits="userSpaceOnUse" color-interpolation-filters="sRGB">
<feFlood flood-opacity="0" result="BackgroundImageFix"/>
<feColorMatrix in="SourceAlpha" type="matrix" values="0 0 0 0 0 0 0 0 0 0 0 0 0 0 0 0 0 0 127 0" result="hardAlpha"/>
<feOffset/>
<feGaussianBlur stdDeviation="10"/>
<feComposite in2="hardAlpha" operator="out"/>
<feColorMatrix type="matrix" values="0 0 0 0 0.788235 0 0 0 0 0.768627 0 0 0 0 1 0 0 0 1 0"/>
<feBlend mode="normal" in2="BackgroundImageFix" result="effect1_dropShadow_280_2268"/>
<feBlend mode="normal" in="SourceGraphic" in2="effect1_dropShadow_280_2268" result="shape"/>
</filter>
<filter id="filter3_d_280_2268" x="-54" y="32" width="165" height="404" filterUnits="userSpaceOnUse" color-interpolation-filters="sRGB">
<feFlood flood-opacity="0" result="BackgroundImageFix"/>
<feColorMatrix in="SourceAlpha" type="matrix" values="0 0 0 0 0 0 0 0 0 0 0 0 0 0 0 0 0 0 127 0" result="hardAlpha"/>
<feOffset/>
<feGaussianBlur stdDeviation="10"/>
<feComposite in2="hardAlpha" operator="out"/>
<feColorMatrix type="matrix" values="0 0 0 0 0.788235 0 0 0 0 0.768627 0 0 0 0 1 0 0 0 1 0"/>
<feBlend mode="normal" in2="BackgroundImageFix" result="effect1_dropShadow_280_2268"/>
<feBlend mode="normal" in="SourceGraphic" in2="effect1_dropShadow_280_2268" result="shape"/>
</filter>
<filter id="filter4_d_280_2268" x="925" y="32" width="165" height="404" filterUnits="userSpaceOnUse" color-interpolation-filters="sRGB">
<feFlood flood-opacity="0" result="BackgroundImageFix"/>
<feColorMatrix in="SourceAlpha" type="matrix" values="0 0 0 0 0 0 0 0 0 0 0 0 0 0 0 0 0 0 127 0" result="hardAlpha"/>
<feOffset/>
<feGaussianBlur stdDeviation="10"/>
<feComposite in2="hardAlpha" operator="out"/>
<feColorMatrix type="matrix" values="0 0 0 0 0.788235 0 0 0 0 0.768627 0 0 0 0 1 0 0 0 1 0"/>
<feBlend mode="normal" in2="BackgroundImageFix" result="effect1_dropShadow_280_2268"/>
<feBlend mode="normal" in="SourceGraphic" in2="effect1_dropShadow_280_2268" result="shape"/>
</filter>
<linearGradient id="paint0_linear_280_2268" x1="532.5" y1="563" x2="532.5" y2="-183.5" gradientUnits="userSpaceOnUse">
<stop stop-color="#6056CC"/>
<stop offset="1" stop-color="#181633"/>
</linearGradient>
<linearGradient id="paint1_linear_280_2268" x1="518" y1="0" x2="518" y2="494.341" gradientUnits="userSpaceOnUse">
<stop stop-color="#484199"/>
<stop offset="1" stop-color="#9389FF"/>
</linearGradient>
</defs>
</svg>
