<svg width="1033" height="632" viewBox="0 0 1033 632" fill="none" xmlns="http://www.w3.org/2000/svg">
<mask id="mask0_280_2268" style="mask-type:alpha" maskUnits="userSpaceOnUse" x="0" y="0" width="1032" height="632">
<path d="M31.6133 17.243C32.1102 7.57999 40.09 0 49.7658 0H1013.36C1023.77 0 1032.05 8.71841 1031.52 19.1099L1000.89 614.757C1000.39 624.42 992.41 632 982.734 632H19.1352C8.72991 632 0.448336 623.282 0.982711 612.89L31.6133 17.243Z" fill="#FF0000"/>
</mask>
<g mask="url(#mask0_280_2268)">
<rect x="-18" width="1072" height="552.211" fill="url(#paint0_linear_280_2268)"/>
<g clip-path="url(#clip0_280_2268)">
<rect width="246" height="149.087" transform="translate(406)" fill="#D8F3FF"/>
<path fill-rule="evenodd" clip-rule="evenodd" d="M656.088 86.6471C656.088 91.2787 654.534 95.5541 651.909 98.9986C651.116 106.316 645.237 112 638.103 112C636.321 112 634.618 111.646 633.053 111H552V110.834C551.35 110.943 550.681 111 550 111C543.373 111 538 105.627 538 99C538 92.3726 543.373 87 550 87C552.489 87 554.802 87.7581 556.719 89.056C557.1 78.8584 565.659 70.7059 576.162 70.7059C583.113 70.7059 589.213 74.2773 592.654 79.6492C594.88 75.6814 599.127 73 604 73C608.827 73 613.039 75.6304 615.281 79.5358C618.235 71.6363 625.969 66 635.044 66C646.666 66 656.088 75.244 656.088 86.6471Z" fill="#EBF9FF"/>
<path fill-rule="evenodd" clip-rule="evenodd" d="M443 7C443 8.25502 442.909 9.48926 442.734 10.6968C446.279 8.97052 450.274 8 454.5 8C468.999 8 480.779 19.4249 480.997 33.5996C482.6 33.2078 484.276 33 486 33C497.598 33 507 42.402 507 54C507 65.598 497.598 75 486 75C485.665 75 485.331 74.9921 485 74.9766V75H421.5H384V58H396.754C395.621 55.0509 395 51.848 395 48.5C395 41.0138 398.104 34.2526 403.096 29.4334C395.26 24.9168 390 16.5611 390 7C390 -7.3594 401.864 -19 416.5 -19C431.136 -19 443 -7.3594 443 7ZM464.71 58H465.38C465.364 57.9122 465.347 57.8243 465.331 57.7361C465.126 57.8266 464.919 57.9146 464.71 58Z" fill="#EBF9FF"/>
<path fill-rule="evenodd" clip-rule="evenodd" d="M606.683 -33C606.683 -31.745 606.78 -30.5107 606.968 -29.3032C603.164 -31.0295 598.877 -32 594.341 -32C578.781 -32 566.14 -20.5751 565.906 -6.40036C564.185 -6.79222 562.387 -7 560.537 -7C548.09 -7 538 2.40202 538 14C538 25.598 548.09 35 560.537 35C560.896 35 561.254 34.9921 561.61 34.9766V35H629.756H670V18H656.313C657.529 15.0509 658.195 11.848 658.195 8.5C658.195 1.01378 654.864 -5.74741 649.507 -10.5666C657.916 -15.0832 663.561 -23.4389 663.561 -33C663.561 -47.3594 650.828 -59 635.122 -59C619.416 -59 606.683 -47.3594 606.683 -33ZM583.384 18H582.665C582.683 17.9122 582.701 17.8243 582.718 17.7361C582.938 17.8266 583.16 17.9146 583.384 18Z" fill="#EBF9FF"/>
</g>
<rect x="393" y="2" width="26" height="145" rx="2" fill="#FCFCFC" stroke="#CDCDD9" stroke-width="4"/>
<rect x="637" y="2" width="24" height="150" rx="2" fill="#FCFCFC" stroke="#CDCDD9" stroke-width="4"/>
<rect x="393" y="124.604" width="268" height="27.3868" rx="2" fill="#FCFCFC" stroke="#CDCDD9" stroke-width="4"/>
<rect x="372.5" y="2.5" width="88" height="319" fill="#FCFCFC" fill-opacity="0.5" stroke="#FCFCFC" stroke-width="5"/>
<rect x="591.5" y="2.5" width="84" height="319" fill="#FCFCFC" fill-opacity="0.5" stroke="#FCFCFC" stroke-width="5"/>
<rect x="100" y="80" width="90" height="101" rx="6" fill="#D8C9BB" stroke="#B19477" stroke-width="4"/>
<g clip-path="url(#clip1_280_2268)">
<rect x="109.434" y="89" width="71.132" height="81.9507" rx="2.25816" fill="#FCFCFC"/>
<path d="M147.237 122.465C147.237 116.201 149.951 109.425 153.689 104.417C154.073 103.902 158.441 99.5035 157.041 101.866C153.935 107.107 143.56 122.153 147.216 117.279C150.451 112.964 153.258 108.358 156.661 104.164C157.993 102.523 160.553 98.4578 163.092 98.5555C164.511 98.61 161.21 103.385 161.026 103.658C157.42 109.011 153.889 114.415 150.61 119.977C150.503 120.16 147.922 125.058 149.387 123.267C153.087 118.745 155.715 113.157 158.601 108.107C160.36 105.03 162.542 102.332 164.463 99.3778C165.213 98.223 164.265 99.9533 164.21 100.052C163.332 101.639 162.386 103.187 161.511 104.775C161.322 105.119 159.116 109.223 159.634 109.519C160.416 109.966 161.941 109.371 162.418 108.718C163.115 107.764 163.846 106.817 164.526 105.851C165.317 104.726 162.505 108.677 162.249 108.971C159.571 112.057 156.218 114.549 153.773 117.827C153.633 118.014 151.667 120.259 152.402 119.197C154.882 115.616 158.006 112.523 160.731 109.14C163.125 106.168 167.21 100.193 171.526 100.074C173.739 100.012 173.206 98.3907 171.821 96.953C169.267 94.301 167.439 96.5522 164.927 98.5133C162.067 100.746 158.428 103.061 156.177 105.956C154.563 108.03 158.184 101.037 159.761 98.935" stroke="#B8DE67" stroke-width="3.38724" stroke-linecap="round"/>
<path d="M138.508 119.05C138.445 119.617 138.16 120.189 137.559 120.189C135.179 120.189 134.325 118.016 133.574 115.972C132.293 112.489 131.897 108.864 131.761 105.177C131.565 99.8872 131.232 94.2484 132.731 89.1102C133.052 88.007 134.969 79.3104 137.369 80.0438C140.622 81.0376 140.106 91.9403 140.194 94.1284C140.497 101.607 140.292 108.709 139.056 116.056C139.005 116.357 138.534 120.217 137.538 118.587C134.776 114.067 135.3 107.126 135.514 102.098C135.599 100.093 135.86 98.0915 136.61 96.2158C136.779 95.7941 137.791 93.5505 138.128 95.1404C138.74 98.0316 138.499 101.241 138.508 104.165C138.525 109.857 138.508 115.55 138.508 121.243C138.508 124.104 138.508 126.964 138.508 129.825C138.508 132.599 138.283 130.402 138.213 129.087C137.752 120.535 137.749 111.966 137.749 103.406C137.749 101.36 137.749 99.3152 137.749 97.27C137.749 95.8805 136.939 100.345 136.905 100.496C135.764 105.617 135.472 110.666 135.472 115.888C135.472 118.355 137.625 112.807 137.749 112.346C138.597 109.17 139.201 104.625 136.99 101.972" stroke="#B8DE67" stroke-width="3.38724" stroke-linecap="round"/>
<path d="M131.676 131.574C131.676 124.247 130.138 119.424 122.779 117.363C121.226 116.928 119.878 116.911 119.911 118.839C119.994 123.641 123.949 127.532 128.008 129.613C130.9 131.096 131.667 129.008 130.58 126.176C129.165 122.491 125.053 118.986 121.492 117.384C118.455 116.017 123.474 121.851 123.791 122.17C125.327 123.721 126.956 125.162 128.598 126.598C128.684 126.674 130.937 128.43 130.2 127.252C127.424 122.81 122.254 118.229 117.697 115.697C117.545 115.613 115.397 114.211 115.062 114.58C114.181 115.549 116.302 118.256 116.748 118.839C118.143 120.658 119.704 122.441 121.598 123.752C121.926 123.979 123.938 125.67 123.664 124.3C122.883 120.393 116.5 118.347 113.122 117.995C112.02 117.881 111.895 118.057 111.962 119.134C112.132 121.852 114.032 123.799 116.095 125.396C117.889 126.785 123.399 130.315 123.622 125.965C123.826 121.982 117.598 119.902 114.471 121.243C110.421 122.978 115.265 127.331 116.875 128.538" stroke="#B8DE67" stroke-width="3.38724" stroke-linecap="round"/>
<path d="M130.538 139.545C126.364 139.545 122.187 139.488 118.014 139.545C117.088 139.557 116.049 139.495 116.116 140.683C116.219 142.481 119.69 142.652 120.924 142.792C125.268 143.285 134.109 139.209 132.183 133.43C131.319 130.838 123.34 127.878 122.357 131.659C120.906 137.248 126.519 139.031 131.044 139.46C132.343 139.584 134.899 139.957 135.599 138.406C136.675 136.02 129.312 135.104 128.303 134.948C125.847 134.57 122.267 134.059 119.785 134.78C118.915 135.032 118.312 136.239 119.195 136.888C122.822 139.553 130.254 138.76 134.334 137.647" stroke="#B8DE67" stroke-width="3.38724" stroke-linecap="round"/>
<path d="M158.624 135.749C158.455 137.098 157.163 134.877 157.127 134.358C156.806 129.699 159.934 127.588 164.359 126.809C165.747 126.565 167.174 126.641 168.576 126.641C169.598 126.641 164.688 129.11 164.57 129.171C160.377 131.35 147.551 137.273 152.046 135.813C155.274 134.763 158.282 133.237 161.576 132.334C165.137 131.357 168.792 130.5 172.413 129.761C173.225 129.596 173.279 129.606 172.181 129.74C167.866 130.269 163.956 132.055 160.226 134.21C157.24 135.936 150.58 140.819 157.485 142.496C161.207 143.401 164.042 141.419 166.299 138.533C167.977 136.387 169.639 132.104 168.449 129.382C167.244 126.622 159.234 123.516 158.118 127.674C156.944 132.048 160.522 135.746 164.992 135.286C167.338 135.044 168.005 133.088 168.196 130.984C168.556 127.032 166.178 125.517 162.525 125.017C155.988 124.123 144.946 127.765 144.286 135.686C143.947 139.762 151.572 140.029 153.985 138.322C157.003 136.186 154.727 133.852 152.024 133.852C147.255 133.852 160.686 138.786 165.455 138.786" stroke="#B8DE67" stroke-width="3.38724" stroke-linecap="round"/>
<path d="M126.893 148.473C118.282 148.473 144.115 148.473 152.726 148.473C153.472 148.473 155.712 148.473 154.965 148.473C150.756 148.473 146.551 148.361 142.342 148.295C134.724 148.175 111.868 148.244 119.487 148.244C125.368 148.244 142.984 148.203 137.124 148.702C133.866 148.979 130.667 149.178 127.453 149.847C126.087 150.132 124.032 150.301 122.77 151.043C122.577 151.157 123.084 151.409 123.304 151.451C125.187 151.811 127.177 151.814 129.082 151.858C134.321 151.978 139.687 151.593 144.887 152.418C145.447 152.507 147.729 153.054 147.686 153.054C142.482 153.054 137.275 153.029 132.098 153.639C128.872 154.02 125.65 154.471 122.426 154.874C119.101 155.289 129.128 154.887 132.48 154.887C142.265 154.887 152.051 154.887 161.837 154.887C172.563 154.887 140.386 155.377 129.68 156.019C126.973 156.181 124.163 156.455 121.447 156.261C120.892 156.221 122.471 155.826 122.999 155.65C125.977 154.657 128.961 153.69 132.009 152.927C138.914 151.197 145.974 149.9 153.108 149.847C154.7 149.835 156.495 149.781 157.943 150.585C158.151 150.701 157.854 150.738 157.791 150.738C155.674 150.738 153.513 150.424 151.402 150.318C143.699 149.933 135.941 149.974 128.229 150.089C125.684 150.127 123.158 150.076 120.708 150.076C120.062 150.076 119.209 149.933 118.596 150.178C118.435 150.242 117.038 151.114 117.323 151.4C117.661 151.738 119.413 151.6 119.945 151.832C120.998 152.293 121.951 153.012 122.999 153.461C123.937 153.863 127.56 153.015 126.829 155.281C126.351 156.765 124.703 157.586 123.457 158.322C123.41 158.35 121.039 159.596 121.039 159.188C121.039 158.947 121.791 158.271 121.841 158.87C122.036 161.213 121.112 163.497 120.619 165.741C120.501 166.281 120.4 167.048 121.192 166.492C123.072 165.172 124.583 163.086 126.104 161.402C127.885 159.43 129.656 157.453 131.398 155.446C131.971 154.787 132.791 153.593 133.676 153.283C134.011 153.166 133.628 154.014 133.459 154.327C132.423 156.245 131.125 158.035 129.922 159.849C129.493 160.496 126.633 164.054 127.173 164.863C127.618 165.531 132.772 160.229 133.154 159.849C133.472 159.534 137.628 155.3 136.819 157.457C135.715 160.4 133.439 163.097 131.869 165.818C131.699 166.113 130.047 169.547 130.316 169.444C131.523 168.985 132.698 167.574 133.587 166.721C135.443 164.939 137.239 163.094 139.059 161.275C140.078 160.256 141.069 159.158 142.202 158.259C142.263 158.21 143.193 157.416 143.067 158.004C142.86 158.97 142.107 159.995 141.604 160.791C140.45 162.615 139.218 164.38 138.117 166.238C137.859 166.672 135.468 170.268 137.633 168.961C141.101 166.868 144.006 163.448 146.961 160.715C147.997 159.757 149.078 158.811 150.282 158.068C150.364 158.018 151.48 157.294 151.288 157.928C150.636 160.08 149.252 162.164 148.246 164.176C148.083 164.503 146.31 167.263 147.712 166.645C151.411 165.015 154.67 161.871 157.612 159.162C158.432 158.407 160.948 155.935 159.343 158.679C157.903 161.141 156.196 163.431 154.66 165.83C154.207 166.539 153.331 168.066 154.889 167.103C157.79 165.31 160.042 162.606 162.55 160.333C162.566 160.319 163.338 159.465 162.97 160.079C162.057 161.6 160.81 162.954 159.699 164.329C157.963 166.48 156.12 168.591 154.584 170.895C153.69 172.236 155.312 170.975 155.754 170.692C155.863 170.622 156.997 169.944 157.078 170.106C157.293 170.536 157.026 170.802 156.671 170.921" stroke="#F8DAEB" stroke-width="3.38724" stroke-linecap="round"/>
<path d="M171.33 117.779C169.616 115.494 168.416 118.844 169.726 119.331C170.676 119.684 171.559 119.292 171.559 118.313C171.559 116.323 170.237 115.467 168.276 115.284C166.9 115.156 165.573 116.243 165.934 117.753C166.317 119.351 168.244 120.345 169.815 120.26C171.182 120.186 171.532 118.043 171.228 116.964C170.636 114.864 166.57 114.875 165.145 115.819C163.672 116.795 161.785 119.078 163.173 120.833C164.617 122.66 168.003 123.142 169.625 121.393C171.505 119.365 171.393 116.531 169.154 114.864C166.703 113.04 164.138 113.581 162.893 116.328C161.471 119.463 161.697 122.726 164.204 125.21C164.875 125.876 165.902 126.495 166.901 126.381C168.162 126.238 168.428 123.66 168.53 122.729C168.926 119.115 166.887 115.882 163.415 114.724C162.28 114.346 160.688 114.116 159.597 114.75C158.514 115.379 158.501 116.696 158.273 117.779" stroke="#F4C2DE" stroke-width="3.38724" stroke-linecap="round"/>
<path d="M145.446 103.348C145.079 103.348 143.639 103.129 143.639 103.603C143.639 105.558 146.997 106.489 148.143 105.028C148.956 103.993 149.113 102.502 149.072 101.236C149.023 99.6756 147.925 99.031 146.489 98.7035C142.373 97.7647 141.584 102.987 142.175 105.944C142.453 107.336 143.419 108.39 144.835 108.693C146.709 109.095 147.312 106.695 147.736 105.359C148.686 102.367 149.219 98.3599 144.86 98.3599C141.177 98.3599 139.025 102.886 140.686 106.021C142.368 109.193 145.214 109.762 148.423 109.762" stroke="#F4C2DE" stroke-width="3.38724" stroke-linecap="round"/>
<path d="M126.893 108.158C127.366 108.099 126.897 107.415 126.74 107.242C125.759 106.156 123.926 105.695 122.541 105.511C121.245 105.339 118.935 105.039 118.113 106.377C117.453 107.448 117.699 109.11 118.622 109.94C120.613 111.73 126.656 112.795 127.249 109.074C127.668 106.448 122.754 102.664 120.759 105.206C118.205 108.46 121.793 112.674 125.188 112.968C127.291 113.151 128.438 110.795 128.675 109.023C129.01 106.506 128.445 103.75 125.875 102.686C123.949 101.889 121.725 102.062 120.581 103.959C119.625 105.545 119.082 108.336 119.818 110.118C120.784 112.46 125.262 113.775 126.435 111.136" stroke="#F4C2DE" stroke-width="3.38724" stroke-linecap="round"/>
<path d="M139.72 133.813C139.72 135.248 139.431 136.827 141.158 137.325C142.286 137.65 143.993 138.014 144.607 136.727C145.273 135.332 144.973 133.606 143.983 132.451C142.68 130.931 137.429 127.113 135.737 129.995C133.763 133.359 135.187 137.835 138.181 139.997C140.378 141.585 145.026 143.305 147.05 140.634C149.373 137.569 148.679 134.649 146.592 131.751C144.238 128.482 141.475 126.254 137.328 126.254C133.771 126.254 131.438 128.049 130.787 131.522" stroke="#F4C2DE" stroke-width="3.38724" stroke-linecap="round"/>
<path d="M145.675 113.885C145.667 113.833 144.57 115.371 144.428 115.616C143.598 117.043 143.02 118.733 142.939 120.388C142.909 121.012 143.088 121.852 142.914 122.462C142.783 122.919 142.483 121.311 142.481 121.278C142.394 119.502 142.862 117.782 143.385 116.099C143.621 115.336 143.903 114.58 144.25 113.86C144.332 113.69 144.509 113.227 144.581 113.401C144.826 114.001 144.754 114.81 144.759 115.437C144.773 117.202 144.759 118.967 144.759 120.731C144.759 124.176 144.759 127.62 144.759 131.064" stroke="#D8F3FF" stroke-width="3.38724" stroke-linecap="round"/>
<path d="M155.067 144.808C160.796 144.808 143.616 144.35 137.888 144.35C135.936 144.35 133.87 144.159 131.932 144.401C131.078 144.508 127.12 145.721 126.664 144.808" stroke="#D8F3FF" stroke-width="3.38724" stroke-linecap="round"/>
<path d="M154.609 122.819C155.373 121.609 156.951 120.753 158.045 119.841" stroke="#D8F3FF" stroke-width="3.38724" stroke-linecap="round"/>
<path d="M170.185 109.762C166.734 109.971 163.977 111.938 161.252 113.885" stroke="#D8F3FF" stroke-width="3.38724" stroke-linecap="round"/>
<path d="M125.977 93.0405C125.977 96.7966 125.945 100.451 127.809 103.806" stroke="#D8F3FF" stroke-width="3.38724" stroke-linecap="round"/>
<path d="M166.061 145.724C164.487 146.81 163.065 148.053 161.353 148.931C160.056 149.596 163.552 148.946 163.809 148.88C165.4 148.471 166.865 147.694 168.428 147.2C169.484 146.867 170.174 146.71 169.803 148.065C169.239 150.126 167.39 151.986 167.016 154.046C166.969 154.303 167.565 154.073 167.792 153.945C169.087 153.212 170.155 152.276 171.584 151.781C175.305 150.492 170.576 157.091 170.019 158.03C169.776 158.439 168.489 160.391 169.268 160.816C170.093 161.267 171.095 160.659 171.737 160.206C171.956 160.051 172.489 159.493 172.793 159.493C173.083 159.493 172.48 159.982 172.297 160.206C171.49 161.19 170.698 162.186 169.892 163.171C168.952 164.319 168.003 165.475 167.028 166.594C166.556 167.136 165.994 167.468 167.028 167.485C168.924 167.515 170.591 167.313 172.335 168.159C172.692 168.332 175.103 169.292 173.747 169.317C171.152 169.365 168.594 168.859 165.998 168.859C165.682 168.859 165.183 168.859 165.858 168.859C167.588 168.859 169.319 168.869 171.05 168.859C172.773 168.849 174.483 168.752 176.191 168.515C177.01 168.402 178.608 168.39 179.079 167.535C179.843 166.152 179.279 163.495 179.143 162.089C178.72 157.729 177.92 153.422 177.336 149.084C177.173 147.874 177.025 146.664 176.84 145.457C176.62 144.031 176.887 148.342 176.942 149.783C177.103 154.08 176.443 160.266 179.347 163.896C180.143 164.892 179.981 162.65 179.97 162.471C179.732 158.657 178.355 154.959 177.54 151.247C176.878 148.234 176.287 145.186 176.013 142.11C175.951 141.422 176.303 138.79 175.631 138.267C174.414 137.32 169.21 143.244 168.428 144.057C168.411 144.074 167.079 145.652 167.028 145.622C167.017 145.615 169.482 142.079 169.599 141.906C171.646 138.876 173.901 135.939 175.44 132.604C177.326 128.517 172.868 141.243 171.94 145.648C171.216 149.089 170.945 152.659 171.151 156.172C171.248 157.818 171.391 160.738 173.048 161.72C173.367 161.909 174.075 162.198 174.358 161.784C175.479 160.142 175.378 156.876 175.682 155.014C176.642 149.121 177.57 143.188 178.29 137.262C178.61 134.637 178.43 131.923 178.43 129.283C178.43 127.675 178.456 126.38 177.756 124.892C177.554 124.463 177.413 123.844 177.056 123.505C176.723 123.189 175.92 123.608 175.784 123.429C175.35 122.858 175.655 121 175.707 120.324C175.854 118.416 176.781 116.593 177.247 114.75C177.76 112.725 178.545 109.549 176.42 108.209C175.935 107.904 173.905 107.836 173.862 107.408C173.819 106.979 174.378 104.519 173.798 104.519C171.775 104.519 169.525 106.618 168.046 107.827C166.951 108.724 170.358 108.78 170.973 109.113C173.005 110.211 173.563 112.633 173.798 114.75C173.964 116.24 173.946 116.126 173.506 114.903C172.669 112.58 174.238 111.041 175.402 109.125C176.948 106.581 178.66 103.979 178.66 100.905C178.66 98.112 178.641 95.5934 177.54 92.9768C177.39 92.6221 176.958 90.8192 176.369 90.7499C171.529 90.1805 167.213 91.8412 162.727 93.6258C160.148 94.6519 157.029 96.6044 154.201 96.7054C153.532 96.7293 152.897 96.9345 152.203 96.9345C150.739 96.9345 150.239 95.1346 149.849 94.0076C149.282 92.3675 148.639 90.7838 147.278 89.6173C147.043 89.4154 146.822 89.4663 146.591 89.3246C145.449 88.6214 149.271 89.1465 150.613 89.1465C156.046 89.1465 161.48 89.1465 166.914 89.1465C167.249 89.1465 168.253 89.1208 167.919 89.1465C165.692 89.3178 163.476 89.9073 161.353 90.5717C159.269 91.2239 157.211 91.9719 155.143 92.6714C155.065 92.6978 152.727 93.4116 153.018 93.7022C153.061 93.7455 151.417 93.5091 151.122 93.4986C150.528 93.4774 149.34 93.8175 149.34 93.0023C149.34 91.1539 150.028 89.0328 149.747 87.2376C149.513 85.7408 146.667 84.2132 145.548 83.4327C142.515 81.3167 138.095 81.7979 134.604 81.8166C129.469 81.844 124.324 83.4379 122.54 88.7902C121.761 91.1278 121.713 93.7755 121.866 96.2218C122.085 99.7255 125.094 93.0203 125.314 92.5314C125.986 91.0416 126.49 89.5026 127.096 87.9884C127.802 86.2233 127.394 88.8283 127.312 89.2483C126.949 91.1088 126.455 92.9419 125.798 94.7202C125.575 95.3237 125.328 96.7109 124.551 96.8836C122.213 97.403 119.508 93.8605 118.264 92.4296C116.921 90.8838 115.625 88.553 113.569 90.6099C111.664 92.5148 110.307 94.9047 108.568 96.9345C108.313 97.2316 108.347 97.4608 108.326 97.8507C108.223 99.7426 107.687 101.406 107.104 103.195C106.705 104.419 106.399 105.661 106.099 106.911C106.04 107.154 105.447 108.902 106.251 108.464C108.981 106.975 110.789 103.401 112.652 100.994C114.472 98.6437 113.287 102.32 112.869 103.246C112.519 104.02 107.077 112.494 107.473 112.79C107.865 113.084 110.964 109.548 111.494 109.227C112.488 108.626 110.479 112.931 110.298 113.389C110.07 113.967 109.751 114.526 109.713 115.157C109.688 115.575 110.082 114.17 110.171 113.987C110.829 112.632 111.269 111.487 112.907 111.378C114.071 111.3 114.896 111.445 115.897 112.001C116.838 112.524 117.987 112.569 119.002 112.994C121.297 113.954 123.419 115.26 125.747 116.175C126.938 116.644 128.496 116.832 129.514 117.664C130.139 118.176 130.428 119.113 130.837 119.789C130.993 120.047 132.324 121.643 131.677 120.718C130.102 118.469 128.085 116.48 125.594 115.259C121.982 113.488 117.991 112.629 114.459 110.691C112.736 109.745 110.269 108.34 109.586 106.326C108.878 104.241 110.649 102.632 112.169 101.516C114.646 99.6959 116.997 99.947 119.868 99.4541C120.669 99.3166 122.398 99.2906 123.036 98.716C125.089 96.8689 126.484 94.1826 127.758 91.7679C128.774 89.8406 132.204 89.4269 134.044 88.8283C137.901 87.5737 141.69 86.5168 144.072 90.7499C144.912 92.2435 144.988 93.3595 144.988 95.0511C144.988 95.3232 145.188 96.7203 144.886 96.9217C144.449 97.2133 145.821 96.4417 146.286 96.1964C147.404 95.6063 148.691 95.2748 149.773 94.6439C152.201 93.2272 147.118 88.6842 146.197 87.9248C142.033 84.493 137.47 83.2094 132.186 82.7583C129.73 82.5486 127.11 82.2774 124.653 82.6565C121.866 83.0863 119.376 84.6925 117.195 86.3978C113.717 89.1183 110.393 93.0477 108.478 97.0617C106.66 100.875 106.226 105.59 105.462 109.711C104.693 113.867 104.674 118.295 104.674 122.513C104.674 125.363 104.494 128.12 105.819 130.733C106.735 132.54 108.351 133.25 110.273 133.584C110.822 133.679 113.121 134.245 113.556 133.762C113.874 133.409 109.811 129.98 109.407 129.601C108.219 128.484 107.689 127.488 109.738 128.748C111.574 129.877 113.765 131.091 113.187 133.469C112.566 136.027 110.947 138.292 109.636 140.532C108.32 142.782 107.055 145.053 105.462 147.124C105.362 147.254 104.605 148.422 104.763 148.231C106.191 146.497 107.659 144.739 109.306 143.204C109.983 142.573 110.986 141.778 111.952 141.652C112.894 141.529 112.376 144.298 112.309 144.681C111.815 147.502 110.538 150.183 109.636 152.888C108.89 155.128 112.79 149.29 113.785 147.149C113.846 147.017 114.588 145.221 114.459 145.864C114.06 147.861 113.039 149.861 112.423 151.807C111.715 154.043 111 156.282 110.4 158.551C110.257 159.092 109.734 160.676 109.993 160.18C111.22 157.829 111.992 155.43 114.281 153.881C115.183 153.271 116.671 152.767 117.043 154.123C117.854 157.082 116.585 160.102 116.585 163.082C116.585 163.744 117.104 164.268 117.386 164.863C118.393 166.989 118.055 169.31 115.745 170.31C113.147 171.433 110.164 170.875 109.433 167.803C109.12 166.491 109.274 162.825 111.673 164.201C113.792 165.418 113.149 170.256 113.149 172.244C113.149 174.578 111.243 172.662 110.858 171.455C110.189 169.354 109.715 166.387 110.311 164.201C110.679 162.85 111.795 162.469 110.222 161.58C108.81 160.782 107.054 160.661 105.806 159.557C105.206 159.026 104.667 157.976 103.986 157.635" stroke="#D8F3FF" stroke-width="3.38724" stroke-linecap="round"/>
</g>
</g>
<defs>
<linearGradient id="paint0_linear_280_2268" x1="532.5" y1="0" x2="532.5" y2="429.5" gradientUnits="userSpaceOnUse">
<stop stop-color="#FFF8E7"/>
<stop offset="1" stop-color="#FCFCFC"/>
</linearGradient>
<clipPath id="clip0_280_2268">
<rect width="246" height="149.087" fill="white" transform="translate(406)"/>
</clipPath>
<clipPath id="clip1_280_2268">
<rect x="109.434" y="89" width="71.132" height="81.9507" rx="2.25816" fill="white"/>
</clipPath>
</defs>
</svg>
