<svg width="1033" height="632" viewBox="0 0 1033 632" fill="none" xmlns="http://www.w3.org/2000/svg">
<mask id="mask0_280_2268" style="mask-type:alpha" maskUnits="userSpaceOnUse" x="0" y="0" width="1032" height="632">
<path d="M31.6133 17.243C32.1102 7.57999 40.09 0 49.7658 0H1013.36C1023.77 0 1032.05 8.71841 1031.52 19.1099L1000.89 614.757C1000.39 624.42 992.41 632 982.734 632H19.1352C8.72991 632 0.448336 623.282 0.982711 612.89L31.6133 17.243Z" fill="#FF0000"/>
</mask>
<g mask="url(#mask0_280_2268)">
<rect x="-18" width="1072" height="563" fill="url(#paint0_linear_280_2268)"/>
<rect x="-2" y="18" width="71" height="99" rx="6" fill="url(#paint1_linear_280_2268)" stroke="#F8DAEB" stroke-width="3"/>
<rect x="10" y="32" width="47" height="72" rx="6" fill="#FDF3F8" stroke="#F8DAEB" stroke-width="3"/>
<rect x="86" y="18" width="71" height="99" rx="6" fill="url(#paint2_linear_280_2268)" stroke="#F8DAEB" stroke-width="3"/>
<rect x="98" y="32" width="47" height="72" rx="6" fill="#FDF3F8" stroke="#F8DAEB" stroke-width="3"/>
<rect x="174" y="18" width="71" height="99" rx="6" fill="url(#paint3_linear_280_2268)" stroke="#F8DAEB" stroke-width="3"/>
<rect x="186" y="32" width="47" height="72" rx="6" fill="#FDF3F8" stroke="#F8DAEB" stroke-width="3"/>
<rect x="262" y="18" width="71" height="99" rx="6" fill="url(#paint4_linear_280_2268)" stroke="#F8DAEB" stroke-width="3"/>
<rect x="274" y="32" width="47" height="72" rx="6" fill="#FDF3F8" stroke="#F8DAEB" stroke-width="3"/>
<rect x="350" y="18" width="71" height="99" rx="6" fill="url(#paint5_linear_280_2268)" stroke="#F8DAEB" stroke-width="3"/>
<rect x="362" y="32" width="47" height="72" rx="6" fill="#FDF3F8" stroke="#F8DAEB" stroke-width="3"/>
<rect x="438" y="18" width="71" height="99" rx="6" fill="url(#paint6_linear_280_2268)" stroke="#F8DAEB" stroke-width="3"/>
<rect x="450" y="32" width="47" height="72" rx="6" fill="#FDF3F8" stroke="#F8DAEB" stroke-width="3"/>
<rect x="526" y="18" width="71" height="99" rx="6" fill="url(#paint7_linear_280_2268)" stroke="#F8DAEB" stroke-width="3"/>
<rect x="538" y="32" width="47" height="72" rx="6" fill="#FDF3F8" stroke="#F8DAEB" stroke-width="3"/>
<rect x="614" y="18" width="71" height="99" rx="6" fill="url(#paint8_linear_280_2268)" stroke="#F8DAEB" stroke-width="3"/>
<rect x="626" y="32" width="47" height="72" rx="6" fill="#FDF3F8" stroke="#F8DAEB" stroke-width="3"/>
<rect x="702" y="18" width="71" height="99" rx="6" fill="url(#paint9_linear_280_2268)" stroke="#F8DAEB" stroke-width="3"/>
<rect x="714" y="32" width="47" height="72" rx="6" fill="#FDF3F8" stroke="#F8DAEB" stroke-width="3"/>
<rect x="790" y="18" width="71" height="99" rx="6" fill="url(#paint10_linear_280_2268)" stroke="#F8DAEB" stroke-width="3"/>
<rect x="802" y="32" width="47" height="72" rx="6" fill="#FDF3F8" stroke="#F8DAEB" stroke-width="3"/>
<rect x="878" y="18" width="71" height="99" rx="6" fill="url(#paint11_linear_280_2268)" stroke="#F8DAEB" stroke-width="3"/>
<rect x="890" y="32" width="47" height="72" rx="6" fill="#FDF3F8" stroke="#F8DAEB" stroke-width="3"/>
<rect x="966" y="18" width="71" height="99" rx="6" fill="url(#paint12_linear_280_2268)" stroke="#F8DAEB" stroke-width="3"/>
<rect x="978" y="32" width="47" height="72" rx="6" fill="#FDF3F8" stroke="#F8DAEB" stroke-width="3"/>
<rect x="-2" y="135" width="71" height="99" rx="6" fill="url(#paint13_linear_280_2268)" stroke="#F8DAEB" stroke-width="3"/>
<rect x="10" y="149" width="47" height="72" rx="6" fill="#FDF3F8" stroke="#F8DAEB" stroke-width="3"/>
<rect x="86" y="135" width="71" height="99" rx="6" fill="url(#paint14_linear_280_2268)" stroke="#F8DAEB" stroke-width="3"/>
<rect x="98" y="149" width="47" height="72" rx="6" fill="#FDF3F8" stroke="#F8DAEB" stroke-width="3"/>
<rect x="174" y="135" width="71" height="99" rx="6" fill="url(#paint15_linear_280_2268)" stroke="#F8DAEB" stroke-width="3"/>
<rect x="186" y="149" width="47" height="72" rx="6" fill="#FDF3F8" stroke="#F8DAEB" stroke-width="3"/>
<rect x="262" y="135" width="71" height="99" rx="6" fill="url(#paint16_linear_280_2268)" stroke="#F8DAEB" stroke-width="3"/>
<rect x="274" y="149" width="47" height="72" rx="6" fill="#FDF3F8" stroke="#F8DAEB" stroke-width="3"/>
<rect x="350" y="135" width="71" height="99" rx="6" fill="url(#paint17_linear_280_2268)" stroke="#F8DAEB" stroke-width="3"/>
<rect x="362" y="149" width="47" height="72" rx="6" fill="#FDF3F8" stroke="#F8DAEB" stroke-width="3"/>
<rect x="438" y="135" width="71" height="99" rx="6" fill="url(#paint18_linear_280_2268)" stroke="#F8DAEB" stroke-width="3"/>
<rect x="450" y="149" width="47" height="72" rx="6" fill="#FDF3F8" stroke="#F8DAEB" stroke-width="3"/>
<rect x="526" y="135" width="71" height="99" rx="6" fill="url(#paint19_linear_280_2268)" stroke="#F8DAEB" stroke-width="3"/>
<rect x="538" y="149" width="47" height="72" rx="6" fill="#FDF3F8" stroke="#F8DAEB" stroke-width="3"/>
<rect x="614" y="135" width="71" height="99" rx="6" fill="url(#paint20_linear_280_2268)" stroke="#F8DAEB" stroke-width="3"/>
<rect x="626" y="149" width="47" height="72" rx="6" fill="#FDF3F8" stroke="#F8DAEB" stroke-width="3"/>
<rect x="702" y="135" width="71" height="99" rx="6" fill="url(#paint21_linear_280_2268)" stroke="#F8DAEB" stroke-width="3"/>
<rect x="714" y="149" width="47" height="72" rx="6" fill="#FDF3F8" stroke="#F8DAEB" stroke-width="3"/>
<rect x="790" y="135" width="71" height="99" rx="6" fill="url(#paint22_linear_280_2268)" stroke="#F8DAEB" stroke-width="3"/>
<rect x="802" y="149" width="47" height="72" rx="6" fill="#FDF3F8" stroke="#F8DAEB" stroke-width="3"/>
<rect x="878" y="135" width="71" height="99" rx="6" fill="url(#paint23_linear_280_2268)" stroke="#F8DAEB" stroke-width="3"/>
<rect x="890" y="149" width="47" height="72" rx="6" fill="#FDF3F8" stroke="#F8DAEB" stroke-width="3"/>
<rect x="966" y="135" width="71" height="99" rx="6" fill="url(#paint24_linear_280_2268)" stroke="#F8DAEB" stroke-width="3"/>
<rect x="978" y="149" width="47" height="72" rx="6" fill="#FDF3F8" stroke="#F8DAEB" stroke-width="3"/>
<rect x="-2" y="252" width="71" height="99" rx="6" fill="url(#paint25_linear_280_2268)" stroke="#F8DAEB" stroke-width="3"/>
<rect x="10" y="266" width="47" height="72" rx="6" fill="#FDF3F8" stroke="#F8DAEB" stroke-width="3"/>
<rect x="86" y="252" width="71" height="99" rx="6" fill="url(#paint26_linear_280_2268)" stroke="#F8DAEB" stroke-width="3"/>
<rect x="98" y="266" width="47" height="72" rx="6" fill="#FDF3F8" stroke="#F8DAEB" stroke-width="3"/>
<rect x="174" y="252" width="71" height="99" rx="6" fill="url(#paint27_linear_280_2268)" stroke="#F8DAEB" stroke-width="3"/>
<rect x="186" y="266" width="47" height="72" rx="6" fill="#FDF3F8" stroke="#F8DAEB" stroke-width="3"/>
<rect x="262" y="252" width="71" height="99" rx="6" fill="url(#paint28_linear_280_2268)" stroke="#F8DAEB" stroke-width="3"/>
<rect x="274" y="266" width="47" height="72" rx="6" fill="#FDF3F8" stroke="#F8DAEB" stroke-width="3"/>
<rect x="350" y="252" width="71" height="99" rx="6" fill="url(#paint29_linear_280_2268)" stroke="#F8DAEB" stroke-width="3"/>
<rect x="362" y="266" width="47" height="72" rx="6" fill="#FDF3F8" stroke="#F8DAEB" stroke-width="3"/>
<rect x="438" y="252" width="71" height="99" rx="6" fill="url(#paint30_linear_280_2268)" stroke="#F8DAEB" stroke-width="3"/>
<rect x="450" y="266" width="47" height="72" rx="6" fill="#FDF3F8" stroke="#F8DAEB" stroke-width="3"/>
<rect x="526" y="252" width="71" height="99" rx="6" fill="url(#paint31_linear_280_2268)" stroke="#F8DAEB" stroke-width="3"/>
<rect x="538" y="266" width="47" height="72" rx="6" fill="#FDF3F8" stroke="#F8DAEB" stroke-width="3"/>
<rect x="614" y="252" width="71" height="99" rx="6" fill="url(#paint32_linear_280_2268)" stroke="#F8DAEB" stroke-width="3"/>
<rect x="626" y="266" width="47" height="72" rx="6" fill="#FDF3F8" stroke="#F8DAEB" stroke-width="3"/>
<rect x="702" y="252" width="71" height="99" rx="6" fill="url(#paint33_linear_280_2268)" stroke="#F8DAEB" stroke-width="3"/>
<rect x="714" y="266" width="47" height="72" rx="6" fill="#FDF3F8" stroke="#F8DAEB" stroke-width="3"/>
<rect x="790" y="252" width="71" height="99" rx="6" fill="url(#paint34_linear_280_2268)" stroke="#F8DAEB" stroke-width="3"/>
<rect x="802" y="266" width="47" height="72" rx="6" fill="#FDF3F8" stroke="#F8DAEB" stroke-width="3"/>
<rect x="878" y="252" width="71" height="99" rx="6" fill="url(#paint35_linear_280_2268)" stroke="#F8DAEB" stroke-width="3"/>
<rect x="890" y="266" width="47" height="72" rx="6" fill="#FDF3F8" stroke="#F8DAEB" stroke-width="3"/>
<rect x="966" y="252" width="71" height="99" rx="6" fill="url(#paint36_linear_280_2268)" stroke="#F8DAEB" stroke-width="3"/>
<rect x="978" y="266" width="47" height="72" rx="6" fill="#FDF3F8" stroke="#F8DAEB" stroke-width="3"/>
<rect x="-2" y="369" width="71" height="99" rx="6" fill="url(#paint37_linear_280_2268)" stroke="#F8DAEB" stroke-width="3"/>
<rect x="10" y="383" width="47" height="72" rx="6" fill="#FDF3F8" stroke="#F8DAEB" stroke-width="3"/>
<rect x="86" y="369" width="71" height="99" rx="6" fill="url(#paint38_linear_280_2268)" stroke="#F8DAEB" stroke-width="3"/>
<rect x="98" y="383" width="47" height="72" rx="6" fill="#FDF3F8" stroke="#F8DAEB" stroke-width="3"/>
<rect x="174" y="369" width="71" height="99" rx="6" fill="url(#paint39_linear_280_2268)" stroke="#F8DAEB" stroke-width="3"/>
<rect x="186" y="383" width="47" height="72" rx="6" fill="#FDF3F8" stroke="#F8DAEB" stroke-width="3"/>
<rect x="262" y="369" width="71" height="99" rx="6" fill="url(#paint40_linear_280_2268)" stroke="#F8DAEB" stroke-width="3"/>
<rect x="274" y="383" width="47" height="72" rx="6" fill="#FDF3F8" stroke="#F8DAEB" stroke-width="3"/>
<rect x="350" y="369" width="71" height="99" rx="6" fill="url(#paint41_linear_280_2268)" stroke="#F8DAEB" stroke-width="3"/>
<rect x="362" y="383" width="47" height="72" rx="6" fill="#FDF3F8" stroke="#F8DAEB" stroke-width="3"/>
<rect x="438" y="369" width="71" height="99" rx="6" fill="url(#paint42_linear_280_2268)" stroke="#F8DAEB" stroke-width="3"/>
<rect x="450" y="383" width="47" height="72" rx="6" fill="#FDF3F8" stroke="#F8DAEB" stroke-width="3"/>
<rect x="526" y="369" width="71" height="99" rx="6" fill="url(#paint43_linear_280_2268)" stroke="#F8DAEB" stroke-width="3"/>
<rect x="538" y="383" width="47" height="72" rx="6" fill="#FDF3F8" stroke="#F8DAEB" stroke-width="3"/>
<rect x="614" y="369" width="71" height="99" rx="6" fill="url(#paint44_linear_280_2268)" stroke="#F8DAEB" stroke-width="3"/>
<rect x="626" y="383" width="47" height="72" rx="6" fill="#FDF3F8" stroke="#F8DAEB" stroke-width="3"/>
<rect x="702" y="369" width="71" height="99" rx="6" fill="url(#paint45_linear_280_2268)" stroke="#F8DAEB" stroke-width="3"/>
<rect x="714" y="383" width="47" height="72" rx="6" fill="#FDF3F8" stroke="#F8DAEB" stroke-width="3"/>
<rect x="790" y="369" width="71" height="99" rx="6" fill="url(#paint46_linear_280_2268)" stroke="#F8DAEB" stroke-width="3"/>
<rect x="802" y="383" width="47" height="72" rx="6" fill="#FDF3F8" stroke="#F8DAEB" stroke-width="3"/>
<rect x="878" y="369" width="71" height="99" rx="6" fill="url(#paint47_linear_280_2268)" stroke="#F8DAEB" stroke-width="3"/>
<rect x="890" y="383" width="47" height="72" rx="6" fill="#FDF3F8" stroke="#F8DAEB" stroke-width="3"/>
<rect x="966" y="369" width="71" height="99" rx="6" fill="url(#paint48_linear_280_2268)" stroke="#F8DAEB" stroke-width="3"/>
<rect x="978" y="383" width="47" height="72" rx="6" fill="#FDF3F8" stroke="#F8DAEB" stroke-width="3"/>
<rect x="-2" y="481" width="71" height="99" rx="6" fill="url(#paint49_linear_280_2268)" stroke="#F8DAEB" stroke-width="3"/>
<rect x="10" y="495" width="47" height="72" rx="6" fill="#FDF3F8" stroke="#F8DAEB" stroke-width="3"/>
<rect x="86" y="481" width="71" height="99" rx="6" fill="url(#paint50_linear_280_2268)" stroke="#F8DAEB" stroke-width="3"/>
<rect x="98" y="495" width="47" height="72" rx="6" fill="#FDF3F8" stroke="#F8DAEB" stroke-width="3"/>
<rect x="174" y="481" width="71" height="99" rx="6" fill="url(#paint51_linear_280_2268)" stroke="#F8DAEB" stroke-width="3"/>
<rect x="186" y="495" width="47" height="72" rx="6" fill="#FDF3F8" stroke="#F8DAEB" stroke-width="3"/>
<rect x="262" y="481" width="71" height="99" rx="6" fill="url(#paint52_linear_280_2268)" stroke="#F8DAEB" stroke-width="3"/>
<rect x="274" y="495" width="47" height="72" rx="6" fill="#FDF3F8" stroke="#F8DAEB" stroke-width="3"/>
<rect x="350" y="481" width="71" height="99" rx="6" fill="url(#paint53_linear_280_2268)" stroke="#F8DAEB" stroke-width="3"/>
<rect x="362" y="495" width="47" height="72" rx="6" fill="#FDF3F8" stroke="#F8DAEB" stroke-width="3"/>
<rect x="438" y="481" width="71" height="99" rx="6" fill="url(#paint54_linear_280_2268)" stroke="#F8DAEB" stroke-width="3"/>
<rect x="450" y="495" width="47" height="72" rx="6" fill="#FDF3F8" stroke="#F8DAEB" stroke-width="3"/>
<rect x="526" y="481" width="71" height="99" rx="6" fill="url(#paint55_linear_280_2268)" stroke="#F8DAEB" stroke-width="3"/>
<rect x="538" y="495" width="47" height="72" rx="6" fill="#FDF3F8" stroke="#F8DAEB" stroke-width="3"/>
<rect x="614" y="481" width="71" height="99" rx="6" fill="url(#paint56_linear_280_2268)" stroke="#F8DAEB" stroke-width="3"/>
<rect x="626" y="495" width="47" height="72" rx="6" fill="#FDF3F8" stroke="#F8DAEB" stroke-width="3"/>
<rect x="702" y="481" width="71" height="99" rx="6" fill="url(#paint57_linear_280_2268)" stroke="#F8DAEB" stroke-width="3"/>
<rect x="714" y="495" width="47" height="72" rx="6" fill="#FDF3F8" stroke="#F8DAEB" stroke-width="3"/>
<rect x="790" y="481" width="71" height="99" rx="6" fill="url(#paint58_linear_280_2268)" stroke="#F8DAEB" stroke-width="3"/>
<rect x="802" y="495" width="47" height="72" rx="6" fill="#FDF3F8" stroke="#F8DAEB" stroke-width="3"/>
<rect x="878" y="481" width="71" height="99" rx="6" fill="url(#paint59_linear_280_2268)" stroke="#F8DAEB" stroke-width="3"/>
<rect x="890" y="495" width="47" height="72" rx="6" fill="#FDF3F8" stroke="#F8DAEB" stroke-width="3"/>
<rect x="966" y="481" width="71" height="99" rx="6" fill="url(#paint60_linear_280_2268)" stroke="#F8DAEB" stroke-width="3"/>
<rect x="978" y="495" width="47" height="72" rx="6" fill="#FDF3F8" stroke="#F8DAEB" stroke-width="3"/>
<rect x="351" y="-9" width="335" height="126" rx="6" fill="#FDF3F8" stroke="#F8DAEB" stroke-width="3"/>
<g clip-path="url(#clip0_280_2268)">
<rect x="369" y="-70" width="302" height="171" rx="8" fill="#D8F3FF"/>
<path fill-rule="evenodd" clip-rule="evenodd" d="M412.732 -9.76935C412.732 -8.1675 412.615 -6.59216 412.39 -5.05093C416.959 -7.25406 422.109 -8.49269 427.556 -8.49269C446.246 -8.49269 461.43 6.08791 461.711 24.1781C463.778 23.678 465.938 23.4128 468.16 23.4128C483.11 23.4128 495.23 35.4119 495.23 50.2135C495.23 65.0152 483.11 77.0142 468.16 77.0142C467.728 77.0142 467.299 77.0042 466.872 76.9844V77.0142H336.68V55.3184H353.12C351.66 51.5545 350.859 47.4666 350.859 43.1937C350.859 33.6397 354.86 25.011 361.295 18.8607C351.194 13.0964 344.414 2.43268 344.414 -9.76935C344.414 -28.0952 359.707 -42.9512 378.573 -42.9512C397.439 -42.9512 412.732 -28.0952 412.732 -9.76935ZM440.718 55.3184H441.581C441.559 55.2064 441.538 55.0942 441.518 54.9818C441.253 55.0972 440.986 55.2094 440.718 55.3184Z" fill="#EBF9FF"/>
<path fill-rule="evenodd" clip-rule="evenodd" d="M623.724 -60.8182C623.724 -59.2163 623.85 -57.6409 624.092 -56.0997C619.188 -58.3029 613.662 -59.5415 607.816 -59.5415C587.758 -59.5415 571.463 -44.9609 571.161 -26.8708C568.943 -27.3708 566.625 -27.636 564.24 -27.636C548.196 -27.636 535.19 -15.6369 535.19 -0.835281C535.19 13.9663 548.196 25.9654 564.24 25.9654C564.704 25.9654 565.165 25.9554 565.624 25.9356V25.9654H705.342V4.26955H687.699C689.266 0.505692 690.125 -3.58219 690.125 -7.85516C690.125 -17.4092 685.831 -26.038 678.926 -32.1883C689.765 -37.9527 697.042 -48.6163 697.042 -60.8182C697.042 -79.144 680.629 -94 660.383 -94C640.137 -94 623.724 -79.144 623.724 -60.8182ZM593.691 4.26955H592.764C592.788 4.15761 592.81 4.04541 592.832 3.93297C593.117 4.04836 593.403 4.16058 593.691 4.26955Z" fill="#EBF9FF"/>
<path fill-rule="evenodd" clip-rule="evenodd" d="M687.409 91.8776C687.409 97.789 685.405 103.246 682.021 107.642C680.998 116.98 673.421 124.233 664.225 124.233C661.929 124.233 659.734 123.781 657.717 122.957H553.236V122.746C552.397 122.885 551.536 122.957 550.658 122.957C542.115 122.957 535.189 116.101 535.189 107.643C535.189 99.1847 542.115 92.328 550.658 92.328C553.867 92.328 556.847 93.2954 559.318 94.9516C559.809 81.9375 570.842 71.5333 584.381 71.5333C593.341 71.5333 601.205 76.0913 605.64 82.9472C608.509 77.8829 613.983 74.4606 620.265 74.4606C626.487 74.4606 631.917 77.8175 634.808 82.8018C638.615 72.7204 648.584 65.5273 660.282 65.5273C675.264 65.5273 687.409 77.3248 687.409 91.8776Z" fill="#EBF9FF"/>
</g>
<rect x="370.5" y="-68.5" width="299" height="168" rx="6.5" stroke="#F8DAEB" stroke-width="3"/>
<mask id="path-129-inside-1_280_2268" fill="white">
<path fill-rule="evenodd" clip-rule="evenodd" d="M651.082 -168C651.082 -169.105 651.978 -170 653.082 -170H685.294C686.399 -170 687.294 -169.105 687.294 -168V140C687.294 141.105 686.399 142 685.294 142H619.543C618.636 142 617.835 141.391 617.648 140.503C617.223 138.486 617 136.396 617 134.253C617 123.874 622.24 114.719 630.219 109.288C631.579 108.363 631.579 106.18 630.219 105.255C622.24 99.8244 617 90.6691 617 80.29C617 69.9108 622.24 60.7555 630.219 55.3252C631.578 54.3998 631.578 52.2169 630.219 51.2915C622.24 45.8612 617 36.7059 617 26.3267C617 15.9476 622.24 6.79229 630.219 1.36193C631.578 0.436614 631.578 -1.74637 630.219 -2.67168C622.24 -8.10204 617 -17.2573 617 -27.6365C617 -38.0156 622.24 -47.1709 630.219 -52.6013C631.578 -53.5266 631.578 -55.7096 630.219 -56.6349C622.24 -62.0653 617 -71.2206 617 -81.5997C617 -91.9789 622.24 -101.134 630.219 -106.565C631.578 -107.49 631.578 -109.673 630.219 -110.598C622.24 -116.028 617 -125.184 617 -135.563C617 -152.229 630.511 -165.74 647.177 -165.74C647.727 -165.74 648.274 -165.725 648.817 -165.696C650.022 -165.631 651.082 -166.558 651.082 -167.764V-168ZM413.805 142C414.857 142 415.737 141.184 415.743 140.132C415.744 140.066 415.744 140 415.744 139.933C415.744 129.554 410.504 120.399 402.525 114.968C401.166 114.043 401.166 111.86 402.525 110.935C410.504 105.504 415.744 96.3489 415.744 85.9698C415.744 75.5907 410.504 66.4354 402.525 61.005C401.166 60.0797 401.166 57.8967 402.525 56.9714C410.504 51.541 415.744 42.3857 415.744 32.0066C415.744 21.6274 410.504 12.4721 402.525 7.04177C401.166 6.11645 401.166 3.93347 402.525 3.00816C410.504 -2.4222 415.744 -11.5775 415.744 -21.9566C415.744 -32.3358 410.504 -41.4911 402.525 -46.9214C401.166 -47.8468 401.166 -50.0297 402.525 -50.9551C410.504 -56.3854 415.744 -65.5407 415.744 -75.9199C415.744 -86.299 410.504 -95.4543 402.525 -100.885C401.166 -101.81 401.166 -103.993 402.525 -104.918C410.504 -110.349 415.744 -119.504 415.744 -129.883C415.744 -146.549 402.234 -160.06 385.567 -160.06V-160.06C385.372 -160.06 385.212 -160.218 385.212 -160.413V-162.32C385.212 -163.425 384.317 -164.32 383.212 -164.32H351C349.895 -164.32 349 -163.425 349 -162.32V140C349 141.105 349.895 142 351 142H413.805Z"/>
</mask>
<path fill-rule="evenodd" clip-rule="evenodd" d="M651.082 -168C651.082 -169.105 651.978 -170 653.082 -170H685.294C686.399 -170 687.294 -169.105 687.294 -168V140C687.294 141.105 686.399 142 685.294 142H619.543C618.636 142 617.835 141.391 617.648 140.503C617.223 138.486 617 136.396 617 134.253C617 123.874 622.24 114.719 630.219 109.288C631.579 108.363 631.579 106.18 630.219 105.255C622.24 99.8244 617 90.6691 617 80.29C617 69.9108 622.24 60.7555 630.219 55.3252C631.578 54.3998 631.578 52.2169 630.219 51.2915C622.24 45.8612 617 36.7059 617 26.3267C617 15.9476 622.24 6.79229 630.219 1.36193C631.578 0.436614 631.578 -1.74637 630.219 -2.67168C622.24 -8.10204 617 -17.2573 617 -27.6365C617 -38.0156 622.24 -47.1709 630.219 -52.6013C631.578 -53.5266 631.578 -55.7096 630.219 -56.6349C622.24 -62.0653 617 -71.2206 617 -81.5997C617 -91.9789 622.24 -101.134 630.219 -106.565C631.578 -107.49 631.578 -109.673 630.219 -110.598C622.24 -116.028 617 -125.184 617 -135.563C617 -152.229 630.511 -165.74 647.177 -165.74C647.727 -165.74 648.274 -165.725 648.817 -165.696C650.022 -165.631 651.082 -166.558 651.082 -167.764V-168ZM413.805 142C414.857 142 415.737 141.184 415.743 140.132C415.744 140.066 415.744 140 415.744 139.933C415.744 129.554 410.504 120.399 402.525 114.968C401.166 114.043 401.166 111.86 402.525 110.935C410.504 105.504 415.744 96.3489 415.744 85.9698C415.744 75.5907 410.504 66.4354 402.525 61.005C401.166 60.0797 401.166 57.8967 402.525 56.9714C410.504 51.541 415.744 42.3857 415.744 32.0066C415.744 21.6274 410.504 12.4721 402.525 7.04177C401.166 6.11645 401.166 3.93347 402.525 3.00816C410.504 -2.4222 415.744 -11.5775 415.744 -21.9566C415.744 -32.3358 410.504 -41.4911 402.525 -46.9214C401.166 -47.8468 401.166 -50.0297 402.525 -50.9551C410.504 -56.3854 415.744 -65.5407 415.744 -75.9199C415.744 -86.299 410.504 -95.4543 402.525 -100.885C401.166 -101.81 401.166 -103.993 402.525 -104.918C410.504 -110.349 415.744 -119.504 415.744 -129.883C415.744 -146.549 402.234 -160.06 385.567 -160.06V-160.06C385.372 -160.06 385.212 -160.218 385.212 -160.413V-162.32C385.212 -163.425 384.317 -164.32 383.212 -164.32H351C349.895 -164.32 349 -163.425 349 -162.32V140C349 141.105 349.895 142 351 142H413.805Z" fill="#FCFCFC"/>
<path d="M402.525 -100.885L400.837 -98.4046L402.525 -100.885ZM402.525 -104.918L400.837 -107.398L402.525 -104.918ZM402.525 61.005L404.213 58.5249L402.525 61.005ZM402.525 56.9714L404.213 59.4515L402.525 56.9714ZM402.525 114.968L400.837 117.448L402.525 114.968ZM402.525 110.935L400.837 108.455L402.525 110.935ZM630.219 1.36193L631.907 3.84202L630.219 1.36193ZM630.219 -2.67168L628.531 -0.191595L630.219 -2.67168ZM415.743 140.132L418.743 140.152L415.743 140.132ZM630.219 55.3252L631.907 57.8052L630.219 55.3252ZM630.219 51.2915L628.531 53.7716L630.219 51.2915ZM617.648 140.503L614.712 141.121L617.648 140.503ZM630.219 -106.565L628.531 -109.045L630.219 -106.565ZM630.219 -110.598L631.907 -113.078L630.219 -110.598ZM402.525 -46.9214L400.837 -44.4414L402.525 -46.9214ZM402.525 -50.9551L404.213 -48.475L402.525 -50.9551ZM630.219 109.288L631.907 111.768L630.219 109.288ZM630.219 105.255L631.907 102.775L630.219 105.255ZM630.219 -52.6013L628.531 -55.0814L630.219 -52.6013ZM630.219 -56.6349L628.531 -54.1548L630.219 -56.6349ZM402.525 7.04177L404.213 4.56168L402.525 7.04177ZM402.525 3.00816L404.213 5.48825L402.525 3.00816ZM685.294 -173H653.082V-167H685.294V-173ZM690.294 140V-168H684.294V140H690.294ZM619.543 145H685.294V139H619.543V145ZM614 134.253C614 136.605 614.245 138.902 614.712 141.121L620.584 139.884C620.202 138.07 620 136.187 620 134.253H614ZM628.531 106.808C619.766 112.773 614 122.839 614 134.253H620C620 124.909 624.714 116.664 631.907 111.768L628.531 106.808ZM614 80.29C614 91.7037 619.766 101.77 628.531 107.735L631.907 102.775C624.714 97.8791 620 89.6345 620 80.29H614ZM628.531 52.8451C619.766 58.8102 614 68.8762 614 80.29H620C620 70.9454 624.714 62.7008 631.907 57.8052L628.531 52.8451ZM614 26.3267C614 37.7405 619.766 47.8065 628.531 53.7716L631.907 48.8115C624.714 43.9159 620 35.6713 620 26.3267H614ZM628.531 -1.11816C619.766 4.84696 614 14.913 614 26.3267H620C620 16.9822 624.714 8.73761 631.907 3.84202L628.531 -1.11816ZM614 -27.6365C614 -16.2228 619.766 -6.15672 628.531 -0.191595L631.907 -5.15177C624.714 -10.0474 620 -18.2919 620 -27.6365H614ZM628.531 -55.0814C619.766 -49.1163 614 -39.0502 614 -27.6365H620C620 -36.9811 624.714 -45.2256 631.907 -50.1212L628.531 -55.0814ZM614 -81.5997C614 -70.186 619.766 -60.1199 628.531 -54.1548L631.907 -59.115C624.714 -64.0106 620 -72.2551 620 -81.5997H614ZM628.531 -109.045C619.766 -103.079 614 -93.0134 614 -81.5997H620C620 -90.9443 624.714 -99.1888 631.907 -104.084L628.531 -109.045ZM614 -135.563C614 -124.149 619.766 -114.083 628.531 -108.118L631.907 -113.078C624.714 -117.974 620 -126.218 620 -135.563H614ZM647.177 -168.74C628.854 -168.74 614 -153.886 614 -135.563H620C620 -150.572 632.168 -162.74 647.177 -162.74V-168.74ZM648.978 -168.692C648.381 -168.724 647.781 -168.74 647.177 -168.74V-162.74C647.674 -162.74 648.167 -162.726 648.657 -162.7L648.978 -168.692ZM648.082 -168V-167.764H654.082V-168H648.082ZM412.744 139.933C412.744 139.993 412.744 140.053 412.743 140.113L418.743 140.152C418.744 140.079 418.744 140.006 418.744 139.933H412.744ZM400.837 117.448C408.03 122.344 412.744 130.588 412.744 139.933H418.744C418.744 128.519 412.978 118.453 404.213 112.488L400.837 117.448ZM412.744 85.9698C412.744 95.3144 408.03 103.559 400.837 108.455L404.213 113.415C412.978 107.45 418.744 97.3835 418.744 85.9698H412.744ZM400.837 63.4851C408.03 68.3807 412.744 76.6252 412.744 85.9698H418.744C418.744 74.5561 412.978 64.49 404.213 58.5249L400.837 63.4851ZM412.744 32.0066C412.744 41.3512 408.03 49.5957 400.837 54.4913L404.213 59.4515C412.978 53.4863 418.744 43.4203 418.744 32.0066H412.744ZM400.837 9.52186C408.03 14.4174 412.744 22.662 412.744 32.0066H418.744C418.744 20.5929 412.978 10.5268 404.213 4.56168L400.837 9.52186ZM412.744 -21.9566C412.744 -12.6121 408.03 -4.36752 400.837 0.528068L404.213 5.48825C412.978 -0.476878 418.744 -10.5429 418.744 -21.9566H412.744ZM400.837 -44.4414C408.03 -39.5458 412.744 -31.3012 412.744 -21.9566H418.744C418.744 -33.3704 412.978 -43.4364 404.213 -49.4015L400.837 -44.4414ZM412.744 -75.9199C412.744 -66.5753 408.03 -58.3307 400.837 -53.4351L404.213 -48.475C412.978 -54.4401 418.744 -64.5061 418.744 -75.9199H412.744ZM400.837 -98.4046C408.03 -93.509 412.744 -85.2644 412.744 -75.9199H418.744C418.744 -87.3336 412.978 -97.3996 404.213 -103.365L400.837 -98.4046ZM412.744 -129.883C412.744 -120.539 408.031 -112.294 400.837 -107.398L404.213 -102.438C412.978 -108.403 418.744 -118.469 418.744 -129.883H412.744ZM385.567 -157.06C400.577 -157.06 412.744 -144.893 412.744 -129.883H418.744C418.744 -148.206 403.89 -163.06 385.567 -163.06V-157.06ZM382.212 -162.32V-160.413H388.212V-162.32H382.212ZM351 -161.32H383.212V-167.32H351V-161.32ZM352 140V-162.32H346V140H352ZM351 145H413.805V139H351V145ZM346 140C346 142.761 348.239 145 351 145V139C351.552 139 352 139.448 352 140H346ZM388.212 -162.32C388.212 -165.082 385.974 -167.32 383.212 -167.32V-161.32C382.66 -161.32 382.212 -161.768 382.212 -162.32H388.212ZM404.213 -103.365C404.476 -103.186 404.506 -102.96 404.506 -102.901C404.506 -102.843 404.476 -102.617 404.213 -102.438L400.837 -107.398C397.728 -105.282 397.728 -100.521 400.837 -98.4046L404.213 -103.365ZM404.213 58.5249C404.476 58.704 404.506 58.9298 404.506 58.9882C404.506 59.0466 404.476 59.2724 404.213 59.4515L400.837 54.4913C397.728 56.6073 397.728 61.3691 400.837 63.4851L404.213 58.5249ZM404.213 112.488C404.476 112.667 404.506 112.893 404.506 112.951C404.506 113.01 404.476 113.236 404.213 113.415L400.837 108.455C397.728 110.57 397.728 115.332 400.837 117.448L404.213 112.488ZM351 -167.32C348.239 -167.32 346 -165.082 346 -162.32H352C352 -161.768 351.552 -161.32 351 -161.32V-167.32ZM631.907 3.84202C635.016 1.72606 635.016 -3.03581 631.907 -5.15177L628.531 -0.191595C628.268 -0.370676 628.239 -0.596485 628.239 -0.654877C628.239 -0.713269 628.268 -0.939077 628.531 -1.11816L631.907 3.84202ZM412.743 140.113C412.748 139.398 413.329 139 413.805 139V145C416.386 145 418.725 142.971 418.743 140.152L412.743 140.113ZM385.567 -163.06C387.006 -163.06 388.212 -161.897 388.212 -160.413H382.212C382.212 -158.538 383.738 -157.06 385.567 -157.06V-163.06ZM631.907 57.8052C635.016 55.6893 635.016 50.9274 631.907 48.8115L628.531 53.7716C628.268 53.5926 628.239 53.3667 628.239 53.3083C628.239 53.25 628.268 53.0241 628.531 52.8451L631.907 57.8052ZM619.543 139C619.96 139 620.459 139.293 620.584 139.884L614.712 141.121C615.211 143.488 617.312 145 619.543 145V139ZM631.907 -104.084C635.016 -106.2 635.016 -110.962 631.907 -113.078L628.531 -108.118C628.268 -108.297 628.239 -108.523 628.239 -108.581C628.239 -108.64 628.268 -108.866 628.531 -109.045L631.907 -104.084ZM404.213 -49.4015C404.476 -49.2224 404.506 -48.9966 404.506 -48.9382C404.506 -48.8799 404.476 -48.654 404.213 -48.475L400.837 -53.4351C397.728 -51.3192 397.728 -46.5573 400.837 -44.4414L404.213 -49.4015ZM684.294 140C684.294 139.448 684.742 139 685.294 139V145C688.056 145 690.294 142.761 690.294 140H684.294ZM653.082 -173C650.321 -173 648.082 -170.761 648.082 -168H654.082C654.082 -167.448 653.635 -167 653.082 -167V-173ZM648.657 -162.7C651.429 -162.552 654.082 -164.692 654.082 -167.764H648.082C648.082 -168.074 648.226 -168.332 648.394 -168.483C648.553 -168.626 648.761 -168.703 648.978 -168.692L648.657 -162.7ZM631.907 111.768C635.016 109.653 635.016 104.891 631.907 102.775L628.531 107.735C628.268 107.556 628.239 107.33 628.239 107.272C628.239 107.213 628.268 106.987 628.531 106.808L631.907 111.768ZM631.907 -50.1212C635.016 -52.2372 635.016 -56.999 631.907 -59.115L628.531 -54.1548C628.268 -54.3339 628.239 -54.5597 628.239 -54.6181C628.239 -54.6765 628.268 -54.9023 628.531 -55.0814L631.907 -50.1212ZM404.213 4.56168C404.476 4.74076 404.506 4.96657 404.506 5.02496C404.506 5.08335 404.476 5.30916 404.213 5.48825L400.837 0.528068C397.728 2.64403 397.728 7.4059 400.837 9.52186L404.213 4.56168ZM685.294 -167C684.742 -167 684.294 -167.448 684.294 -168H690.294C690.294 -170.761 688.056 -173 685.294 -173V-167Z" fill="#BDBCCD" mask="url(#path-129-inside-1_280_2268)"/>
</g>
<defs>
<linearGradient id="paint0_linear_280_2268" x1="532.5" y1="0" x2="532.5" y2="575.412" gradientUnits="userSpaceOnUse">
<stop stop-color="#FDF3F8"/>
<stop offset="1" stop-color="#F4C2DE"/>
</linearGradient>
<linearGradient id="paint1_linear_280_2268" x1="43.5" y1="150.5" x2="43.5" y2="21" gradientUnits="userSpaceOnUse">
<stop stop-color="#F8DAEB"/>
<stop offset="1" stop-color="#FDF3F8"/>
</linearGradient>
<linearGradient id="paint2_linear_280_2268" x1="131.5" y1="150.5" x2="131.5" y2="21" gradientUnits="userSpaceOnUse">
<stop stop-color="#F8DAEB"/>
<stop offset="1" stop-color="#FDF3F8"/>
</linearGradient>
<linearGradient id="paint3_linear_280_2268" x1="219.5" y1="150.5" x2="219.5" y2="21" gradientUnits="userSpaceOnUse">
<stop stop-color="#F8DAEB"/>
<stop offset="1" stop-color="#FDF3F8"/>
</linearGradient>
<linearGradient id="paint4_linear_280_2268" x1="307.5" y1="150.5" x2="307.5" y2="21" gradientUnits="userSpaceOnUse">
<stop stop-color="#F8DAEB"/>
<stop offset="1" stop-color="#FDF3F8"/>
</linearGradient>
<linearGradient id="paint5_linear_280_2268" x1="395.5" y1="150.5" x2="395.5" y2="21" gradientUnits="userSpaceOnUse">
<stop stop-color="#F8DAEB"/>
<stop offset="1" stop-color="#FDF3F8"/>
</linearGradient>
<linearGradient id="paint6_linear_280_2268" x1="483.5" y1="150.5" x2="483.5" y2="21" gradientUnits="userSpaceOnUse">
<stop stop-color="#F8DAEB"/>
<stop offset="1" stop-color="#FDF3F8"/>
</linearGradient>
<linearGradient id="paint7_linear_280_2268" x1="571.5" y1="150.5" x2="571.5" y2="21" gradientUnits="userSpaceOnUse">
<stop stop-color="#F8DAEB"/>
<stop offset="1" stop-color="#FDF3F8"/>
</linearGradient>
<linearGradient id="paint8_linear_280_2268" x1="659.5" y1="150.5" x2="659.5" y2="21" gradientUnits="userSpaceOnUse">
<stop stop-color="#F8DAEB"/>
<stop offset="1" stop-color="#FDF3F8"/>
</linearGradient>
<linearGradient id="paint9_linear_280_2268" x1="747.5" y1="150.5" x2="747.5" y2="21" gradientUnits="userSpaceOnUse">
<stop stop-color="#F8DAEB"/>
<stop offset="1" stop-color="#FDF3F8"/>
</linearGradient>
<linearGradient id="paint10_linear_280_2268" x1="835.5" y1="150.5" x2="835.5" y2="21" gradientUnits="userSpaceOnUse">
<stop stop-color="#F8DAEB"/>
<stop offset="1" stop-color="#FDF3F8"/>
</linearGradient>
<linearGradient id="paint11_linear_280_2268" x1="923.5" y1="150.5" x2="923.5" y2="21" gradientUnits="userSpaceOnUse">
<stop stop-color="#F8DAEB"/>
<stop offset="1" stop-color="#FDF3F8"/>
</linearGradient>
<linearGradient id="paint12_linear_280_2268" x1="1011.5" y1="150.5" x2="1011.5" y2="21" gradientUnits="userSpaceOnUse">
<stop stop-color="#F8DAEB"/>
<stop offset="1" stop-color="#FDF3F8"/>
</linearGradient>
<linearGradient id="paint13_linear_280_2268" x1="43.5" y1="267.5" x2="43.5" y2="138" gradientUnits="userSpaceOnUse">
<stop stop-color="#F8DAEB"/>
<stop offset="1" stop-color="#FDF3F8"/>
</linearGradient>
<linearGradient id="paint14_linear_280_2268" x1="131.5" y1="267.5" x2="131.5" y2="138" gradientUnits="userSpaceOnUse">
<stop stop-color="#F8DAEB"/>
<stop offset="1" stop-color="#FDF3F8"/>
</linearGradient>
<linearGradient id="paint15_linear_280_2268" x1="219.5" y1="267.5" x2="219.5" y2="138" gradientUnits="userSpaceOnUse">
<stop stop-color="#F8DAEB"/>
<stop offset="1" stop-color="#FDF3F8"/>
</linearGradient>
<linearGradient id="paint16_linear_280_2268" x1="307.5" y1="267.5" x2="307.5" y2="138" gradientUnits="userSpaceOnUse">
<stop stop-color="#F8DAEB"/>
<stop offset="1" stop-color="#FDF3F8"/>
</linearGradient>
<linearGradient id="paint17_linear_280_2268" x1="395.5" y1="267.5" x2="395.5" y2="138" gradientUnits="userSpaceOnUse">
<stop stop-color="#F8DAEB"/>
<stop offset="1" stop-color="#FDF3F8"/>
</linearGradient>
<linearGradient id="paint18_linear_280_2268" x1="483.5" y1="267.5" x2="483.5" y2="138" gradientUnits="userSpaceOnUse">
<stop stop-color="#F8DAEB"/>
<stop offset="1" stop-color="#FDF3F8"/>
</linearGradient>
<linearGradient id="paint19_linear_280_2268" x1="571.5" y1="267.5" x2="571.5" y2="138" gradientUnits="userSpaceOnUse">
<stop stop-color="#F8DAEB"/>
<stop offset="1" stop-color="#FDF3F8"/>
</linearGradient>
<linearGradient id="paint20_linear_280_2268" x1="659.5" y1="267.5" x2="659.5" y2="138" gradientUnits="userSpaceOnUse">
<stop stop-color="#F8DAEB"/>
<stop offset="1" stop-color="#FDF3F8"/>
</linearGradient>
<linearGradient id="paint21_linear_280_2268" x1="747.5" y1="267.5" x2="747.5" y2="138" gradientUnits="userSpaceOnUse">
<stop stop-color="#F8DAEB"/>
<stop offset="1" stop-color="#FDF3F8"/>
</linearGradient>
<linearGradient id="paint22_linear_280_2268" x1="835.5" y1="267.5" x2="835.5" y2="138" gradientUnits="userSpaceOnUse">
<stop stop-color="#F8DAEB"/>
<stop offset="1" stop-color="#FDF3F8"/>
</linearGradient>
<linearGradient id="paint23_linear_280_2268" x1="923.5" y1="267.5" x2="923.5" y2="138" gradientUnits="userSpaceOnUse">
<stop stop-color="#F8DAEB"/>
<stop offset="1" stop-color="#FDF3F8"/>
</linearGradient>
<linearGradient id="paint24_linear_280_2268" x1="1011.5" y1="267.5" x2="1011.5" y2="138" gradientUnits="userSpaceOnUse">
<stop stop-color="#F8DAEB"/>
<stop offset="1" stop-color="#FDF3F8"/>
</linearGradient>
<linearGradient id="paint25_linear_280_2268" x1="43.5" y1="384.5" x2="43.5" y2="255" gradientUnits="userSpaceOnUse">
<stop stop-color="#F8DAEB"/>
<stop offset="1" stop-color="#FDF3F8"/>
</linearGradient>
<linearGradient id="paint26_linear_280_2268" x1="131.5" y1="384.5" x2="131.5" y2="255" gradientUnits="userSpaceOnUse">
<stop stop-color="#F8DAEB"/>
<stop offset="1" stop-color="#FDF3F8"/>
</linearGradient>
<linearGradient id="paint27_linear_280_2268" x1="219.5" y1="384.5" x2="219.5" y2="255" gradientUnits="userSpaceOnUse">
<stop stop-color="#F8DAEB"/>
<stop offset="1" stop-color="#FDF3F8"/>
</linearGradient>
<linearGradient id="paint28_linear_280_2268" x1="307.5" y1="384.5" x2="307.5" y2="255" gradientUnits="userSpaceOnUse">
<stop stop-color="#F8DAEB"/>
<stop offset="1" stop-color="#FDF3F8"/>
</linearGradient>
<linearGradient id="paint29_linear_280_2268" x1="395.5" y1="384.5" x2="395.5" y2="255" gradientUnits="userSpaceOnUse">
<stop stop-color="#F8DAEB"/>
<stop offset="1" stop-color="#FDF3F8"/>
</linearGradient>
<linearGradient id="paint30_linear_280_2268" x1="483.5" y1="384.5" x2="483.5" y2="255" gradientUnits="userSpaceOnUse">
<stop stop-color="#F8DAEB"/>
<stop offset="1" stop-color="#FDF3F8"/>
</linearGradient>
<linearGradient id="paint31_linear_280_2268" x1="571.5" y1="384.5" x2="571.5" y2="255" gradientUnits="userSpaceOnUse">
<stop stop-color="#F8DAEB"/>
<stop offset="1" stop-color="#FDF3F8"/>
</linearGradient>
<linearGradient id="paint32_linear_280_2268" x1="659.5" y1="384.5" x2="659.5" y2="255" gradientUnits="userSpaceOnUse">
<stop stop-color="#F8DAEB"/>
<stop offset="1" stop-color="#FDF3F8"/>
</linearGradient>
<linearGradient id="paint33_linear_280_2268" x1="747.5" y1="384.5" x2="747.5" y2="255" gradientUnits="userSpaceOnUse">
<stop stop-color="#F8DAEB"/>
<stop offset="1" stop-color="#FDF3F8"/>
</linearGradient>
<linearGradient id="paint34_linear_280_2268" x1="835.5" y1="384.5" x2="835.5" y2="255" gradientUnits="userSpaceOnUse">
<stop stop-color="#F8DAEB"/>
<stop offset="1" stop-color="#FDF3F8"/>
</linearGradient>
<linearGradient id="paint35_linear_280_2268" x1="923.5" y1="384.5" x2="923.5" y2="255" gradientUnits="userSpaceOnUse">
<stop stop-color="#F8DAEB"/>
<stop offset="1" stop-color="#FDF3F8"/>
</linearGradient>
<linearGradient id="paint36_linear_280_2268" x1="1011.5" y1="384.5" x2="1011.5" y2="255" gradientUnits="userSpaceOnUse">
<stop stop-color="#F8DAEB"/>
<stop offset="1" stop-color="#FDF3F8"/>
</linearGradient>
<linearGradient id="paint37_linear_280_2268" x1="43.5" y1="501.5" x2="43.5" y2="372" gradientUnits="userSpaceOnUse">
<stop stop-color="#F8DAEB"/>
<stop offset="1" stop-color="#FDF3F8"/>
</linearGradient>
<linearGradient id="paint38_linear_280_2268" x1="131.5" y1="501.5" x2="131.5" y2="372" gradientUnits="userSpaceOnUse">
<stop stop-color="#F8DAEB"/>
<stop offset="1" stop-color="#FDF3F8"/>
</linearGradient>
<linearGradient id="paint39_linear_280_2268" x1="219.5" y1="501.5" x2="219.5" y2="372" gradientUnits="userSpaceOnUse">
<stop stop-color="#F8DAEB"/>
<stop offset="1" stop-color="#FDF3F8"/>
</linearGradient>
<linearGradient id="paint40_linear_280_2268" x1="307.5" y1="501.5" x2="307.5" y2="372" gradientUnits="userSpaceOnUse">
<stop stop-color="#F8DAEB"/>
<stop offset="1" stop-color="#FDF3F8"/>
</linearGradient>
<linearGradient id="paint41_linear_280_2268" x1="395.5" y1="501.5" x2="395.5" y2="372" gradientUnits="userSpaceOnUse">
<stop stop-color="#F8DAEB"/>
<stop offset="1" stop-color="#FDF3F8"/>
</linearGradient>
<linearGradient id="paint42_linear_280_2268" x1="483.5" y1="501.5" x2="483.5" y2="372" gradientUnits="userSpaceOnUse">
<stop stop-color="#F8DAEB"/>
<stop offset="1" stop-color="#FDF3F8"/>
</linearGradient>
<linearGradient id="paint43_linear_280_2268" x1="571.5" y1="501.5" x2="571.5" y2="372" gradientUnits="userSpaceOnUse">
<stop stop-color="#F8DAEB"/>
<stop offset="1" stop-color="#FDF3F8"/>
</linearGradient>
<linearGradient id="paint44_linear_280_2268" x1="659.5" y1="501.5" x2="659.5" y2="372" gradientUnits="userSpaceOnUse">
<stop stop-color="#F8DAEB"/>
<stop offset="1" stop-color="#FDF3F8"/>
</linearGradient>
<linearGradient id="paint45_linear_280_2268" x1="747.5" y1="501.5" x2="747.5" y2="372" gradientUnits="userSpaceOnUse">
<stop stop-color="#F8DAEB"/>
<stop offset="1" stop-color="#FDF3F8"/>
</linearGradient>
<linearGradient id="paint46_linear_280_2268" x1="835.5" y1="501.5" x2="835.5" y2="372" gradientUnits="userSpaceOnUse">
<stop stop-color="#F8DAEB"/>
<stop offset="1" stop-color="#FDF3F8"/>
</linearGradient>
<linearGradient id="paint47_linear_280_2268" x1="923.5" y1="501.5" x2="923.5" y2="372" gradientUnits="userSpaceOnUse">
<stop stop-color="#F8DAEB"/>
<stop offset="1" stop-color="#FDF3F8"/>
</linearGradient>
<linearGradient id="paint48_linear_280_2268" x1="1011.5" y1="501.5" x2="1011.5" y2="372" gradientUnits="userSpaceOnUse">
<stop stop-color="#F8DAEB"/>
<stop offset="1" stop-color="#FDF3F8"/>
</linearGradient>
<linearGradient id="paint49_linear_280_2268" x1="43.5" y1="613.5" x2="43.5" y2="484" gradientUnits="userSpaceOnUse">
<stop stop-color="#F8DAEB"/>
<stop offset="1" stop-color="#FDF3F8"/>
</linearGradient>
<linearGradient id="paint50_linear_280_2268" x1="131.5" y1="613.5" x2="131.5" y2="484" gradientUnits="userSpaceOnUse">
<stop stop-color="#F8DAEB"/>
<stop offset="1" stop-color="#FDF3F8"/>
</linearGradient>
<linearGradient id="paint51_linear_280_2268" x1="219.5" y1="613.5" x2="219.5" y2="484" gradientUnits="userSpaceOnUse">
<stop stop-color="#F8DAEB"/>
<stop offset="1" stop-color="#FDF3F8"/>
</linearGradient>
<linearGradient id="paint52_linear_280_2268" x1="307.5" y1="613.5" x2="307.5" y2="484" gradientUnits="userSpaceOnUse">
<stop stop-color="#F8DAEB"/>
<stop offset="1" stop-color="#FDF3F8"/>
</linearGradient>
<linearGradient id="paint53_linear_280_2268" x1="395.5" y1="613.5" x2="395.5" y2="484" gradientUnits="userSpaceOnUse">
<stop stop-color="#F8DAEB"/>
<stop offset="1" stop-color="#FDF3F8"/>
</linearGradient>
<linearGradient id="paint54_linear_280_2268" x1="483.5" y1="613.5" x2="483.5" y2="484" gradientUnits="userSpaceOnUse">
<stop stop-color="#F8DAEB"/>
<stop offset="1" stop-color="#FDF3F8"/>
</linearGradient>
<linearGradient id="paint55_linear_280_2268" x1="571.5" y1="613.5" x2="571.5" y2="484" gradientUnits="userSpaceOnUse">
<stop stop-color="#F8DAEB"/>
<stop offset="1" stop-color="#FDF3F8"/>
</linearGradient>
<linearGradient id="paint56_linear_280_2268" x1="659.5" y1="613.5" x2="659.5" y2="484" gradientUnits="userSpaceOnUse">
<stop stop-color="#F8DAEB"/>
<stop offset="1" stop-color="#FDF3F8"/>
</linearGradient>
<linearGradient id="paint57_linear_280_2268" x1="747.5" y1="613.5" x2="747.5" y2="484" gradientUnits="userSpaceOnUse">
<stop stop-color="#F8DAEB"/>
<stop offset="1" stop-color="#FDF3F8"/>
</linearGradient>
<linearGradient id="paint58_linear_280_2268" x1="835.5" y1="613.5" x2="835.5" y2="484" gradientUnits="userSpaceOnUse">
<stop stop-color="#F8DAEB"/>
<stop offset="1" stop-color="#FDF3F8"/>
</linearGradient>
<linearGradient id="paint59_linear_280_2268" x1="923.5" y1="613.5" x2="923.5" y2="484" gradientUnits="userSpaceOnUse">
<stop stop-color="#F8DAEB"/>
<stop offset="1" stop-color="#FDF3F8"/>
</linearGradient>
<linearGradient id="paint60_linear_280_2268" x1="1011.5" y1="613.5" x2="1011.5" y2="484" gradientUnits="userSpaceOnUse">
<stop stop-color="#F8DAEB"/>
<stop offset="1" stop-color="#FDF3F8"/>
</linearGradient>
<clipPath id="clip0_280_2268">
<rect x="369" y="-70" width="302" height="171" rx="8" fill="white"/>
</clipPath>
</defs>
</svg>
