<svg width="1033" height="632" viewBox="0 0 1033 632" fill="none" xmlns="http://www.w3.org/2000/svg">
<mask id="mask0_280_2268" style="mask-type:alpha" maskUnits="userSpaceOnUse" x="0" y="0" width="1032" height="632">
<path d="M31.6133 17.243C32.1102 7.57999 40.09 0 49.7658 0H1013.36C1023.77 0 1032.05 8.71841 1031.52 19.1099L1000.89 614.757C1000.39 624.42 992.41 632 982.734 632H19.1352C8.72991 632 0.448336 623.282 0.982711 612.89L31.6133 17.243Z" fill="#FF0000"/>
</mask>
<g mask="url(#mask0_280_2268)">
<rect width="1072" height="563" transform="translate(-18)" fill="url(#paint0_linear_280_2268)"/>
<rect x="155.25" y="-62" width="164.5" height="367" fill="#EBF9FF"/>
<rect x="320" width="22" height="327" fill="#C5AF99"/>
<rect x="145.625" y="-3" width="182" height="10" fill="#C5AF99"/>
<rect x="145.625" y="305" width="182" height="22" fill="#C5AF99"/>
<rect x="342.25" y="-62" width="164.5" height="367" fill="#EBF9FF"/>
<rect x="507" width="22" height="327" fill="#C5AF99"/>
<rect x="332.625" y="-3" width="182" height="10" fill="#C5AF99"/>
<rect x="332.625" y="305" width="182" height="22" fill="#C5AF99"/>
<rect x="529.25" y="-62" width="164.5" height="367" fill="#EBF9FF"/>
<rect x="694" width="22" height="327" fill="#C5AF99"/>
<rect x="519.625" y="-3" width="182" height="10" fill="#C5AF99"/>
<rect x="519.625" y="305" width="182" height="22" fill="#C5AF99"/>
<rect x="716.25" y="-62" width="164.5" height="367" fill="#EBF9FF"/>
<rect x="706.625" y="-3" width="182" height="10" fill="#C5AF99"/>
<rect x="706.625" y="305" width="182" height="22" fill="#C5AF99"/>
<mask id="path-17-outside-1_280_2268" maskUnits="userSpaceOnUse" x="130" y="-43" width="776" height="609" fill="black">
<rect fill="white" x="130" y="-43" width="776" height="609"/>
<path fill-rule="evenodd" clip-rule="evenodd" d="M211 -40H205V99H155V0H133V305V327V563H903V327V305V0H881V99H829V-40H823V99H772V-40H766V99H716V0H694V99H642.125V-40H636.125V99H585.125V-40H579.125V99H529V0H507V99H455V-40H449V99H398V-40H392V99H342V0H320V99H268V-40H262V99H211V-40ZM881 105H829V203H881V105ZM881 209H829V304.925H823V209H772V304.925H766V209H716V305H881V209ZM320 305H155V209H205V304.925H211V209H262V304.925H268V209H320V305ZM507 305H342V209H392V304.925H398V209H449V304.925H455V209H507V305ZM694 305H529V209H579.125V304.925H585.125V209H636.125V304.925H642.125V209H694V305ZM823 203V105H772V203H823ZM766 203V105H716V203H766ZM694 105H642.125V203H694V105ZM579.125 203H529V105H579.125V203ZM636.125 203H585.125V105H636.125V203ZM507 105V203H455V105H507ZM449 203V105H398V203H449ZM392 203V105H342V203H392ZM320 105H268V203H320V105ZM205 203H155V105H205V203ZM262 203H211V105H262V203Z"/>
</mask>
<path fill-rule="evenodd" clip-rule="evenodd" d="M211 -40H205V99H155V0H133V305V327V563H903V327V305V0H881V99H829V-40H823V99H772V-40H766V99H716V0H694V99H642.125V-40H636.125V99H585.125V-40H579.125V99H529V0H507V99H455V-40H449V99H398V-40H392V99H342V0H320V99H268V-40H262V99H211V-40ZM881 105H829V203H881V105ZM881 209H829V304.925H823V209H772V304.925H766V209H716V305H881V209ZM320 305H155V209H205V304.925H211V209H262V304.925H268V209H320V305ZM507 305H342V209H392V304.925H398V209H449V304.925H455V209H507V305ZM694 305H529V209H579.125V304.925H585.125V209H636.125V304.925H642.125V209H694V305ZM823 203V105H772V203H823ZM766 203V105H716V203H766ZM694 105H642.125V203H694V105ZM579.125 203H529V105H579.125V203ZM636.125 203H585.125V105H636.125V203ZM507 105V203H455V105H507ZM449 203V105H398V203H449ZM392 203V105H342V203H392ZM320 105H268V203H320V105ZM205 203H155V105H205V203ZM262 203H211V105H262V203Z" fill="#C5AF99"/>
<path d="M205 -40V-43H202V-40H205ZM211 -40H214V-43H211V-40ZM205 99V102H208V99H205ZM155 99H152V102H155V99ZM155 0H158V-3H155V0ZM133 0V-3H130V0H133ZM133 563H130V566H133V563ZM903 563V566H906V563H903ZM903 0H906V-3H903V0ZM881 0V-3H878V0H881ZM881 99V102H884V99H881ZM829 99H826V102H829V99ZM829 -40H832V-43H829V-40ZM823 -40V-43H820V-40H823ZM823 99V102H826V99H823ZM772 99H769V102H772V99ZM772 -40H775V-43H772V-40ZM766 -40V-43H763V-40H766ZM766 99V102H769V99H766ZM716 99H713V102H716V99ZM716 0H719V-3H716V0ZM694 0V-3H691V0H694ZM694 99V102H697V99H694ZM642.125 99H639.125V102H642.125V99ZM642.125 -40H645.125V-43H642.125V-40ZM636.125 -40V-43H633.125V-40H636.125ZM636.125 99V102H639.125V99H636.125ZM585.125 99H582.125V102H585.125V99ZM585.125 -40H588.125V-43H585.125V-40ZM579.125 -40V-43H576.125V-40H579.125ZM579.125 99V102H582.125V99H579.125ZM529 99H526V102H529V99ZM529 0H532V-3H529V0ZM507 0V-3H504V0H507ZM507 99V102H510V99H507ZM455 99H452V102H455V99ZM455 -40H458V-43H455V-40ZM449 -40V-43H446V-40H449ZM449 99V102H452V99H449ZM398 99H395V102H398V99ZM398 -40H401V-43H398V-40ZM392 -40V-43H389V-40H392ZM392 99V102H395V99H392ZM342 99H339V102H342V99ZM342 0H345V-3H342V0ZM320 0V-3H317V0H320ZM320 99V102H323V99H320ZM268 99H265V102H268V99ZM268 -40H271V-43H268V-40ZM262 -40V-43H259V-40H262ZM262 99V102H265V99H262ZM211 99H208V102H211V99ZM881 105H884V102H881V105ZM829 105V102H826V105H829ZM829 203H826V206H829V203ZM881 203V206H884V203H881ZM881 209H884V206H881V209ZM829 209V206H826V209H829ZM829 304.925V307.925H832V304.925H829ZM823 304.925H820V307.925H823V304.925ZM823 209H826V206H823V209ZM772 209V206H769V209H772ZM772 304.925V307.925H775V304.925H772ZM766 304.925H763V307.925H766V304.925ZM766 209H769V206H766V209ZM716 209V206H713V209H716ZM716 305H713V308H716V305ZM881 305V308H884V305H881ZM155 305H152V308H155V305ZM320 305V308H323V305H320ZM155 209V206H152V209H155ZM205 209H208V206H205V209ZM205 304.925H202V307.925H205V304.925ZM211 304.925V307.925H214V304.925H211ZM211 209V206H208V209H211ZM262 209H265V206H262V209ZM262 304.925H259V307.925H262V304.925ZM268 304.925V307.925H271V304.925H268ZM268 209V206H265V209H268ZM320 209H323V206H320V209ZM342 305H339V308H342V305ZM507 305V308H510V305H507ZM342 209V206H339V209H342ZM392 209H395V206H392V209ZM392 304.925H389V307.925H392V304.925ZM398 304.925V307.925H401V304.925H398ZM398 209V206H395V209H398ZM449 209H452V206H449V209ZM449 304.925H446V307.925H449V304.925ZM455 304.925V307.925H458V304.925H455ZM455 209V206H452V209H455ZM507 209H510V206H507V209ZM529 305H526V308H529V305ZM694 305V308H697V305H694ZM529 209V206H526V209H529ZM579.125 209H582.125V206H579.125V209ZM579.125 304.925H576.125V307.925H579.125V304.925ZM585.125 304.925V307.925H588.125V304.925H585.125ZM585.125 209V206H582.125V209H585.125ZM636.125 209H639.125V206H636.125V209ZM636.125 304.925H633.125V307.925H636.125V304.925ZM642.125 304.925V307.925H645.125V304.925H642.125ZM642.125 209V206H639.125V209H642.125ZM694 209H697V206H694V209ZM823 105H826V102H823V105ZM823 203V206H826V203H823ZM772 105V102H769V105H772ZM772 203H769V206H772V203ZM766 105H769V102H766V105ZM766 203V206H769V203H766ZM716 105V102H713V105H716ZM716 203H713V206H716V203ZM642.125 105V102H639.125V105H642.125ZM694 105H697V102H694V105ZM642.125 203H639.125V206H642.125V203ZM694 203V206H697V203H694ZM529 203H526V206H529V203ZM579.125 203V206H582.125V203H579.125ZM529 105V102H526V105H529ZM579.125 105H582.125V102H579.125V105ZM585.125 203H582.125V206H585.125V203ZM636.125 203V206H639.125V203H636.125ZM585.125 105V102H582.125V105H585.125ZM636.125 105H639.125V102H636.125V105ZM507 203V206H510V203H507ZM507 105H510V102H507V105ZM455 203H452V206H455V203ZM455 105V102H452V105H455ZM449 105H452V102H449V105ZM449 203V206H452V203H449ZM398 105V102H395V105H398ZM398 203H395V206H398V203ZM392 105H395V102H392V105ZM392 203V206H395V203H392ZM342 105V102H339V105H342ZM342 203H339V206H342V203ZM268 105V102H265V105H268ZM320 105H323V102H320V105ZM268 203H265V206H268V203ZM320 203V206H323V203H320ZM155 203H152V206H155V203ZM205 203V206H208V203H205ZM155 105V102H152V105H155ZM205 105H208V102H205V105ZM211 203H208V206H211V203ZM262 203V206H265V203H262ZM211 105V102H208V105H211ZM262 105H265V102H262V105ZM205 -37H211V-43H205V-37ZM208 99V-40H202V99H208ZM155 102H205V96H155V102ZM152 0V99H158V0H152ZM133 3H155V-3H133V3ZM136 305V0H130V305H136ZM136 327V305H130V327H136ZM136 563V327H130V563H136ZM903 560H133V566H903V560ZM900 327V563H906V327H900ZM900 305V327H906V305H900ZM900 0V305H906V0H900ZM881 3H903V-3H881V3ZM884 99V0H878V99H884ZM829 102H881V96H829V102ZM826 -40V99H832V-40H826ZM823 -37H829V-43H823V-37ZM826 99V-40H820V99H826ZM772 102H823V96H772V102ZM769 -40V99H775V-40H769ZM766 -37H772V-43H766V-37ZM769 99V-40H763V99H769ZM716 102H766V96H716V102ZM713 0V99H719V0H713ZM694 3H716V-3H694V3ZM697 99V0H691V99H697ZM642.125 102H694V96H642.125V102ZM639.125 -40V99H645.125V-40H639.125ZM636.125 -37H642.125V-43H636.125V-37ZM639.125 99V-40H633.125V99H639.125ZM585.125 102H636.125V96H585.125V102ZM582.125 -40V99H588.125V-40H582.125ZM579.125 -37H585.125V-43H579.125V-37ZM582.125 99V-40H576.125V99H582.125ZM529 102H579.125V96H529V102ZM526 0V99H532V0H526ZM507 3H529V-3H507V3ZM510 99V0H504V99H510ZM455 102H507V96H455V102ZM452 -40V99H458V-40H452ZM449 -37H455V-43H449V-37ZM452 99V-40H446V99H452ZM398 102H449V96H398V102ZM395 -40V99H401V-40H395ZM392 -37H398V-43H392V-37ZM395 99V-40H389V99H395ZM342 102H392V96H342V102ZM339 0V99H345V0H339ZM320 3H342V-3H320V3ZM323 99V0H317V99H323ZM268 102H320V96H268V102ZM265 -40V99H271V-40H265ZM262 -37H268V-43H262V-37ZM265 99V-40H259V99H265ZM211 102H262V96H211V102ZM208 -40V99H214V-40H208ZM881 102H829V108H881V102ZM826 105V203H832V105H826ZM829 206H881V200H829V206ZM884 203V105H878V203H884ZM881 206H829V212H881V206ZM826 209V304.925H832V209H826ZM829 301.925H823V307.925H829V301.925ZM826 304.925V209H820V304.925H826ZM823 206H772V212H823V206ZM769 209V304.925H775V209H769ZM772 301.925H766V307.925H772V301.925ZM769 304.925V209H763V304.925H769ZM766 206H716V212H766V206ZM713 209V305H719V209H713ZM716 308H881V302H716V308ZM884 305V209H878V305H884ZM155 308H320V302H155V308ZM152 209V305H158V209H152ZM205 206H155V212H205V206ZM208 304.925V209H202V304.925H208ZM211 301.925H205V307.925H211V301.925ZM208 209V304.925H214V209H208ZM262 206H211V212H262V206ZM265 304.925V209H259V304.925H265ZM268 301.925H262V307.925H268V301.925ZM265 209V304.925H271V209H265ZM320 206H268V212H320V206ZM323 305V209H317V305H323ZM342 308H507V302H342V308ZM339 209V305H345V209H339ZM392 206H342V212H392V206ZM395 304.925V209H389V304.925H395ZM398 301.925H392V307.925H398V301.925ZM395 209V304.925H401V209H395ZM449 206H398V212H449V206ZM452 304.925V209H446V304.925H452ZM455 301.925H449V307.925H455V301.925ZM452 209V304.925H458V209H452ZM507 206H455V212H507V206ZM510 305V209H504V305H510ZM529 308H694V302H529V308ZM526 209V305H532V209H526ZM579.125 206H529V212H579.125V206ZM582.125 304.925V209H576.125V304.925H582.125ZM585.125 301.925H579.125V307.925H585.125V301.925ZM582.125 209V304.925H588.125V209H582.125ZM636.125 206H585.125V212H636.125V206ZM639.125 304.925V209H633.125V304.925H639.125ZM642.125 301.925H636.125V307.925H642.125V301.925ZM639.125 209V304.925H645.125V209H639.125ZM694 206H642.125V212H694V206ZM697 305V209H691V305H697ZM820 105V203H826V105H820ZM772 108H823V102H772V108ZM775 203V105H769V203H775ZM823 200H772V206H823V200ZM763 105V203H769V105H763ZM716 108H766V102H716V108ZM719 203V105H713V203H719ZM766 200H716V206H766V200ZM642.125 108H694V102H642.125V108ZM645.125 203V105H639.125V203H645.125ZM694 200H642.125V206H694V200ZM691 105V203H697V105H691ZM529 206H579.125V200H529V206ZM526 105V203H532V105H526ZM579.125 102H529V108H579.125V102ZM582.125 203V105H576.125V203H582.125ZM585.125 206H636.125V200H585.125V206ZM582.125 105V203H588.125V105H582.125ZM636.125 102H585.125V108H636.125V102ZM639.125 203V105H633.125V203H639.125ZM510 203V105H504V203H510ZM455 206H507V200H455V206ZM452 105V203H458V105H452ZM507 102H455V108H507V102ZM446 105V203H452V105H446ZM398 108H449V102H398V108ZM401 203V105H395V203H401ZM449 200H398V206H449V200ZM389 105V203H395V105H389ZM342 108H392V102H342V108ZM345 203V105H339V203H345ZM392 200H342V206H392V200ZM268 108H320V102H268V108ZM271 203V105H265V203H271ZM320 200H268V206H320V200ZM317 105V203H323V105H317ZM155 206H205V200H155V206ZM152 105V203H158V105H152ZM205 102H155V108H205V102ZM208 203V105H202V203H208ZM211 206H262V200H211V206ZM208 105V203H214V105H208ZM262 102H211V108H262V102ZM265 203V105H259V203H265Z" fill="#B19477" mask="url(#path-17-outside-1_280_2268)"/>
</g>
<defs>
<linearGradient id="paint0_linear_280_2268" x1="536.347" y1="563" x2="536.347" y2="-3.89319e-06" gradientUnits="userSpaceOnUse">
<stop stop-color="#FFF2CF"/>
<stop offset="1" stop-color="#E2C0A2"/>
</linearGradient>
</defs>
</svg>
