<svg width="1033" height="632" viewBox="0 0 1033 632" fill="none" xmlns="http://www.w3.org/2000/svg">
<mask id="mask0_280_2268" style="mask-type:alpha" maskUnits="userSpaceOnUse" x="0" y="0" width="1032" height="632">
<path d="M31.6133 17.243C32.1102 7.57999 40.09 0 49.7658 0H1013.36C1023.77 0 1032.05 8.71841 1031.52 19.1099L1000.89 614.757C1000.39 624.42 992.41 632 982.734 632H19.1352C8.72991 632 0.448336 623.282 0.982711 612.89L31.6133 17.243Z" fill="#FF0000"/>
</mask>
<g mask="url(#mask0_280_2268)">
<rect x="-18" width="1072" height="563" fill="url(#paint0_linear_280_2268)"/>
<path d="M337.639 11.7174C338.305 10.0291 340.695 10.0291 341.361 11.7174L343 15.8736C343.203 16.389 343.611 16.797 344.126 17.0003L348.283 18.6395C349.971 19.3053 349.971 21.6947 348.283 22.3605L344.126 23.9997C343.611 24.203 343.203 24.611 343 25.1264L341.361 29.2826C340.695 30.9709 338.305 30.9709 337.639 29.2826L336 25.1264C335.797 24.611 335.389 24.203 334.874 23.9997L330.717 22.3605C329.029 21.6947 329.029 19.3053 330.717 18.6395L334.874 17.0003C335.389 16.797 335.797 16.389 336 15.8736L337.639 11.7174Z" fill="#FCFCFC"/>
<path d="M200.639 132.717C201.305 131.029 203.695 131.029 204.361 132.717L206 136.874C206.203 137.389 206.611 137.797 207.126 138L211.283 139.639C212.971 140.305 212.971 142.695 211.283 143.361L207.126 145C206.611 145.203 206.203 145.611 206 146.126L204.361 150.283C203.695 151.971 201.305 151.971 200.639 150.283L199 146.126C198.797 145.611 198.389 145.203 197.874 145L193.717 143.361C192.029 142.695 192.029 140.305 193.717 139.639L197.874 138C198.389 137.797 198.797 137.389 199 136.874L200.639 132.717Z" fill="#FCFCFC"/>
<path d="M59.6395 66.7174C60.3053 65.0291 62.6947 65.0291 63.3605 66.7174L64.9997 70.8736C65.203 71.389 65.611 71.797 66.1264 72.0003L70.2826 73.6395C71.9709 74.3053 71.9709 76.6947 70.2826 77.3605L66.1264 78.9997C65.611 79.203 65.203 79.611 64.9997 80.1264L63.3605 84.2826C62.6947 85.9709 60.3053 85.9709 59.6395 84.2826L58.0003 80.1264C57.797 79.611 57.389 79.203 56.8736 78.9997L52.7174 77.3605C51.0291 76.6947 51.0291 74.3053 52.7174 73.6395L56.8736 72.0003C57.389 71.797 57.797 71.389 58.0003 70.8736L59.6395 66.7174Z" fill="#FCFCFC"/>
<path d="M599.639 58.7174C600.305 57.0291 602.695 57.0291 603.361 58.7174L605 62.8736C605.203 63.389 605.611 63.797 606.126 64.0003L610.283 65.6395C611.971 66.3053 611.971 68.6947 610.283 69.3605L606.126 70.9997C605.611 71.203 605.203 71.611 605 72.1264L603.361 76.2826C602.695 77.9709 600.305 77.9709 599.639 76.2826L598 72.1264C597.797 71.611 597.389 71.203 596.874 70.9997L592.717 69.3605C591.029 68.6947 591.029 66.3053 592.717 65.6395L596.874 64.0003C597.389 63.797 597.797 63.389 598 62.8736L599.639 58.7174Z" fill="#FCFCFC"/>
<path d="M214.053 47.6691C214.571 46.356 216.429 46.356 216.947 47.6691L218.222 50.9017C218.38 51.3026 218.697 51.6199 219.098 51.778L222.331 53.0529C223.644 53.5708 223.644 55.4292 222.331 55.9471L219.098 57.222C218.697 57.3801 218.38 57.6974 218.222 58.0983L216.947 61.3309C216.429 62.644 214.571 62.644 214.053 61.3309L212.778 58.0983C212.62 57.6974 212.303 57.3801 211.902 57.222L208.669 55.9471C207.356 55.4292 207.356 53.5708 208.669 53.0529L211.902 51.778C212.303 51.6199 212.62 51.3026 212.778 50.9017L214.053 47.6691Z" fill="#FCFCFC"/>
<path d="M484.639 42.7174C485.305 41.0291 487.695 41.0291 488.361 42.7174L490 46.8736C490.203 47.389 490.611 47.797 491.126 48.0003L495.283 49.6395C496.971 50.3053 496.971 52.6947 495.283 53.3605L491.126 54.9997C490.611 55.203 490.203 55.611 490 56.1264L488.361 60.2826C487.695 61.9709 485.305 61.9709 484.639 60.2826L483 56.1264C482.797 55.611 482.389 55.203 481.874 54.9997L477.717 53.3605C476.029 52.6947 476.029 50.3053 477.717 49.6395L481.874 48.0003C482.389 47.797 482.797 47.389 483 46.8736L484.639 42.7174Z" fill="#FCFCFC"/>
<path d="M382.639 93.7174C383.305 92.0291 385.695 92.0291 386.361 93.7174L388 97.8736C388.203 98.389 388.611 98.797 389.126 99.0003L393.283 100.639C394.971 101.305 394.971 103.695 393.283 104.361L389.126 106C388.611 106.203 388.203 106.611 388 107.126L386.361 111.283C385.695 112.971 383.305 112.971 382.639 111.283L381 107.126C380.797 106.611 380.389 106.203 379.874 106L375.717 104.361C374.029 103.695 374.029 101.305 375.717 100.639L379.874 99.0003C380.389 98.797 380.797 98.389 381 97.8736L382.639 93.7174Z" fill="#FCFCFC"/>
<path d="M854.639 92.7174C855.305 91.0291 857.695 91.0291 858.361 92.7174L860 96.8736C860.203 97.389 860.611 97.797 861.126 98.0003L865.283 99.6395C866.971 100.305 866.971 102.695 865.283 103.361L861.126 105C860.611 105.203 860.203 105.611 860 106.126L858.361 110.283C857.695 111.971 855.305 111.971 854.639 110.283L853 106.126C852.797 105.611 852.389 105.203 851.874 105L847.717 103.361C846.029 102.695 846.029 100.305 847.717 99.6395L851.874 98.0003C852.389 97.797 852.797 97.389 853 96.8736L854.639 92.7174Z" fill="#FCFCFC"/>
<path d="M986.639 42.7174C987.305 41.0291 989.695 41.0291 990.361 42.7174L992 46.8736C992.203 47.389 992.611 47.797 993.126 48.0003L997.283 49.6395C998.971 50.3053 998.971 52.6947 997.283 53.3605L993.126 54.9997C992.611 55.203 992.203 55.611 992 56.1264L990.361 60.2826C989.695 61.9709 987.305 61.9709 986.639 60.2826L985 56.1264C984.797 55.611 984.389 55.203 983.874 54.9997L979.717 53.3605C978.029 52.6947 978.029 50.3053 979.717 49.6395L983.874 48.0003C984.389 47.797 984.797 47.389 985 46.8736L986.639 42.7174Z" fill="#FCFCFC"/>
<path d="M961.692 290.387C962.876 287.385 967.124 287.385 968.308 290.387L971.222 297.775C971.583 298.692 972.308 299.417 973.225 299.778L980.613 302.692C983.615 303.876 983.615 308.124 980.613 309.308L973.225 312.222C972.308 312.583 971.583 313.308 971.222 314.225L968.308 321.613C967.124 324.615 962.876 324.615 961.692 321.613L958.778 314.225C958.417 313.308 957.692 312.583 956.775 312.222L949.387 309.308C946.385 308.124 946.385 303.876 949.387 302.692L956.775 299.778C957.692 299.417 958.417 298.692 958.778 297.775L961.692 290.387Z" fill="#FCFCFC"/>
<path d="M546.106 110.338C547.142 107.712 550.858 107.712 551.894 110.338L554.444 116.803C554.76 117.605 555.395 118.24 556.197 118.556L562.662 121.106C565.288 122.142 565.288 125.858 562.662 126.894L556.197 129.444C555.395 129.76 554.76 130.395 554.444 131.197L551.894 137.662C550.858 140.288 547.142 140.288 546.106 137.662L543.556 131.197C543.24 130.395 542.605 129.76 541.803 129.444L535.338 126.894C532.712 125.858 532.712 122.142 535.338 121.106L541.803 118.556C542.605 118.24 543.24 117.605 543.556 116.803L546.106 110.338Z" fill="#FCFCFC"/>
<path d="M799.106 33.3382C800.142 30.712 803.858 30.712 804.894 33.3382L807.444 39.8033C807.76 40.6051 808.395 41.2398 809.197 41.556L815.662 44.1058C818.288 45.1416 818.288 48.8584 815.662 49.8942L809.197 52.444C808.395 52.7602 807.76 53.3949 807.444 54.1967L804.894 60.6618C803.858 63.288 800.142 63.288 799.106 60.6618L796.556 54.1967C796.24 53.3949 795.605 52.7602 794.803 52.444L788.338 49.8942C785.712 48.8584 785.712 45.1416 788.338 44.1058L794.803 41.556C795.605 41.2398 796.24 40.6051 796.556 39.8033L799.106 33.3382Z" fill="#FCFCFC"/>
<path d="M58.2789 317.435C59.6106 314.058 64.3894 314.058 65.7211 317.435L68.9994 325.747C69.4059 326.778 70.222 327.594 71.2529 328.001L79.5651 331.279C82.9417 332.611 82.9417 337.389 79.5651 338.721L71.2529 341.999C70.222 342.406 69.4059 343.222 68.9994 344.253L65.7211 352.565C64.3894 355.942 59.6106 355.942 58.2789 352.565L55.0006 344.253C54.5941 343.222 53.778 342.406 52.7471 341.999L44.4349 338.721C41.0583 337.389 41.0583 332.611 44.4349 331.279L52.7471 328.001C53.778 327.594 54.5941 326.778 55.0006 325.747L58.2789 317.435Z" fill="#FCFCFC"/>
<mask id="mask1_280_2268" style="mask-type:alpha" maskUnits="userSpaceOnUse" x="193" y="26" width="650" height="650">
<path fill-rule="evenodd" clip-rule="evenodd" d="M518 676C697.493 676 843 530.493 843 351C843 171.507 697.493 26 518 26C338.507 26 193 171.507 193 351C193 530.493 338.507 676 518 676ZM518.5 613C663.475 613 781 495.475 781 350.5C781 205.525 663.475 88 518.5 88C373.525 88 256 205.525 256 350.5C256 495.475 373.525 613 518.5 613Z" fill="#F555AC"/>
</mask>
<g mask="url(#mask1_280_2268)">
<circle cx="518" cy="351" r="325" fill="#EF6B8A"/>
<circle cx="518.5" cy="350.5" r="312.5" fill="#FF9E58"/>
<circle cx="518" cy="351" r="300" fill="#FFDE87"/>
<circle cx="518.5" cy="350.5" r="287.5" fill="#B8DE67"/>
<circle cx="518" cy="351" r="275" fill="#786CFF"/>
</g>
</g>
<defs>
<linearGradient id="paint0_linear_280_2268" x1="532.5" y1="0" x2="532.5" y2="575.412" gradientUnits="userSpaceOnUse">
<stop stop-color="#9389FF"/>
<stop offset="1" stop-color="#D8F3FF"/>
</linearGradient>
</defs>
</svg>
